<?xml version="1.0" encoding="UTF-8" standalone="no"?>
<!-- Created with Inkscape (http://www.inkscape.org/) -->

<svg
   xmlns:dc="http://purl.org/dc/elements/1.1/"
   xmlns:cc="http://creativecommons.org/ns#"
   xmlns:rdf="http://www.w3.org/1999/02/22-rdf-syntax-ns#"
   xmlns:svg="http://www.w3.org/2000/svg"
   xmlns="http://www.w3.org/2000/svg"
   xmlns:sodipodi="http://sodipodi.sourceforge.net/DTD/sodipodi-0.dtd"
   xmlns:inkscape="http://www.inkscape.org/namespaces/inkscape"
   width="400"
   height="84"
   viewBox="0 0 105.83333 22.225"
   version="1.1"
   id="svg8"
   inkscape:version="0.92.4 (5da689c313, 2019-01-14)"
   sodipodi:docname="desc_perc_tstorms.svg">
  <defs
     id="defs2">
    <filter
       inkscape:collect="always"
       style="color-interpolation-filters:sRGB"
       id="filter1211"
       x="-0.019446287"
       width="1.0388926"
       y="-0.12345511"
       height="1.2469102">
      <feGaussianBlur
         inkscape:collect="always"
         stdDeviation="0.57122783"
         id="feGaussianBlur1213" />
    </filter>
  </defs>
  <sodipodi:namedview
     id="base"
     pagecolor="#ffffff"
     bordercolor="#666666"
     borderopacity="1.0"
     inkscape:pageopacity="0.0"
     inkscape:pageshadow="2"
     inkscape:zoom="1.5457977"
     inkscape:cx="223.90208"
     inkscape:cy="55.949332"
     inkscape:document-units="px"
     inkscape:current-layer="layer2"
     showgrid="false"
     inkscape:window-width="1366"
     inkscape:window-height="715"
     inkscape:window-x="-8"
     inkscape:window-y="-8"
     inkscape:window-maximized="1"
     showguides="true"
     inkscape:guide-bbox="true"
     units="px"
     inkscape:lockguides="false"
     inkscape:snap-center="true"
     inkscape:snap-global="false">
    <sodipodi:guide
       position="52.916666,11.1125"
       orientation="1,0"
       id="guide825"
       inkscape:locked="false"
       inkscape:label=""
       inkscape:color="rgb(0,0,255)" />
    <sodipodi:guide
       position="52.916666,11.1125"
       orientation="0,1"
       id="guide827"
       inkscape:locked="false"
       inkscape:label=""
       inkscape:color="rgb(0,0,255)" />
  </sodipodi:namedview>
  <metadata
     id="metadata5">
    <rdf:RDF>
      <cc:Work
         rdf:about="">
        <dc:format>image/svg+xml</dc:format>
        <dc:type
           rdf:resource="http://purl.org/dc/dcmitype/StillImage" />
        <dc:title />
      </cc:Work>
    </rdf:RDF>
  </metadata>
  <g
     inkscape:groupmode="layer"
     id="layer2"
     inkscape:label="shadow"
     style="display:inline">
    <g
       aria-label="THUNDER"
       transform="matrix(0.69693128,0,0,1.2965701,-0.83439401,0.42529093)"
       style="font-style:italic;font-variant:normal;font-weight:900;font-stretch:normal;font-size:15.33558369px;line-height:1.53355825px;font-family:'Segoe UI';-inkscape-font-specification:'Segoe UI Heavy Italic';font-variant-ligatures:normal;font-variant-caps:normal;font-variant-numeric:normal;font-feature-settings:normal;text-align:center;writing-mode:lr-tb;text-anchor:middle;display:inline;opacity:1;fill:#000000;fill-opacity:1;stroke:#000000;stroke-width:0.5566721;stroke-linecap:square;stroke-linejoin:miter;stroke-miterlimit:4;stroke-dasharray:none;stroke-dashoffset:0;stroke-opacity:1;paint-order:normal;filter:url(#filter1211)"
       id="text1155-2-0">
      <path
         d="M 12.379083,5.7970081 H 9.338923 L 7.609177,14.003942 H 4.3593512 L 6.0890972,5.7970081 H 3.0863779 L 3.6180314,3.2660377 h 9.2927046 z"
         style="font-style:italic;font-variant:normal;font-weight:900;font-stretch:normal;font-family:'Segoe UI';-inkscape-font-specification:'Segoe UI Heavy Italic';letter-spacing:-0.5639022px;fill:#000000;stroke-width:0.5566721"
         id="path836"
         inkscape:connector-curvature="0" />
      <path
         d="m 21.564659,14.003942 h -3.257314 l 0.861129,-4.0061222 h -3.714087 l -0.853641,4.0061222 h -3.23485 L 13.64976,3.2660377 h 3.23485 l -0.846153,3.9761694 h 3.714087 l 0.846152,-3.9761694 h 3.249826 z"
         style="font-style:italic;font-variant:normal;font-weight:900;font-stretch:normal;font-family:'Segoe UI';-inkscape-font-specification:'Segoe UI Heavy Italic';letter-spacing:-0.5639022px;fill:#000000;stroke-width:0.5566721"
         id="path838"
         inkscape:connector-curvature="0" />
      <path
         d="m 28.017085,14.191143 q -1.999316,0 -3.070111,-0.958473 -1.070796,-0.958474 -1.070796,-2.785566 0,-0.6814146 0.262083,-1.9918282 l 1.100748,-5.1892381 h 3.257313 l -1.123211,5.2191904 q -0.08986,0.4492846 -0.179714,0.8611289 -0.08237,0.4118443 -0.08237,0.718856 0,0.643974 0.329475,1.003402 0.336964,0.359428 0.943498,0.359428 0.70388,0 1.123212,-0.486725 0.42682,-0.486725 0.658951,-1.5874729 l 1.302925,-6.0878074 h 3.249826 l -1.332878,6.2750094 q -0.404356,1.8345789 -1.078283,2.8005409 -0.666439,0.965962 -1.722258,1.407759 -1.048331,0.441796 -2.568411,0.441796 z"
         style="font-style:italic;font-variant:normal;font-weight:900;font-stretch:normal;font-family:'Segoe UI';-inkscape-font-specification:'Segoe UI Heavy Italic';letter-spacing:-0.5639022px;fill:#000000;stroke-width:0.5566721"
         id="path840"
         inkscape:connector-curvature="0" />
      <path
         d="M 44.421168,14.003942 H 41.875222 L 38.760181,8.7473108 Q 38.333361,8.0059911 38.206063,7.6390753 h -0.02995 Q 38.041326,8.5451327 37.839148,9.4212378 L 36.858209,14.003942 H 33.870466 L 36.139354,3.2660377 h 2.793053 l 3.002719,4.98706 q 0.09735,0.1422734 0.254595,0.4717489 0.164738,0.3219873 0.23213,0.5541177 h 0.03744 q 0.02246,-0.2770588 0.08986,-0.58407 l 1.145676,-5.4288566 h 2.995231 z"
         style="font-style:italic;font-variant:normal;font-weight:900;font-stretch:normal;font-family:'Segoe UI';-inkscape-font-specification:'Segoe UI Heavy Italic';letter-spacing:-0.5639022px;fill:#000000;stroke-width:0.5566721"
         id="path842"
         inkscape:connector-curvature="0" />
      <path
         d="m 57.448126,7.6240991 q 0,1.9094599 -0.801224,3.3846109 -0.793736,1.475152 -2.238935,2.238936 -1.437711,0.756296 -3.407076,0.756296 H 45.991367 L 48.260255,3.2660377 h 4.275692 q 2.426137,0 3.669158,1.145676 1.243021,1.1456759 1.243021,3.2123854 z m -3.437027,0.2471066 q 0,-1.0408429 -0.54663,-1.5575202 -0.54663,-0.5166774 -1.67733,-0.5166774 h -0.831176 l -1.190605,5.6759629 h 1.085772 q 1.482639,0 2.321304,-0.965962 0.838665,-0.97345 0.838665,-2.6358033 z"
         style="font-style:italic;font-variant:normal;font-weight:900;font-stretch:normal;font-family:'Segoe UI';-inkscape-font-specification:'Segoe UI Heavy Italic';letter-spacing:-0.5639022px;fill:#000000;stroke-width:0.5566721"
         id="path844"
         inkscape:connector-curvature="0" />
      <path
         d="m 65.765083,5.7970081 h -3.452004 l -0.321987,1.5650083 h 3.23485 l -0.531654,2.5309703 h -3.234849 l -0.336964,1.5799843 h 3.691623 l -0.539142,2.530971 H 57.348484 L 59.617371,3.2660377 h 6.686854 z"
         style="font-style:italic;font-variant:normal;font-weight:900;font-stretch:normal;font-family:'Segoe UI';-inkscape-font-specification:'Segoe UI Heavy Italic';letter-spacing:-0.5639022px;fill:#000000;stroke-width:0.5566721"
         id="path846"
         inkscape:connector-curvature="0" />
      <path
         d="m 75.519756,6.0441147 q 0,1.2205567 -0.846153,2.0891737 -0.838665,0.8686171 -2.238935,1.1157236 v 0.029952 q 1.175628,0.4343086 1.490127,1.916948 l 0.599047,2.80803 H 71.086814 L 70.689946,11.615245 Q 70.570136,10.941318 70.248149,10.589378 69.93365,10.22995 69.319627,10.22995 h -0.02995 l -0.793736,3.773992 h -3.23485 L 67.529977,3.2660377 h 4.215788 q 1.782162,0 2.778077,0.7263436 0.995914,0.7263436 0.995914,2.0517334 z m -3.452004,0.5990462 q 0,-0.5391416 -0.299523,-0.8386647 Q 71.476194,5.504973 70.884636,5.504973 h -0.576582 l -0.554118,2.4560896 h 0.718855 q 0.726344,0 1.160652,-0.381892 0.434309,-0.3818919 0.434309,-0.9360097 z"
         style="font-style:italic;font-variant:normal;font-weight:900;font-stretch:normal;font-family:'Segoe UI';-inkscape-font-specification:'Segoe UI Heavy Italic';letter-spacing:-0.5639022px;fill:#000000;stroke-width:0.5566721"
         id="path848"
         inkscape:connector-curvature="0" />
    </g>
  </g>
  <g
     inkscape:groupmode="layer"
     id="layer1"
     inkscape:label="text"
     style="display:inline">
    <g
       aria-label="THUNDER"
       transform="scale(0.73315701,1.3639643)"
       style="font-style:italic;font-variant:normal;font-weight:bold;font-stretch:normal;font-size:14.57784271px;line-height:1.4577843px;font-family:'Segoe UI';-inkscape-font-specification:'Segoe UI Bold Italic';font-variant-ligatures:normal;font-variant-caps:normal;font-variant-numeric:normal;font-feature-settings:normal;text-align:center;writing-mode:lr-tb;text-anchor:middle;display:inline;opacity:1;fill:#aa0000;fill-opacity:1;stroke:#000000;stroke-width:0.52916664;stroke-linecap:square;stroke-linejoin:miter;stroke-miterlimit:4;stroke-dasharray:none;stroke-dashoffset:0;stroke-opacity:1;paint-order:normal"
       id="text1155-2">
      <path
         d="M 9.9822839,5.4313387 H 7.0923405 L 5.4480623,13.232762 H 2.3588125 L 4.0030906,5.4313387 H 1.1487376 L 1.6541218,3.0254252 h 8.8335462 z"
         style="font-style:italic;font-variant:normal;font-weight:900;font-stretch:normal;font-family:'Segoe UI';-inkscape-font-specification:'Segoe UI Heavy Italic';letter-spacing:-0.53603947px;fill:#aa0000;stroke-width:0.52916664"
         id="path821"
         inkscape:connector-curvature="0" />
      <path
         d="m 18.713995,13.232762 h -3.096368 l 0.81858,-3.8081763 H 12.905635 L 12.094173,13.232762 H 9.0191598 L 11.190176,3.0254252 h 3.075014 l -0.804344,3.7797043 h 3.530572 l 0.804343,-3.7797043 h 3.08925 z"
         style="font-style:italic;font-variant:normal;font-weight:900;font-stretch:normal;font-family:'Segoe UI';-inkscape-font-specification:'Segoe UI Heavy Italic';letter-spacing:-0.53603947px;fill:#aa0000;stroke-width:0.52916664"
         id="path823"
         inkscape:connector-curvature="0" />
      <path
         d="m 24.847603,13.410715 q -1.90053,0 -2.918416,-0.911116 Q 20.9113,11.588484 20.9113,9.8516709 q 0,-0.647746 0.249133,-1.8934112 L 22.206792,3.0254252 H 25.30316 L 24.235447,7.986732 q -0.08542,0.4270853 -0.170834,0.8185801 -0.0783,0.3914948 -0.0783,0.6833363 0,0.6121556 0.313196,0.9538236 0.320314,0.341668 0.896879,0.341668 0.6691,0 1.067713,-0.462675 0.405731,-0.462676 0.626392,-1.5090349 L 28.12904,3.0254252 h 3.08925 l -1.26702,5.9649571 q -0.384376,1.7439317 -1.025004,2.6621647 -0.63351,0.918233 -1.63716,1.3382 -0.996533,0.419968 -2.441503,0.419968 z"
         style="font-style:italic;font-variant:normal;font-weight:900;font-stretch:normal;font-family:'Segoe UI';-inkscape-font-specification:'Segoe UI Heavy Italic';letter-spacing:-0.53603947px;fill:#aa0000;stroke-width:0.52916664"
         id="path825"
         inkscape:connector-curvature="0" />
      <path
         d="m 40.441148,13.232762 h -2.42015 L 35.059874,8.2358651 Q 34.654143,7.5311744 34.533135,7.1823882 h -0.02847 Q 34.376537,8.0436767 34.184349,8.8764929 L 33.25188,13.232762 h -2.840117 l 2.15678,-10.2073368 h 2.655047 l 2.854353,4.7406461 q 0.09254,0.1352437 0.242015,0.4484395 0.156598,0.3060778 0.22066,0.5267385 h 0.03559 q 0.02135,-0.2633693 0.08542,-0.5552108 l 1.089067,-5.1606133 h 2.847235 z"
         style="font-style:italic;font-variant:normal;font-weight:900;font-stretch:normal;font-family:'Segoe UI';-inkscape-font-specification:'Segoe UI Heavy Italic';letter-spacing:-0.53603947px;fill:#aa0000;stroke-width:0.52916664"
         id="path827"
         inkscape:connector-curvature="0" />
      <path
         d="m 52.824435,7.168152 q 0,1.8151122 -0.761635,3.217375 -0.754517,1.402264 -2.128308,2.128309 -1.366673,0.718926 -3.23873,0.718926 h -4.762 l 2.15678,-10.2073368 h 4.064428 q 2.30626,0 3.487863,1.0890674 1.181602,1.0890673 1.181602,3.0536594 z m -3.267202,0.2348969 q 0,-0.9894142 -0.51962,-1.4805622 -0.51962,-0.491148 -1.594452,-0.491148 H 46.653054 L 45.521278,10.826849 H 46.5534 q 1.409382,0 2.206607,-0.9182334 0.797226,-0.9253514 0.797226,-2.5055667 z"
         style="font-style:italic;font-variant:normal;font-weight:900;font-stretch:normal;font-family:'Segoe UI';-inkscape-font-specification:'Segoe UI Heavy Italic';letter-spacing:-0.53603947px;fill:#aa0000;stroke-width:0.52916664"
         id="path829"
         inkscape:connector-curvature="0" />
      <path
         d="m 60.730448,5.4313387 h -3.281439 l -0.306077,1.4876802 h 3.075013 l -0.505384,2.4059135 h -3.075014 l -0.320314,1.5019166 h 3.509217 l -0.512502,2.405913 H 52.729717 L 54.886498,3.0254252 h 6.356452 z"
         style="font-style:italic;font-variant:normal;font-weight:900;font-stretch:normal;font-family:'Segoe UI';-inkscape-font-specification:'Segoe UI Heavy Italic';letter-spacing:-0.53603947px;fill:#aa0000;stroke-width:0.52916664"
         id="path831"
         inkscape:connector-curvature="0" />
      <path
         d="m 70.003134,5.6662356 q 0,1.1602482 -0.804344,1.9859463 -0.797226,0.8256981 -2.128308,1.060595 v 0.028472 q 1.11754,0.412849 1.416499,1.8222311 l 0.569447,2.669282 H 65.789226 L 65.411968,10.962093 Q 65.298078,10.321465 64.992001,9.9869145 64.693041,9.6452464 64.109358,9.6452464 h -0.02847 l -0.75452,3.5875156 H 60.251354 L 62.408135,3.0254252 h 4.007483 q 1.694105,0 2.64081,0.6904545 0.946706,0.6904544 0.946706,1.9503559 z m -3.281438,0.569447 q 0,-0.5125023 -0.284724,-0.7972258 -0.277605,-0.2847235 -0.839934,-0.2847235 h -0.548093 l -0.526738,2.3347326 h 0.683336 q 0.690455,0 1.103304,-0.3630224 0.412849,-0.3630225 0.412849,-0.8897609 z"
         style="font-style:italic;font-variant:normal;font-weight:900;font-stretch:normal;font-family:'Segoe UI';-inkscape-font-specification:'Segoe UI Heavy Italic';letter-spacing:-0.53603947px;fill:#aa0000;stroke-width:0.52916664"
         id="path833"
         inkscape:connector-curvature="0" />
    </g>
  </g>
</svg>
