<?xml version="1.0" encoding="UTF-8" standalone="no"?>
<!-- Created with Inkscape (http://www.inkscape.org/) -->

<svg
   xmlns:dc="http://purl.org/dc/elements/1.1/"
   xmlns:cc="http://creativecommons.org/ns#"
   xmlns:rdf="http://www.w3.org/1999/02/22-rdf-syntax-ns#"
   xmlns:svg="http://www.w3.org/2000/svg"
   xmlns="http://www.w3.org/2000/svg"
   xmlns:sodipodi="http://sodipodi.sourceforge.net/DTD/sodipodi-0.dtd"
   xmlns:inkscape="http://www.inkscape.org/namespaces/inkscape"
   width="400"
   height="84"
   viewBox="0 0 105.83333 22.225"
   version="1.1"
   id="svg8"
   inkscape:version="0.92.3 (2405546, 2018-03-11)"
   sodipodi:docname="desc_PM_inc_clouds.svg">
  <defs
     id="defs2">
    <inkscape:path-effect
       effect="envelope"
       id="path-effect4703"
       is_visible="true"
       yy="true"
       xx="true"
       bendpath1="M 4.4121094,8.1308594 H 172.26367"
       bendpath2="M 172.26367,8.1308594 V 38.384766"
       bendpath3="M 4.4121094,38.384766 H 172.26367"
       bendpath4="M 4.4121094,8.1308594 V 38.384766" />
    <inkscape:path-effect
       effect="bspline"
       id="path-effect4701"
       is_visible="true"
       weight="33.333333"
       steps="2"
       helper_size="0"
       apply_no_weight="true"
       apply_with_weight="true"
       only_selected="false" />
    <inkscape:path-effect
       effect="bounding_box"
       id="path-effect996"
       is_visible="true"
       linkedpath=""
       visualbounds="false" />
    <filter
       inkscape:collect="always"
       style="color-interpolation-filters:sRGB"
       id="filter1126"
       x="-0.075636152"
       width="1.1512723"
       y="-0.17488011"
       height="1.3497602">
      <feGaussianBlur
         inkscape:collect="always"
         stdDeviation="3.3996876"
         id="feGaussianBlur1128" />
    </filter>
    <filter
       inkscape:collect="always"
       style="color-interpolation-filters:sRGB"
       id="filter2563"
       x="-0.040954113"
       width="1.0819082"
       y="-0.24133579"
       height="1.4826716">
      <feGaussianBlur
         inkscape:collect="always"
         stdDeviation="3.0422294"
         id="feGaussianBlur2565" />
    </filter>
    <filter
       inkscape:collect="always"
       style="color-interpolation-filters:sRGB"
       id="filter2559"
       x="-0.026607057"
       width="1.0532141"
       y="-0.24133579"
       height="1.4826716">
      <feGaussianBlur
         inkscape:collect="always"
         stdDeviation="3.0422294"
         id="feGaussianBlur2561" />
    </filter>
  </defs>
  <sodipodi:namedview
     id="base"
     pagecolor="#ffffff"
     bordercolor="#666666"
     borderopacity="1.0"
     inkscape:pageopacity="0.0"
     inkscape:pageshadow="2"
     inkscape:zoom="2.1860882"
     inkscape:cx="193.03364"
     inkscape:cy="59.913313"
     inkscape:document-units="px"
     inkscape:current-layer="layer6"
     showgrid="false"
     inkscape:window-width="1366"
     inkscape:window-height="715"
     inkscape:window-x="-8"
     inkscape:window-y="-8"
     inkscape:window-maximized="1"
     showguides="true"
     inkscape:guide-bbox="true"
     units="px"
     inkscape:lockguides="false"
     inkscape:snap-center="true"
     inkscape:snap-global="false">
    <sodipodi:guide
       position="52.916666,11.1125"
       orientation="1,0"
       id="guide825"
       inkscape:locked="false"
       inkscape:label=""
       inkscape:color="rgb(0,0,255)" />
    <sodipodi:guide
       position="52.916666,11.1125"
       orientation="0,1"
       id="guide827"
       inkscape:locked="false"
       inkscape:label=""
       inkscape:color="rgb(0,0,255)" />
  </sodipodi:namedview>
  <metadata
     id="metadata5">
    <rdf:RDF>
      <cc:Work
         rdf:about="">
        <dc:format>image/svg+xml</dc:format>
        <dc:type
           rdf:resource="http://purl.org/dc/dcmitype/StillImage" />
        <dc:title></dc:title>
      </cc:Work>
    </rdf:RDF>
  </metadata>
  <g
     inkscape:groupmode="layer"
     id="layer2"
     inkscape:label="shadow"
     sodipodi:insensitive="true">
    <g
       aria-label="PM"
       transform="matrix(0.35140979,0,0,0.35140979,6.6892337,-0.41723316)"
       style="font-style:normal;font-weight:normal;font-size:40px;line-height:1.25;font-family:sans-serif;letter-spacing:0px;word-spacing:0px;fill:#000000;fill-opacity:1;stroke:#000000;filter:url(#filter1126)"
       id="flowRoot832-7">
      <path
         inkscape:connector-curvature="0"
         d="m 13.835938,10.357422 h 19.968749 q 7.34375,0 11.46875,3.375 4.15625,3.34375 4.15625,9.3125 0,3.65625 -1.375,6.96875 -1.375,3.28125 -3.9375,5.75 -2.78125,2.65625 -6.625,3.875 -3.84375,1.1875 -9.65625,1.1875 h -7.9375 l -3.125,16.1875 H 4.7421875 Z m 10.374999,8.71875 -2.5625,13.03125 h 6.65625 q 4.25,0 6.5,-2 2.25,-2 2.25,-5.8125 0,-2.53125 -1.625,-3.875 -1.59375,-1.34375 -4.625,-1.34375 z"
         style="font-style:italic;font-variant:normal;font-weight:bold;font-stretch:normal;font-size:64px;font-family:sans-serif;-inkscape-font-specification:'sans-serif Bold Italic';fill:#000000;stroke:#000000"
         id="path1056-7" />
      <path
         inkscape:connector-curvature="0"
         d="m 60.710937,10.357422 h 14.78125 l 6,24.78125 15.75,-24.78125 h 15.375003 l -9.09375,46.65625 H 92.117187 l 6.65625,-34.4375 -16.1875,25.46875 h -6.46875 l -6.4375,-25.46875 -6.65625,34.4375 h -11.40625 z"
         style="font-style:italic;font-variant:normal;font-weight:bold;font-stretch:normal;font-size:64px;font-family:sans-serif;-inkscape-font-specification:'sans-serif Bold Italic';fill:#000000;stroke:#000000"
         id="path1058-6" />
    </g>
  </g>
  <g
     inkscape:label="Layer 1"
     inkscape:groupmode="layer"
     id="layer1"
     transform="translate(0,-274.775)"
     sodipodi:insensitive="true">
    <g
       aria-label="PM"
       transform="matrix(0.3514098,0,0,0.3514098,5.1017336,273.8286)"
       style="font-style:normal;font-weight:normal;font-size:40px;line-height:1.25;font-family:sans-serif;letter-spacing:0px;word-spacing:0px;fill:#de8787;fill-opacity:1;stroke:#000000"
       id="flowRoot832">
      <path
         d="m 13.835938,10.357422 h 19.968749 q 7.34375,0 11.46875,3.375 4.15625,3.34375 4.15625,9.3125 0,3.65625 -1.375,6.96875 -1.375,3.28125 -3.9375,5.75 -2.78125,2.65625 -6.625,3.875 -3.84375,1.1875 -9.65625,1.1875 h -7.9375 l -3.125,16.1875 H 4.7421875 Z m 10.374999,8.71875 -2.5625,13.03125 h 6.65625 q 4.25,0 6.5,-2 2.25,-2 2.25,-5.8125 0,-2.53125 -1.625,-3.875 -1.59375,-1.34375 -4.625,-1.34375 z"
         style="font-style:italic;font-variant:normal;font-weight:bold;font-stretch:normal;font-size:64px;font-family:sans-serif;-inkscape-font-specification:'sans-serif Bold Italic';fill:#de8787;stroke:#000000"
         id="path1056"
         inkscape:connector-curvature="0" />
      <path
         d="m 60.710937,10.357422 h 14.78125 l 6,24.78125 15.75,-24.78125 h 15.375003 l -9.09375,46.65625 H 92.117187 l 6.65625,-34.4375 -16.1875,25.46875 h -6.46875 l -6.4375,-25.46875 -6.65625,34.4375 h -11.40625 z"
         style="font-style:italic;font-variant:normal;font-weight:bold;font-stretch:normal;font-size:64px;font-family:sans-serif;-inkscape-font-specification:'sans-serif Bold Italic';fill:#de8787;stroke:#000000"
         id="path1058"
         inkscape:connector-curvature="0" />
    </g>
  </g>
  <g
     inkscape:groupmode="layer"
     id="layer6"
     inkscape:label="Layer 2">
    <g
       aria-label="INCREASING"
       transform="matrix(0.19905646,0,0,0.22906934,26.606185,2.6627826)"
       style="font-style:normal;font-weight:normal;font-size:40px;line-height:1.25;font-family:sans-serif;letter-spacing:0px;word-spacing:0px;fill:#000000;fill-opacity:1;stroke:#000000;filter:url(#filter2559)"
       id="flowRoot851-5">
      <path
         inkscape:connector-curvature="0"
         d="m 116.66211,7.0820312 h 7.51953 l -5.68359,29.1601558 h -7.51953 z"
         style="font-style:italic;font-variant:normal;font-weight:bold;font-stretch:normal;font-family:sans-serif;-inkscape-font-specification:'sans-serif Bold Italic';fill:#000000;stroke:#000000"
         id="path842-3" />
      <path
         inkscape:connector-curvature="0"
         d="m 131.58398,7.0820312 h 8.39844 l 6.67969,20.1953128 3.92578,-20.1953128 h 7.10938 l -5.6836,29.1601558 h -8.39844 l -6.67968,-20.195312 -3.90625,20.195312 h -7.12891 z"
         style="font-style:italic;font-variant:normal;font-weight:bold;font-stretch:normal;font-family:sans-serif;-inkscape-font-specification:'sans-serif Bold Italic';fill:#000000;stroke:#000000"
         id="path844-0" />
      <path
         inkscape:connector-curvature="0"
         d="m 182.81445,34.875 q -2.69531,0.957031 -5.17578,1.445312 -2.48047,0.488282 -4.70703,0.488282 -5.87891,0 -9.39453,-3.222657 -3.51563,-3.222656 -3.51563,-8.535156 0,-3.496094 1.11329,-6.582031 1.11328,-3.105469 3.28125,-5.664062 2.55859,-3.007813 6.15234,-4.6289067 3.61328,-1.6210938 7.77344,-1.6210938 2.26562,0 4.55078,0.546875 2.28515,0.5273437 4.64844,1.6210938 l -1.21094,6.0351567 q -1.875,-1.425782 -3.76953,-2.089844 -1.89453,-0.664063 -4.0625,-0.664063 -4.51172,0 -7.5586,3.476563 -3.04687,3.476562 -3.04687,8.691406 0,3.359375 1.875,5.273437 1.875,1.914063 5.17578,1.914063 1.97266,0 4.17969,-0.703125 2.22656,-0.722656 4.98047,-2.246094 z"
         style="font-style:italic;font-variant:normal;font-weight:bold;font-stretch:normal;font-family:sans-serif;-inkscape-font-specification:'sans-serif Bold Italic';fill:#000000;stroke:#000000"
         id="path846-9" />
      <path
         inkscape:connector-curvature="0"
         d="m 202.63867,20.011719 q 2.5586,0 3.86719,-1.191407 1.32812,-1.191406 1.32812,-3.496093 0,-1.445313 -0.91796,-2.109375 -0.89844,-0.683594 -2.85157,-0.683594 h -3.10547 l -1.48437,7.480469 z m -4.16015,5.195312 -2.16797,11.035156 h -7.51953 l 5.68359,-29.1601558 h 11.11328 q 4.80469,0 7.28516,1.7968751 2.48047,1.7968747 2.48047,5.2929687 0,3.535156 -1.95313,5.820312 -1.95312,2.285157 -5.29297,2.617188 1.52344,0.3125 2.53906,1.5625 1.01563,1.230469 1.77735,3.789062 l 2.48047,8.28125 h -7.48047 l -2.1875,-7.246093 q -0.66406,-2.167969 -1.6211,-2.96875 -0.9375,-0.820313 -2.73437,-0.820313 z"
         style="font-style:italic;font-variant:normal;font-weight:bold;font-stretch:normal;font-family:sans-serif;-inkscape-font-specification:'sans-serif Bold Italic';fill:#000000;stroke:#000000"
         id="path848-0" />
      <path
         inkscape:connector-curvature="0"
         d="m 225.25586,7.0820312 h 20.27344 l -1.11328,5.6835938 h -12.75391 l -1.05469,5.429687 h 12.01172 l -1.13281,5.683594 h -11.99219 l -1.28906,6.679688 h 13.16406 l -1.07422,5.683593 h -20.72265 z"
         style="font-style:italic;font-variant:normal;font-weight:bold;font-stretch:normal;font-family:sans-serif;-inkscape-font-specification:'sans-serif Bold Italic';fill:#000000;stroke:#000000"
         id="path850-0" />
      <path
         inkscape:connector-curvature="0"
         d="m 265.72461,30.929687 h -11.64063 l -2.89062,5.3125 h -7.71484 L 259.96289,7.0820312 h 8.59375 l 5.15625,29.1601558 h -7.14844 z m -8.80859,-5.292968 h 7.83203 L 262.99023,14.40625 Z"
         style="font-style:italic;font-variant:normal;font-weight:bold;font-stretch:normal;font-family:sans-serif;-inkscape-font-specification:'sans-serif Bold Italic';fill:#000000;stroke:#000000"
         id="path852-7" />
      <path
         inkscape:connector-curvature="0"
         d="m 303.61523,8 -1.21093,6.171875 q -2.20703,-1.09375 -4.35547,-1.621094 -2.14844,-0.546875 -4.19922,-0.546875 -2.8125,0 -4.39453,0.878907 -1.5625,0.878906 -1.5625,2.441406 0,0.996093 0.68359,1.5625 0.70313,0.546875 2.8711,1.074218 l 3.08593,0.761719 q 3.86719,0.976563 5.66407,2.832031 1.8164,1.835938 1.8164,4.765625 0,4.746094 -3.61328,7.617188 -3.59375,2.871094 -9.66797,2.871094 -2.83203,0 -5.64453,-0.527344 -2.79297,-0.527344 -5.46875,-1.5625 l 1.19141,-6.347656 q 2.59765,1.503906 5.03906,2.246093 2.46094,0.742188 4.84375,0.742188 2.57812,0 4.17969,-1.054688 1.62109,-1.054687 1.62109,-2.695312 0,-1.074219 -0.72266,-1.660156 -0.72265,-0.605469 -3.16406,-1.230469 l -3.0664,-0.761719 q -3.39844,-0.839844 -5.0586,-2.65625 -1.66015,-1.816406 -1.66015,-4.707031 0,-4.550781 3.47656,-7.2851562 3.49609,-2.7539063 9.39453,-2.7539063 2.36328,0 4.84375,0.3710937 2.5,0.3515625 5.07812,1.0742188 z"
         style="font-style:italic;font-variant:normal;font-weight:bold;font-stretch:normal;font-family:sans-serif;-inkscape-font-specification:'sans-serif Bold Italic';fill:#000000;stroke:#000000"
         id="path854-0" />
      <path
         inkscape:connector-curvature="0"
         d="m 312.36523,7.0820312 h 7.51954 l -5.6836,29.1601558 h -7.51953 z"
         style="font-style:italic;font-variant:normal;font-weight:bold;font-stretch:normal;font-family:sans-serif;-inkscape-font-specification:'sans-serif Bold Italic';fill:#000000;stroke:#000000"
         id="path856-7" />
      <path
         inkscape:connector-curvature="0"
         d="m 327.28711,7.0820312 h 8.39844 l 6.67968,20.1953128 3.92579,-20.1953128 h 7.10937 L 347.7168,36.242187 h -8.39844 l -6.67969,-20.195312 -3.90625,20.195312 h -7.1289 z"
         style="font-style:italic;font-variant:normal;font-weight:bold;font-stretch:normal;font-family:sans-serif;-inkscape-font-specification:'sans-serif Bold Italic';fill:#000000;stroke:#000000"
         id="path858-6" />
      <path
         inkscape:connector-curvature="0"
         d="m 381.52539,34.074219 q -2.85156,1.386718 -5.91797,2.070312 -3.0664,0.664063 -6.5625,0.664063 -6.21094,0 -9.76562,-3.144532 -3.55469,-3.164062 -3.55469,-8.613281 0,-3.535156 1.11328,-6.621094 1.11328,-3.105468 3.32031,-5.664062 2.69532,-3.125 6.34766,-4.6679687 3.67187,-1.5429688 8.37891,-1.5429688 2.61718,0 5.27343,0.546875 2.65625,0.546875 5.23438,1.6210938 l -1.15235,6.0351567 q -2.38281,-1.386719 -4.66796,-2.070313 -2.26563,-0.683594 -4.57032,-0.683594 -5.03906,0 -8.20312,3.359375 -3.16406,3.359375 -3.16406,8.632813 0,3.496093 1.83593,5.429687 1.85547,1.933594 5.21485,1.933594 1.09375,0 2.1875,-0.136719 1.09375,-0.15625 2.20703,-0.46875 l 1.11328,-5.664062 h -4.58984 l 0.95703,-5.039063 h 11.67968 z"
         style="font-style:italic;font-variant:normal;font-weight:bold;font-stretch:normal;font-family:sans-serif;-inkscape-font-specification:'sans-serif Bold Italic';fill:#000000;stroke:#000000"
         id="path860-8" />
    </g>
    <g
       aria-label="CLOUDS"
       transform="matrix(0.19905646,0,0,0.22906934,23.919862,11.338517)"
       style="font-style:normal;font-weight:normal;font-size:40px;line-height:1.25;font-family:sans-serif;letter-spacing:0px;word-spacing:0px;fill:#000000;fill-opacity:1;stroke:#000000;filter:url(#filter2563)"
       id="flowRoot865-1">
      <path
         inkscape:connector-curvature="0"
         d="m 189.23633,34.875 q -2.69531,0.957031 -5.17578,1.445312 -2.48047,0.488282 -4.70703,0.488282 -5.87891,0 -9.39454,-3.222657 -3.51562,-3.222656 -3.51562,-8.535156 0,-3.496094 1.11328,-6.582031 1.11328,-3.105469 3.28125,-5.664062 2.55859,-3.007813 6.15234,-4.6289067 3.61329,-1.6210938 7.77344,-1.6210938 2.26563,0 4.55078,0.546875 2.28516,0.5273437 4.64844,1.6210938 l -1.21094,6.0351567 q -1.875,-1.425782 -3.76953,-2.089844 -1.89453,-0.664063 -4.0625,-0.664063 -4.51172,0 -7.55859,3.476563 -3.04688,3.476562 -3.04688,8.691406 0,3.359375 1.875,5.273437 1.875,1.914063 5.17578,1.914063 1.97266,0 4.17969,-0.703125 2.22656,-0.722656 4.98047,-2.246094 z"
         style="font-style:italic;font-variant:normal;font-weight:bold;font-stretch:normal;font-family:sans-serif;-inkscape-font-specification:'sans-serif Bold Italic';text-align:center;text-anchor:middle;fill:#000000;stroke:#000000"
         id="path829-7" />
      <path
         inkscape:connector-curvature="0"
         d="m 200.89648,7.0820312 h 7.51954 L 203.8457,30.558594 h 13.16407 l -1.07422,5.683593 h -20.72266 z"
         style="font-style:italic;font-variant:normal;font-weight:bold;font-stretch:normal;font-family:sans-serif;-inkscape-font-specification:'sans-serif Bold Italic';text-align:center;text-anchor:middle;fill:#000000;stroke:#000000"
         id="path831-8" />
      <path
         inkscape:connector-curvature="0"
         d="m 243.04492,19.035156 q 0,-3.4375 -1.5625,-5.234375 -1.54297,-1.796875 -4.49219,-1.796875 -3.90625,0 -6.5625,3.515625 -2.63671,3.496094 -2.63671,8.769531 0,3.359375 1.54296,5.214844 1.54297,1.855469 4.29688,1.855469 2.24609,0 3.98437,-0.9375 1.75782,-0.957031 2.98829,-2.8125 1.17187,-1.777344 1.79687,-4.003906 0.64453,-2.226563 0.64453,-4.570313 z M 238.08398,6.5546875 q 5.82032,0 9.35547,3.2421875 3.55469,3.222656 3.55469,8.4375 0,3.554687 -1.09375,6.71875 -1.07422,3.164062 -3.14453,5.683594 -2.53906,3.105468 -6.01563,4.648437 -3.45703,1.523438 -7.98828,1.523438 -5.80078,0 -9.33593,-3.222657 -3.53516,-3.222656 -3.53516,-8.457031 0,-3.574219 1.07422,-6.738281 1.07422,-3.164062 3.16406,-5.703125 2.5,-3.0859375 5.95703,-4.609375 3.47656,-1.5234375 8.00781,-1.5234375 z"
         style="font-style:italic;font-variant:normal;font-weight:bold;font-stretch:normal;font-family:sans-serif;-inkscape-font-specification:'sans-serif Bold Italic';text-align:center;text-anchor:middle;fill:#000000;stroke:#000000"
         id="path833-6" />
      <path
         inkscape:connector-curvature="0"
         d="m 258.94336,7.0820312 h 7.51953 l -3.39844,17.4609378 q -0.19531,0.9375 -0.29297,1.660156 -0.0781,0.722656 -0.0781,1.269531 0,1.914063 1.01562,2.871094 1.03516,0.9375 3.06641,0.9375 2.73438,0 4.19922,-1.523438 1.46484,-1.542968 2.16797,-5.195312 l 3.39844,-17.4804688 h 7.51953 L 280.66211,24.5625 q -1.26953,6.445312 -4.82422,9.355469 -3.53516,2.890625 -10.13672,2.890625 -5.17578,0 -7.87109,-2.207032 -2.69531,-2.226562 -2.69531,-6.445312 0,-0.703125 0.0976,-1.5625 0.0977,-0.878906 0.3125,-2.03125 z"
         style="font-style:italic;font-variant:normal;font-weight:bold;font-stretch:normal;font-family:sans-serif;-inkscape-font-specification:'sans-serif Bold Italic';text-align:center;text-anchor:middle;fill:#000000;stroke:#000000"
         id="path835-1" />
      <path
         inkscape:connector-curvature="0"
         d="m 297.88867,12.765625 -3.49609,17.792969 h 2.69531 q 5.25391,0 8.32031,-2.949219 3.06641,-2.949219 3.06641,-7.96875 0,-3.398438 -2.01172,-5.136719 -1.99219,-1.738281 -5.9375,-1.738281 z m -6.44531,-5.6835938 h 7.91016 q 5.66406,0 8.49609,0.6835938 2.83203,0.6640625 4.70703,2.246094 1.89453,1.582031 2.85156,3.847656 0.95703,2.246094 0.95703,5.097656 0,3.964844 -1.64062,7.480469 -1.62109,3.496094 -4.57031,5.878906 -2.57813,2.128906 -5.9961,3.027344 -3.39843,0.898437 -10.46875,0.898437 h -7.92968 z"
         style="font-style:italic;font-variant:normal;font-weight:bold;font-stretch:normal;font-family:sans-serif;-inkscape-font-specification:'sans-serif Bold Italic';text-align:center;text-anchor:middle;fill:#000000;stroke:#000000"
         id="path837-2" />
      <path
         inkscape:connector-curvature="0"
         d="m 344.72461,8 -1.21094,6.171875 q -2.20703,-1.09375 -4.35547,-1.621094 -2.14843,-0.546875 -4.19922,-0.546875 -2.8125,0 -4.39453,0.878907 -1.5625,0.878906 -1.5625,2.441406 0,0.996093 0.6836,1.5625 0.70312,0.546875 2.87109,1.074218 l 3.08594,0.761719 q 3.86719,0.976563 5.66406,2.832031 1.81641,1.835938 1.81641,4.765625 0,4.746094 -3.61328,7.617188 -3.59375,2.871094 -9.66797,2.871094 -2.83203,0 -5.64453,-0.527344 -2.79297,-0.527344 -5.46875,-1.5625 l 1.1914,-6.347656 q 2.59766,1.503906 5.03906,2.246093 2.46094,0.742188 4.84375,0.742188 2.57813,0 4.17969,-1.054688 1.6211,-1.054687 1.6211,-2.695312 0,-1.074219 -0.72266,-1.660156 -0.72266,-0.605469 -3.16406,-1.230469 l -3.06641,-0.761719 q -3.39844,-0.839844 -5.05859,-2.65625 -1.66016,-1.816406 -1.66016,-4.707031 0,-4.550781 3.47656,-7.2851562 3.4961,-2.7539063 9.39453,-2.7539063 2.36329,0 4.84375,0.3710937 2.5,0.3515625 5.07813,1.0742188 z"
         style="font-style:italic;font-variant:normal;font-weight:bold;font-stretch:normal;font-family:sans-serif;-inkscape-font-specification:'sans-serif Bold Italic';text-align:center;text-anchor:middle;fill:#000000;stroke:#000000"
         id="path839-7" />
    </g>
    <g
       aria-label="INCREASING"
       transform="matrix(0.19905646,0,0,0.22906934,26.077018,2.1336158)"
       style="font-style:normal;font-weight:normal;font-size:40px;line-height:1.25;font-family:sans-serif;letter-spacing:0px;word-spacing:0px;fill:#de8787;fill-opacity:1;stroke:#000000"
       id="flowRoot851">
      <path
         inkscape:connector-curvature="0"
         d="m 116.66211,7.0820312 h 7.51953 l -5.68359,29.1601558 h -7.51953 z"
         style="font-style:italic;font-variant:normal;font-weight:bold;font-stretch:normal;font-family:sans-serif;-inkscape-font-specification:'sans-serif Bold Italic';fill:#de8787;stroke:#000000;fill-opacity:1"
         id="path842" />
      <path
         inkscape:connector-curvature="0"
         d="m 131.58398,7.0820312 h 8.39844 l 6.67969,20.1953128 3.92578,-20.1953128 h 7.10938 l -5.6836,29.1601558 h -8.39844 l -6.67968,-20.195312 -3.90625,20.195312 h -7.12891 z"
         style="font-style:italic;font-variant:normal;font-weight:bold;font-stretch:normal;font-family:sans-serif;-inkscape-font-specification:'sans-serif Bold Italic';fill:#de8787;stroke:#000000;fill-opacity:1"
         id="path844" />
      <path
         inkscape:connector-curvature="0"
         d="m 182.81445,34.875 q -2.69531,0.957031 -5.17578,1.445312 -2.48047,0.488282 -4.70703,0.488282 -5.87891,0 -9.39453,-3.222657 -3.51563,-3.222656 -3.51563,-8.535156 0,-3.496094 1.11329,-6.582031 1.11328,-3.105469 3.28125,-5.664062 2.55859,-3.007813 6.15234,-4.6289067 3.61328,-1.6210938 7.77344,-1.6210938 2.26562,0 4.55078,0.546875 2.28515,0.5273437 4.64844,1.6210938 l -1.21094,6.0351567 q -1.875,-1.425782 -3.76953,-2.089844 -1.89453,-0.664063 -4.0625,-0.664063 -4.51172,0 -7.5586,3.476563 -3.04687,3.476562 -3.04687,8.691406 0,3.359375 1.875,5.273437 1.875,1.914063 5.17578,1.914063 1.97266,0 4.17969,-0.703125 2.22656,-0.722656 4.98047,-2.246094 z"
         style="font-style:italic;font-variant:normal;font-weight:bold;font-stretch:normal;font-family:sans-serif;-inkscape-font-specification:'sans-serif Bold Italic';fill:#de8787;stroke:#000000;fill-opacity:1"
         id="path846" />
      <path
         inkscape:connector-curvature="0"
         d="m 202.63867,20.011719 q 2.5586,0 3.86719,-1.191407 1.32812,-1.191406 1.32812,-3.496093 0,-1.445313 -0.91796,-2.109375 -0.89844,-0.683594 -2.85157,-0.683594 h -3.10547 l -1.48437,7.480469 z m -4.16015,5.195312 -2.16797,11.035156 h -7.51953 l 5.68359,-29.1601558 h 11.11328 q 4.80469,0 7.28516,1.7968751 2.48047,1.7968747 2.48047,5.2929687 0,3.535156 -1.95313,5.820312 -1.95312,2.285157 -5.29297,2.617188 1.52344,0.3125 2.53906,1.5625 1.01563,1.230469 1.77735,3.789062 l 2.48047,8.28125 h -7.48047 l -2.1875,-7.246093 q -0.66406,-2.167969 -1.6211,-2.96875 -0.9375,-0.820313 -2.73437,-0.820313 z"
         style="font-style:italic;font-variant:normal;font-weight:bold;font-stretch:normal;font-family:sans-serif;-inkscape-font-specification:'sans-serif Bold Italic';fill:#de8787;stroke:#000000;fill-opacity:1"
         id="path848" />
      <path
         inkscape:connector-curvature="0"
         d="m 225.25586,7.0820312 h 20.27344 l -1.11328,5.6835938 h -12.75391 l -1.05469,5.429687 h 12.01172 l -1.13281,5.683594 h -11.99219 l -1.28906,6.679688 h 13.16406 l -1.07422,5.683593 h -20.72265 z"
         style="font-style:italic;font-variant:normal;font-weight:bold;font-stretch:normal;font-family:sans-serif;-inkscape-font-specification:'sans-serif Bold Italic';fill:#de8787;stroke:#000000;fill-opacity:1"
         id="path850" />
      <path
         inkscape:connector-curvature="0"
         d="m 265.72461,30.929687 h -11.64063 l -2.89062,5.3125 h -7.71484 L 259.96289,7.0820312 h 8.59375 l 5.15625,29.1601558 h -7.14844 z m -8.80859,-5.292968 h 7.83203 L 262.99023,14.40625 Z"
         style="font-style:italic;font-variant:normal;font-weight:bold;font-stretch:normal;font-family:sans-serif;-inkscape-font-specification:'sans-serif Bold Italic';fill:#de8787;stroke:#000000;fill-opacity:1"
         id="path852" />
      <path
         inkscape:connector-curvature="0"
         d="m 303.61523,8 -1.21093,6.171875 q -2.20703,-1.09375 -4.35547,-1.621094 -2.14844,-0.546875 -4.19922,-0.546875 -2.8125,0 -4.39453,0.878907 -1.5625,0.878906 -1.5625,2.441406 0,0.996093 0.68359,1.5625 0.70313,0.546875 2.8711,1.074218 l 3.08593,0.761719 q 3.86719,0.976563 5.66407,2.832031 1.8164,1.835938 1.8164,4.765625 0,4.746094 -3.61328,7.617188 -3.59375,2.871094 -9.66797,2.871094 -2.83203,0 -5.64453,-0.527344 -2.79297,-0.527344 -5.46875,-1.5625 l 1.19141,-6.347656 q 2.59765,1.503906 5.03906,2.246093 2.46094,0.742188 4.84375,0.742188 2.57812,0 4.17969,-1.054688 1.62109,-1.054687 1.62109,-2.695312 0,-1.074219 -0.72266,-1.660156 -0.72265,-0.605469 -3.16406,-1.230469 l -3.0664,-0.761719 q -3.39844,-0.839844 -5.0586,-2.65625 -1.66015,-1.816406 -1.66015,-4.707031 0,-4.550781 3.47656,-7.2851562 3.49609,-2.7539063 9.39453,-2.7539063 2.36328,0 4.84375,0.3710937 2.5,0.3515625 5.07812,1.0742188 z"
         style="font-style:italic;font-variant:normal;font-weight:bold;font-stretch:normal;font-family:sans-serif;-inkscape-font-specification:'sans-serif Bold Italic';fill:#de8787;stroke:#000000;fill-opacity:1"
         id="path854" />
      <path
         inkscape:connector-curvature="0"
         d="m 312.36523,7.0820312 h 7.51954 l -5.6836,29.1601558 h -7.51953 z"
         style="font-style:italic;font-variant:normal;font-weight:bold;font-stretch:normal;font-family:sans-serif;-inkscape-font-specification:'sans-serif Bold Italic';fill:#de8787;stroke:#000000;fill-opacity:1"
         id="path856" />
      <path
         inkscape:connector-curvature="0"
         d="m 327.28711,7.0820312 h 8.39844 l 6.67968,20.1953128 3.92579,-20.1953128 h 7.10937 L 347.7168,36.242187 h -8.39844 l -6.67969,-20.195312 -3.90625,20.195312 h -7.1289 z"
         style="font-style:italic;font-variant:normal;font-weight:bold;font-stretch:normal;font-family:sans-serif;-inkscape-font-specification:'sans-serif Bold Italic';fill:#de8787;stroke:#000000;fill-opacity:1"
         id="path858" />
      <path
         inkscape:connector-curvature="0"
         d="m 381.52539,34.074219 q -2.85156,1.386718 -5.91797,2.070312 -3.0664,0.664063 -6.5625,0.664063 -6.21094,0 -9.76562,-3.144532 -3.55469,-3.164062 -3.55469,-8.613281 0,-3.535156 1.11328,-6.621094 1.11328,-3.105468 3.32031,-5.664062 2.69532,-3.125 6.34766,-4.6679687 3.67187,-1.5429688 8.37891,-1.5429688 2.61718,0 5.27343,0.546875 2.65625,0.546875 5.23438,1.6210938 l -1.15235,6.0351567 q -2.38281,-1.386719 -4.66796,-2.070313 -2.26563,-0.683594 -4.57032,-0.683594 -5.03906,0 -8.20312,3.359375 -3.16406,3.359375 -3.16406,8.632813 0,3.496093 1.83593,5.429687 1.85547,1.933594 5.21485,1.933594 1.09375,0 2.1875,-0.136719 1.09375,-0.15625 2.20703,-0.46875 l 1.11328,-5.664062 h -4.58984 l 0.95703,-5.039063 h 11.67968 z"
         style="font-style:italic;font-variant:normal;font-weight:bold;font-stretch:normal;font-family:sans-serif;-inkscape-font-specification:'sans-serif Bold Italic';fill:#de8787;stroke:#000000;fill-opacity:1"
         id="path860" />
    </g>
    <g
       aria-label="CLOUDS"
       transform="matrix(0.19905646,0,0,0.22906934,23.390697,10.80935)"
       style="font-style:normal;font-weight:normal;font-size:40px;line-height:1.25;font-family:sans-serif;letter-spacing:0px;word-spacing:0px;fill:#de8787;fill-opacity:1;stroke:#000000"
       id="flowRoot865">
      <path
         inkscape:connector-curvature="0"
         d="m 189.23633,34.875 q -2.69531,0.957031 -5.17578,1.445312 -2.48047,0.488282 -4.70703,0.488282 -5.87891,0 -9.39454,-3.222657 -3.51562,-3.222656 -3.51562,-8.535156 0,-3.496094 1.11328,-6.582031 1.11328,-3.105469 3.28125,-5.664062 2.55859,-3.007813 6.15234,-4.6289067 3.61329,-1.6210938 7.77344,-1.6210938 2.26563,0 4.55078,0.546875 2.28516,0.5273437 4.64844,1.6210938 l -1.21094,6.0351567 q -1.875,-1.425782 -3.76953,-2.089844 -1.89453,-0.664063 -4.0625,-0.664063 -4.51172,0 -7.55859,3.476563 -3.04688,3.476562 -3.04688,8.691406 0,3.359375 1.875,5.273437 1.875,1.914063 5.17578,1.914063 1.97266,0 4.17969,-0.703125 2.22656,-0.722656 4.98047,-2.246094 z"
         style="font-style:italic;font-variant:normal;font-weight:bold;font-stretch:normal;font-family:sans-serif;-inkscape-font-specification:'sans-serif Bold Italic';text-align:center;text-anchor:middle;fill:#de8787;stroke:#000000;fill-opacity:1"
         id="path829" />
      <path
         inkscape:connector-curvature="0"
         d="m 200.89648,7.0820312 h 7.51954 L 203.8457,30.558594 h 13.16407 l -1.07422,5.683593 h -20.72266 z"
         style="font-style:italic;font-variant:normal;font-weight:bold;font-stretch:normal;font-family:sans-serif;-inkscape-font-specification:'sans-serif Bold Italic';text-align:center;text-anchor:middle;fill:#de8787;stroke:#000000;fill-opacity:1"
         id="path831" />
      <path
         inkscape:connector-curvature="0"
         d="m 243.04492,19.035156 q 0,-3.4375 -1.5625,-5.234375 -1.54297,-1.796875 -4.49219,-1.796875 -3.90625,0 -6.5625,3.515625 -2.63671,3.496094 -2.63671,8.769531 0,3.359375 1.54296,5.214844 1.54297,1.855469 4.29688,1.855469 2.24609,0 3.98437,-0.9375 1.75782,-0.957031 2.98829,-2.8125 1.17187,-1.777344 1.79687,-4.003906 0.64453,-2.226563 0.64453,-4.570313 z M 238.08398,6.5546875 q 5.82032,0 9.35547,3.2421875 3.55469,3.222656 3.55469,8.4375 0,3.554687 -1.09375,6.71875 -1.07422,3.164062 -3.14453,5.683594 -2.53906,3.105468 -6.01563,4.648437 -3.45703,1.523438 -7.98828,1.523438 -5.80078,0 -9.33593,-3.222657 -3.53516,-3.222656 -3.53516,-8.457031 0,-3.574219 1.07422,-6.738281 1.07422,-3.164062 3.16406,-5.703125 2.5,-3.0859375 5.95703,-4.609375 3.47656,-1.5234375 8.00781,-1.5234375 z"
         style="font-style:italic;font-variant:normal;font-weight:bold;font-stretch:normal;font-family:sans-serif;-inkscape-font-specification:'sans-serif Bold Italic';text-align:center;text-anchor:middle;fill:#de8787;stroke:#000000;fill-opacity:1"
         id="path833" />
      <path
         inkscape:connector-curvature="0"
         d="m 258.94336,7.0820312 h 7.51953 l -3.39844,17.4609378 q -0.19531,0.9375 -0.29297,1.660156 -0.0781,0.722656 -0.0781,1.269531 0,1.914063 1.01562,2.871094 1.03516,0.9375 3.06641,0.9375 2.73438,0 4.19922,-1.523438 1.46484,-1.542968 2.16797,-5.195312 l 3.39844,-17.4804688 h 7.51953 L 280.66211,24.5625 q -1.26953,6.445312 -4.82422,9.355469 -3.53516,2.890625 -10.13672,2.890625 -5.17578,0 -7.87109,-2.207032 -2.69531,-2.226562 -2.69531,-6.445312 0,-0.703125 0.0976,-1.5625 0.0977,-0.878906 0.3125,-2.03125 z"
         style="font-style:italic;font-variant:normal;font-weight:bold;font-stretch:normal;font-family:sans-serif;-inkscape-font-specification:'sans-serif Bold Italic';text-align:center;text-anchor:middle;fill:#de8787;stroke:#000000;fill-opacity:1"
         id="path835" />
      <path
         inkscape:connector-curvature="0"
         d="m 297.88867,12.765625 -3.49609,17.792969 h 2.69531 q 5.25391,0 8.32031,-2.949219 3.06641,-2.949219 3.06641,-7.96875 0,-3.398438 -2.01172,-5.136719 -1.99219,-1.738281 -5.9375,-1.738281 z m -6.44531,-5.6835938 h 7.91016 q 5.66406,0 8.49609,0.6835938 2.83203,0.6640625 4.70703,2.246094 1.89453,1.582031 2.85156,3.847656 0.95703,2.246094 0.95703,5.097656 0,3.964844 -1.64062,7.480469 -1.62109,3.496094 -4.57031,5.878906 -2.57813,2.128906 -5.9961,3.027344 -3.39843,0.898437 -10.46875,0.898437 h -7.92968 z"
         style="font-style:italic;font-variant:normal;font-weight:bold;font-stretch:normal;font-family:sans-serif;-inkscape-font-specification:'sans-serif Bold Italic';text-align:center;text-anchor:middle;fill:#de8787;stroke:#000000;fill-opacity:1"
         id="path837" />
      <path
         inkscape:connector-curvature="0"
         d="m 344.72461,8 -1.21094,6.171875 q -2.20703,-1.09375 -4.35547,-1.621094 -2.14843,-0.546875 -4.19922,-0.546875 -2.8125,0 -4.39453,0.878907 -1.5625,0.878906 -1.5625,2.441406 0,0.996093 0.6836,1.5625 0.70312,0.546875 2.87109,1.074218 l 3.08594,0.761719 q 3.86719,0.976563 5.66406,2.832031 1.81641,1.835938 1.81641,4.765625 0,4.746094 -3.61328,7.617188 -3.59375,2.871094 -9.66797,2.871094 -2.83203,0 -5.64453,-0.527344 -2.79297,-0.527344 -5.46875,-1.5625 l 1.1914,-6.347656 q 2.59766,1.503906 5.03906,2.246093 2.46094,0.742188 4.84375,0.742188 2.57813,0 4.17969,-1.054688 1.6211,-1.054687 1.6211,-2.695312 0,-1.074219 -0.72266,-1.660156 -0.72266,-0.605469 -3.16406,-1.230469 l -3.06641,-0.761719 q -3.39844,-0.839844 -5.05859,-2.65625 -1.66016,-1.816406 -1.66016,-4.707031 0,-4.550781 3.47656,-7.2851562 3.4961,-2.7539063 9.39453,-2.7539063 2.36329,0 4.84375,0.3710937 2.5,0.3515625 5.07813,1.0742188 z"
         style="font-style:italic;font-variant:normal;font-weight:bold;font-stretch:normal;font-family:sans-serif;-inkscape-font-specification:'sans-serif Bold Italic';text-align:center;text-anchor:middle;fill:#de8787;stroke:#000000;fill-opacity:1"
         id="path839" />
    </g>
  </g>
</svg>
