<?xml version="1.0" encoding="UTF-8" standalone="no"?>
<!-- Created with Inkscape (http://www.inkscape.org/) -->

<svg
   xmlns:dc="http://purl.org/dc/elements/1.1/"
   xmlns:cc="http://creativecommons.org/ns#"
   xmlns:rdf="http://www.w3.org/1999/02/22-rdf-syntax-ns#"
   xmlns:svg="http://www.w3.org/2000/svg"
   xmlns="http://www.w3.org/2000/svg"
   xmlns:sodipodi="http://sodipodi.sourceforge.net/DTD/sodipodi-0.dtd"
   xmlns:inkscape="http://www.inkscape.org/namespaces/inkscape"
   width="400"
   height="84"
   viewBox="0 0 105.83333 22.225"
   version="1.1"
   id="svg8"
   inkscape:version="0.92.3 (2405546, 2018-03-11)"
   sodipodi:docname="desc_PM_clearing.svg">
  <defs
     id="defs2">
    <inkscape:path-effect
       effect="envelope"
       id="path-effect4703"
       is_visible="true"
       yy="true"
       xx="true"
       bendpath1="M 4.4121094,8.1308594 H 172.26367"
       bendpath2="M 172.26367,8.1308594 V 38.384766"
       bendpath3="M 4.4121094,38.384766 H 172.26367"
       bendpath4="M 4.4121094,8.1308594 V 38.384766" />
    <inkscape:path-effect
       effect="bspline"
       id="path-effect4701"
       is_visible="true"
       weight="33.333333"
       steps="2"
       helper_size="0"
       apply_no_weight="true"
       apply_with_weight="true"
       only_selected="false" />
    <inkscape:path-effect
       effect="bounding_box"
       id="path-effect996"
       is_visible="true"
       linkedpath=""
       visualbounds="false" />
    <filter
       inkscape:collect="always"
       style="color-interpolation-filters:sRGB"
       id="filter1126"
       x="-0.075636152"
       width="1.1512723"
       y="-0.17488011"
       height="1.3497602">
      <feGaussianBlur
         inkscape:collect="always"
         stdDeviation="3.3996876"
         id="feGaussianBlur1128" />
    </filter>
    <filter
       inkscape:collect="always"
       style="color-interpolation-filters:sRGB"
       id="filter952"
       x="-0.024556858"
       width="1.0491138"
       y="-0.18020518"
       height="1.3604105">
      <feGaussianBlur
         inkscape:collect="always"
         stdDeviation="2.2716294"
         id="feGaussianBlur954" />
    </filter>
  </defs>
  <sodipodi:namedview
     id="base"
     pagecolor="#ffffff"
     bordercolor="#666666"
     borderopacity="1.0"
     inkscape:pageopacity="0.0"
     inkscape:pageshadow="2"
     inkscape:zoom="3.0915956"
     inkscape:cx="257.03341"
     inkscape:cy="64.479845"
     inkscape:document-units="px"
     inkscape:current-layer="layer2"
     showgrid="false"
     inkscape:window-width="1366"
     inkscape:window-height="715"
     inkscape:window-x="-8"
     inkscape:window-y="-8"
     inkscape:window-maximized="1"
     showguides="true"
     inkscape:guide-bbox="true"
     units="px"
     inkscape:lockguides="false"
     inkscape:snap-center="true"
     inkscape:snap-global="false">
    <sodipodi:guide
       position="52.916666,11.1125"
       orientation="1,0"
       id="guide825"
       inkscape:locked="false"
       inkscape:label=""
       inkscape:color="rgb(0,0,255)" />
    <sodipodi:guide
       position="52.916666,11.1125"
       orientation="0,1"
       id="guide827"
       inkscape:locked="false"
       inkscape:label=""
       inkscape:color="rgb(0,0,255)" />
  </sodipodi:namedview>
  <metadata
     id="metadata5">
    <rdf:RDF>
      <cc:Work
         rdf:about="">
        <dc:format>image/svg+xml</dc:format>
        <dc:type
           rdf:resource="http://purl.org/dc/dcmitype/StillImage" />
        <dc:title></dc:title>
      </cc:Work>
    </rdf:RDF>
  </metadata>
  <g
     inkscape:groupmode="layer"
     id="layer2"
     inkscape:label="shadow">
    <g
       aria-label="PM"
       transform="matrix(0.35140979,0,0,0.35140979,6.6892337,-0.41723316)"
       style="font-style:normal;font-weight:normal;font-size:40px;line-height:1.25;font-family:sans-serif;letter-spacing:0px;word-spacing:0px;fill:#000000;fill-opacity:1;stroke:#000000;filter:url(#filter1126)"
       id="flowRoot832-7">
      <path
         inkscape:connector-curvature="0"
         d="m 13.835938,10.357422 h 19.968749 q 7.34375,0 11.46875,3.375 4.15625,3.34375 4.15625,9.3125 0,3.65625 -1.375,6.96875 -1.375,3.28125 -3.9375,5.75 -2.78125,2.65625 -6.625,3.875 -3.84375,1.1875 -9.65625,1.1875 h -7.9375 l -3.125,16.1875 H 4.7421875 Z m 10.374999,8.71875 -2.5625,13.03125 h 6.65625 q 4.25,0 6.5,-2 2.25,-2 2.25,-5.8125 0,-2.53125 -1.625,-3.875 -1.59375,-1.34375 -4.625,-1.34375 z"
         style="font-style:italic;font-variant:normal;font-weight:bold;font-stretch:normal;font-size:64px;font-family:sans-serif;-inkscape-font-specification:'sans-serif Bold Italic';fill:#000000;stroke:#000000"
         id="path1056-7" />
      <path
         inkscape:connector-curvature="0"
         d="m 60.710937,10.357422 h 14.78125 l 6,24.78125 15.75,-24.78125 h 15.375003 l -9.09375,46.65625 H 92.117187 l 6.65625,-34.4375 -16.1875,25.46875 h -6.46875 l -6.4375,-25.46875 -6.65625,34.4375 h -11.40625 z"
         style="font-style:italic;font-variant:normal;font-weight:bold;font-stretch:normal;font-size:64px;font-family:sans-serif;-inkscape-font-specification:'sans-serif Bold Italic';fill:#000000;stroke:#000000"
         id="path1058-6" />
    </g>
    <g
       id="g906"
       style="font-style:normal;font-weight:normal;font-size:40px;line-height:1.25;font-family:sans-serif;letter-spacing:0px;word-spacing:0px;fill:#000000;fill-opacity:1;stroke:#000000;filter:url(#filter952)"
       transform="matrix(0.24663375,0,0,0.26488046,3.9620814,2.939968)"
       aria-label="CLEARING">
      <path
         id="path890"
         style="font-style:italic;font-variant:normal;font-weight:bold;font-stretch:normal;font-family:sans-serif;-inkscape-font-specification:'sans-serif Bold Italic';fill:#000000;fill-opacity:1;stroke:#000000"
         d="m 211.78711,46.205078 q -2.69531,0.957031 -5.17578,1.445313 -2.48047,0.488281 -4.70703,0.488281 -5.87891,0 -9.39453,-3.222656 -3.51563,-3.222657 -3.51563,-8.535157 0,-3.496093 1.11328,-6.582031 1.11328,-3.105469 3.28125,-5.664062 2.5586,-3.007813 6.15235,-4.628907 3.61328,-1.621093 7.77343,-1.621093 2.26563,0 4.55078,0.546875 2.28516,0.527343 4.64844,1.621093 l -1.21094,6.035157 q -1.875,-1.425782 -3.76953,-2.089844 -1.89453,-0.664063 -4.0625,-0.664063 -4.51172,0 -7.55859,3.476563 -3.04688,3.476562 -3.04688,8.691406 0,3.359375 1.875,5.273438 1.875,1.914062 5.17579,1.914062 1.97265,0 4.17968,-0.703125 2.22657,-0.722656 4.98047,-2.246094 z"
         inkscape:connector-curvature="0" />
      <path
         id="path892"
         style="font-style:italic;font-variant:normal;font-weight:bold;font-stretch:normal;font-family:sans-serif;-inkscape-font-specification:'sans-serif Bold Italic';fill:#000000;fill-opacity:1;stroke:#000000"
         d="m 223.44727,18.412109 h 7.51953 l -4.57032,23.476563 h 13.16407 l -1.07422,5.683594 h -20.72266 z"
         inkscape:connector-curvature="0" />
      <path
         id="path894"
         style="font-style:italic;font-variant:normal;font-weight:bold;font-stretch:normal;font-family:sans-serif;-inkscape-font-specification:'sans-serif Bold Italic';fill:#000000;fill-opacity:1;stroke:#000000"
         d="m 248.91602,18.412109 h 20.27343 l -1.11328,5.683594 h -12.7539 l -1.05469,5.429688 h 12.01172 l -1.13282,5.683593 H 253.1543 l -1.28907,6.679688 h 13.16407 l -1.07422,5.683594 h -20.72266 z"
         inkscape:connector-curvature="0" />
      <path
         id="path896"
         style="font-style:italic;font-variant:normal;font-weight:bold;font-stretch:normal;font-family:sans-serif;-inkscape-font-specification:'sans-serif Bold Italic';fill:#000000;fill-opacity:1;stroke:#000000"
         d="m 289.38477,42.259766 h -11.64063 l -2.89062,5.3125 h -7.71485 l 16.48438,-29.160157 h 8.59375 l 5.15625,29.160157 h -7.14844 z m -8.8086,-5.292969 h 7.83203 l -1.75781,-11.230469 z"
         inkscape:connector-curvature="0" />
      <path
         id="path898"
         style="font-style:italic;font-variant:normal;font-weight:bold;font-stretch:normal;font-family:sans-serif;-inkscape-font-specification:'sans-serif Bold Italic';fill:#000000;fill-opacity:1;stroke:#000000"
         d="m 315.36133,31.341797 q 2.55859,0 3.86719,-1.191406 1.32812,-1.191407 1.32812,-3.496094 0,-1.445313 -0.91797,-2.109375 -0.89844,-0.683594 -2.85156,-0.683594 h -3.10547 l -1.48437,7.480469 z m -4.16016,5.195312 -2.16797,11.035157 h -7.51953 l 5.6836,-29.160157 h 11.11328 q 4.80468,0 7.28515,1.796875 2.48047,1.796875 2.48047,5.292969 0,3.535156 -1.95312,5.820313 -1.95313,2.285156 -5.29297,2.617187 1.52344,0.3125 2.53906,1.5625 1.01563,1.230469 1.77734,3.789063 l 2.48047,8.28125 h -7.48047 l -2.1875,-7.246094 q -0.66406,-2.167969 -1.62109,-2.96875 -0.9375,-0.820313 -2.73437,-0.820313 z"
         inkscape:connector-curvature="0" />
      <path
         id="path900"
         style="font-style:italic;font-variant:normal;font-weight:bold;font-stretch:normal;font-family:sans-serif;-inkscape-font-specification:'sans-serif Bold Italic';fill:#000000;fill-opacity:1;stroke:#000000"
         d="m 337.97852,18.412109 h 7.51953 l -5.6836,29.160157 h -7.51953 z"
         inkscape:connector-curvature="0" />
      <path
         id="path902"
         style="font-style:italic;font-variant:normal;font-weight:bold;font-stretch:normal;font-family:sans-serif;-inkscape-font-specification:'sans-serif Bold Italic';fill:#000000;fill-opacity:1;stroke:#000000"
         d="m 352.90039,18.412109 h 8.39844 l 6.67969,20.195313 3.92578,-20.195313 h 7.10937 l -5.68359,29.160157 h -8.39844 l -6.67969,-20.195313 -3.90625,20.195313 h -7.1289 z"
         inkscape:connector-curvature="0" />
      <path
         id="path904"
         style="font-style:italic;font-variant:normal;font-weight:bold;font-stretch:normal;font-family:sans-serif;-inkscape-font-specification:'sans-serif Bold Italic';fill:#000000;fill-opacity:1;stroke:#000000"
         d="m 407.13867,45.404297 q -2.85156,1.386719 -5.91797,2.070312 -3.0664,0.664063 -6.5625,0.664063 -6.21093,0 -9.76562,-3.144531 -3.55469,-3.164063 -3.55469,-8.613282 0,-3.535156 1.11328,-6.621093 1.11328,-3.105469 3.32031,-5.664063 2.69532,-3.125 6.34766,-4.667969 3.67188,-1.542968 8.37891,-1.542968 2.61718,0 5.27343,0.546875 2.65625,0.546875 5.23438,1.621093 l -1.15234,6.035157 q -2.38282,-1.386719 -4.66797,-2.070313 -2.26563,-0.683594 -4.57032,-0.683594 -5.03906,0 -8.20312,3.359375 -3.16406,3.359375 -3.16406,8.632813 0,3.496094 1.83593,5.429687 1.85547,1.933594 5.21485,1.933594 1.09375,0 2.1875,-0.136719 1.09375,-0.15625 2.20703,-0.46875 l 1.11328,-5.664062 h -4.58984 l 0.95703,-5.039063 h 11.67969 z"
         inkscape:connector-curvature="0" />
    </g>
    <g
       aria-label="CLEARING"
       transform="matrix(0.24663375,0,0,0.26488046,2.9037474,2.4108011)"
       style="font-style:normal;font-weight:normal;font-size:40px;line-height:1.25;font-family:sans-serif;letter-spacing:0px;word-spacing:0px;fill:#de8787;fill-opacity:1;stroke:#000000"
       id="flowRoot865">
      <path
         inkscape:connector-curvature="0"
         d="m 211.78711,46.205078 q -2.69531,0.957031 -5.17578,1.445313 -2.48047,0.488281 -4.70703,0.488281 -5.87891,0 -9.39453,-3.222656 -3.51563,-3.222657 -3.51563,-8.535157 0,-3.496093 1.11328,-6.582031 1.11328,-3.105469 3.28125,-5.664062 2.5586,-3.007813 6.15235,-4.628907 3.61328,-1.621093 7.77343,-1.621093 2.26563,0 4.55078,0.546875 2.28516,0.527343 4.64844,1.621093 l -1.21094,6.035157 q -1.875,-1.425782 -3.76953,-2.089844 -1.89453,-0.664063 -4.0625,-0.664063 -4.51172,0 -7.55859,3.476563 -3.04688,3.476562 -3.04688,8.691406 0,3.359375 1.875,5.273438 1.875,1.914062 5.17579,1.914062 1.97265,0 4.17968,-0.703125 2.22657,-0.722656 4.98047,-2.246094 z"
         style="font-style:italic;font-variant:normal;font-weight:bold;font-stretch:normal;font-family:sans-serif;-inkscape-font-specification:'sans-serif Bold Italic';fill:#de8787;fill-opacity:1;stroke:#000000"
         id="path873" />
      <path
         inkscape:connector-curvature="0"
         d="m 223.44727,18.412109 h 7.51953 l -4.57032,23.476563 h 13.16407 l -1.07422,5.683594 h -20.72266 z"
         style="font-style:italic;font-variant:normal;font-weight:bold;font-stretch:normal;font-family:sans-serif;-inkscape-font-specification:'sans-serif Bold Italic';fill:#de8787;fill-opacity:1;stroke:#000000"
         id="path875" />
      <path
         inkscape:connector-curvature="0"
         d="m 248.91602,18.412109 h 20.27343 l -1.11328,5.683594 h -12.7539 l -1.05469,5.429688 h 12.01172 l -1.13282,5.683593 H 253.1543 l -1.28907,6.679688 h 13.16407 l -1.07422,5.683594 h -20.72266 z"
         style="font-style:italic;font-variant:normal;font-weight:bold;font-stretch:normal;font-family:sans-serif;-inkscape-font-specification:'sans-serif Bold Italic';fill:#de8787;fill-opacity:1;stroke:#000000"
         id="path877" />
      <path
         inkscape:connector-curvature="0"
         d="m 289.38477,42.259766 h -11.64063 l -2.89062,5.3125 h -7.71485 l 16.48438,-29.160157 h 8.59375 l 5.15625,29.160157 h -7.14844 z m -8.8086,-5.292969 h 7.83203 l -1.75781,-11.230469 z"
         style="font-style:italic;font-variant:normal;font-weight:bold;font-stretch:normal;font-family:sans-serif;-inkscape-font-specification:'sans-serif Bold Italic';fill:#de8787;fill-opacity:1;stroke:#000000"
         id="path879" />
      <path
         inkscape:connector-curvature="0"
         d="m 315.36133,31.341797 q 2.55859,0 3.86719,-1.191406 1.32812,-1.191407 1.32812,-3.496094 0,-1.445313 -0.91797,-2.109375 -0.89844,-0.683594 -2.85156,-0.683594 h -3.10547 l -1.48437,7.480469 z m -4.16016,5.195312 -2.16797,11.035157 h -7.51953 l 5.6836,-29.160157 h 11.11328 q 4.80468,0 7.28515,1.796875 2.48047,1.796875 2.48047,5.292969 0,3.535156 -1.95312,5.820313 -1.95313,2.285156 -5.29297,2.617187 1.52344,0.3125 2.53906,1.5625 1.01563,1.230469 1.77734,3.789063 l 2.48047,8.28125 h -7.48047 l -2.1875,-7.246094 q -0.66406,-2.167969 -1.62109,-2.96875 -0.9375,-0.820313 -2.73437,-0.820313 z"
         style="font-style:italic;font-variant:normal;font-weight:bold;font-stretch:normal;font-family:sans-serif;-inkscape-font-specification:'sans-serif Bold Italic';fill:#de8787;fill-opacity:1;stroke:#000000"
         id="path881" />
      <path
         inkscape:connector-curvature="0"
         d="m 337.97852,18.412109 h 7.51953 l -5.6836,29.160157 h -7.51953 z"
         style="font-style:italic;font-variant:normal;font-weight:bold;font-stretch:normal;font-family:sans-serif;-inkscape-font-specification:'sans-serif Bold Italic';fill:#de8787;fill-opacity:1;stroke:#000000"
         id="path883" />
      <path
         inkscape:connector-curvature="0"
         d="m 352.90039,18.412109 h 8.39844 l 6.67969,20.195313 3.92578,-20.195313 h 7.10937 l -5.68359,29.160157 h -8.39844 l -6.67969,-20.195313 -3.90625,20.195313 h -7.1289 z"
         style="font-style:italic;font-variant:normal;font-weight:bold;font-stretch:normal;font-family:sans-serif;-inkscape-font-specification:'sans-serif Bold Italic';fill:#de8787;fill-opacity:1;stroke:#000000"
         id="path885" />
      <path
         inkscape:connector-curvature="0"
         d="m 407.13867,45.404297 q -2.85156,1.386719 -5.91797,2.070312 -3.0664,0.664063 -6.5625,0.664063 -6.21093,0 -9.76562,-3.144531 -3.55469,-3.164063 -3.55469,-8.613282 0,-3.535156 1.11328,-6.621093 1.11328,-3.105469 3.32031,-5.664063 2.69532,-3.125 6.34766,-4.667969 3.67188,-1.542968 8.37891,-1.542968 2.61718,0 5.27343,0.546875 2.65625,0.546875 5.23438,1.621093 l -1.15234,6.035157 q -2.38282,-1.386719 -4.66797,-2.070313 -2.26563,-0.683594 -4.57032,-0.683594 -5.03906,0 -8.20312,3.359375 -3.16406,3.359375 -3.16406,8.632813 0,3.496094 1.83593,5.429687 1.85547,1.933594 5.21485,1.933594 1.09375,0 2.1875,-0.136719 1.09375,-0.15625 2.20703,-0.46875 l 1.11328,-5.664062 h -4.58984 l 0.95703,-5.039063 h 11.67969 z"
         style="font-style:italic;font-variant:normal;font-weight:bold;font-stretch:normal;font-family:sans-serif;-inkscape-font-specification:'sans-serif Bold Italic';fill:#de8787;fill-opacity:1;stroke:#000000"
         id="path887" />
    </g>
  </g>
  <g
     inkscape:label="Layer 1"
     inkscape:groupmode="layer"
     id="layer1"
     transform="translate(0,-274.775)">
    <g
       aria-label="PM"
       transform="matrix(0.3514098,0,0,0.3514098,5.1017336,273.8286)"
       style="font-style:normal;font-weight:normal;font-size:40px;line-height:1.25;font-family:sans-serif;letter-spacing:0px;word-spacing:0px;fill:#de8787;fill-opacity:1;stroke:#000000"
       id="flowRoot832">
      <path
         d="m 13.835938,10.357422 h 19.968749 q 7.34375,0 11.46875,3.375 4.15625,3.34375 4.15625,9.3125 0,3.65625 -1.375,6.96875 -1.375,3.28125 -3.9375,5.75 -2.78125,2.65625 -6.625,3.875 -3.84375,1.1875 -9.65625,1.1875 h -7.9375 l -3.125,16.1875 H 4.7421875 Z m 10.374999,8.71875 -2.5625,13.03125 h 6.65625 q 4.25,0 6.5,-2 2.25,-2 2.25,-5.8125 0,-2.53125 -1.625,-3.875 -1.59375,-1.34375 -4.625,-1.34375 z"
         style="font-style:italic;font-variant:normal;font-weight:bold;font-stretch:normal;font-size:64px;font-family:sans-serif;-inkscape-font-specification:'sans-serif Bold Italic';fill:#de8787;stroke:#000000"
         id="path1056" />
      <path
         d="m 60.710937,10.357422 h 14.78125 l 6,24.78125 15.75,-24.78125 h 15.375003 l -9.09375,46.65625 H 92.117187 l 6.65625,-34.4375 -16.1875,25.46875 h -6.46875 l -6.4375,-25.46875 -6.65625,34.4375 h -11.40625 z"
         style="font-style:italic;font-variant:normal;font-weight:bold;font-stretch:normal;font-size:64px;font-family:sans-serif;-inkscape-font-specification:'sans-serif Bold Italic';fill:#de8787;stroke:#000000"
         id="path1058" />
    </g>
  </g>
</svg>
