<?xml version="1.0" encoding="UTF-8" standalone="no"?>
<!-- Created with Inkscape (http://www.inkscape.org/) -->

<svg
   xmlns:dc="http://purl.org/dc/elements/1.1/"
   xmlns:cc="http://creativecommons.org/ns#"
   xmlns:rdf="http://www.w3.org/1999/02/22-rdf-syntax-ns#"
   xmlns:svg="http://www.w3.org/2000/svg"
   xmlns="http://www.w3.org/2000/svg"
   xmlns:sodipodi="http://sodipodi.sourceforge.net/DTD/sodipodi-0.dtd"
   xmlns:inkscape="http://www.inkscape.org/namespaces/inkscape"
   width="400"
   height="84"
   viewBox="0 0 105.83333 22.225"
   version="1.1"
   id="svg8"
   inkscape:version="0.92.3 (2405546, 2018-03-11)"
   sodipodi:docname="desc_blizzard.svg">
  <defs
     id="defs2">
    <filter
       inkscape:collect="always"
       style="color-interpolation-filters:sRGB"
       id="filter837"
       x="-0.025854285"
       width="1.0517086"
       y="-0.19608042"
       height="1.3921608">
      <feGaussianBlur
         inkscape:collect="always"
         stdDeviation="2.3823899"
         id="feGaussianBlur839" />
    </filter>
  </defs>
  <sodipodi:namedview
     id="base"
     pagecolor="#ffffff"
     bordercolor="#666666"
     borderopacity="1.0"
     inkscape:pageopacity="0.0"
     inkscape:pageshadow="2"
     inkscape:zoom="1.4"
     inkscape:cx="170.44561"
     inkscape:cy="66.027211"
     inkscape:document-units="px"
     inkscape:current-layer="layer1"
     showgrid="false"
     inkscape:window-width="1366"
     inkscape:window-height="715"
     inkscape:window-x="-8"
     inkscape:window-y="-8"
     inkscape:window-maximized="1"
     showguides="true"
     inkscape:guide-bbox="true"
     units="px"
     inkscape:lockguides="false"
     inkscape:snap-center="true"
     inkscape:snap-global="false">
    <sodipodi:guide
       position="52.916666,11.1125"
       orientation="1,0"
       id="guide825"
       inkscape:locked="false"
       inkscape:label=""
       inkscape:color="rgb(0,0,255)" />
    <sodipodi:guide
       position="52.916666,11.1125"
       orientation="0,1"
       id="guide827"
       inkscape:locked="false"
       inkscape:label=""
       inkscape:color="rgb(0,0,255)" />
  </sodipodi:namedview>
  <metadata
     id="metadata5">
    <rdf:RDF>
      <cc:Work
         rdf:about="">
        <dc:format>image/svg+xml</dc:format>
        <dc:type
           rdf:resource="http://purl.org/dc/dcmitype/StillImage" />
        <dc:title />
      </cc:Work>
    </rdf:RDF>
  </metadata>
  <g
     inkscape:groupmode="layer"
     id="layer2"
     inkscape:label="shadow">
    <g
       aria-label="BLIZZARD"
       transform="matrix(0.45461947,0,0,0.58357114,1.6990805,-3.5870307)"
       style="font-style:normal;font-weight:normal;font-size:40px;line-height:1.25;font-family:sans-serif;letter-spacing:0px;word-spacing:0px;fill:#000000;fill-opacity:1;stroke:#000000;filter:url(#filter837)"
       id="flowRoot824-9">
      <path
         d="m 19.568359,22.804687 q 2.011719,0 3.144532,-1.015625 1.132812,-1.015625 1.132812,-2.792968 0,-1.152344 -0.800781,-1.757813 -0.78125,-0.605469 -2.265625,-0.605469 h -4.199219 l -1.210937,6.171875 z m -2.226562,12.753907 q 2.578125,0 3.964844,-1.230469 1.386718,-1.230469 1.386718,-3.535156 0,-1.464844 -0.957031,-2.167969 -0.957031,-0.703125 -2.929687,-0.703125 h -4.433594 l -1.484375,7.636719 z m 8.90625,-10.488282 q 1.914062,0.546875 2.949219,2.011719 1.054687,1.445313 1.054687,3.59375 0,4.707031 -3.515625,7.363281 -3.496094,2.636719 -9.84375,2.636719 H 4.4121094 L 10.095703,11.515625 h 11.269531 q 5.195313,0 7.675782,1.523438 2.5,1.523437 2.5,4.707031 0,2.675781 -1.464844,4.707031 -1.464844,2.011719 -3.828125,2.617187 z"
         style="font-style:italic;font-variant:normal;font-weight:bold;font-stretch:normal;font-family:sans-serif;-inkscape-font-specification:'sans-serif Bold Italic';fill:#000000;stroke:#000000"
         id="path832-3"
         inkscape:connector-curvature="0" />
      <path
         d="m 40.564453,11.515625 h 7.519531 l -4.570312,23.476562 h 13.164062 l -1.074218,5.683594 H 34.880859 Z"
         style="font-style:italic;font-variant:normal;font-weight:bold;font-stretch:normal;font-family:sans-serif;-inkscape-font-specification:'sans-serif Bold Italic';fill:#000000;stroke:#000000"
         id="path834-3"
         inkscape:connector-curvature="0" />
      <path
         d="m 66.033203,11.515625 h 7.519531 l -5.683593,29.160156 h -7.519532 z"
         style="font-style:italic;font-variant:normal;font-weight:bold;font-stretch:normal;font-family:sans-serif;-inkscape-font-specification:'sans-serif Bold Italic';fill:#000000;stroke:#000000"
         id="path836-6"
         inkscape:connector-curvature="0" />
      <path
         d="m 79.509766,11.515625 h 24.531254 l -0.9375,4.648437 -18.906254,18.828125 h 15.722656 l -1.132813,5.683594 H 73.396484 l 0.878907,-4.648437 18.964843,-18.828125 h -14.84375 z"
         style="font-style:italic;font-variant:normal;font-weight:bold;font-stretch:normal;font-family:sans-serif;-inkscape-font-specification:'sans-serif Bold Italic';fill:#000000;stroke:#000000"
         id="path838-9"
         inkscape:connector-curvature="0" />
      <path
         d="m 108.49414,11.515625 h 24.53125 l -0.9375,4.648437 -18.90625,18.828125 h 15.72266 l -1.13282,5.683594 h -25.39062 l 0.87891,-4.648437 18.96484,-18.828125 h -14.84375 z"
         style="font-style:italic;font-variant:normal;font-weight:bold;font-stretch:normal;font-family:sans-serif;-inkscape-font-specification:'sans-serif Bold Italic';fill:#000000;stroke:#000000"
         id="path840-7"
         inkscape:connector-curvature="0" />
      <path
         d="M 152.04883,35.363281 H 140.4082 l -2.89062,5.3125 h -7.71485 l 16.48438,-29.160156 h 8.59375 l 5.15625,29.160156 h -7.14844 z m -8.8086,-5.292969 h 7.83204 l -1.75782,-11.230468 z"
         style="font-style:italic;font-variant:normal;font-weight:bold;font-stretch:normal;font-family:sans-serif;-inkscape-font-specification:'sans-serif Bold Italic';fill:#000000;stroke:#000000"
         id="path842-5"
         inkscape:connector-curvature="0" />
      <path
         d="m 178.02539,24.445312 q 2.55859,0 3.86719,-1.191406 1.32812,-1.191406 1.32812,-3.496094 0,-1.445312 -0.91797,-2.109375 -0.89843,-0.683593 -2.85156,-0.683593 h -3.10547 l -1.48437,7.480468 z m -4.16016,5.195313 -2.16796,11.035156 h -7.51954 l 5.6836,-29.160156 h 11.11328 q 4.80469,0 7.28516,1.796875 2.48046,1.796875 2.48046,5.292969 0,3.535156 -1.95312,5.820312 -1.95313,2.285156 -5.29297,2.617188 1.52344,0.3125 2.53906,1.5625 1.01563,1.230468 1.77735,3.789062 l 2.48047,8.28125 h -7.48047 l -2.1875,-7.246094 q -0.66407,-2.167968 -1.6211,-2.96875 -0.9375,-0.820312 -2.73437,-0.820312 z"
         style="font-style:italic;font-variant:normal;font-weight:bold;font-stretch:normal;font-family:sans-serif;-inkscape-font-specification:'sans-serif Bold Italic';fill:#000000;stroke:#000000"
         id="path844-2"
         inkscape:connector-curvature="0" />
      <path
         d="m 207.08789,17.199219 -3.49609,17.792968 h 2.69531 q 5.25391,0 8.32031,-2.949218 3.06641,-2.949219 3.06641,-7.96875 0,-3.398438 -2.01172,-5.136719 -1.99219,-1.738281 -5.9375,-1.738281 z m -6.44531,-5.683594 h 7.91015 q 5.66407,0 8.4961,0.683594 2.83203,0.664062 4.70703,2.246094 1.89453,1.582031 2.85156,3.847656 0.95703,2.246093 0.95703,5.097656 0,3.964844 -1.64062,7.480469 -1.6211,3.496093 -4.57031,5.878906 -2.57813,2.128906 -5.9961,3.027344 -3.39844,0.898437 -10.46875,0.898437 h -7.92969 z"
         style="font-style:italic;font-variant:normal;font-weight:bold;font-stretch:normal;font-family:sans-serif;-inkscape-font-specification:'sans-serif Bold Italic';fill:#000000;stroke:#000000"
         id="path846-5"
         inkscape:connector-curvature="0" />
    </g>
  </g>
  <g
     inkscape:label="Layer 1"
     inkscape:groupmode="layer"
     id="layer1"
     transform="translate(0,-274.775)">
    <g
       aria-label="BLIZZARD"
       transform="matrix(0.45461948,0,0,0.58357114,0.64362375,270.5939)"
       style="font-style:normal;font-weight:normal;font-size:40px;line-height:1.25;font-family:sans-serif;letter-spacing:0px;word-spacing:0px;fill:#aaccff;fill-opacity:1;stroke:#000000"
       id="flowRoot824">
      <path
         d="m 19.568359,22.804687 q 2.011719,0 3.144532,-1.015625 1.132812,-1.015625 1.132812,-2.792968 0,-1.152344 -0.800781,-1.757813 -0.78125,-0.605469 -2.265625,-0.605469 h -4.199219 l -1.210937,6.171875 z m -2.226562,12.753907 q 2.578125,0 3.964844,-1.230469 1.386718,-1.230469 1.386718,-3.535156 0,-1.464844 -0.957031,-2.167969 -0.957031,-0.703125 -2.929687,-0.703125 h -4.433594 l -1.484375,7.636719 z m 8.90625,-10.488282 q 1.914062,0.546875 2.949219,2.011719 1.054687,1.445313 1.054687,3.59375 0,4.707031 -3.515625,7.363281 -3.496094,2.636719 -9.84375,2.636719 H 4.4121094 L 10.095703,11.515625 h 11.269531 q 5.195313,0 7.675782,1.523438 2.5,1.523437 2.5,4.707031 0,2.675781 -1.464844,4.707031 -1.464844,2.011719 -3.828125,2.617187 z"
         style="font-style:italic;font-variant:normal;font-weight:bold;font-stretch:normal;font-family:sans-serif;-inkscape-font-specification:'sans-serif Bold Italic';fill:#aaccff;stroke:#000000"
         id="path832"
         inkscape:connector-curvature="0" />
      <path
         d="m 40.564453,11.515625 h 7.519531 l -4.570312,23.476562 h 13.164062 l -1.074218,5.683594 H 34.880859 Z"
         style="font-style:italic;font-variant:normal;font-weight:bold;font-stretch:normal;font-family:sans-serif;-inkscape-font-specification:'sans-serif Bold Italic';fill:#aaccff;stroke:#000000"
         id="path834"
         inkscape:connector-curvature="0" />
      <path
         d="m 66.033203,11.515625 h 7.519531 l -5.683593,29.160156 h -7.519532 z"
         style="font-style:italic;font-variant:normal;font-weight:bold;font-stretch:normal;font-family:sans-serif;-inkscape-font-specification:'sans-serif Bold Italic';fill:#aaccff;stroke:#000000"
         id="path836"
         inkscape:connector-curvature="0" />
      <path
         d="m 79.509766,11.515625 h 24.531254 l -0.9375,4.648437 -18.906254,18.828125 h 15.722656 l -1.132813,5.683594 H 73.396484 l 0.878907,-4.648437 18.964843,-18.828125 h -14.84375 z"
         style="font-style:italic;font-variant:normal;font-weight:bold;font-stretch:normal;font-family:sans-serif;-inkscape-font-specification:'sans-serif Bold Italic';fill:#aaccff;stroke:#000000"
         id="path838"
         inkscape:connector-curvature="0" />
      <path
         d="m 108.49414,11.515625 h 24.53125 l -0.9375,4.648437 -18.90625,18.828125 h 15.72266 l -1.13282,5.683594 h -25.39062 l 0.87891,-4.648437 18.96484,-18.828125 h -14.84375 z"
         style="font-style:italic;font-variant:normal;font-weight:bold;font-stretch:normal;font-family:sans-serif;-inkscape-font-specification:'sans-serif Bold Italic';fill:#aaccff;stroke:#000000"
         id="path840"
         inkscape:connector-curvature="0" />
      <path
         d="M 152.04883,35.363281 H 140.4082 l -2.89062,5.3125 h -7.71485 l 16.48438,-29.160156 h 8.59375 l 5.15625,29.160156 h -7.14844 z m -8.8086,-5.292969 h 7.83204 l -1.75782,-11.230468 z"
         style="font-style:italic;font-variant:normal;font-weight:bold;font-stretch:normal;font-family:sans-serif;-inkscape-font-specification:'sans-serif Bold Italic';fill:#aaccff;stroke:#000000"
         id="path842"
         inkscape:connector-curvature="0" />
      <path
         d="m 178.02539,24.445312 q 2.55859,0 3.86719,-1.191406 1.32812,-1.191406 1.32812,-3.496094 0,-1.445312 -0.91797,-2.109375 -0.89843,-0.683593 -2.85156,-0.683593 h -3.10547 l -1.48437,7.480468 z m -4.16016,5.195313 -2.16796,11.035156 h -7.51954 l 5.6836,-29.160156 h 11.11328 q 4.80469,0 7.28516,1.796875 2.48046,1.796875 2.48046,5.292969 0,3.535156 -1.95312,5.820312 -1.95313,2.285156 -5.29297,2.617188 1.52344,0.3125 2.53906,1.5625 1.01563,1.230468 1.77735,3.789062 l 2.48047,8.28125 h -7.48047 l -2.1875,-7.246094 q -0.66407,-2.167968 -1.6211,-2.96875 -0.9375,-0.820312 -2.73437,-0.820312 z"
         style="font-style:italic;font-variant:normal;font-weight:bold;font-stretch:normal;font-family:sans-serif;-inkscape-font-specification:'sans-serif Bold Italic';fill:#aaccff;stroke:#000000"
         id="path844"
         inkscape:connector-curvature="0" />
      <path
         d="m 207.08789,17.199219 -3.49609,17.792968 h 2.69531 q 5.25391,0 8.32031,-2.949218 3.06641,-2.949219 3.06641,-7.96875 0,-3.398438 -2.01172,-5.136719 -1.99219,-1.738281 -5.9375,-1.738281 z m -6.44531,-5.683594 h 7.91015 q 5.66407,0 8.4961,0.683594 2.83203,0.664062 4.70703,2.246094 1.89453,1.582031 2.85156,3.847656 0.95703,2.246093 0.95703,5.097656 0,3.964844 -1.64062,7.480469 -1.6211,3.496093 -4.57031,5.878906 -2.57813,2.128906 -5.9961,3.027344 -3.39844,0.898437 -10.46875,0.898437 h -7.92969 z"
         style="font-style:italic;font-variant:normal;font-weight:bold;font-stretch:normal;font-family:sans-serif;-inkscape-font-specification:'sans-serif Bold Italic';fill:#aaccff;stroke:#000000"
         id="path846"
         inkscape:connector-curvature="0" />
    </g>
  </g>
</svg>
