<?xml version="1.0" encoding="UTF-8" standalone="no"?>
<!-- Created with Inkscape (http://www.inkscape.org/) -->

<svg
   xmlns:dc="http://purl.org/dc/elements/1.1/"
   xmlns:cc="http://creativecommons.org/ns#"
   xmlns:rdf="http://www.w3.org/1999/02/22-rdf-syntax-ns#"
   xmlns:svg="http://www.w3.org/2000/svg"
   xmlns="http://www.w3.org/2000/svg"
   xmlns:sodipodi="http://sodipodi.sourceforge.net/DTD/sodipodi-0.dtd"
   xmlns:inkscape="http://www.inkscape.org/namespaces/inkscape"
   width="400"
   height="84"
   viewBox="0 0 105.83333 22.225"
   version="1.1"
   id="svg8"
   inkscape:version="0.92.4 (5da689c313, 2019-01-14)"
   sodipodi:docname="desc_perc_snow.svg">
  <defs
     id="defs2">
    <filter
       inkscape:collect="always"
       style="color-interpolation-filters:sRGB"
       id="filter915"
       x="-0.032947861"
       width="1.0658957"
       y="-0.14956507"
       height="1.2991301">
      <feGaussianBlur
         inkscape:collect="always"
         stdDeviation="0.84258532"
         id="feGaussianBlur917" />
    </filter>
  </defs>
  <sodipodi:namedview
     id="base"
     pagecolor="#ffffff"
     bordercolor="#666666"
     borderopacity="1.0"
     inkscape:pageopacity="0.0"
     inkscape:pageshadow="2"
     inkscape:zoom="1.5457977"
     inkscape:cx="69.209133"
     inkscape:cy="65.473402"
     inkscape:document-units="px"
     inkscape:current-layer="layer2"
     showgrid="false"
     inkscape:window-width="1366"
     inkscape:window-height="715"
     inkscape:window-x="-8"
     inkscape:window-y="-8"
     inkscape:window-maximized="1"
     showguides="true"
     inkscape:guide-bbox="true"
     units="px"
     inkscape:lockguides="false"
     inkscape:snap-center="true"
     inkscape:snap-global="false">
    <sodipodi:guide
       position="52.916666,11.1125"
       orientation="1,0"
       id="guide825"
       inkscape:locked="false"
       inkscape:label=""
       inkscape:color="rgb(0,0,255)" />
    <sodipodi:guide
       position="52.916666,11.1125"
       orientation="0,1"
       id="guide827"
       inkscape:locked="false"
       inkscape:label=""
       inkscape:color="rgb(0,0,255)" />
  </sodipodi:namedview>
  <metadata
     id="metadata5">
    <rdf:RDF>
      <cc:Work
         rdf:about="">
        <dc:format>image/svg+xml</dc:format>
        <dc:type
           rdf:resource="http://purl.org/dc/dcmitype/StillImage" />
        <dc:title />
      </cc:Work>
    </rdf:RDF>
  </metadata>
  <g
     inkscape:groupmode="layer"
     id="layer2"
     inkscape:label="shadow"
     style="display:inline">
    <g
       aria-label="SNOW"
       transform="matrix(0.79709629,0,0,1.1040725,0.04147303,0.99995361)"
       style="font-style:italic;font-variant:normal;font-weight:900;font-stretch:normal;font-size:18.67169571px;line-height:1.8671695px;font-family:'Segoe UI';-inkscape-font-specification:'Segoe UI Heavy Italic';font-variant-ligatures:normal;font-variant-caps:normal;font-variant-numeric:normal;font-feature-settings:normal;text-align:center;writing-mode:lr-tb;text-anchor:middle;opacity:1;fill:#000000;fill-opacity:1;stroke:#000000;stroke-width:0.56407684;stroke-linecap:square;stroke-linejoin:miter;stroke-miterlimit:4;stroke-dasharray:none;stroke-dashoffset:0;stroke-opacity:1;paint-order:normal;filter:url(#filter915)"
       id="text910">
      <path
         d="M 13.463957,7.2596937 Q 12.497551,6.7217884 11.73172,6.5029794 10.965888,6.2841705 10.19094,6.2841705 q -0.6199586,0 -0.9846402,0.2643941 -0.3555645,0.2643942 -0.3555645,0.692895 0,0.4011497 0.2917453,0.692895 0.2917452,0.2917452 1.2581514,0.8205335 1.549897,0.8205335 2.160738,1.6957689 0.619959,0.866119 0.619959,2.206324 0,1.267268 -0.711129,2.261025 -0.702012,0.993758 -1.951047,1.476961 -1.2399169,0.483203 -2.9448031,0.483203 -1.2399173,0 -2.324845,-0.273511 -1.0758105,-0.282629 -1.887227,-0.720247 l 0.6837779,-3.227431 q 1.7413544,1.285502 3.5282941,1.285502 1.422258,0 1.422258,-1.011991 0,-0.455852 -0.3555645,-0.756714 Q 8.2945959,11.863798 7.4102432,11.462649 5.9332829,10.769754 5.2950901,9.912752 4.6660145,9.0466333 4.6660145,7.7064286 q 0,-1.2672684 0.6928949,-2.2883768 Q 6.0518044,4.3878264 7.2552535,3.8772722 8.4587026,3.357601 10.045067,3.357601 q 1.258152,0 2.251909,0.227926 1.002874,0.227926 1.814291,0.5196712 z"
         style="fill:#000000;fill-opacity:1;stroke:#000000;stroke-width:0.56407684"
         id="path830"
         inkscape:connector-curvature="0" />
      <path
         d="M 26.929823,16.650244 H 23.83003 L 20.037342,10.250082 Q 19.51767,9.3474956 19.362681,8.9007607 h -0.03647 q -0.164107,1.1031613 -0.410267,2.1698553 l -1.194332,5.579628 H 14.083915 L 16.846378,3.5764099 h 3.400656 l 3.655932,6.071948 q 0.118522,0.1732237 0.30998,0.5743731 0.200574,0.392033 0.282628,0.674661 h 0.04558 q 0.02735,-0.33733 0.109404,-0.711129 L 26.04547,3.5764099 h 3.646816 z"
         style="fill:#000000;fill-opacity:1;stroke:#000000;stroke-width:0.56407684"
         id="path832"
         inkscape:connector-curvature="0" />
      <path
         d="m 43.231088,9.0922185 q 0,2.1516215 -0.948172,4.0023805 -0.939055,1.850758 -2.61659,2.817165 -1.668418,0.966406 -3.975029,0.966406 -1.750472,0 -3.01774,-0.711129 -1.258151,-0.720246 -1.923695,-2.023983 -0.665544,-1.303737 -0.665544,-2.981272 0,-2.1698549 0.957289,-4.0114968 0.957289,-1.8416419 2.634824,-2.817165 1.677535,-0.9755232 3.892976,-0.9755232 2.634824,0 4.148253,1.5316626 1.513428,1.5316625 1.513428,4.2029549 z M 39.046367,9.219857 q 0,-1.1943321 -0.501437,-1.8142907 -0.49232,-0.6290757 -1.422258,-0.6290757 -0.857002,0 -1.495194,0.5743735 -0.638193,0.5743734 -1.002875,1.5954818 -0.355564,1.0119913 -0.355564,2.1242701 0,1.212566 0.501437,1.832525 0.501437,0.610841 1.38579,0.610841 0.820533,0 1.467843,-0.510554 0.64731,-0.510554 1.030226,-1.549896 0.392032,-1.04846 0.392032,-2.233675 z"
         style="fill:#000000;fill-opacity:1;stroke:#000000;stroke-width:0.56407684"
         id="path834"
         inkscape:connector-curvature="0" />
      <path
         d="M 58.666235,16.650244 H 54.536216 L 54.226237,9.1195696 q 0,-0.3920327 0.127638,-1.1122787 l 0.0547,-0.3190964 h -0.03647 Q 54.335641,7.8523012 54.1533,8.3446213 53.980077,8.8278244 53.806853,9.201623 l -3.482709,7.448621 H 45.802093 L 45.446528,3.5764099 h 4.148253 l -0.373799,7.7312491 q -0.03647,0.565256 -0.191458,1.495194 h 0.0547 q 0.06382,-0.24616 0.24616,-0.747597 0.18234,-0.510554 0.319096,-0.802299 l 3.564762,-7.6765471 h 4.275892 l 0.07294,7.7859511 q 0,0.255277 -0.03647,0.73848 -0.02735,0.483203 -0.0547,0.683778 h 0.03647 l 0.464969,-1.47696 2.70776,-7.7312491 h 4.057082 z"
         style="fill:#000000;fill-opacity:1;stroke:#000000;stroke-width:0.56407684"
         id="path836"
         inkscape:connector-curvature="0" />
    </g>
  </g>
  <g
     inkscape:groupmode="layer"
     id="layer1"
     inkscape:label="text"
     style="display:inline">
    <g
       aria-label="SNOW"
       transform="scale(0.84968241,1.1769103)"
       style="font-style:italic;font-variant:normal;font-weight:900;font-stretch:normal;font-size:17.51612091px;line-height:1.75161195px;font-family:'Segoe UI';-inkscape-font-specification:'Segoe UI Heavy Italic';font-variant-ligatures:normal;font-variant-caps:normal;font-variant-numeric:normal;font-feature-settings:normal;text-align:center;writing-mode:lr-tb;text-anchor:middle;opacity:1;fill:#5fbcd3;fill-opacity:1;stroke:#000000;stroke-width:0.52916664;stroke-linecap:square;stroke-linejoin:miter;stroke-miterlimit:4;stroke-dasharray:none;stroke-dashoffset:0;stroke-opacity:1;paint-order:normal"
       id="text906">
      <path
         d="M 11.58906,6.7560687 Q 10.682464,6.2514539 9.9640289,6.0461868 9.2455943,5.8409198 8.5186068,5.8409198 q -0.5815899,0 -0.9237017,0.248031 -0.3335589,0.248031 -0.3335589,0.6500123 0,0.3763229 0.2736894,0.6500123 0.2736894,0.2736894 1.1802855,0.7697514 1.4539749,0.7697514 2.0270119,1.5908196 0.58159,0.8125156 0.58159,2.0697756 0,1.188839 -0.667118,2.121093 -0.6585649,0.932255 -1.8302976,1.385553 -1.1631799,0.453298 -2.7625523,0.453298 -1.1631799,0 -2.1809623,-0.256584 -1.0092296,-0.265137 -1.7704282,-0.675671 l 0.6414595,-3.027689 q 1.6335835,1.205944 3.309931,1.205944 1.3342358,0 1.3342358,-0.94936 0,-0.427639 -0.333559,-0.709882 Q 6.7396258,11.075229 5.9100048,10.698906 4.5244523,10.048894 3.9257568,9.2449316 3.335614,8.4324162 3.335614,7.1751556 q 0,-1.1888383 0.6500123,-2.1467512 0.6500123,-0.9664656 1.778981,-1.4454221 1.1289688,-0.4875092 2.6171548,-0.4875092 1.1802855,0 2.1125399,0.2138198 0.940807,0.2138199 1.702006,0.4875093 z"
         style="fill:#5fbcd3;fill-opacity:1;stroke:#000000;stroke-width:0.52916664"
         id="path821"
         inkscape:connector-curvature="0" />
      <path
         d="m 24.221536,15.565446 h -2.90795 L 17.755624,9.5613849 Q 17.268115,8.7146584 17.122717,8.2955715 h -0.03421 q -0.15395,1.034888 -0.384875,2.0355645 l -1.120416,5.23431 H 12.17065 L 14.762146,3.3007401 h 3.190192 l 3.429671,5.6961605 q 0.111186,0.162503 0.290794,0.5388259 0.188162,0.3677702 0.265137,0.6329065 h 0.04276 q 0.02566,-0.3164531 0.102634,-0.6671176 l 1.308577,-6.2007753 h 3.421117 z"
         style="fill:#5fbcd3;fill-opacity:1;stroke:#000000;stroke-width:0.52916664"
         id="path823"
         inkscape:connector-curvature="0" />
      <path
         d="m 39.513931,8.4751802 q 0,2.0184588 -0.889491,3.7546758 -0.880937,1.736218 -2.454651,2.642814 -1.565161,0.906596 -3.729018,0.906596 -1.642137,0 -2.830975,-0.667118 -1.180285,-0.675671 -1.804639,-1.89872 -0.624354,-1.22305 -0.624354,-2.796764 0,-2.0355646 0.898043,-3.7632288 0.898043,-1.7276643 2.471757,-2.6428132 1.573714,-0.9151489 3.652043,-0.9151489 2.471758,0 3.891521,1.4368693 1.419764,1.4368693 1.419764,3.9428378 z m -3.925732,0.1197391 q 0,-1.120416 -0.470404,-1.7020059 -0.461851,-0.5901428 -1.334236,-0.5901428 -0.803962,0 -1.402658,0.538826 -0.598695,0.538826 -0.940807,1.4967389 -0.333559,0.94936 -0.333559,1.9928005 0,1.137522 0.470404,1.719112 0.470403,0.573037 1.300024,0.573037 0.769752,0 1.377,-0.478956 0.607248,-0.478957 0.966466,-1.453975 0.36777,-0.9835716 0.36777,-2.0954347 z"
         style="fill:#5fbcd3;fill-opacity:1;stroke:#000000;stroke-width:0.52916664"
         id="path825"
         inkscape:connector-curvature="0" />
      <path
         d="M 53.993809,15.565446 H 50.119394 L 49.828599,8.5008385 q 0,-0.3677701 0.119739,-1.0434408 L 49.999655,7.15805 h -0.03421 Q 49.931232,7.3120003 49.760176,7.7738511 49.597673,8.2271492 49.43517,8.5778137 L 46.168003,15.565446 H 41.925818 L 41.592259,3.3007401 h 3.891521 l -0.350665,7.2527689 q -0.03421,0.530273 -0.179609,1.402658 h 0.05132 q 0.05987,-0.230925 0.230926,-0.701329 0.171056,-0.478956 0.299347,-0.752646 l 3.344143,-7.2014519 h 4.01126 l 0.06842,7.3040859 q 0,0.239478 -0.03421,0.692776 -0.02566,0.453298 -0.05132,0.641459 h 0.03421 l 0.436193,-1.385552 2.540179,-7.2527689 h 3.805994 z"
         style="fill:#5fbcd3;fill-opacity:1;stroke:#000000;stroke-width:0.52916664"
         id="path827"
         inkscape:connector-curvature="0" />
    </g>
  </g>
</svg>
