<?xml version="1.0" encoding="UTF-8" standalone="no"?>
<!-- Created with Inkscape (http://www.inkscape.org/) -->

<svg
   xmlns:dc="http://purl.org/dc/elements/1.1/"
   xmlns:cc="http://creativecommons.org/ns#"
   xmlns:rdf="http://www.w3.org/1999/02/22-rdf-syntax-ns#"
   xmlns:svg="http://www.w3.org/2000/svg"
   xmlns="http://www.w3.org/2000/svg"
   xmlns:sodipodi="http://sodipodi.sourceforge.net/DTD/sodipodi-0.dtd"
   xmlns:inkscape="http://www.inkscape.org/namespaces/inkscape"
   width="400"
   height="300"
   viewBox="0 0 105.83333 79.375002"
   version="1.1"
   id="svg8"
   inkscape:version="0.92.4 (5da689c313, 2019-01-14)"
   sodipodi:docname="empty.svg">
  <defs
     id="defs2" />
  <sodipodi:namedview
     id="base"
     pagecolor="#ffffff"
     bordercolor="#666666"
     borderopacity="1.0"
     inkscape:pageopacity="0.0"
     inkscape:pageshadow="2"
     inkscape:zoom="1.4"
     inkscape:cx="197.2987"
     inkscape:cy="154.91466"
     inkscape:document-units="px"
     inkscape:current-layer="layer1"
     showgrid="false"
     units="px"
     inkscape:snap-page="true"
     inkscape:window-width="1366"
     inkscape:window-height="715"
     inkscape:window-x="-8"
     inkscape:window-y="-8"
     inkscape:window-maximized="1" />
  <metadata
     id="metadata5">
    <rdf:RDF>
      <cc:Work
         rdf:about="">
        <dc:format>image/svg+xml</dc:format>
        <dc:type
           rdf:resource="http://purl.org/dc/dcmitype/StillImage" />
        <dc:title></dc:title>
      </cc:Work>
    </rdf:RDF>
  </metadata>
  <g
     inkscape:label="Layer 1"
     inkscape:groupmode="layer"
     id="layer1"
     transform="translate(0,-217.62499)">
    <rect
       style="opacity:1;fill:#000000;fill-opacity:1;stroke:none;stroke-width:0.52916664;stroke-linecap:square;stroke-linejoin:round;stroke-miterlimit:4;stroke-dasharray:none;stroke-dashoffset:0;stroke-opacity:1;paint-order:fill markers stroke"
       id="rect817"
       width="105.83333"
       height="79.375"
       x="0"
       y="217.62498" />
    <g
       aria-label="SORRY!"
       transform="matrix(0.78566571,0,0,0.80509396,-97.997644,197.58045)"
       style="font-style:normal;font-variant:normal;font-weight:900;font-stretch:normal;font-size:29.33333397px;line-height:9.60000038px;font-family:'Segoe UI';-inkscape-font-specification:'Segoe UI Heavy';text-align:center;text-anchor:middle;opacity:1;fill:#0b1728;fill-opacity:1;stroke:#afc6e9;stroke-width:0.3326751;stroke-linecap:square;stroke-linejoin:round;stroke-miterlimit:4;stroke-dasharray:none;stroke-dashoffset:0;stroke-opacity:1;paint-order:fill markers stroke"
       id="flowRoot835">
      <path
         d="m 154.24349,54.530073 q 0,2.048177 -1.10287,3.566406 -1.08854,1.518229 -3.0651,2.263021 -1.97656,0.744792 -4.75521,0.744792 -3.22265,0 -5.90104,-1.088542 v -5.628906 q 1.28906,0.945312 2.85026,1.532552 1.5612,0.572916 2.90755,0.572916 1.01693,0 1.57552,-0.358072 0.5586,-0.372396 0.5586,-1.074219 0,-0.501302 -0.28646,-0.873698 -0.27214,-0.386719 -0.84505,-0.716146 -0.5586,-0.329427 -2.09115,-0.902344 -4.95573,-1.904948 -4.95573,-6.158854 0,-2.979167 2.26302,-4.755209 2.26302,-1.790364 6.07292,-1.790364 1.07422,0 1.97656,0.08594 0.90235,0.08594 1.63281,0.214844 0.7448,0.128906 2.07683,0.486979 v 5.227865 q -2.59245,-1.417969 -5.09896,-1.417969 -1.03125,0 -1.66146,0.386719 -0.63021,0.386719 -0.63021,1.059896 0,0.644531 0.5013,1.074219 0.51563,0.415364 2.13412,1.088541 3.19401,1.289063 4.51172,2.821615 1.33203,1.532552 1.33203,3.638021 z"
         style="fill:#0b1728;stroke:#afc6e9;stroke-width:0.3326751"
         id="path853" />
      <path
         d="m 176.30078,50.419396 q 0,3.09375 -1.33203,5.542969 -1.33203,2.434895 -3.72396,3.795573 -2.39193,1.346354 -5.35677,1.346354 -2.89323,0 -5.27083,-1.303386 -2.36328,-1.317708 -3.68099,-3.680989 -1.31771,-2.377605 -1.31771,-5.371094 0,-3.136719 1.33203,-5.64323 1.33203,-2.50651 3.73828,-3.867187 2.40625,-1.375 5.47136,-1.375 2.95052,0 5.27083,1.317708 2.33463,1.303386 3.59505,3.738282 1.27474,2.420572 1.27474,5.5 z m -6.55989,0.171875 q 0,-2.535157 -0.97396,-3.996094 -0.97396,-1.460938 -2.66407,-1.460938 -1.84765,0 -2.8789,1.403646 -1.03125,1.403646 -1.03125,3.967448 0,2.506511 1.01693,3.910156 1.03125,1.403646 2.79296,1.403646 1.07422,0 1.9336,-0.630208 0.85937,-0.630208 1.33203,-1.804688 0.47266,-1.174479 0.47266,-2.792968 z"
         style="fill:#0b1728;stroke:#afc6e9;stroke-width:0.3326751"
         id="path855" />
      <path
         d="m 189.87891,60.746219 -1.53256,-4.425782 q -0.44401,-1.303385 -1.16015,-2.048177 -0.70182,-0.744791 -1.53255,-0.744791 h -0.24349 v 7.21875 h -6.1875 V 40.207156 h 8.22135 q 4.3112,0 6.35938,1.417969 2.0625,1.403645 2.0625,4.22526 0,2.119792 -1.20313,3.552084 -1.1888,1.432291 -3.55208,2.076822 v 0.05729 q 1.30338,0.401042 2.16276,1.303386 0.8737,0.902343 1.5612,2.678385 l 2.01953,5.227865 z m -0.58724,-14.022136 q 0,-1.03125 -0.63021,-1.632812 -0.63021,-0.601563 -1.97656,-0.601563 h -1.27474 v 4.697917 h 1.11718 q 1.2461,0 2.00521,-0.701823 0.75912,-0.701823 0.75912,-1.761719 z"
         style="fill:#0b1728;stroke:#afc6e9;stroke-width:0.3326751"
         id="path857" />
      <path
         d="m 209.8737,60.746219 -1.53255,-4.425782 q -0.44401,-1.303385 -1.16016,-2.048177 -0.70182,-0.744791 -1.53255,-0.744791 h -0.24349 v 7.21875 h -6.1875 V 40.207156 h 8.22135 q 4.3112,0 6.35938,1.417969 2.0625,1.403645 2.0625,4.22526 0,2.119792 -1.20313,3.552084 -1.1888,1.432291 -3.55208,2.076822 v 0.05729 q 1.30339,0.401042 2.16276,1.303386 0.8737,0.902343 1.5612,2.678385 l 2.01953,5.227865 z m -0.58724,-14.022136 q 0,-1.03125 -0.63021,-1.632812 -0.63021,-0.601563 -1.97656,-0.601563 h -1.27474 v 4.697917 h 1.11719 q 1.24609,0 2.00521,-0.701823 0.75911,-0.701823 0.75911,-1.761719 z"
         style="fill:#0b1728;stroke:#afc6e9;stroke-width:0.3326751"
         id="path859" />
      <path
         d="m 229.71094,53.613406 v 7.132813 h -6.1875 v -7.046875 l -6.33073,-13.492188 h 7.10416 l 2.22006,6.459635 q 0.22916,0.658855 0.3151,1.145834 0.10026,0.486979 0.21484,0.988281 h 0.0573 q 0.18619,-1.303385 0.41536,-2.019531 l 2.19141,-6.574219 h 6.54557 z"
         style="fill:#0b1728;stroke:#afc6e9;stroke-width:0.3326751"
         id="path861" />
      <path
         d="m 244.04818,53.82825 h -4.89844 L 238.3763,40.207156 h 6.43099 z m 0.98828,4.36849 q 0,1.274739 -0.93099,2.091145 -0.91667,0.816407 -2.46354,0.816407 -1.50391,0 -2.46355,-0.830729 -0.94531,-0.83073 -0.94531,-2.076823 0,-1.260417 0.91667,-2.033855 0.93099,-0.78776 2.49219,-0.78776 1.51823,0 2.44921,0.78776 0.94532,0.773438 0.94532,2.033855 z"
         style="fill:#0b1728;stroke:#afc6e9;stroke-width:0.3326751"
         id="path863" />
    </g>
    <g
       aria-label="There are no photos
to show at this time."
       transform="matrix(0.32871049,0,0,0.32952326,-14.365406,230.15688)"
       style="font-style:normal;font-variant:normal;font-weight:normal;font-stretch:normal;font-size:29.33333397px;line-height:40px;font-family:'Segoe UI';-inkscape-font-specification:'Segoe UI';text-align:center;text-anchor:middle;opacity:1;fill:#afc6e9;fill-opacity:1;stroke:#afc6e9;stroke-width:0.80391967;stroke-linecap:square;stroke-linejoin:round;stroke-miterlimit:4;stroke-dasharray:none;stroke-dashoffset:0;stroke-opacity:1;paint-order:fill markers stroke"
       id="flowRoot843">
      <path
         d="m 88.898435,114.01197 h -5.929688 v 18.36198 h -2.40625 v -18.36198 h -5.915364 v -2.17708 h 14.251302 z"
         style="font-style:normal;font-variant:normal;font-weight:normal;font-stretch:normal;font-family:'Segoe UI';-inkscape-font-specification:'Segoe UI';fill:#afc6e9;stroke-width:0.80391967;stroke:#afc6e9"
         id="path866" />
      <path
         d="m 103.96614,132.37395 h -2.34895 v -8.45052 q 0,-4.58333 -3.408859,-4.58333 -1.71875,0 -2.893229,1.33203 -1.174479,1.31771 -1.174479,3.39453 v 8.30729 h -2.348959 v -21.71354 h 2.348959 v 9.48177 h 0.05729 q 1.690104,-2.77864 4.8125,-2.77864 4.955726,0 4.955726,5.97265 z"
         style="font-style:normal;font-variant:normal;font-weight:normal;font-stretch:normal;font-family:'Segoe UI';-inkscape-font-specification:'Segoe UI';fill:#afc6e9;stroke-width:0.80391967;stroke:#afc6e9"
         id="path868" />
      <path
         d="m 120.19401,125.62786 h -10.35547 q 0.0573,2.44922 1.31771,3.78125 1.26041,1.33203 3.46614,1.33203 2.47787,0 4.55469,-1.63281 v 2.20573 q -1.93359,1.40364 -5.11328,1.40364 -3.10807,0 -4.88412,-1.99088 -1.77604,-2.00521 -1.77604,-5.62891 0,-3.42318 1.9336,-5.57161 1.94791,-2.16276 4.82682,-2.16276 2.87891,0 4.45443,1.86198 1.57552,1.86197 1.57552,5.17057 z m -2.40625,-1.99089 q -0.0143,-2.03385 -0.98828,-3.16536 -0.95964,-1.13151 -2.67839,-1.13151 -1.66146,0 -2.82161,1.1888 -1.16016,1.1888 -1.4323,3.10807 z"
         style="font-style:normal;font-variant:normal;font-weight:normal;font-stretch:normal;font-family:'Segoe UI';-inkscape-font-specification:'Segoe UI';fill:#afc6e9;stroke-width:0.80391967;stroke:#afc6e9"
         id="path870" />
      <path
         d="m 131.40885,120.08489 q -0.61588,-0.47266 -1.77604,-0.47266 -1.50391,0 -2.52083,1.41797 -1.00261,1.41797 -1.00261,3.86719 v 7.47656 h -2.34895 v -14.66666 h 2.34895 v 3.02213 h 0.0573 q 0.5013,-1.54687 1.53255,-2.40625 1.03125,-0.8737 2.30599,-0.8737 0.91666,0 1.40364,0.20052 z"
         style="font-style:normal;font-variant:normal;font-weight:normal;font-stretch:normal;font-family:'Segoe UI';-inkscape-font-specification:'Segoe UI';fill:#afc6e9;stroke-width:0.80391967;stroke:#afc6e9"
         id="path872" />
      <path
         d="m 145.74609,125.62786 h -10.35547 q 0.0573,2.44922 1.31771,3.78125 1.26042,1.33203 3.46615,1.33203 2.47786,0 4.55469,-1.63281 v 2.20573 q -1.9336,1.40364 -5.11328,1.40364 -3.10808,0 -4.88412,-1.99088 -1.77604,-2.00521 -1.77604,-5.62891 0,-3.42318 1.93359,-5.57161 1.94792,-2.16276 4.82683,-2.16276 2.8789,0 4.45442,1.86198 1.57552,1.86197 1.57552,5.17057 z m -2.40625,-1.99089 q -0.0143,-2.03385 -0.98828,-3.16536 -0.95963,-1.13151 -2.67838,-1.13151 -1.66146,0 -2.82162,1.1888 -1.16015,1.1888 -1.43229,3.10807 z"
         style="font-style:normal;font-variant:normal;font-weight:normal;font-stretch:normal;font-family:'Segoe UI';-inkscape-font-specification:'Segoe UI';fill:#afc6e9;stroke-width:0.80391967;stroke:#afc6e9"
         id="path874" />
      <path
         d="m 167.83203,132.37395 h -2.34896 v -2.29166 h -0.0573 q -1.53255,2.63541 -4.51172,2.63541 -2.1914,0 -3.4375,-1.16015 -1.23177,-1.16016 -1.23177,-3.07943 0,-4.11068 4.84115,-4.78385 l 4.39713,-0.61589 q 0,-3.73828 -3.02213,-3.73828 -2.64974,0 -4.78386,1.80469 v -2.40625 q 2.16276,-1.375 4.98438,-1.375 5.17057,0 5.17057,5.47135 z m -2.34896,-7.41927 -3.53776,0.48698 q -1.63281,0.22917 -2.46354,0.81641 -0.83073,0.57291 -0.83073,2.04817 0,1.07422 0.75912,1.76172 0.77343,0.67318 2.04817,0.67318 1.7474,0 2.87891,-1.21745 1.14583,-1.23177 1.14583,-3.10807 z"
         style="font-style:normal;font-variant:normal;font-weight:normal;font-stretch:normal;font-family:'Segoe UI';-inkscape-font-specification:'Segoe UI';fill:#afc6e9;stroke-width:0.80391967;stroke:#afc6e9"
         id="path876" />
      <path
         d="m 179.9349,120.08489 q -0.61589,-0.47266 -1.77605,-0.47266 -1.5039,0 -2.52083,1.41797 -1.0026,1.41797 -1.0026,3.86719 v 7.47656 h -2.34896 v -14.66666 h 2.34896 v 3.02213 h 0.0573 q 0.5013,-1.54687 1.53255,-2.40625 1.03125,-0.8737 2.30599,-0.8737 0.91667,0 1.40365,0.20052 z"
         style="font-style:normal;font-variant:normal;font-weight:normal;font-stretch:normal;font-family:'Segoe UI';-inkscape-font-specification:'Segoe UI';fill:#afc6e9;stroke-width:0.80391967;stroke:#afc6e9"
         id="path878" />
      <path
         d="m 194.27213,125.62786 h -10.35547 q 0.0573,2.44922 1.31771,3.78125 1.26042,1.33203 3.46615,1.33203 2.47786,0 4.55469,-1.63281 v 2.20573 q -1.9336,1.40364 -5.11329,1.40364 -3.10807,0 -4.88411,-1.99088 -1.77604,-2.00521 -1.77604,-5.62891 0,-3.42318 1.93359,-5.57161 1.94792,-2.16276 4.82682,-2.16276 2.87891,0 4.45443,1.86198 1.57552,1.86197 1.57552,5.17057 z m -2.40625,-1.99089 q -0.0143,-2.03385 -0.98828,-3.16536 -0.95963,-1.13151 -2.67838,-1.13151 -1.66146,0 -2.82162,1.1888 -1.16015,1.1888 -1.43229,3.10807 z"
         style="font-style:normal;font-variant:normal;font-weight:normal;font-stretch:normal;font-family:'Segoe UI';-inkscape-font-specification:'Segoe UI';fill:#afc6e9;stroke-width:0.80391967;stroke:#afc6e9"
         id="path880" />
      <path
         d="m 218.03385,132.37395 h -2.34896 v -8.36458 q 0,-4.66927 -3.40885,-4.66927 -1.76172,0 -2.92188,1.33203 -1.14583,1.31771 -1.14583,3.33724 v 8.36458 h -2.34896 v -14.66666 h 2.34896 v 2.43489 h 0.0573 q 1.66146,-2.77864 4.8125,-2.77864 2.40625,0 3.68099,1.56119 1.27474,1.54688 1.27474,4.48308 z"
         style="font-style:normal;font-variant:normal;font-weight:normal;font-stretch:normal;font-family:'Segoe UI';-inkscape-font-specification:'Segoe UI';fill:#afc6e9;stroke-width:0.80391967;stroke:#afc6e9"
         id="path882" />
      <path
         d="m 228.60417,132.7177 q -3.2513,0 -5.19921,-2.04817 -1.9336,-2.0625 -1.9336,-5.45704 0,-3.69531 2.01953,-5.77213 2.01953,-2.07682 5.45703,-2.07682 3.27995,0 5.11329,2.01953 1.84765,2.01953 1.84765,5.60026 0,3.50911 -1.99088,5.6289 -1.97657,2.10547 -5.31381,2.10547 z m 0.17188,-13.3776 q -2.26302,0 -3.58073,1.54687 -1.31771,1.53256 -1.31771,4.23959 0,2.60677 1.33203,4.11067 1.33203,1.50391 3.56641,1.50391 2.27734,0 3.49479,-1.47526 1.23177,-1.47526 1.23177,-4.19661 0,-2.75 -1.23177,-4.23959 -1.21745,-1.48958 -3.49479,-1.48958 z"
         style="font-style:normal;font-variant:normal;font-weight:normal;font-stretch:normal;font-family:'Segoe UI';-inkscape-font-specification:'Segoe UI';fill:#afc6e9;stroke-width:0.80391967;stroke:#afc6e9"
         id="path884" />
      <path
         d="m 250.08854,130.25416 h -0.0573 v 8.86589 h -2.34896 v -21.41276 h 2.34896 v 2.57812 h 0.0573 q 1.73308,-2.92187 5.07032,-2.92187 2.83593,0 4.42578,1.97656 1.58984,1.96224 1.58984,5.27083 0,3.68099 -1.79036,5.90104 -1.79037,2.20573 -4.89844,2.20573 -2.85026,0 -4.39714,-2.46354 z m -0.0573,-5.91536 v 2.04817 q 0,1.81901 1.17448,3.09375 1.1888,1.26042 3.00781,1.26042 2.13412,0 3.33724,-1.63281 1.21745,-1.63281 1.21745,-4.54037 0,-2.44922 -1.13151,-3.83854 -1.13151,-1.38932 -3.0651,-1.38932 -2.04818,0 -3.29427,1.43229 -1.2461,1.41797 -1.2461,3.56641 z"
         style="font-style:normal;font-variant:normal;font-weight:normal;font-stretch:normal;font-family:'Segoe UI';-inkscape-font-specification:'Segoe UI';fill:#afc6e9;stroke-width:0.80391967;stroke:#afc6e9"
         id="path886" />
      <path
         d="m 277.10157,132.37395 h -2.34896 v -8.45052 q 0,-4.58333 -3.40885,-4.58333 -1.71875,0 -2.89323,1.33203 -1.17448,1.31771 -1.17448,3.39453 v 8.30729 h -2.34896 v -21.71354 h 2.34896 v 9.48177 h 0.0573 q 1.6901,-2.77864 4.8125,-2.77864 4.95573,0 4.95573,5.97265 z"
         style="font-style:normal;font-variant:normal;font-weight:normal;font-stretch:normal;font-family:'Segoe UI';-inkscape-font-specification:'Segoe UI';fill:#afc6e9;stroke-width:0.80391967;stroke:#afc6e9"
         id="path888" />
      <path
         d="m 287.67188,132.7177 q -3.2513,0 -5.19922,-2.04817 -1.9336,-2.0625 -1.9336,-5.45704 0,-3.69531 2.01954,-5.77213 2.01953,-2.07682 5.45703,-2.07682 3.27995,0 5.11328,2.01953 1.84766,2.01953 1.84766,5.60026 0,3.50911 -1.99089,5.6289 -1.97656,2.10547 -5.3138,2.10547 z m 0.17187,-13.3776 q -2.26302,0 -3.58073,1.54687 -1.31771,1.53256 -1.31771,4.23959 0,2.60677 1.33204,4.11067 1.33203,1.50391 3.5664,1.50391 2.27735,0 3.49479,-1.47526 1.23178,-1.47526 1.23178,-4.19661 0,-2.75 -1.23178,-4.23959 -1.21744,-1.48958 -3.49479,-1.48958 z"
         style="font-style:normal;font-variant:normal;font-weight:normal;font-stretch:normal;font-family:'Segoe UI';-inkscape-font-specification:'Segoe UI';fill:#afc6e9;stroke-width:0.80391967;stroke:#afc6e9"
         id="path890" />
      <path
         d="m 305.53255,132.23072 q -0.83072,0.45834 -2.1914,0.45834 -3.85287,0 -3.85287,-4.29688 v -8.67969 h -2.52083 v -2.0052 h 2.52083 v -3.58073 l 2.34896,-0.75912 v 4.33985 h 3.69531 v 2.0052 h -3.69531 v 8.26433 q 0,1.47526 0.5013,2.10547 0.50131,0.63021 1.66146,0.63021 0.88802,0 1.53255,-0.48698 z"
         style="font-style:normal;font-variant:normal;font-weight:normal;font-stretch:normal;font-family:'Segoe UI';-inkscape-font-specification:'Segoe UI';fill:#afc6e9;stroke-width:0.80391967;stroke:#afc6e9"
         id="path892" />
      <path
         d="m 314.82813,132.7177 q -3.2513,0 -5.19922,-2.04817 -1.9336,-2.0625 -1.9336,-5.45704 0,-3.69531 2.01954,-5.77213 2.01953,-2.07682 5.45703,-2.07682 3.27995,0 5.11328,2.01953 1.84766,2.01953 1.84766,5.60026 0,3.50911 -1.99089,5.6289 -1.97656,2.10547 -5.3138,2.10547 z M 315,119.3401 q -2.26302,0 -3.58073,1.54687 -1.31771,1.53256 -1.31771,4.23959 0,2.60677 1.33204,4.11067 1.33203,1.50391 3.5664,1.50391 2.27735,0 3.49479,-1.47526 1.23178,-1.47526 1.23178,-4.19661 0,-2.75 -1.23178,-4.23959 Q 317.27735,119.3401 315,119.3401 Z"
         style="font-style:normal;font-variant:normal;font-weight:normal;font-stretch:normal;font-family:'Segoe UI';-inkscape-font-specification:'Segoe UI';fill:#afc6e9;stroke-width:0.80391967;stroke:#afc6e9"
         id="path894" />
      <path
         d="m 324.9974,131.84401 v -2.52084 q 1.91927,1.41797 4.22526,1.41797 3.09375,0 3.09375,-2.0625 0,-0.58724 -0.27214,-0.98828 -0.25781,-0.41537 -0.71614,-0.73047 -0.44401,-0.3151 -1.0599,-0.55859 -0.60156,-0.25782 -1.30338,-0.52995 -0.97396,-0.38672 -1.71875,-0.77344 -0.73047,-0.40104 -1.23177,-0.88802 -0.48698,-0.5013 -0.7448,-1.13151 -0.24349,-0.63021 -0.24349,-1.47526 0,-1.03125 0.47266,-1.81901 0.47266,-0.80208 1.26042,-1.33203 0.78776,-0.54427 1.79036,-0.81641 1.01693,-0.27213 2.09115,-0.27213 1.90495,0 3.40885,0.65885 v 2.3776 q -1.61849,-1.05989 -3.72396,-1.05989 -0.65885,0 -1.1888,0.15755 -0.52995,0.14323 -0.91667,0.41537 -0.37239,0.27213 -0.58724,0.65885 -0.20052,0.3724 -0.20052,0.83073 0,0.57292 0.20052,0.95963 0.21485,0.38672 0.61589,0.6875 0.40104,0.30079 0.97396,0.54428 0.57292,0.24348 1.30338,0.52994 0.97396,0.3724 1.7474,0.77344 0.77344,0.38672 1.31771,0.88802 0.54427,0.48698 0.83073,1.13151 0.30078,0.64453 0.30078,1.53255 0,1.08855 -0.48698,1.89063 -0.47266,0.80208 -1.27474,1.33203 -0.80208,0.52995 -1.84766,0.78776 -1.04557,0.25781 -2.1914,0.25781 -2.26302,0 -3.92448,-0.87369 z"
         style="font-style:normal;font-variant:normal;font-weight:normal;font-stretch:normal;font-family:'Segoe UI';-inkscape-font-specification:'Segoe UI';fill:#afc6e9;stroke-width:0.80391967;stroke:#afc6e9"
         id="path896" />
      <path
         d="m 83.298174,172.23072 q -0.830729,0.45834 -2.191406,0.45834 -3.852865,0 -3.852865,-4.29688 v -8.67969 H 74.73307 v -2.0052 h 2.520833 v -3.58073 l 2.348959,-0.75912 v 4.33985 h 3.695312 v 2.0052 h -3.695312 v 8.26433 q 0,1.47526 0.501302,2.10547 0.501302,0.63021 1.661458,0.63021 0.888021,0 1.532552,-0.48698 z"
         style="font-style:normal;font-variant:normal;font-weight:normal;font-stretch:normal;font-family:'Segoe UI';-inkscape-font-specification:'Segoe UI';fill:#afc6e9;stroke-width:0.80391967;stroke:#afc6e9"
         id="path898" />
      <path
         d="m 92.593747,172.7177 q -3.251302,0 -5.199219,-2.04817 -1.933593,-2.0625 -1.933593,-5.45704 0,-3.69531 2.019531,-5.77213 2.019531,-2.07682 5.457031,-2.07682 3.279948,0 5.113282,2.01953 1.847656,2.01953 1.847656,5.60026 0,3.50911 -1.990885,5.6289 -1.976563,2.10547 -5.313803,2.10547 z m 0.171875,-13.3776 q -2.263021,0 -3.580729,1.54687 -1.317708,1.53256 -1.317708,4.23959 0,2.60677 1.332031,4.11067 1.332031,1.50391 3.566406,1.50391 2.277344,0 3.494792,-1.47526 1.231771,-1.47526 1.231771,-4.19661 0,-2.75 -1.231771,-4.23959 -1.217448,-1.48958 -3.494792,-1.48958 z"
         style="font-style:normal;font-variant:normal;font-weight:normal;font-stretch:normal;font-family:'Segoe UI';-inkscape-font-specification:'Segoe UI';fill:#afc6e9;stroke-width:0.80391967;stroke:#afc6e9"
         id="path900" />
      <path
         d="m 110.78385,171.84401 v -2.52084 q 1.91927,1.41797 4.22526,1.41797 3.09375,0 3.09375,-2.0625 0,-0.58724 -0.27213,-0.98828 -0.25781,-0.41537 -0.71615,-0.73047 -0.44401,-0.3151 -1.05989,-0.55859 -0.60157,-0.25782 -1.30339,-0.52995 -0.97396,-0.38672 -1.71875,-0.77344 -0.73047,-0.40104 -1.23177,-0.88802 -0.48698,-0.5013 -0.74479,-1.13151 -0.24349,-0.63021 -0.24349,-1.47526 0,-1.03125 0.47266,-1.81901 0.47265,-0.80208 1.26041,-1.33203 0.78776,-0.54427 1.79037,-0.81641 1.01692,-0.27213 2.09114,-0.27213 1.90495,0 3.40886,0.65885 v 2.3776 q -1.61849,-1.05989 -3.72396,-1.05989 -0.65886,0 -1.1888,0.15755 -0.52995,0.14323 -0.91667,0.41537 -0.3724,0.27213 -0.58724,0.65885 -0.20052,0.3724 -0.20052,0.83073 0,0.57292 0.20052,0.95963 0.21484,0.38672 0.61589,0.6875 0.40104,0.30079 0.97395,0.54428 0.57292,0.24348 1.30339,0.52994 0.97396,0.3724 1.7474,0.77344 0.77343,0.38672 1.3177,0.88802 0.54427,0.48698 0.83073,1.13151 0.30078,0.64453 0.30078,1.53255 0,1.08855 -0.48697,1.89063 -0.47266,0.80208 -1.27474,1.33203 -0.80209,0.52995 -1.84766,0.78776 -1.04557,0.25781 -2.19141,0.25781 -2.26302,0 -3.92448,-0.87369 z"
         style="font-style:normal;font-variant:normal;font-weight:normal;font-stretch:normal;font-family:'Segoe UI';-inkscape-font-specification:'Segoe UI';fill:#afc6e9;stroke-width:0.80391967;stroke:#afc6e9"
         id="path902" />
      <path
         d="m 136.27864,172.37395 h -2.34896 v -8.45052 q 0,-4.58333 -3.40885,-4.58333 -1.71875,0 -2.89323,1.33203 -1.17448,1.31771 -1.17448,3.39453 v 8.30729 h -2.34896 v -21.71354 h 2.34896 v 9.48177 h 0.0573 q 1.69011,-2.77864 4.8125,-2.77864 4.95573,0 4.95573,5.97265 z"
         style="font-style:normal;font-variant:normal;font-weight:normal;font-stretch:normal;font-family:'Segoe UI';-inkscape-font-specification:'Segoe UI';fill:#afc6e9;stroke-width:0.80391967;stroke:#afc6e9"
         id="path904" />
      <path
         d="m 146.84896,172.7177 q -3.2513,0 -5.19922,-2.04817 -1.93359,-2.0625 -1.93359,-5.45704 0,-3.69531 2.01953,-5.77213 2.01953,-2.07682 5.45703,-2.07682 3.27995,0 5.11328,2.01953 1.84766,2.01953 1.84766,5.60026 0,3.50911 -1.99089,5.6289 -1.97656,2.10547 -5.3138,2.10547 z m 0.17187,-13.3776 q -2.26302,0 -3.58073,1.54687 -1.3177,1.53256 -1.3177,4.23959 0,2.60677 1.33203,4.11067 1.33203,1.50391 3.5664,1.50391 2.27735,0 3.49479,-1.47526 1.23178,-1.47526 1.23178,-4.19661 0,-2.75 -1.23178,-4.23959 -1.21744,-1.48958 -3.49479,-1.48958 z"
         style="font-style:normal;font-variant:normal;font-weight:normal;font-stretch:normal;font-family:'Segoe UI';-inkscape-font-specification:'Segoe UI';fill:#afc6e9;stroke-width:0.80391967;stroke:#afc6e9"
         id="path906" />
      <path
         d="m 176.38281,157.70729 -4.39713,14.66666 h -2.4349 l -3.02213,-10.49869 q -0.17188,-0.60157 -0.22917,-1.36068 h -0.0573 q -0.043,0.51562 -0.30078,1.33203 l -3.27995,10.52734 h -2.34896 l -4.4401,-14.66666 h 2.46354 l 3.03646,11.02864 q 0.14322,0.5013 0.20052,1.31771 h 0.11458 q 0.043,-0.63021 0.25781,-1.34635 l 3.38021,-11 h 2.14844 l 3.03646,11.05729 q 0.14323,0.52995 0.21484,1.31771 h 0.11458 q 0.0286,-0.5586 0.24349,-1.31771 l 2.97917,-11.05729 z"
         style="font-style:normal;font-variant:normal;font-weight:normal;font-stretch:normal;font-family:'Segoe UI';-inkscape-font-specification:'Segoe UI';fill:#afc6e9;stroke-width:0.80391967;stroke:#afc6e9"
         id="path908" />
      <path
         d="m 197.6237,172.37395 h -2.34896 v -2.29166 h -0.0573 q -1.53255,2.63541 -4.51172,2.63541 -2.19141,0 -3.4375,-1.16015 -1.23177,-1.16016 -1.23177,-3.07943 0,-4.11068 4.84114,-4.78385 l 4.39714,-0.61589 q 0,-3.73828 -3.02214,-3.73828 -2.64974,0 -4.78385,1.80469 v -2.40625 q 2.16276,-1.375 4.98437,-1.375 5.17058,0 5.17058,5.47135 z m -2.34896,-7.41927 -3.53776,0.48698 q -1.63281,0.22917 -2.46354,0.81641 -0.83073,0.57291 -0.83073,2.04817 0,1.07422 0.75911,1.76172 0.77344,0.67318 2.04818,0.67318 1.7474,0 2.87891,-1.21745 1.14583,-1.23177 1.14583,-3.10807 z"
         style="font-style:normal;font-variant:normal;font-weight:normal;font-stretch:normal;font-family:'Segoe UI';-inkscape-font-specification:'Segoe UI';fill:#afc6e9;stroke-width:0.80391967;stroke:#afc6e9"
         id="path910" />
      <path
         d="m 208.88151,172.23072 q -0.83073,0.45834 -2.19141,0.45834 -3.85286,0 -3.85286,-4.29688 v -8.67969 h -2.52083 v -2.0052 h 2.52083 v -3.58073 l 2.34896,-0.75912 v 4.33985 h 3.69531 v 2.0052 h -3.69531 v 8.26433 q 0,1.47526 0.5013,2.10547 0.5013,0.63021 1.66146,0.63021 0.88802,0 1.53255,-0.48698 z"
         style="font-style:normal;font-variant:normal;font-weight:normal;font-stretch:normal;font-family:'Segoe UI';-inkscape-font-specification:'Segoe UI';fill:#afc6e9;stroke-width:0.80391967;stroke:#afc6e9"
         id="path912" />
      <path
         d="m 226.8711,172.23072 q -0.83073,0.45834 -2.19141,0.45834 -3.85286,0 -3.85286,-4.29688 v -8.67969 h -2.52084 v -2.0052 h 2.52084 v -3.58073 l 2.34895,-0.75912 v 4.33985 h 3.69532 v 2.0052 h -3.69532 v 8.26433 q 0,1.47526 0.50131,2.10547 0.5013,0.63021 1.66145,0.63021 0.88802,0 1.53256,-0.48698 z"
         style="font-style:normal;font-variant:normal;font-weight:normal;font-stretch:normal;font-family:'Segoe UI';-inkscape-font-specification:'Segoe UI';fill:#afc6e9;stroke-width:0.80391967;stroke:#afc6e9"
         id="path914" />
      <path
         d="m 242.21094,172.37395 h -2.34896 v -8.45052 q 0,-4.58333 -3.40885,-4.58333 -1.71875,0 -2.89323,1.33203 -1.17448,1.31771 -1.17448,3.39453 v 8.30729 h -2.34896 v -21.71354 h 2.34896 v 9.48177 h 0.0573 q 1.6901,-2.77864 4.8125,-2.77864 4.95573,0 4.95573,5.97265 z"
         style="font-style:normal;font-variant:normal;font-weight:normal;font-stretch:normal;font-family:'Segoe UI';-inkscape-font-specification:'Segoe UI';fill:#afc6e9;stroke-width:0.80391967;stroke:#afc6e9"
         id="path916" />
      <path
         d="m 247.85416,153.98333 q -0.6302,0 -1.07421,-0.42969 -0.44402,-0.42969 -0.44402,-1.08854 0,-0.65886 0.44402,-1.08854 0.44401,-0.44401 1.07421,-0.44401 0.64454,0 1.08855,0.44401 0.45833,0.42968 0.45833,1.08854 0,0.63021 -0.45833,1.07422 -0.44401,0.44401 -1.08855,0.44401 z M 249,172.37395 h -2.34896 V 157.70729 H 249 Z"
         style="font-style:normal;font-variant:normal;font-weight:normal;font-stretch:normal;font-family:'Segoe UI';-inkscape-font-specification:'Segoe UI';fill:#afc6e9;stroke-width:0.80391967;stroke:#afc6e9"
         id="path918" />
      <path
         d="m 252.86719,171.84401 v -2.52084 q 1.91927,1.41797 4.22526,1.41797 3.09375,0 3.09375,-2.0625 0,-0.58724 -0.27214,-0.98828 -0.25781,-0.41537 -0.71614,-0.73047 -0.44401,-0.3151 -1.0599,-0.55859 -0.60156,-0.25782 -1.30338,-0.52995 -0.97396,-0.38672 -1.71875,-0.77344 -0.73047,-0.40104 -1.23177,-0.88802 -0.48698,-0.5013 -0.74479,-1.13151 -0.24349,-0.63021 -0.24349,-1.47526 0,-1.03125 0.47265,-1.81901 0.47266,-0.80208 1.26042,-1.33203 0.78776,-0.54427 1.79036,-0.81641 1.01693,-0.27213 2.09115,-0.27213 1.90495,0 3.40885,0.65885 v 2.3776 q -1.61849,-1.05989 -3.72396,-1.05989 -0.65885,0 -1.1888,0.15755 -0.52995,0.14323 -0.91666,0.41537 -0.3724,0.27213 -0.58724,0.65885 -0.20052,0.3724 -0.20052,0.83073 0,0.57292 0.20052,0.95963 0.21484,0.38672 0.61588,0.6875 0.40104,0.30079 0.97396,0.54428 0.57292,0.24348 1.30339,0.52994 0.97395,0.3724 1.74739,0.77344 0.77344,0.38672 1.31771,0.88802 0.54427,0.48698 0.83073,1.13151 0.30078,0.64453 0.30078,1.53255 0,1.08855 -0.48698,1.89063 -0.47266,0.80208 -1.27474,1.33203 -0.80208,0.52995 -1.84765,0.78776 -1.04558,0.25781 -2.19141,0.25781 -2.26302,0 -3.92448,-0.87369 z"
         style="font-style:normal;font-variant:normal;font-weight:normal;font-stretch:normal;font-family:'Segoe UI';-inkscape-font-specification:'Segoe UI';fill:#afc6e9;stroke-width:0.80391967;stroke:#afc6e9"
         id="path920" />
      <path
         d="m 281.01172,172.23072 q -0.83073,0.45834 -2.19141,0.45834 -3.85286,0 -3.85286,-4.29688 v -8.67969 h -2.52083 v -2.0052 h 2.52083 v -3.58073 l 2.34896,-0.75912 v 4.33985 h 3.69531 v 2.0052 h -3.69531 v 8.26433 q 0,1.47526 0.5013,2.10547 0.5013,0.63021 1.66146,0.63021 0.88802,0 1.53255,-0.48698 z"
         style="font-style:normal;font-variant:normal;font-weight:normal;font-stretch:normal;font-family:'Segoe UI';-inkscape-font-specification:'Segoe UI';fill:#afc6e9;stroke-width:0.80391967;stroke:#afc6e9"
         id="path922" />
      <path
         d="m 285.38021,153.98333 q -0.63021,0 -1.07422,-0.42969 -0.44401,-0.42969 -0.44401,-1.08854 0,-0.65886 0.44401,-1.08854 0.44401,-0.44401 1.07422,-0.44401 0.64453,0 1.08854,0.44401 0.45834,0.42968 0.45834,1.08854 0,0.63021 -0.45834,1.07422 -0.44401,0.44401 -1.08854,0.44401 z m 1.14583,18.39062 h -2.34895 v -14.66666 h 2.34895 z"
         style="font-style:normal;font-variant:normal;font-weight:normal;font-stretch:normal;font-family:'Segoe UI';-inkscape-font-specification:'Segoe UI';fill:#afc6e9;stroke-width:0.80391967;stroke:#afc6e9"
         id="path924" />
      <path
         d="m 312.10678,172.37395 h -2.34896 v -8.42187 q 0,-2.4349 -0.75911,-3.52344 -0.7448,-1.08854 -2.52084,-1.08854 -1.5039,0 -2.5638,1.375 -1.04557,1.375 -1.04557,3.29427 v 8.36458 h -2.34896 v -8.70833 q 0,-4.32552 -3.33724,-4.32552 -1.54688,0 -2.54948,1.30338 -1.0026,1.28907 -1.0026,3.36589 v 8.36458 h -2.34896 v -14.66666 h 2.34896 v 2.32031 h 0.0573 q 1.5612,-2.66406 4.55469,-2.66406 1.5039,0 2.62109,0.84505 1.11719,0.83073 1.53255,2.1914 1.63281,-3.03645 4.86979,-3.03645 4.84115,0 4.84115,5.97265 z"
         style="font-style:normal;font-variant:normal;font-weight:normal;font-stretch:normal;font-family:'Segoe UI';-inkscape-font-specification:'Segoe UI';fill:#afc6e9;stroke-width:0.80391967;stroke:#afc6e9"
         id="path926" />
      <path
         d="m 328.33464,165.62786 h -10.35547 q 0.0573,2.44922 1.31771,3.78125 1.26042,1.33203 3.46615,1.33203 2.47786,0 4.55469,-1.63281 v 2.20573 q -1.9336,1.40364 -5.11329,1.40364 -3.10807,0 -4.88411,-1.99088 -1.77604,-2.00521 -1.77604,-5.62891 0,-3.42318 1.93359,-5.57161 1.94792,-2.16276 4.82683,-2.16276 2.8789,0 4.45442,1.86198 1.57552,1.86197 1.57552,5.17057 z m -2.40625,-1.99089 q -0.0143,-2.03385 -0.98828,-3.16536 -0.95963,-1.13151 -2.67838,-1.13151 -1.66146,0 -2.82162,1.1888 -1.16015,1.1888 -1.43229,3.10807 z"
         style="font-style:normal;font-variant:normal;font-weight:normal;font-stretch:normal;font-family:'Segoe UI';-inkscape-font-specification:'Segoe UI';fill:#afc6e9;stroke-width:0.80391967;stroke:#afc6e9"
         id="path928" />
      <path
         d="m 332.71745,172.68906 q -0.65886,0 -1.13152,-0.47266 -0.45833,-0.47265 -0.45833,-1.13151 0,-0.65885 0.45833,-1.13151 0.47266,-0.48698 1.13152,-0.48698 0.67317,0 1.14583,0.48698 0.47265,0.47266 0.47265,1.13151 0,0.65886 -0.47265,1.13151 -0.47266,0.47266 -1.14583,0.47266 z"
         style="font-style:normal;font-variant:normal;font-weight:normal;font-stretch:normal;font-family:'Segoe UI';-inkscape-font-specification:'Segoe UI';fill:#afc6e9;stroke-width:0.80391967;stroke:#afc6e9"
         id="path930" />
    </g>
  </g>
</svg>
