<?xml version="1.0" encoding="UTF-8" standalone="no"?>
<!-- Created with Inkscape (http://www.inkscape.org/) -->

<svg
   xmlns:dc="http://purl.org/dc/elements/1.1/"
   xmlns:cc="http://creativecommons.org/ns#"
   xmlns:rdf="http://www.w3.org/1999/02/22-rdf-syntax-ns#"
   xmlns:svg="http://www.w3.org/2000/svg"
   xmlns="http://www.w3.org/2000/svg"
   xmlns:sodipodi="http://sodipodi.sourceforge.net/DTD/sodipodi-0.dtd"
   xmlns:inkscape="http://www.inkscape.org/namespaces/inkscape"
   width="400"
   height="300"
   viewBox="0 0 105.83333 79.375002"
   version="1.1"
   id="svg8"
   inkscape:version="0.92.4 (5da689c313, 2019-01-14)"
   sodipodi:docname="wait.svg">
  <defs
     id="defs2" />
  <sodipodi:namedview
     id="base"
     pagecolor="#ffffff"
     bordercolor="#666666"
     borderopacity="1.0"
     inkscape:pageopacity="0.0"
     inkscape:pageshadow="2"
     inkscape:zoom="1.4"
     inkscape:cx="81.227271"
     inkscape:cy="154.91466"
     inkscape:document-units="px"
     inkscape:current-layer="layer1"
     showgrid="false"
     units="px"
     inkscape:snap-page="true"
     inkscape:window-width="1366"
     inkscape:window-height="715"
     inkscape:window-x="-8"
     inkscape:window-y="-8"
     inkscape:window-maximized="1" />
  <metadata
     id="metadata5">
    <rdf:RDF>
      <cc:Work
         rdf:about="">
        <dc:format>image/svg+xml</dc:format>
        <dc:type
           rdf:resource="http://purl.org/dc/dcmitype/StillImage" />
        <dc:title></dc:title>
      </cc:Work>
    </rdf:RDF>
  </metadata>
  <g
     inkscape:label="Layer 1"
     inkscape:groupmode="layer"
     id="layer1"
     transform="translate(0,-217.62499)">
    <rect
       style="opacity:1;fill:#000000;fill-opacity:1;stroke:none;stroke-width:0.52916664;stroke-linecap:square;stroke-linejoin:round;stroke-miterlimit:4;stroke-dasharray:none;stroke-dashoffset:0;stroke-opacity:1;paint-order:fill markers stroke"
       id="rect817"
       width="105.83333"
       height="79.375"
       x="0"
       y="217.62498" />
    <g
       aria-label="PLEASE
WAIT..."
       transform="matrix(0.73875255,0,0,0.7420906,-119.25909,201.14822)"
       style="font-style:normal;font-variant:normal;font-weight:900;font-stretch:normal;font-size:29.33333397px;line-height:40px;font-family:'Segoe UI';-inkscape-font-specification:'Segoe UI Heavy';text-align:center;text-anchor:middle;opacity:1;fill:#0b1728;fill-opacity:1;stroke:#afc6e9;stroke-width:0.35734236;stroke-linecap:square;stroke-linejoin:round;stroke-miterlimit:4;stroke-dasharray:none;stroke-dashoffset:0;stroke-opacity:1;paint-order:fill markers stroke"
       id="flowRoot1496">
      <path
         d="m 199.21061,52.181896 q 0,2.105469 -1.07422,3.738281 -1.05989,1.632813 -3.03646,2.535156 -1.97656,0.888021 -4.59765,0.888021 h -1.89063 v 6.602865 h -6.1875 V 45.407156 h 8.42188 q 4.33984,0 6.34505,1.647136 2.01953,1.647135 2.01953,5.127604 z m -6.54557,0.214844 q 0,-1.260417 -0.73047,-1.904948 -0.73047,-0.644532 -2.14844,-0.644532 h -1.17448 v 5.070313 h 1.38933 q 2.66406,0 2.66406,-2.520833 z"
         style="stroke:#afc6e9;stroke-width:0.35734236;fill:#0b1728"
         id="path1506" />
      <path
         d="M 201.67415,65.946219 V 45.407156 h 6.1875 v 15.697917 h 7.07552 v 4.841146 z"
         style="stroke:#afc6e9;stroke-width:0.35734236;fill:#0b1728"
         id="path1508" />
      <path
         d="M 217.54395,65.946219 V 45.407156 h 12.79036 v 4.841146 h -6.60286 v 2.99349 h 6.20182 v 4.841146 h -6.20182 v 3.022135 h 7.07552 v 4.841146 z"
         style="stroke:#afc6e9;stroke-width:0.35734236;fill:#0b1728"
         id="path1510" />
      <path
         d="m 246.63379,65.946219 -0.90234,-3.78125 h -6.13021 l -0.97396,3.78125 h -6.6888 L 239.014,45.407156 h 7.67708 l 6.66016,20.539063 z m -3.89583,-16.070313 h -0.14323 q -0.0286,0.34375 -0.20052,1.131511 -0.17188,0.78776 -1.73308,6.760416 h 3.92448 l -1.43229,-5.585937 q -0.30078,-1.231771 -0.41536,-2.30599 z"
         style="stroke:#afc6e9;stroke-width:0.35734236;fill:#0b1728"
         id="path1512" />
      <path
         d="m 270.02311,59.730073 q 0,2.048177 -1.10286,3.566406 -1.08854,1.51823 -3.06511,2.263021 -1.97656,0.744792 -4.7552,0.744792 -3.22266,0 -5.90105,-1.088542 v -5.628906 q 1.28907,0.945312 2.85027,1.532552 1.56119,0.572917 2.90755,0.572917 1.01692,0 1.57552,-0.358073 0.55859,-0.372396 0.55859,-1.074219 0,-0.501302 -0.28646,-0.873698 -0.27213,-0.386719 -0.84505,-0.716146 -0.55859,-0.329427 -2.09114,-0.902344 -4.95573,-1.904948 -4.95573,-6.158854 0,-2.979167 2.26302,-4.755208 2.26302,-1.790365 6.07291,-1.790365 1.07422,0 1.97657,0.08594 0.90234,0.08594 1.63281,0.214843 0.74479,0.128907 2.07682,0.48698 v 5.227864 q -2.59245,-1.417969 -5.09896,-1.417969 -1.03125,0 -1.66145,0.386719 -0.63021,0.386719 -0.63021,1.059896 0,0.644531 0.5013,1.074219 0.51562,0.415364 2.13411,1.088542 3.19401,1.289062 4.51172,2.821614 1.33203,1.532552 1.33203,3.638021 z"
         style="stroke:#afc6e9;stroke-width:0.35734236;fill:#0b1728"
         id="path1514" />
      <path
         d="M 272.54395,65.946219 V 45.407156 h 12.79036 v 4.841146 h -6.60286 v 2.99349 h 6.20182 v 4.841146 h -6.20182 v 3.022135 h 7.07552 v 4.841146 z"
         style="stroke:#afc6e9;stroke-width:0.35734236;fill:#0b1728"
         id="path1516" />
      <path
         d="m 203.98014,105.94622 h -6.57422 l -2.85026,-11.701824 q -0.1289,-0.501302 -0.28646,-2.492188 h -0.0573 q -0.21484,1.761719 -0.41536,2.492188 l -3.07943,11.701824 h -6.96094 l -4.89843,-20.539064 h 6.78906 l 1.71875,12.088542 q 0.043,0.229167 0.12891,1.332031 l 0.0859,1.188801 h 0.0859 q 0.0286,-0.372394 0.17188,-1.260415 0.14322,-0.902344 0.27213,-1.346354 l 3.16537,-12.002605 h 6.74609 l 2.63542,12.17448 0.18619,1.217447 0.14323,1.188803 h 0.0573 l 0.043,-0.501303 0.1862,-1.990885 1.79037,-12.088542 h 6.10156 z"
         style="stroke:#afc6e9;stroke-width:0.35734236;fill:#0b1728"
         id="path1518" />
      <path
         d="m 224.34733,105.94622 -0.90234,-3.78125 h -6.13021 l -0.97396,3.78125 h -6.6888 l 7.07552,-20.539064 h 7.67708 l 6.66016,20.539064 z M 220.4515,89.875906 h -0.14323 q -0.0286,0.34375 -0.20052,1.131511 -0.17188,0.78776 -1.73308,6.760416 h 3.92448 l -1.43229,-5.585937 q -0.30078,-1.231771 -0.41536,-2.30599 z"
         style="stroke:#afc6e9;stroke-width:0.35734236;fill:#0b1728"
         id="path1520" />
      <path
         d="M 233.47103,105.94622 V 85.407156 h 6.1875 v 20.539064 z"
         style="stroke:#afc6e9;stroke-width:0.35734236;fill:#0b1728"
         id="path1522" />
      <path
         d="m 254.11035,90.248302 v 15.697918 h -6.21614 V 90.248302 h -5.74349 v -4.841146 h 17.77474 v 4.841146 z"
         style="stroke:#afc6e9;stroke-width:0.35734236;fill:#0b1728"
         id="path1524" />
      <path
         d="m 268.47624,103.39674 q 0,1.30339 -0.91667,2.10547 -0.91667,0.80208 -2.53516,0.80208 -1.47526,0 -2.42057,-0.83073 -0.93099,-0.84505 -0.93099,-2.07682 0,-1.26042 0.91667,-2.03385 0.93099,-0.78776 2.49218,-0.78776 1.51823,0 2.44922,0.78776 0.94532,0.77343 0.94532,2.03385 z"
         style="stroke:#afc6e9;stroke-width:0.35734236;fill:#0b1728"
         id="path1526" />
      <path
         d="m 277.87207,103.39674 q 0,1.30339 -0.91666,2.10547 -0.91667,0.80208 -2.53516,0.80208 -1.47526,0 -2.42057,-0.83073 -0.93099,-0.84505 -0.93099,-2.07682 0,-1.26042 0.91666,-2.03385 0.93099,-0.78776 2.49219,-0.78776 1.51823,0 2.44922,0.78776 0.94531,0.77343 0.94531,2.03385 z"
         style="stroke:#afc6e9;stroke-width:0.35734236;fill:#0b1728"
         id="path1528" />
      <path
         d="m 287.26791,103.39674 q 0,1.30339 -0.91667,2.10547 -0.91667,0.80208 -2.53516,0.80208 -1.47526,0 -2.42057,-0.83073 -0.93099,-0.84505 -0.93099,-2.07682 0,-1.26042 0.91667,-2.03385 0.93099,-0.78776 2.49219,-0.78776 1.51823,0 2.44922,0.78776 0.94531,0.77343 0.94531,2.03385 z"
         style="stroke:#afc6e9;stroke-width:0.35734236;fill:#0b1728"
         id="path1530" />
    </g>
  </g>
</svg>
