<?xml version="1.0" encoding="UTF-8"?>
<svg width="579" height="318" version="1.1" viewBox="0 0 153 84.1" xmlns="http://www.w3.org/2000/svg">
    <g transform="translate(-3.93,-106)" fill="#b3b3b3">
        <g transform="translate(7.67,85.7)" stroke-dashoffset="17">
            <g style="font-feature-settings:normal;font-variant-caps:normal;font-variant-ligatures:normal;font-variant-numeric:normal;paint-order:normal" aria-label="while">
                <path d="m19 46.9q-.513-1.16-.889-2.12-.376-.958-.753-1.92-.342-.958-.718-1.98-.342-1.06-.821-2.39-.479 1.33-.855 2.39-.376 1.03-.753 1.98-.342.958-.753 1.92-.376.958-.889 2.12h-2.12q-.958-4.21-1.61-8.31-.616-4.14-.924-7.56h2.67q.103 1.33.205 2.63.137 1.27.308 2.67t.376 3.04q.239 1.64.513 3.69.547-1.37.924-2.39.376-1.03.684-1.95.308-.924.581-1.88.308-.958.65-2.15h2.12q.342 1.2.616 2.15t.581 1.88q.308.924.65 1.95t.855 2.36q.308-1.88.547-3.49t.41-3.01q.171-1.44.308-2.77t.239-2.74h2.57q-.171 1.71-.41 3.66t-.581 4-.753 4.17q-.41 2.09-.855 4.04z"/>
                <path d="m28.9 46.9v-23.2l2.84-.479v8.07q.684-.274 1.54-.41.855-.171 1.68-.171 1.81 0 3.01.547 1.23.513 1.95 1.47.718.958 1.03 2.29.308 1.33.308 2.94v8.96h-2.8v-8.35q0-2.94-.821-4.14-.821-1.23-2.94-1.23-.889 0-1.74.205-.821.171-1.2.342v13.2z"/>
                <path d="m52.9 28.5q-.889 0-1.54-.616-.65-.616-.65-1.68 0-1.06.65-1.68.65-.616 1.54-.616.924 0 1.54.616.65.616.65 1.68 0 1.06-.65 1.68-.616.616-1.54.616zm-.718 4.82h-4.58v-2.36h7.39v9.75q0 2.36.65 3.18.65.787 1.95.787.992 0 1.81-.239.855-.239 1.33-.513l.41 2.39q-.205.103-.581.274-.376.137-.889.274-.479.137-1.09.239-.581.103-1.23.103-1.51 0-2.5-.41-.992-.41-1.61-1.23-.581-.821-.821-2.02-.239-1.23-.239-2.84z"/>
                <path d="m76.5 47.2q-1.51 0-2.5-.41-.992-.41-1.57-1.23-.581-.821-.821-2.02-.239-1.23-.239-2.84v-15h-4.58v-2.39h7.39v17.4q0 1.2.137 1.95.171.753.479 1.23.342.445.821.616t1.13.171q.992 0 1.85-.239.855-.239 1.33-.513l.41 2.39q-.205.103-.581.274-.376.137-.889.274t-1.13.239q-.581.103-1.23.103z"/>
                <path d="m93 30.6q3.22 0 4.96 2.02 1.74 1.98 1.74 6.05v.992h-11.4q.171 2.46 1.61 3.76 1.47 1.27 4.1 1.27 1.51 0 2.57-.239t1.61-.513l.376 2.39q-.513.274-1.85.581-1.33.308-3.01.308-2.05 0-3.63-.616-1.54-.65-2.57-1.74t-1.54-2.6q-.513-1.54-.513-3.32 0-2.12.65-3.69t1.71-2.6 2.39-1.54q1.33-.513 2.74-.513zm3.83 6.77q0-2.02-1.06-3.18-1.06-1.2-2.8-1.2-.992 0-1.81.376-.787.376-1.37.992-.581.616-.924 1.4-.342.787-.445 1.61z"/>
            </g>
            <g stroke-width="2.54" style="font-feature-settings:normal;font-variant-caps:normal;font-variant-ligatures:normal;font-variant-numeric:normal;paint-order:normal" aria-label="sudoku">
                <path d="m8.84 67.7q2.29 0 3.51-.305 1.22-.356 1.22-1.37 0-.66-.406-1.12-.356-.457-1.07-.762-.66-.356-1.57-.66-.864-.305-1.83-.61-1.37-.406-2.79-.914-1.42-.559-2.59-1.37t-1.93-2.03q-.762-1.27-.762-3.15 0-1.52.559-2.84.61-1.37 1.83-2.39 1.27-1.07 3.2-1.63 1.93-.61 4.62-.61 2.34 0 4.32.356 2.03.356 3.51 1.02l-.965 5.28q-.864-.254-2.69-.813-1.83-.61-4.11-.61-2.39 0-3.25.61-.813.559-.813 1.22 0 .559.356 1.02.406.406 1.02.762.66.356 1.47.711.864.305 1.83.61 1.37.457 2.84 1.02t2.64 1.42q1.22.813 1.98 2.13.762 1.27.762 3.15 0 1.47-.559 2.79t-1.88 2.29q-1.27.965-3.35 1.52t-5.13.559q-3.1 0-5.28-.711t-3.51-1.27l.965-5.23q1.78.711 3.76 1.32 2.03.61 4.11.61z"/>
                <path d="m44.9 71.7q-1.73.457-4.22.914-2.44.457-5.33.457-2.95 0-4.83-.813t-3-2.29q-1.07-1.52-1.47-3.56t-.406-4.47v-13.3h6.25v12.5q0 3.3.762 4.93.813 1.57 3.1 1.57 1.42 0 2.84-.254v-18.7h6.3z"/>
                <path d="m55.8 60.4q0 3.2 1.17 5.23 1.22 2.03 3.86 2.03.762 0 1.42-.0508t1.37-.152v-13q-.711-.406-1.63-.66-.914-.305-1.93-.305-2.24 0-3.25 1.78t-1.02 5.13zm14.1 11.4q-1.73.559-4.22.914t-4.88.356q-5.59 0-8.48-3.3-2.84-3.3-2.84-9.04 0-5.84 2.39-9.19 2.44-3.4 7.16-3.4 1.27 0 2.49.305 1.22.254 2.13.762v-10.9l6.25-1.07z"/>
                <path d="m97.4 60.5q0 2.84-.813 5.18-.813 2.29-2.29 3.96t-3.56 2.59q-2.03.914-4.57.914t-4.62-.914q-2.03-.914-3.56-2.59-1.47-1.68-2.29-3.96-.813-2.34-.813-5.18 0-2.79.813-5.08.864-2.34 2.34-3.96 1.52-1.68 3.61-2.54 2.08-.914 4.52-.914 2.49 0 4.52.914 2.08.864 3.56 2.54 1.52 1.63 2.34 3.96.813 2.29.813 5.08zm-16.2.0508q0 3.2 1.12 5.18 1.17 1.98 3.71 1.98 2.44 0 3.66-1.98 1.27-1.98 1.27-5.18t-1.17-5.13q-1.12-1.98-3.66-1.98-2.44 0-3.71 1.98-1.22 1.93-1.22 5.13z"/>
                <path d="m108 58q.914-1.07 1.83-2.24.965-1.22 1.83-2.49.914-1.27 1.73-2.44.813-1.22 1.42-2.29h7.52q-.914 1.17-2.08 2.54t-2.44 2.79q-1.22 1.42-2.49 2.74-1.22 1.32-2.24 2.44 1.27 1.22 2.74 2.95 1.47 1.68 2.9 3.51t2.59 3.66q1.22 1.83 1.93 3.25h-7.16q-.61-1.27-1.63-2.84-.965-1.63-2.08-3.15-1.12-1.57-2.29-2.95-1.12-1.42-2.08-2.34v11.3h-6.3v-34.2l6.3-1.07z"/>
                <path d="m146 71.7q-1.73.457-4.22.914-2.44.457-5.33.457-2.95 0-4.83-.813t-3-2.29q-1.07-1.52-1.47-3.56t-.406-4.47v-13.3h6.25v12.5q0 3.3.762 4.93.813 1.57 3.1 1.57 1.42 0 2.84-.254v-18.7h6.3z"/>
            </g>
            <g stroke-width="2.65" style="font-feature-settings:normal;font-variant-caps:normal;font-variant-ligatures:normal;font-variant-numeric:normal;paint-order:stroke fill markers" aria-label="TM">
                <path d="m116 61.1v-2.75h-1.03v-.368h2.47v.368h-1.03v2.75z"/>
                <path d="m118 61.1v-3.11h.62l.737 2.21q.102.308.149.461.0531-.17.166-.499l.746-2.17h.555v3.11h-.397v-2.61l-.905 2.61h-.372l-.901-2.65v2.65z"/>
            </g>
        </g>
        <path d="m6.58 163h148s-136 4.43-144 24.2c0 0 7.32-16.1-3.44-24.2z" style="paint-order:normal"/>
    </g>
</svg>
