<?xml version="1.0" encoding="UTF-8" standalone="no"?>
<!-- Created with Inkscape (http://www.inkscape.org/) -->

<svg width="1000" height="500" viewBox="0 0 264.58333 132.29167" version="1.1" id="svg1" inkscape:version="1.3.2 (091e20e, 2023-11-25, custom)" sodipodi:docname="bg_stars01.svg" xmlns:inkscape="http://www.inkscape.org/namespaces/inkscape" xmlns:sodipodi="http://sodipodi.sourceforge.net/DTD/sodipodi-0.dtd" xmlns:xlink="http://www.w3.org/1999/xlink" xmlns="http://www.w3.org/2000/svg" xmlns:svg="http://www.w3.org/2000/svg">
    <sodipodi:namedview id="namedview1" pagecolor="#505050" bordercolor="#eeeeee" borderopacity="1" inkscape:showpageshadow="0" inkscape:pageopacity="0" inkscape:pagecheckerboard="0" inkscape:deskcolor="#d1d1d1" inkscape:document-units="px" inkscape:zoom="0.69308361" inkscape:cx="396.77752" inkscape:cy="-17.313928" inkscape:window-width="1920" inkscape:window-height="1013" inkscape:window-x="-9" inkscape:window-y="-9" inkscape:window-maximized="1" inkscape:current-layer="layer1" />
    <defs id="defs1">
        <pattern inkscape:collect="always" xlink:href="#pattern26" preserveAspectRatio="xMidYMid" id="pattern2" patternTransform="matrix(0.792374,0,0,0.792374,16.173608,1.6187541)" />
        <pattern patternUnits="userSpaceOnUse" width="108" height="103.85003" patternTransform="translate(-6.2500001,1.6187541)" preserveAspectRatio="xMidYMid" id="pattern26" inkscape:label="pattern26">
            <g id="g26" transform="translate(6.2500001,-1.6187541)">
                <g inkscape:groupmode="layer" id="designBottom" inkscape:label="Pattern Background">
                    <path sodipodi:type="star" style="fill:#000000;fill-opacity:1;stroke-width:9.6;stroke-linecap:square;stroke-linejoin:round;paint-order:stroke fill markers" id="path10" inkscape:flatsided="false" sodipodi:sides="5" sodipodi:cx="33.25" sodipodi:cy="37.75" sodipodi:r1="13.081475" sodipodi:r2="4.709331" sodipodi:arg1="0.78539816" sodipodi:arg2="1.4137167" inkscape:rounded="0" inkscape:randomized="0" d="M 42.5,47 33.986702,42.401351 27.311135,49.40568 29.053955,39.887992 20.329579,35.703606 29.92,34.42 l 1.283606,-9.590421 4.184386,8.724376 9.517688,-1.742821 -7.004329,6.675568 z" inkscape:transform-center-x="0.68383179" inkscape:transform-center-y="-0.68383174" transform="matrix(1.0813799,0,0,1.0813799,-5.1544186,-6.5206281)" />
                    <path sodipodi:type="star" style="fill:#000000;fill-opacity:1;stroke-width:9.6;stroke-linecap:square;stroke-linejoin:round;paint-order:stroke fill markers" id="path11" inkscape:flatsided="false" sodipodi:sides="5" sodipodi:cx="67" sodipodi:cy="16" sodipodi:r1="10.920165" sodipodi:r2="3.9312594" sodipodi:arg1="1.2924967" sodipodi:arg2="1.9208152" inkscape:rounded="0" inkscape:randomized="0" d="M 70,26.5 65.65191,19.692892 57.940957,22.097848 63.071268,15.859057 58.401204,9.2686769 65.92,12.22 l 4.824695,-6.4780343 -0.48344,8.0628093 7.65189,2.586734 -7.817578,2.031767 z" inkscape:transform-center-x="-0.92705098" inkscape:transform-center-y="0.1209829" />
                    <path sodipodi:type="star" style="fill:#000000;fill-opacity:1;stroke-width:9.6;stroke-linecap:square;stroke-linejoin:round;paint-order:stroke fill markers" id="path12" inkscape:flatsided="false" sodipodi:sides="5" sodipodi:cx="62.75" sodipodi:cy="47.75" sodipodi:r1="7.9569154" sodipodi:r2="2.8644896" sodipodi:arg1="0.7631796" sodipodi:arg2="1.3914981" inkscape:rounded="0" inkscape:randomized="0" d="m 68.5,53.25 -5.23915,-2.681431 -3.964813,4.3496 0.931206,-5.811336 -5.36191,-2.426661 L 60.68,45.77 l 0.650971,-5.849359 2.662456,5.248818 5.764232,-1.188441 -4.169179,4.15412 z" inkscape:transform-center-x="0.43850402" inkscape:transform-center-y="-0.33059512" />
                    <path sodipodi:type="star" style="fill:#000000;fill-opacity:1;stroke-width:9.6;stroke-linecap:square;stroke-linejoin:round;paint-order:stroke fill markers" id="path13" inkscape:flatsided="false" sodipodi:sides="5" sodipodi:cx="9.75" sodipodi:cy="10" sodipodi:r1="6.6708322" sodipodi:r2="2.4014995" sodipodi:arg1="1.3439975" sodipodi:arg2="1.972316" inkscape:rounded="0" inkscape:randomized="0" d="M 11.25,16.5 8.8114517,12.210504 4.031658,13.435195 7.3576586,9.7904708 4.7158704,5.6230672 9.21,7.66 l 3.147079,-3.8002884 -0.548476,4.9036181 4.58679,1.8186963 -4.833106,0.99367 z" inkscape:transform-center-x="-0.46352549" inkscape:transform-center-y="0.17985583" />
                    <path sodipodi:type="star" style="fill:#000000;fill-opacity:1;stroke-width:9.6;stroke-linecap:square;stroke-linejoin:round;paint-order:stroke fill markers" id="path14" inkscape:flatsided="false" sodipodi:sides="5" sodipodi:cx="9.5" sodipodi:cy="74.25" sodipodi:r1="7.3527207" sodipodi:r2="2.6469793" sodipodi:arg1="-2.5252957" sodipodi:arg2="-1.8969772" inkscape:rounded="0" inkscape:randomized="0" d="m 3.4999999,70 5.1518348,1.742588 3.0360533,-4.512249 -0.06529,5.438175 5.229596,1.493097 L 11.66,75.78 11.856015,81.215034 8.7123603,76.777078 3.6039076,78.643017 6.8532119,74.28182 Z" inkscape:transform-center-x="-0.67609464" inkscape:transform-center-y="-0.027313792" />
                    <path sodipodi:type="star" style="fill:#000000;fill-opacity:1;stroke-width:9.6;stroke-linecap:square;stroke-linejoin:round;paint-order:stroke fill markers" id="path15" inkscape:flatsided="false" sodipodi:sides="5" sodipodi:cx="1.5" sodipodi:cy="49.75" sodipodi:r1="9.0898294" sodipodi:r2="3.2723384" sodipodi:arg1="-2.5917395" sodipodi:arg2="-1.9634209" inkscape:rounded="0" inkscape:randomized="0" d="M -6.2500001,45 0.24795557,46.72666 3.6226365,40.911481 3.988464,47.624972 10.561862,49.037495 4.2899997,51.46 4.977902,58.148166 0.7358507,52.931866 -5.4124,55.652857 -1.76227,50.006502 Z" inkscape:transform-center-x="-0.65593083" inkscape:transform-center-y="-0.22017615" />
                    <path sodipodi:type="star" style="fill:#000000;fill-opacity:1;stroke-width:9.6;stroke-linecap:square;stroke-linejoin:round;paint-order:stroke fill markers" id="path16" inkscape:flatsided="false" sodipodi:sides="5" sodipodi:cx="36.75" sodipodi:cy="63.75" sodipodi:r1="8.6638613" sodipodi:r2="3.1189899" sodipodi:arg1="0.76499283" sodipodi:arg2="1.3933114" inkscape:rounded="0" inkscape:randomized="0" d="M 43,69.75 37.300672,66.819993 32.975017,71.548205 34.00043,65.2224 28.166933,62.569556 34.5,61.59 l 0.720355,-6.367759 2.888639,5.720405 6.278701,-1.282647 -4.547791,4.514961 z" inkscape:transform-center-x="0.47268621" inkscape:transform-center-y="-0.3647773" transform="translate(-1.5,3.5)" />
                    <path sodipodi:type="star" style="fill:#000000;fill-opacity:1;stroke-width:9.6;stroke-linecap:square;stroke-linejoin:round;paint-order:stroke fill markers" id="path17" inkscape:flatsided="false" sodipodi:sides="5" sodipodi:cx="67" sodipodi:cy="72.75" sodipodi:r1="14.179651" sodipodi:r2="5.1046739" sodipodi:arg1="1.4114447" sodipodi:arg2="2.0397632" inkscape:rounded="0" inkscape:randomized="0" d="M 69.25,86.75 64.692866,77.303551 54.380497,79.216115 61.956372,71.96291 56.950718,62.746279 66.19,67.71 l 7.218706,-7.608755 -1.865685,10.320954 9.467059,4.514162 -10.392339,1.414978 z" inkscape:transform-center-x="-0.69528824" inkscape:transform-center-y="0.67562263" transform="translate(-3,4)" />
                    <path sodipodi:type="star" style="fill:#000000;fill-opacity:1;stroke-width:9.6;stroke-linecap:square;stroke-linejoin:round;paint-order:stroke fill markers" id="path18" inkscape:flatsided="false" sodipodi:sides="5" sodipodi:cx="36.75" sodipodi:cy="96.25" sodipodi:r1="10.090218" sodipodi:r2="3.6324782" sodipodi:arg1="0.7328151" sodipodi:arg2="1.3611336" inkscape:rounded="0" inkscape:randomized="0" d="M 44.25,103 37.506028,99.802931 32.647996,105.46879 33.604587,98.066941 26.714823,95.197525 34.05,93.82 l 0.599923,-7.439254 3.576798,6.55049 7.260538,-1.728295 -5.124595,5.42595 z" inkscape:transform-center-x="0.64895948" inkscape:transform-center-y="-0.32523276" />
                    <path sodipodi:type="star" style="fill:#000000;fill-opacity:1;stroke-width:9.6;stroke-linecap:square;stroke-linejoin:round;paint-order:stroke fill markers" id="path19" inkscape:flatsided="false" sodipodi:sides="5" sodipodi:cx="93" sodipodi:cy="25" sodipodi:r1="9.9561539" sodipodi:r2="3.5842152" sodipodi:arg1="0.49734272" sodipodi:arg2="1.1256612" inkscape:rounded="0" inkscape:randomized="0" d="M 101.75,29.75 94.543291,28.234942 91.18638,34.789575 90.40029,27.467409 83.129121,26.30029 89.85,23.29 l -1.136919,-7.275952 4.939822,5.461705 6.568517,-3.329667 -3.667904,6.385809 z" inkscape:transform-center-x="0.56043933" inkscape:transform-center-y="0.40181178" />
                    <path sodipodi:type="star" style="fill:#000000;fill-opacity:1;stroke-width:9.6;stroke-linecap:square;stroke-linejoin:round;paint-order:stroke fill markers" id="path20" inkscape:flatsided="false" sodipodi:sides="5" sodipodi:cx="90.25" sodipodi:cy="6.25" sodipodi:r1="4.8023434" sodipodi:r2="1.7288435" sodipodi:arg1="0.67474094" sodipodi:arg2="1.3030595" inkscape:rounded="0" inkscape:randomized="0" d="M 94,9.2500001 90.707365,7.9172484 88.555644,10.743513 88.805686,7.2001879 85.45283,6.0271437 88.9,5.17 l 0.07954,-3.5512459 1.880426,3.0135814 3.402015,-1.0217466 -2.285002,2.7196394 z" inkscape:transform-center-x="0.3925931" inkscape:transform-center-y="-0.06886638" />
                    <path sodipodi:type="star" style="fill:#000000;fill-opacity:1;stroke-width:9.6;stroke-linecap:square;stroke-linejoin:round;paint-order:stroke fill markers" id="path21" inkscape:flatsided="false" sodipodi:sides="5" sodipodi:cx="37.75" sodipodi:cy="12.75" sodipodi:r1="4.5893898" sodipodi:r2="1.6521803" sodipodi:arg1="1.0584069" sodipodi:arg2="1.6867254" inkscape:rounded="0" inkscape:randomized="0" d="M 40,16.75 37.558893,14.39109 34.641062,16.125945 36.130175,13.075371 33.578571,10.836449 36.94,11.31 l 1.340853,-3.1185846 0.588365,3.3432446 3.380296,0.311531 -2.9978,1.592687 z" inkscape:transform-center-x="-0.16404253" inkscape:transform-center-y="-0.2792924" transform="translate(6.5,3)" />
                    <path sodipodi:type="star" style="fill:#000000;fill-opacity:1;stroke-width:9.6;stroke-linecap:square;stroke-linejoin:round;paint-order:stroke fill markers" id="path22" inkscape:flatsided="false" sodipodi:sides="5" sodipodi:cx="82.5" sodipodi:cy="47" sodipodi:r1="5.3502336" sodipodi:r2="1.926084" sodipodi:arg1="0.9179497" sodipodi:arg2="1.5462682" inkscape:rounded="0" inkscape:randomized="0" d="M 85.75,51.25 82.547238,48.925505 79.462315,51.404256 80.683334,47.63994 77.372608,45.47198 81.33,45.47 l 1.038782,-3.818624 1.224785,3.763092 3.952728,-0.192079 -3.200434,2.327698 z" inkscape:transform-center-x="0.040548564" inkscape:transform-center-y="-0.4721842" />
                    <path sodipodi:type="star" style="fill:#000000;fill-opacity:1;stroke-width:9.6;stroke-linecap:square;stroke-linejoin:round;paint-order:stroke fill markers" id="path23" inkscape:flatsided="false" sodipodi:sides="5" sodipodi:cx="88.5" sodipodi:cy="85.5" sodipodi:r1="7.6321688" sodipodi:r2="2.7475805" sodipodi:arg1="1.0191413" sodipodi:arg2="1.6474599" inkscape:rounded="0" inkscape:randomized="0" d="m 92.5,92 -4.210433,-3.76049 -4.735366,3.073327 2.275342,-5.166416 -4.386215,-3.55389 L 87.06,83.16 l 2.024536,-5.269752 1.195952,5.517131 5.637447,0.297005 -4.877533,2.842305 z" inkscape:transform-center-x="-0.18063161" inkscape:transform-center-y="-0.55487574" />
                    <path sodipodi:type="star" style="fill:#000000;fill-opacity:1;stroke-width:9.6;stroke-linecap:square;stroke-linejoin:round;paint-order:stroke fill markers" id="path24" inkscape:flatsided="false" sodipodi:sides="5" sodipodi:cx="84" sodipodi:cy="64" sodipodi:r1="3.9051249" sodipodi:r2="1.4058448" sodipodi:arg1="0.69473828" sodipodi:arg2="1.3230568" inkscape:rounded="0" inkscape:randomized="0" d="M 87,66.5 84.344732,65.362923 82.54941,67.625712 82.810311,64.749026 80.103486,63.740813 82.92,63.1 l 0.122412,-2.885898 1.4798,2.480642 2.78248,-0.775371 -1.901947,2.173934 z" inkscape:transform-center-x="0.29591092" inkscape:transform-center-y="-0.080093104" />
                    <path sodipodi:type="star" style="fill:#000000;fill-opacity:1;stroke-width:9.6;stroke-linecap:square;stroke-linejoin:round;paint-order:stroke fill markers" id="path25" inkscape:flatsided="false" sodipodi:sides="5" sodipodi:cx="8" sodipodi:cy="91.5" sodipodi:r1="4.1231055" sodipodi:r2="1.4843179" sodipodi:arg1="1.815775" sodipodi:arg2="2.4440935" inkscape:rounded="0" inkscape:randomized="0" d="M 7,95.5 6.8623432,92.453382 3.886757,91.785011 6.7417248,90.712635 6.4578761,87.676147 8.3599999,90.06 11.160158,88.851717 9.4807674,91.397396 11.495209,93.687124 8.5551646,92.876587 Z" inkscape:transform-center-x="0.30901699" inkscape:transform-center-y="0.088073385" />
                </g>
            </g>
        </pattern>
    </defs>
    <g inkscape:label="Layer 1" inkscape:groupmode="layer" id="layer1">
        <rect style="fill:url(#pattern2);fill-opacity:1;stroke-width:2.54;stroke-linecap:square;stroke-linejoin:round;paint-order:stroke fill markers;opacity:0.25" id="rect1" width="264.58334" height="132.29167" x="0" y="0" />
    </g>
</svg>
