<?xml version="1.0" encoding="UTF-8" standalone="no"?>
<!-- Created with Inkscape (http://www.inkscape.org/) -->

<svg
   xmlns:dc="http://purl.org/dc/elements/1.1/"
   xmlns:cc="http://creativecommons.org/ns#"
   xmlns:rdf="http://www.w3.org/1999/02/22-rdf-syntax-ns#"
   xmlns:svg="http://www.w3.org/2000/svg"
   xmlns="http://www.w3.org/2000/svg"
   xmlns:xlink="http://www.w3.org/1999/xlink"
   xmlns:sodipodi="http://sodipodi.sourceforge.net/DTD/sodipodi-0.dtd"
   xmlns:inkscape="http://www.inkscape.org/namespaces/inkscape"
   width="400"
   height="84"
   viewBox="0 0 105.83333 22.224999"
   version="1.1"
   id="svg8"
   inkscape:version="0.92.4 (5da689c313, 2019-01-14)"
   sodipodi:docname="desc_frost.svg">
  <defs
     id="defs2">
    <pattern
       inkscape:collect="always"
       xlink:href="#Strips1_1white"
       id="pattern2337"
       patternTransform="matrix(1.0263897,-0.65874823,0.65874823,1.0263897,8.5526245,245.88795)" />
    <pattern
       inkscape:stockid="Stripes 1:1 white"
       id="Strips1_1white"
       patternTransform="translate(0,0) scale(10,10)"
       height="1"
       width="2"
       patternUnits="userSpaceOnUse"
       inkscape:collect="always">
      <rect
         id="rect1594"
         height="2"
         width="1"
         y="-0.5"
         x="0"
         style="fill:white;stroke:none" />
    </pattern>
    <filter
       inkscape:collect="always"
       style="color-interpolation-filters:sRGB"
       id="filter850"
       x="-0.033463411"
       width="1.0669268"
       y="-0.092876196"
       height="1.1857524">
      <feGaussianBlur
         inkscape:collect="always"
         stdDeviation="0.71176739"
         id="feGaussianBlur852" />
    </filter>
  </defs>
  <sodipodi:namedview
     id="base"
     pagecolor="#ffffff"
     bordercolor="#666666"
     borderopacity="1.0"
     inkscape:pageopacity="0.0"
     inkscape:pageshadow="2"
     inkscape:zoom="1.4"
     inkscape:cx="173.35337"
     inkscape:cy="61.028471"
     inkscape:document-units="px"
     inkscape:current-layer="layer3"
     showgrid="false"
     inkscape:window-width="1366"
     inkscape:window-height="715"
     inkscape:window-x="-8"
     inkscape:window-y="-8"
     inkscape:window-maximized="1"
     showguides="true"
     inkscape:guide-bbox="true"
     units="px"
     inkscape:lockguides="false"
     inkscape:snap-center="true"
     inkscape:snap-global="false">
    <sodipodi:guide
       position="52.916665,11.1125"
       orientation="1,0"
       id="guide825"
       inkscape:locked="false"
       inkscape:label="Color"
       inkscape:color="rgb(0,0,255)" />
    <sodipodi:guide
       position="52.916664,11.1125"
       orientation="0,1"
       id="guide827"
       inkscape:locked="false"
       inkscape:label="Segoe UI"
       inkscape:color="rgb(0,0,255)" />
  </sodipodi:namedview>
  <metadata
     id="metadata5">
    <rdf:RDF>
      <cc:Work
         rdf:about="">
        <dc:format>image/svg+xml</dc:format>
        <dc:type
           rdf:resource="http://purl.org/dc/dcmitype/StillImage" />
        <dc:title />
      </cc:Work>
    </rdf:RDF>
  </metadata>
  <g
     inkscape:groupmode="layer"
     id="layer2"
     inkscape:label="shadow">
    <g
       aria-label="FROST"
       style="font-style:italic;font-variant:normal;font-weight:900;font-stretch:normal;font-size:25.39999962px;line-height:2.53999996px;font-family:'Segoe UI';-inkscape-font-specification:'Segoe UI Heavy Italic';font-variant-ligatures:normal;font-variant-caps:normal;font-variant-numeric:normal;font-feature-settings:normal;text-align:center;writing-mode:lr-tb;text-anchor:middle;opacity:1;fill:#000000;fill-opacity:1;stroke:#000000;stroke-width:0.52916664;stroke-linecap:square;stroke-linejoin:miter;stroke-miterlimit:4;stroke-dasharray:none;stroke-dashoffset:0;stroke-opacity:1;paint-order:normal;filter:url(#filter850)"
       id="text830-1">
      <path
         d="m 27.731639,7.4641394 h -5.791894 l -0.657324,3.1998046 h 5.283398 l -0.917773,4.191992 h -5.283399 l -1.289843,6.201172 h -5.357813 l 3.75791,-17.7849607 h 11.149707 z"
         style="fill:#000000;stroke-width:0.52916664"
         id="path849"
         inkscape:connector-curvature="0" />
      <path
         d="m 44.449998,7.8734167 q 0,2.021582 -1.401464,3.4602543 -1.389063,1.438671 -3.708301,1.847949 v 0.04961 q 1.947168,0.719336 2.468066,3.175 l 0.992188,4.650879 H 37.107811 L 36.450487,17.10076 Q 36.252049,15.984549 35.718749,15.401639 35.19785,14.806327 34.180858,14.806327 h -0.04961 L 32.8166,21.057108 h -5.357812 l 3.75791,-17.7849607 h 6.982519 q 2.951758,0 4.60127,1.2030273 1.649511,1.2030273 1.649511,3.3982421 z m -5.71748,0.9921875 q 0,-0.8929687 -0.496094,-1.3890625 Q 37.752733,6.980448 36.772948,6.980448 h -0.954981 l -0.917773,4.067969 h 1.190625 q 1.203027,0 1.922363,-0.63252 0.719336,-0.6325194 0.719336,-1.5502928 z"
         style="fill:#000000;stroke-width:0.52916664"
         id="path851"
         inkscape:connector-curvature="0" />
      <path
         d="m 63.413181,10.775565 q 0,2.926953 -1.289843,5.444629 -1.277442,2.517676 -3.559473,3.832324 -2.269629,1.314649 -5.407422,1.314649 -2.38125,0 -4.105176,-0.967383 -1.711523,-0.979785 -2.616894,-2.753321 -0.905371,-1.773535 -0.905371,-4.055566 0,-2.951758 1.302246,-5.4570311 1.302246,-2.5052734 3.584277,-3.8323241 2.282031,-1.3270508 5.295801,-1.3270508 3.584277,0 5.643066,2.0835937 2.058789,2.0835937 2.058789,5.7174803 z m -5.692675,0.173633 q 0,-1.6247071 -0.682129,-2.4680664 -0.669727,-0.8557618 -1.934766,-0.8557618 -1.16582,0 -2.033984,0.7813477 -0.868164,0.7813476 -1.364258,2.1704105 -0.483691,1.37666 -0.483691,2.889746 0,1.649511 0.682128,2.492871 0.682129,0.830957 1.885157,0.830957 1.116211,0 1.996777,-0.694532 0.880566,-0.694531 1.401465,-2.108398 0.533301,-1.426269 0.533301,-3.038574 z"
         style="fill:#000000;stroke-width:0.52916664"
         id="path853"
         inkscape:connector-curvature="0" />
      <path
         d="M 77.837106,8.2826941 Q 76.522458,7.5509558 75.480661,7.2532995 74.438864,6.9556433 73.384665,6.9556433 q -0.84336,0 -1.339453,0.359668 -0.483692,0.3596679 -0.483692,0.9425781 0,0.5457031 0.396875,0.9425781 0.396875,0.396875 1.711524,1.1162105 2.108398,1.116211 2.939355,2.306836 0.843359,1.178223 0.843359,3.001367 0,1.723926 -0.967382,3.075782 -0.954981,1.351855 -2.654102,2.009179 -1.686719,0.657325 -4.005957,0.657325 -1.686719,0 -3.162598,-0.372071 -1.463476,-0.384472 -2.567285,-0.979785 l 0.930176,-4.39043 q 2.368848,1.748731 4.799707,1.748731 1.934766,0 1.934766,-1.37666 0,-0.620117 -0.483692,-1.029395 -0.471289,-0.421679 -1.674316,-0.967383 -2.00918,-0.942578 -2.877344,-2.108398 -0.855762,-1.178223 -0.855762,-3.0013671 0,-1.7239258 0.942579,-3.1129882 0.942578,-1.4014649 2.579687,-2.0959961 1.637109,-0.7069336 3.795117,-0.7069336 1.711524,0 3.063379,0.3100586 1.364258,0.3100586 2.468066,0.7069336 z"
         style="fill:#000000;stroke-width:0.52916664"
         id="path855"
         inkscape:connector-curvature="0" />
      <path
         d="M 95.597264,7.4641394 H 90.561913 L 87.696972,21.057108 H 82.314354 L 85.179296,7.4641394 h -4.97334 l 0.880566,-4.1919921 h 15.391309 z"
         style="fill:#000000;stroke-width:0.52916664"
         id="path857"
         inkscape:connector-curvature="0" />
    </g>
  </g>
  <g
     inkscape:groupmode="layer"
     id="layer3"
     inkscape:label="text"
     style="display:inline">
    <g
       aria-label="FROST"
       style="font-style:italic;font-variant:normal;font-weight:900;font-stretch:normal;font-size:25.39999962px;line-height:2.53999996px;font-family:'Segoe UI';-inkscape-font-specification:'Segoe UI Heavy Italic';font-variant-ligatures:normal;font-variant-caps:normal;font-variant-numeric:normal;font-feature-settings:normal;text-align:center;writing-mode:lr-tb;text-anchor:middle;opacity:1;fill:#80b3ff;fill-opacity:1;stroke:#000000;stroke-width:0.52916664;stroke-linecap:square;stroke-linejoin:miter;stroke-miterlimit:4;stroke-dasharray:none;stroke-dashoffset:0;stroke-opacity:1;paint-order:normal"
       id="text830-6">
      <path
         d="m 26.673305,6.405805 h -5.791894 l -0.657325,3.1998047 h 5.283399 l -0.917774,4.1919923 h -5.283398 l -1.289844,6.201172 h -5.357812 l 3.75791,-17.7849611 h 11.149707 z"
         style="fill:#80b3ff;stroke-width:0.52916664"
         id="path838"
         inkscape:connector-curvature="0" />
      <path
         d="m 43.391664,6.8150824 q 0,2.021582 -1.401465,3.4602536 -1.389062,1.438672 -3.7083,1.847949 v 0.04961 q 1.947167,0.719336 2.468066,3.175 l 0.992187,4.650879 h -5.692675 l -0.657325,-3.956348 q -0.198437,-1.116211 -0.731738,-1.699121 -0.520898,-0.595313 -1.53789,-0.595313 h -0.04961 l -1.314648,6.250782 H 26.400453 L 30.158364,2.2138129 h 6.982519 q 2.951758,0 4.601269,1.2030273 1.649512,1.2030274 1.649512,3.3982422 z m -5.71748,0.9921875 q 0,-0.8929688 -0.496094,-1.3890625 -0.483691,-0.4960938 -1.463477,-0.4960938 h -0.95498 L 33.84186,9.9900823 h 1.190625 q 1.203027,0 1.922363,-0.6325195 0.719336,-0.6325195 0.719336,-1.5502929 z"
         style="fill:#80b3ff;stroke-width:0.52916664"
         id="path840"
         inkscape:connector-curvature="0" />
      <path
         d="m 62.354847,9.7172308 q 0,2.9269532 -1.289844,5.4446292 -1.277441,2.517675 -3.559472,3.832324 -2.269629,1.314648 -5.407422,1.314648 -2.38125,0 -4.105176,-0.967383 -1.711523,-0.979785 -2.616894,-2.75332 -0.905372,-1.773535 -0.905372,-4.055566 0,-2.951758 1.302247,-5.4570314 1.302246,-2.5052734 3.584277,-3.8323242 2.282031,-1.3270507 5.295801,-1.3270507 3.584277,0 5.643066,2.0835937 2.058789,2.0835937 2.058789,5.7174804 z m -5.692676,0.1736328 q 0,-1.624707 -0.682129,-2.4680664 -0.669726,-0.8557617 -1.934765,-0.8557617 -1.165821,0 -2.033985,0.7813476 -0.868164,0.7813477 -1.364257,2.1704102 -0.483692,1.3766597 -0.483692,2.8897457 0,1.649512 0.682129,2.492871 0.682129,0.830957 1.885156,0.830957 1.116211,0 1.996778,-0.694531 0.880566,-0.694531 1.401464,-2.108398 0.533301,-1.42627 0.533301,-3.0385744 z"
         style="fill:#80b3ff;stroke-width:0.52916664"
         id="path842"
         inkscape:connector-curvature="0" />
      <path
         d="M 76.778772,7.2243597 Q 75.464123,6.4926214 74.422326,6.1949652 73.380529,5.8973089 72.32633,5.8973089 q -0.843359,0 -1.339453,0.359668 -0.483691,0.359668 -0.483691,0.9425781 0,0.5457031 0.396875,0.9425781 0.396875,0.396875 1.711523,1.1162109 2.108399,1.116211 2.939356,2.306836 0.843359,1.178223 0.843359,3.001367 0,1.723926 -0.967383,3.075781 -0.95498,1.351856 -2.654101,2.00918 -1.686719,0.657324 -4.005957,0.657324 -1.686719,0 -3.162598,-0.37207 -1.463476,-0.384473 -2.567285,-0.979785 l 0.930176,-4.39043 q 2.368847,1.748731 4.799707,1.748731 1.934765,0 1.934765,-1.376661 0,-0.620117 -0.483691,-1.029394 -0.471289,-0.42168 -1.674317,-0.967383 -2.009179,-0.942578 -2.877343,-2.108398 -0.855762,-1.178223 -0.855762,-3.0013675 0,-1.7239257 0.942578,-3.1129882 0.942578,-1.4014648 2.579688,-2.0959961 1.637109,-0.7069335 3.795117,-0.7069335 1.711523,0 3.063379,0.3100585 1.364257,0.3100586 2.468066,0.7069336 z"
         style="fill:#80b3ff;stroke-width:0.52916664"
         id="path844"
         inkscape:connector-curvature="0" />
      <path
         d="M 94.53893,6.405805 H 89.503579 L 86.638637,19.998774 H 81.25602 L 84.120962,6.405805 h -4.97334 l 0.880566,-4.1919921 h 15.391308 z"
         style="fill:#80b3ff;stroke-width:0.52916664"
         id="path846"
         inkscape:connector-curvature="0" />
    </g>
  </g>
  <g
     inkscape:label="pattern"
     inkscape:groupmode="layer"
     id="layer1"
     transform="translate(0,-274.775)"
     style="display:inline">
    <g
       aria-label="FROST"
       style="font-style:italic;font-variant:normal;font-weight:900;font-stretch:normal;font-size:25.39999962px;line-height:2.53999996px;font-family:'Segoe UI';-inkscape-font-specification:'Segoe UI Heavy Italic';font-variant-ligatures:normal;font-variant-caps:normal;font-variant-numeric:normal;font-feature-settings:normal;text-align:center;writing-mode:lr-tb;text-anchor:middle;opacity:1;fill:url(#pattern2337);fill-opacity:1;stroke:#000000;stroke-width:0.52916664;stroke-linecap:square;stroke-linejoin:miter;stroke-miterlimit:4;stroke-dasharray:none;stroke-dashoffset:0;stroke-opacity:1;paint-order:normal"
       id="text830">
      <path
         d="m 26.673305,281.1808 h -5.791894 l -0.657325,3.19981 h 5.283399 l -0.917774,4.19199 h -5.283398 l -1.289844,6.20117 h -5.357812 l 3.75791,-17.78496 h 11.149707 z"
         style="fill:url(#pattern2337);fill-opacity:1;stroke-width:0.52916664"
         id="path827"
         inkscape:connector-curvature="0" />
      <path
         d="m 43.391664,281.59008 q 0,2.02158 -1.401465,3.46026 -1.389062,1.43867 -3.7083,1.84795 v 0.0496 q 1.947167,0.71934 2.468066,3.175 l 0.992187,4.65088 h -5.692675 l -0.657325,-3.95634 q -0.198437,-1.11622 -0.731738,-1.69913 -0.520898,-0.59531 -1.53789,-0.59531 h -0.04961 l -1.314648,6.25078 h -5.357813 l 3.757911,-17.78496 h 6.982519 q 2.951758,0 4.601269,1.20303 1.649512,1.20303 1.649512,3.39824 z m -5.71748,0.99219 q 0,-0.89297 -0.496094,-1.38906 -0.483691,-0.4961 -1.463477,-0.4961 h -0.95498 l -0.917773,4.06797 h 1.190625 q 1.203027,0 1.922363,-0.63252 0.719336,-0.63252 0.719336,-1.55029 z"
         style="fill:url(#pattern2337);fill-opacity:1;stroke-width:0.52916664"
         id="path829"
         inkscape:connector-curvature="0" />
      <path
         d="m 62.354847,284.49223 q 0,2.92695 -1.289844,5.44463 -1.277441,2.51767 -3.559472,3.83232 -2.269629,1.31465 -5.407422,1.31465 -2.38125,0 -4.105176,-0.96738 -1.711523,-0.97979 -2.616894,-2.75332 -0.905372,-1.77354 -0.905372,-4.05557 0,-2.95176 1.302247,-5.45703 1.302246,-2.50527 3.584277,-3.83232 2.282031,-1.32705 5.295801,-1.32705 3.584277,0 5.643066,2.08359 2.058789,2.08359 2.058789,5.71748 z m -5.692676,0.17363 q 0,-1.6247 -0.682129,-2.46806 -0.669726,-0.85576 -1.934765,-0.85576 -1.165821,0 -2.033985,0.78134 -0.868164,0.78135 -1.364257,2.17041 -0.483692,1.37666 -0.483692,2.88975 0,1.64951 0.682129,2.49287 0.682129,0.83096 1.885156,0.83096 1.116211,0 1.996778,-0.69453 0.880566,-0.69454 1.401464,-2.1084 0.533301,-1.42627 0.533301,-3.03858 z"
         style="fill:url(#pattern2337);fill-opacity:1;stroke-width:0.52916664"
         id="path831"
         inkscape:connector-curvature="0" />
      <path
         d="m 76.778772,281.99936 q -1.314649,-0.73174 -2.356446,-1.0294 -1.041797,-0.29765 -2.095996,-0.29765 -0.843359,0 -1.339453,0.35967 -0.483691,0.35966 -0.483691,0.94257 0,0.54571 0.396875,0.94258 0.396875,0.39688 1.711523,1.11621 2.108399,1.11621 2.939356,2.30684 0.843359,1.17822 0.843359,3.00137 0,1.72392 -0.967383,3.07578 -0.95498,1.35185 -2.654101,2.00918 -1.686719,0.65732 -4.005957,0.65732 -1.686719,0 -3.162598,-0.37207 -1.463476,-0.38447 -2.567285,-0.97978 l 0.930176,-4.39043 q 2.368847,1.74873 4.799707,1.74873 1.934765,0 1.934765,-1.37666 0,-0.62012 -0.483691,-1.0294 -0.471289,-0.42168 -1.674317,-0.96738 -2.009179,-0.94258 -2.877343,-2.1084 -0.855762,-1.17822 -0.855762,-3.00137 0,-1.72392 0.942578,-3.11298 0.942578,-1.40147 2.579688,-2.096 1.637109,-0.70693 3.795117,-0.70693 1.711523,0 3.063379,0.31005 1.364257,0.31006 2.468066,0.70694 z"
         style="fill:url(#pattern2337);fill-opacity:1;stroke-width:0.52916664"
         id="path833"
         inkscape:connector-curvature="0" />
      <path
         d="m 94.53893,281.1808 h -5.035351 l -2.864942,13.59297 H 81.25602 l 2.864942,-13.59297 h -4.97334 l 0.880566,-4.19199 h 15.391308 z"
         style="fill:url(#pattern2337);fill-opacity:1;stroke-width:0.52916664"
         id="path835"
         inkscape:connector-curvature="0" />
    </g>
  </g>
</svg>
