<?xml version="1.0" encoding="UTF-8" standalone="no"?>
<!-- Created with Inkscape (http://www.inkscape.org/) -->

<svg
   xmlns:dc="http://purl.org/dc/elements/1.1/"
   xmlns:cc="http://creativecommons.org/ns#"
   xmlns:rdf="http://www.w3.org/1999/02/22-rdf-syntax-ns#"
   xmlns:svg="http://www.w3.org/2000/svg"
   xmlns="http://www.w3.org/2000/svg"
   xmlns:xlink="http://www.w3.org/1999/xlink"
   xmlns:sodipodi="http://sodipodi.sourceforge.net/DTD/sodipodi-0.dtd"
   xmlns:inkscape="http://www.inkscape.org/namespaces/inkscape"
   width="400"
   height="84"
   viewBox="0 0 105.83333 22.225"
   version="1.1"
   id="svg8"
   inkscape:version="0.92.3 (2405546, 2018-03-11)"
   sodipodi:docname="desc_muggy.svg">
  <defs
     id="defs2">
    <linearGradient
       inkscape:collect="always"
       id="linearGradient835">
      <stop
         style="stop-color:#00aa00;stop-opacity:1"
         offset="0"
         id="stop831" />
      <stop
         style="stop-color:#00e800;stop-opacity:1"
         offset="1"
         id="stop833" />
    </linearGradient>
    <inkscape:path-effect
       effect="envelope"
       id="path-effect4703"
       is_visible="true"
       yy="true"
       xx="true"
       bendpath1="M 4.4121094,8.1308594 H 172.26367"
       bendpath2="M 172.26367,8.1308594 V 38.384766"
       bendpath3="M 4.4121094,38.384766 H 172.26367"
       bendpath4="M 4.4121094,8.1308594 V 38.384766" />
    <inkscape:path-effect
       effect="bspline"
       id="path-effect4701"
       is_visible="true"
       weight="33.333333"
       steps="2"
       helper_size="0"
       apply_no_weight="true"
       apply_with_weight="true"
       only_selected="false" />
    <inkscape:path-effect
       effect="bounding_box"
       id="path-effect996"
       is_visible="true"
       linkedpath=""
       visualbounds="false" />
    <filter
       inkscape:collect="always"
       style="color-interpolation-filters:sRGB"
       id="filter830"
       x="-0.021231032"
       width="1.0424621"
       y="-0.11428235"
       height="1.2285647">
      <feGaussianBlur
         inkscape:collect="always"
         stdDeviation="2.3050031"
         id="feGaussianBlur832" />
    </filter>
    <linearGradient
       inkscape:collect="always"
       xlink:href="#linearGradient835"
       id="linearGradient837"
       x1="133.64174"
       y1="50.435608"
       x2="133.64174"
       y2="16.623825"
       gradientUnits="userSpaceOnUse" />
  </defs>
  <sodipodi:namedview
     id="base"
     pagecolor="#ffffff"
     bordercolor="#666666"
     borderopacity="1.0"
     inkscape:pageopacity="0.0"
     inkscape:pageshadow="2"
     inkscape:zoom="1.979899"
     inkscape:cx="205.07123"
     inkscape:cy="76.571109"
     inkscape:document-units="px"
     inkscape:current-layer="layer1"
     showgrid="false"
     inkscape:window-width="1366"
     inkscape:window-height="715"
     inkscape:window-x="-8"
     inkscape:window-y="-8"
     inkscape:window-maximized="1"
     showguides="true"
     inkscape:guide-bbox="true"
     units="px"
     inkscape:lockguides="false"
     inkscape:snap-center="true"
     inkscape:snap-global="false">
    <sodipodi:guide
       position="52.916666,11.1125"
       orientation="1,0"
       id="guide825"
       inkscape:locked="false"
       inkscape:label=""
       inkscape:color="rgb(0,0,255)" />
    <sodipodi:guide
       position="52.916666,11.1125"
       orientation="0,1"
       id="guide827"
       inkscape:locked="false"
       inkscape:label=""
       inkscape:color="rgb(0,0,255)" />
  </sodipodi:namedview>
  <metadata
     id="metadata5">
    <rdf:RDF>
      <cc:Work
         rdf:about="">
        <dc:format>image/svg+xml</dc:format>
        <dc:type
           rdf:resource="http://purl.org/dc/dcmitype/StillImage" />
        <dc:title />
      </cc:Work>
    </rdf:RDF>
  </metadata>
  <g
     inkscape:groupmode="layer"
     id="layer2"
     inkscape:label="shadow"
     sodipodi:insensitive="true">
    <g
       aria-label="MUGGY"
       transform="matrix(0.35023676,0,0,0.35570821,5.5812484,-0.79884985)"
       style="font-style:normal;font-weight:normal;font-size:40px;line-height:1.25;font-family:sans-serif;letter-spacing:0px;word-spacing:0px;fill:#000000;fill-opacity:1;stroke:#000000;stroke-width:1.5;stroke-miterlimit:4;stroke-dasharray:none"
       id="flowRoot823-3">
      <path
         style="font-style:italic;font-variant:normal;font-weight:bold;font-stretch:normal;font-size:64px;font-family:sans-serif;-inkscape-font-specification:'sans-serif Bold Italic';letter-spacing:-2px;fill:#000000;stroke:#000000;stroke-width:1.5;stroke-miterlimit:4;stroke-dasharray:none;filter:url(#filter830)"
         d="m 148.24596,9.2830469 c -5.02083,0 -9.48947,0.8224331 -13.40613,2.4682661 -3.89584,1.645834 -7.28067,4.135388 -10.15567,7.468721 -2.35417,2.729167 -4.12568,5.751369 -5.31317,9.063869 -1.1875,3.291667 -1.7809,6.822809 -1.7809,10.593642 0,5.8125 1.89628,10.406032 5.68794,13.781032 3.79167,3.354166 9.00025,5.030963 15.62524,5.030963 3.72917,0 7.22862,-0.353646 10.49946,-1.061979 3.27083,-0.729167 6.42643,-1.834615 9.4681,-3.313782 l 4.34378,-22.436671 h -18.68684 l -1.53154,8.062906 h 7.34343 l -1.7809,9.062416 c -1.1875,0.333333 -2.36413,0.582966 -3.5308,0.749633 -1.16667,0.145833 -2.33316,0.217916 -3.49982,0.217916 -3.58333,0 -6.36463,-1.03046 -8.34379,-3.09296 -1.95833,-2.0625 -2.93767,-4.958433 -2.93767,-8.6876 0,-5.625 1.68734,-10.22966 5.06235,-13.812993 3.375,-3.583333 7.74931,-5.373818 13.12432,-5.373818 2.45833,0 4.89576,0.363321 7.31243,1.092488 2.4375,0.729166 4.92717,1.834615 7.46883,3.313781 l 1.84435,-9.656601 c -2.75001,-1.145834 -5.54145,-2.011325 -8.37478,-2.594658 -2.83333,-0.5833331 -5.64656,-0.8745711 -8.43822,-0.8745711 z m 50.50096,0 c -5.02083,0 -9.48947,0.8224331 -13.40613,2.4682661 -3.89584,1.645834 -7.28215,4.135388 -10.15715,7.468721 -2.35417,2.729167 -4.1242,5.751369 -5.3117,9.063869 -1.18749,3.291667 -1.78237,6.822809 -1.78237,10.593642 0,5.8125 1.89628,10.406032 5.68795,13.781032 3.79166,3.354166 9.00024,5.030963 15.62524,5.030963 3.72917,0 7.22862,-0.353646 10.49945,-1.061979 3.27084,-0.729167 6.42791,-1.834615 9.46957,-3.313782 l 4.34379,-22.436671 h -18.68832 l -1.53153,8.062906 h 7.34489 l -1.78237,9.062416 c -1.1875,0.333333 -2.36414,0.582966 -3.5308,0.749633 -1.16667,0.145833 -2.33315,0.217916 -3.49982,0.217916 -3.58333,0 -6.36462,-1.03046 -8.34379,-3.09296 -1.95834,-2.0625 -2.93766,-4.958433 -2.93766,-8.6876 0,-5.625 1.68734,-10.22966 5.06234,-13.812993 3.375,-3.583333 7.75079,-5.373818 13.12579,-5.373818 2.45834,0 4.89577,0.363321 7.31244,1.092488 2.4375,0.729166 4.92717,1.834615 7.46883,3.313781 l 1.84287,-9.656601 c -2.75,-1.145834 -5.54144,-2.011325 -8.37478,-2.594658 -2.83333,-0.5833331 -5.64508,-0.8745711 -8.43674,-0.8745711 z M 13.964781,10.12711 4.8714508,56.783007 H 16.27832 l 6.655851,-34.436599 6.437482,25.468614 h 6.468466 L 52.027516,22.346408 45.371665,56.783007 H 56.777058 L 65.871867,10.12711 H 50.495977 L 34.746795,34.908561 28.746053,10.12711 Z m 61.749951,0 -5.437108,27.968842 c -0.229171,1.229166 -0.396018,2.312359 -0.500185,3.249859 -0.104168,0.916667 -0.156399,1.750228 -0.156399,2.500227 0,4.5 1.437801,7.936804 4.312799,10.311804 2.874998,2.354166 7.072314,3.531698 12.593147,3.531698 7.041665,0 12.449024,-1.542305 16.219864,-4.625639 3.79167,-3.104166 6.36402,-8.092949 7.71819,-14.967949 l 5.43711,-27.968842 h -12.03099 l -5.437119,27.968842 c -0.750002,3.895833 -1.906333,6.66695 -3.468835,8.312783 -1.562495,1.625 -3.802628,2.436306 -6.719296,2.436306 -2.166666,0 -3.801774,-0.499265 -4.905942,-1.499266 -1.083333,-1.020833 -1.624494,-2.55201 -1.624494,-4.593677 0,-0.583333 0.0406,-1.260147 0.123938,-2.030981 0.104168,-0.770833 0.260869,-1.657127 0.469205,-2.657127 l 5.437108,-27.93688 z m 141.969858,0 12.68611,27.187248 -3.78016,19.468649 h 12.03099 L 242.40316,37.314358 265.4338,10.12711 H 251.52748 L 237.65215,27.407879 229.71559,10.12711 Z"
         id="path831-5"
         inkscape:connector-curvature="0" />
    </g>
  </g>
  <g
     inkscape:label="Layer 1"
     inkscape:groupmode="layer"
     id="layer1"
     transform="translate(0,-274.775)">
    <g
       aria-label="MUGGY"
       transform="matrix(0.35023676,0,0,0.35570822,6.1104142,273.44698)"
       style="font-style:normal;font-weight:normal;font-size:40px;line-height:1.25;font-family:sans-serif;letter-spacing:0px;word-spacing:0px;fill:url(#linearGradient837);fill-opacity:1;stroke:#000000;stroke-width:1.5;stroke-miterlimit:4;stroke-dasharray:none"
       id="flowRoot823">
      <path
         d="m 10.943359,10.126953 h 14.78125 l 6,24.78125 15.75,-24.78125 h 15.375 l -9.09375,46.65625 h -11.40625 l 6.65625,-34.4375 -16.1875,25.46875 h -6.46875 l -6.4375,-25.46875 -6.65625,34.4375 H 1.8496094 Z"
         style="font-style:italic;font-variant:normal;font-weight:bold;font-stretch:normal;font-size:64px;font-family:sans-serif;-inkscape-font-specification:'sans-serif Bold Italic';letter-spacing:-2px;fill:url(#linearGradient837);stroke:#000000;stroke-width:1.5;stroke-miterlimit:4;stroke-dasharray:none;fill-opacity:1"
         id="path831"
         inkscape:connector-curvature="0" />
      <path
         d="m 72.693359,10.126953 h 12.03125 l -5.4375,27.9375 q -0.3125,1.5 -0.46875,2.65625 -0.125,1.15625 -0.125,2.03125 0,3.0625 1.625,4.59375 1.65625,1.5 4.90625,1.5 4.375,0 6.71875,-2.4375 2.34375,-2.46875 3.46875,-8.3125 l 5.437501,-27.96875 h 12.03125 l -5.4375,27.96875 q -2.03125,10.3125 -7.718751,14.96875 -5.65625,4.625 -16.21875,4.625 -8.28125,0 -12.59375,-3.53125 -4.3125,-3.5625 -4.3125,-10.3125 0,-1.125 0.15625,-2.5 0.15625,-1.40625 0.5,-3.25 z"
         style="font-style:italic;font-variant:normal;font-weight:bold;font-stretch:normal;font-size:64px;font-family:sans-serif;-inkscape-font-specification:'sans-serif Bold Italic';letter-spacing:-2px;fill:url(#linearGradient837);stroke:#000000;stroke-width:1.5;stroke-miterlimit:4;stroke-dasharray:none;fill-opacity:1"
         id="path833"
         inkscape:connector-curvature="0" />
      <path
         d="m 155.84961,53.314453 q -4.5625,2.21875 -9.46875,3.3125 -4.90625,1.0625 -10.5,1.0625 -9.9375,0 -15.625,-5.03125 -5.6875,-5.0625 -5.6875,-13.78125 0,-5.65625 1.78125,-10.59375 1.78125,-4.96875 5.3125,-9.0625 4.3125,-5 10.15625,-7.46875 5.875,-2.4687499 13.40625,-2.4687499 4.1875,0 8.4375,0.8749999 4.25,0.875 8.375,2.59375 l -1.84375,9.65625 q -3.8125,-2.21875 -7.46875,-3.3125 -3.625,-1.09375 -7.3125,-1.09375 -8.0625,0 -13.125,5.375 -5.0625,5.375 -5.0625,13.8125 0,5.59375 2.9375,8.6875 2.96875,3.09375 8.34375,3.09375 1.75,0 3.5,-0.21875 1.75,-0.25 3.53125,-0.75 l 1.78125,-9.0625 h -7.34375 l 1.53125,-8.0625 h 18.6875 z"
         style="font-style:italic;font-variant:normal;font-weight:bold;font-stretch:normal;font-size:64px;font-family:sans-serif;-inkscape-font-specification:'sans-serif Bold Italic';letter-spacing:-2px;fill:url(#linearGradient837);stroke:#000000;stroke-width:1.5;stroke-miterlimit:4;stroke-dasharray:none;fill-opacity:1"
         id="path835"
         inkscape:connector-curvature="0" />
      <path
         d="m 206.34961,53.314453 q -4.5625,2.21875 -9.46875,3.3125 -4.90625,1.0625 -10.5,1.0625 -9.9375,0 -15.625,-5.03125 -5.6875,-5.0625 -5.6875,-13.78125 0,-5.65625 1.78125,-10.59375 1.78125,-4.96875 5.3125,-9.0625 4.3125,-5 10.15625,-7.46875 5.875,-2.4687499 13.40625,-2.4687499 4.1875,0 8.4375,0.8749999 4.25,0.875 8.375,2.59375 l -1.84375,9.65625 q -3.8125,-2.21875 -7.46875,-3.3125 -3.625,-1.09375 -7.3125,-1.09375 -8.0625,0 -13.125,5.375 -5.0625,5.375 -5.0625,13.8125 0,5.59375 2.9375,8.6875 2.96875,3.09375 8.34375,3.09375 1.75,0 3.5,-0.21875 1.75,-0.25 3.53125,-0.75 l 1.78125,-9.0625 h -7.34375 l 1.53125,-8.0625 h 18.6875 z"
         style="font-style:italic;font-variant:normal;font-weight:bold;font-stretch:normal;font-size:64px;font-family:sans-serif;-inkscape-font-specification:'sans-serif Bold Italic';letter-spacing:-2px;fill:url(#linearGradient837);stroke:#000000;stroke-width:1.5;stroke-miterlimit:4;stroke-dasharray:none;fill-opacity:1"
         id="path837"
         inkscape:connector-curvature="0" />
      <path
         d="m 214.66211,10.126953 h 12.03125 l 7.9375,17.28125 13.875,-17.28125 h 13.90625 l -23.03125,27.1875 -3.78125,19.46875 h -12.03125 l 3.78125,-19.46875 z"
         style="font-style:italic;font-variant:normal;font-weight:bold;font-stretch:normal;font-size:64px;font-family:sans-serif;-inkscape-font-specification:'sans-serif Bold Italic';letter-spacing:-2px;fill:url(#linearGradient837);stroke:#000000;stroke-width:1.5;stroke-miterlimit:4;stroke-dasharray:none;fill-opacity:1"
         id="path839"
         inkscape:connector-curvature="0" />
    </g>
  </g>
</svg>
