<?xml version="1.0" encoding="UTF-8" standalone="no"?>
<!-- Created with Inkscape (http://www.inkscape.org/) -->

<svg
   xmlns:dc="http://purl.org/dc/elements/1.1/"
   xmlns:cc="http://creativecommons.org/ns#"
   xmlns:rdf="http://www.w3.org/1999/02/22-rdf-syntax-ns#"
   xmlns:svg="http://www.w3.org/2000/svg"
   xmlns="http://www.w3.org/2000/svg"
   xmlns:sodipodi="http://sodipodi.sourceforge.net/DTD/sodipodi-0.dtd"
   xmlns:inkscape="http://www.inkscape.org/namespaces/inkscape"
   width="400"
   height="84"
   viewBox="0 0 105.83333 22.225"
   version="1.1"
   id="svg8"
   inkscape:version="0.92.3 (2405546, 2018-03-11)"
   sodipodi:docname="desc_PM.svg">
  <defs
     id="defs2">
    <inkscape:path-effect
       effect="envelope"
       id="path-effect4703"
       is_visible="true"
       yy="true"
       xx="true"
       bendpath1="M 4.4121094,8.1308594 H 172.26367"
       bendpath2="M 172.26367,8.1308594 V 38.384766"
       bendpath3="M 4.4121094,38.384766 H 172.26367"
       bendpath4="M 4.4121094,8.1308594 V 38.384766" />
    <inkscape:path-effect
       effect="bspline"
       id="path-effect4701"
       is_visible="true"
       weight="33.333333"
       steps="2"
       helper_size="0"
       apply_no_weight="true"
       apply_with_weight="true"
       only_selected="false" />
    <inkscape:path-effect
       effect="bounding_box"
       id="path-effect996"
       is_visible="true"
       linkedpath=""
       visualbounds="false" />
    <filter
       inkscape:collect="always"
       style="color-interpolation-filters:sRGB"
       id="filter1126"
       x="-0.075636152"
       width="1.1512723"
       y="-0.17488011"
       height="1.3497602">
      <feGaussianBlur
         inkscape:collect="always"
         stdDeviation="3.3996876"
         id="feGaussianBlur1128" />
    </filter>
  </defs>
  <sodipodi:namedview
     id="base"
     pagecolor="#ffffff"
     bordercolor="#666666"
     borderopacity="1.0"
     inkscape:pageopacity="0.0"
     inkscape:pageshadow="2"
     inkscape:zoom="1.4710938"
     inkscape:cx="133.46157"
     inkscape:cy="129.17136"
     inkscape:document-units="px"
     inkscape:current-layer="layer2"
     showgrid="false"
     inkscape:window-width="1366"
     inkscape:window-height="715"
     inkscape:window-x="-8"
     inkscape:window-y="-8"
     inkscape:window-maximized="1"
     showguides="true"
     inkscape:guide-bbox="true"
     units="px"
     inkscape:lockguides="false"
     inkscape:snap-center="true"
     inkscape:snap-global="false">
    <sodipodi:guide
       position="52.916666,11.1125"
       orientation="1,0"
       id="guide825"
       inkscape:locked="false"
       inkscape:label=""
       inkscape:color="rgb(0,0,255)" />
    <sodipodi:guide
       position="52.916666,11.1125"
       orientation="0,1"
       id="guide827"
       inkscape:locked="false"
       inkscape:label=""
       inkscape:color="rgb(0,0,255)" />
  </sodipodi:namedview>
  <metadata
     id="metadata5">
    <rdf:RDF>
      <cc:Work
         rdf:about="">
        <dc:format>image/svg+xml</dc:format>
        <dc:type
           rdf:resource="http://purl.org/dc/dcmitype/StillImage" />
        <dc:title></dc:title>
      </cc:Work>
    </rdf:RDF>
  </metadata>
  <g
     inkscape:groupmode="layer"
     id="layer2"
     inkscape:label="shadow">
    <g
       aria-label="PM"
       transform="matrix(0.35140979,0,0,0.35140979,6.6892337,-0.41723316)"
       style="font-style:normal;font-weight:normal;font-size:40px;line-height:1.25;font-family:sans-serif;letter-spacing:0px;word-spacing:0px;fill:#000000;fill-opacity:1;stroke:#000000;filter:url(#filter1126)"
       id="flowRoot832-7">
      <path
         inkscape:connector-curvature="0"
         d="m 13.835938,10.357422 h 19.968749 q 7.34375,0 11.46875,3.375 4.15625,3.34375 4.15625,9.3125 0,3.65625 -1.375,6.96875 -1.375,3.28125 -3.9375,5.75 -2.78125,2.65625 -6.625,3.875 -3.84375,1.1875 -9.65625,1.1875 h -7.9375 l -3.125,16.1875 H 4.7421875 Z m 10.374999,8.71875 -2.5625,13.03125 h 6.65625 q 4.25,0 6.5,-2 2.25,-2 2.25,-5.8125 0,-2.53125 -1.625,-3.875 -1.59375,-1.34375 -4.625,-1.34375 z"
         style="font-style:italic;font-variant:normal;font-weight:bold;font-stretch:normal;font-size:64px;font-family:sans-serif;-inkscape-font-specification:'sans-serif Bold Italic';fill:#000000;stroke:#000000"
         id="path1056-7" />
      <path
         inkscape:connector-curvature="0"
         d="m 60.710937,10.357422 h 14.78125 l 6,24.78125 15.75,-24.78125 h 15.375003 l -9.09375,46.65625 H 92.117187 l 6.65625,-34.4375 -16.1875,25.46875 h -6.46875 l -6.4375,-25.46875 -6.65625,34.4375 h -11.40625 z"
         style="font-style:italic;font-variant:normal;font-weight:bold;font-stretch:normal;font-size:64px;font-family:sans-serif;-inkscape-font-specification:'sans-serif Bold Italic';fill:#000000;stroke:#000000"
         id="path1058-6" />
    </g>
  </g>
  <g
     inkscape:label="Layer 1"
     inkscape:groupmode="layer"
     id="layer1"
     transform="translate(0,-274.775)">
    <g
       aria-label="PM"
       transform="matrix(0.3514098,0,0,0.3514098,5.1017336,273.8286)"
       style="font-style:normal;font-weight:normal;font-size:40px;line-height:1.25;font-family:sans-serif;letter-spacing:0px;word-spacing:0px;fill:#de8787;fill-opacity:1;stroke:#000000"
       id="flowRoot832">
      <path
         d="m 13.835938,10.357422 h 19.968749 q 7.34375,0 11.46875,3.375 4.15625,3.34375 4.15625,9.3125 0,3.65625 -1.375,6.96875 -1.375,3.28125 -3.9375,5.75 -2.78125,2.65625 -6.625,3.875 -3.84375,1.1875 -9.65625,1.1875 h -7.9375 l -3.125,16.1875 H 4.7421875 Z m 10.374999,8.71875 -2.5625,13.03125 h 6.65625 q 4.25,0 6.5,-2 2.25,-2 2.25,-5.8125 0,-2.53125 -1.625,-3.875 -1.59375,-1.34375 -4.625,-1.34375 z"
         style="font-style:italic;font-variant:normal;font-weight:bold;font-stretch:normal;font-size:64px;font-family:sans-serif;-inkscape-font-specification:'sans-serif Bold Italic';fill:#de8787;stroke:#000000"
         id="path1056" />
      <path
         d="m 60.710937,10.357422 h 14.78125 l 6,24.78125 15.75,-24.78125 h 15.375003 l -9.09375,46.65625 H 92.117187 l 6.65625,-34.4375 -16.1875,25.46875 h -6.46875 l -6.4375,-25.46875 -6.65625,34.4375 h -11.40625 z"
         style="font-style:italic;font-variant:normal;font-weight:bold;font-stretch:normal;font-size:64px;font-family:sans-serif;-inkscape-font-specification:'sans-serif Bold Italic';fill:#de8787;stroke:#000000"
         id="path1058" />
    </g>
  </g>
</svg>
