<?xml version="1.0" encoding="UTF-8" standalone="no"?>
<!-- Created with Inkscape (http://www.inkscape.org/) -->

<svg
   xmlns:dc="http://purl.org/dc/elements/1.1/"
   xmlns:cc="http://creativecommons.org/ns#"
   xmlns:rdf="http://www.w3.org/1999/02/22-rdf-syntax-ns#"
   xmlns:svg="http://www.w3.org/2000/svg"
   xmlns="http://www.w3.org/2000/svg"
   xmlns:sodipodi="http://sodipodi.sourceforge.net/DTD/sodipodi-0.dtd"
   xmlns:inkscape="http://www.inkscape.org/namespaces/inkscape"
   width="400"
   height="84"
   viewBox="0 0 105.83333 22.225"
   version="1.1"
   id="svg8"
   inkscape:version="0.92.3 (2405546, 2018-03-11)"
   sodipodi:docname="desc_clr_ovrnight.svg">
  <defs
     id="defs2">
    <inkscape:path-effect
       effect="envelope"
       id="path-effect4703"
       is_visible="true"
       yy="true"
       xx="true"
       bendpath1="M 4.4121094,8.1308594 H 172.26367"
       bendpath2="M 172.26367,8.1308594 V 38.384766"
       bendpath3="M 4.4121094,38.384766 H 172.26367"
       bendpath4="M 4.4121094,8.1308594 V 38.384766" />
    <inkscape:path-effect
       effect="bspline"
       id="path-effect4701"
       is_visible="true"
       weight="33.333333"
       steps="2"
       helper_size="0"
       apply_no_weight="true"
       apply_with_weight="true"
       only_selected="false" />
    <inkscape:path-effect
       effect="bounding_box"
       id="path-effect996"
       is_visible="true"
       linkedpath=""
       visualbounds="false" />
    <filter
       inkscape:collect="always"
       style="color-interpolation-filters:sRGB"
       id="filter1963"
       x="-0.25316804"
       width="1.5063361"
       y="-0.25324129"
       height="1.5064826">
      <feGaussianBlur
         inkscape:collect="always"
         stdDeviation="0.81409581"
         id="feGaussianBlur1965" />
    </filter>
  </defs>
  <sodipodi:namedview
     id="base"
     pagecolor="#ffffff"
     bordercolor="#666666"
     borderopacity="1.0"
     inkscape:pageopacity="0.0"
     inkscape:pageshadow="2"
     inkscape:zoom="1.0930441"
     inkscape:cx="207.29082"
     inkscape:cy="56.593489"
     inkscape:document-units="px"
     inkscape:current-layer="layer5"
     showgrid="false"
     inkscape:window-width="1366"
     inkscape:window-height="715"
     inkscape:window-x="-8"
     inkscape:window-y="-8"
     inkscape:window-maximized="1"
     showguides="true"
     inkscape:guide-bbox="true"
     units="px"
     inkscape:lockguides="false"
     inkscape:snap-center="true"
     inkscape:snap-global="false">
    <sodipodi:guide
       position="52.916666,11.1125"
       orientation="1,0"
       id="guide825"
       inkscape:locked="false"
       inkscape:label=""
       inkscape:color="rgb(0,0,255)" />
    <sodipodi:guide
       position="52.916666,11.1125"
       orientation="0,1"
       id="guide827"
       inkscape:locked="false"
       inkscape:label=""
       inkscape:color="rgb(0,0,255)" />
  </sodipodi:namedview>
  <metadata
     id="metadata5">
    <rdf:RDF>
      <cc:Work
         rdf:about="">
        <dc:format>image/svg+xml</dc:format>
        <dc:type
           rdf:resource="http://purl.org/dc/dcmitype/StillImage" />
        <dc:title></dc:title>
      </cc:Work>
    </rdf:RDF>
  </metadata>
  <g
     inkscape:groupmode="layer"
     id="layer5"
     inkscape:label="shaodow">
    <path
       id="path1135-0"
       style="font-style:italic;font-variant:normal;font-weight:bold;font-stretch:normal;font-size:medium;line-height:1.25;font-family:sans-serif;-inkscape-font-specification:'sans-serif Bold Italic';letter-spacing:0px;word-spacing:0px;fill:#000000;fill-opacity:1;stroke:#000000;stroke-width:0.27001071;filter:url(#filter1963)"
       d="m 97.523427,13.667943 h 7.405383 l -0.30676,1.503783 h -2.66937 l -1.25936,6.211507 h -2.072002 l 1.259348,-6.211507 h -2.669384 z m -8.277246,0 h 2.072003 l -0.597385,2.940388 h 3.056877 l 0.592003,-2.940388 h 2.072002 l -1.566111,7.71529 h -2.072002 l 0.661963,-3.271117 h -3.051495 l -0.661963,3.271117 H 87.68007 Z m -3.33135,7.141682 q -0.785746,0.366902 -1.630693,0.547771 -0.844947,0.1757 -1.808292,0.1757 -1.711423,0 -2.690913,-0.831991 -0.97949,-0.837159 -0.97949,-2.278931 0,-0.935343 0.306763,-1.75183 0.306763,-0.821656 0.91491,-1.498618 0.742691,-0.826822 1.749095,-1.235067 1.01178,-0.408242 2.308799,-0.408242 0.721167,0 1.453094,0.144694 0.731928,0.144694 1.442326,0.428914 l -0.317527,1.596801 q -0.656582,-0.366903 -1.286256,-0.54777 -0.624289,-0.180867 -1.259345,-0.180867 -1.388509,0 -2.26037,0.888834 -0.871855,0.888835 -0.871855,2.284099 0,0.925008 0.505894,1.436605 0.511273,0.511595 1.436945,0.511595 0.301384,0 0.602765,-0.03617 0.301382,-0.04134 0.608148,-0.124025 l 0.306766,-1.498615 h -1.264733 l 0.263711,-1.333253 h 3.21833 z m -9.82183,-7.141682 h 2.072004 l -1.566113,7.71529 h -2.072003 z m -9.235213,0 h 2.314186 l 1.840585,5.343342 1.081746,-5.343342 h 1.958983 l -1.566108,7.71529 h -2.314186 l -1.840585,-5.343342 -1.076367,5.343342 H 65.29168 Z m -6.232152,3.420979 q 0.70502,0 1.065602,-0.315227 0.365964,-0.315225 0.365964,-0.925007 0,-0.382405 -0.252945,-0.558105 -0.247565,-0.180869 -0.785749,-0.180869 h -0.855707 l -0.409022,1.979208 z m -1.146328,1.374594 -0.597382,2.919717 h -2.072005 l 1.566111,-7.71529 h 3.062259 q 1.32393,0 2.007423,0.475422 0.68349,0.475424 0.68349,1.400432 0,0.935344 -0.538181,1.539958 -0.538181,0.604613 -1.458476,0.692464 0.419783,0.08268 0.699638,0.413412 0.279855,0.32556 0.489746,1.002521 l 0.683493,2.191081 H 61.944185 L 61.341419,19.466037 Q 61.158438,18.89243 60.894728,18.680557 60.6364,18.463516 60.141272,18.463516 Z M 50.84148,13.667943 h 5.586333 l -0.306763,1.503783 h -3.514331 l -0.290621,1.436605 h 3.309824 l -0.312148,1.503785 h -3.304439 l -0.355201,1.767333 h 3.62735 l -0.296,1.503784 h -5.710118 z m -9.482778,0 h 1.969749 l 0.984874,5.76709 3.325969,-5.76709 h 2.136582 l -4.536877,7.71529 h -2.470258 z m -3.035347,3.162598 q 0,-0.909507 -0.430546,-1.384929 -0.425165,-0.475423 -1.237822,-0.475423 -1.076364,0 -1.808292,0.930176 -0.726546,0.925008 -0.726546,2.320271 0,0.888834 0.425165,1.379761 0.425164,0.490925 1.183999,0.490925 0.618911,0 1.097894,-0.248046 0.484362,-0.253215 0.823418,-0.74414 0.322911,-0.470257 0.495128,-1.059368 0.177602,-0.58911 0.177602,-1.209227 z m -1.366983,-3.302124 q 1.603782,0 2.577893,0.857827 0.979493,0.852662 0.979493,2.232423 0,0.94051 -0.301384,1.777669 -0.296,0.837158 -0.866474,1.503783 -0.699637,0.821657 -1.657601,1.2299 -0.952582,0.403077 -2.201167,0.403077 -1.598403,0 -2.572512,-0.852662 -0.974111,-0.852661 -0.974111,-2.237589 0,-0.945679 0.296,-1.782838 0.296,-0.837157 0.871858,-1.508951 0.688872,-0.816488 1.641454,-1.219563 0.957966,-0.403076 2.206551,-0.403076 z M 71.322037,9.7590077 q -0.888167,0.3669023 -1.843249,0.5477703 -0.955083,0.1757 -2.044002,0.1757 -1.934495,0 -3.041663,-0.8319907 -1.107167,-0.8371581 -1.107167,-2.2789306 0,-0.9353433 0.346749,-1.7518311 0.34675,-0.821655 1.034164,-1.4986163 0.839504,-0.826823 1.977086,-1.2350668 1.143669,-0.4082438 2.609749,-0.4082438 0.815165,0 1.642499,0.144694 0.827331,0.144694 1.630333,0.4289144 l -0.358915,1.5968016 q -0.742169,-0.3669024 -1.453917,-0.54777 -0.705668,-0.1808676 -1.423503,-0.1808676 -1.569498,0 -2.554997,0.8888346 -0.985499,0.8888347 -0.985499,2.2840982 0,0.9250082 0.571831,1.4366049 0.577919,0.5115967 1.624253,0.5115967 0.340665,0 0.681331,-0.036174 0.340667,-0.041341 0.687417,-0.1240234 l 0.34675,-1.4986169 h -1.429581 l 0.298082,-1.3332518 h 3.637833 z M 54.428626,2.617325 h 2.615833 l 2.0805,5.3433429 1.222748,-5.3433429 h 2.214333 l -1.770251,7.715291 H 58.175957 L 56.095459,4.9892733 54.878791,10.332616 h -2.220412 z m -4.647662,0 h 2.342081 l -1.770253,7.715291 h -2.342081 z m -7.044497,3.4209797 q 0.796914,0 1.2045,-0.3152262 0.413662,-0.3152262 0.413662,-0.9250079 0,-0.3824057 -0.285916,-0.5581055 -0.279834,-0.1808676 -0.888164,-0.1808676 h -0.967251 l -0.462333,1.9792072 z m -1.295752,1.3745932 -0.675251,2.9197181 h -2.342081 l 1.77025,-7.715291 h 3.461417 q 1.496494,0 2.26908,0.4754232 0.772581,0.4754232 0.772581,1.4004314 0,0.9353433 -0.60833,1.5399575 -0.608333,0.6046142 -1.648582,0.6924643 0.474498,0.082682 0.790831,0.4134115 0.316334,0.3255613 0.553583,1.0025226 l 0.772581,2.1910805 H 44.226878 L 43.545547,8.4154205 Q 43.338711,7.8418123 43.040632,7.6299388 42.74863,7.4128979 42.188965,7.4128979 Z m -6.795079,1.5141194 h -3.625668 l -0.900332,1.4055987 h -2.402915 l 5.134331,-7.715291 h 2.676667 l 1.606,7.715291 H 34.907216 Z M 31.902052,7.5265859 h 2.439416 L 33.793966,4.5551913 Z M 22.040973,2.617325 h 6.314498 l -0.34675,1.5037843 h -3.972416 l -0.3285,1.4366046 h 3.741249 L 27.09622,7.0614981 h -3.735164 l -0.4015,1.7673339 h 4.100165 l -0.334584,1.503784 h -6.454413 z m -7.932664,0 h 2.342083 l -1.4235,6.211507 h 4.100166 l -0.334583,1.503784 H 12.33806 Z M 10.47656,9.9708813 q -0.8394994,0.2532147 -1.6120824,0.3824057 -0.7725831,0.129191 -1.4660827,0.129191 -1.8310826,0 -2.9260823,-0.8526613 -1.0949995,-0.852661 -1.0949995,-2.25826 0,-0.9250082 0.3467498,-1.7414956 Q 4.0708128,4.8084057 4.7460625,4.1314444 5.5429789,3.3356275 6.6623119,2.9067131 7.7877279,2.4777987 9.0834774,2.4777987 q 0.7056662,0 1.4174156,0.144694 0.711751,0.1395263 1.447834,0.4289144 L 11.57156,4.6482087 q -0.584,-0.3772378 -1.174083,-0.5529376 -0.5900832,-0.1757 -1.2653329,-0.1757 -1.4052497,0 -2.3542493,0.9198406 -0.9489995,0.9198404 -0.9489995,2.2996012 0,0.8888346 0.5839997,1.3952635 0.5839997,0.5064291 1.6120829,0.5064291 0.6144165,0 1.3018326,-0.1860351 0.6934995,-0.191203 1.5512495,-0.594279 z" />
  </g>
  <g
     inkscape:groupmode="layer"
     id="layer4"
     inkscape:label="Layer 1"
     sodipodi:insensitive="true">
    <path
       id="path1135"
       style="font-style:italic;font-variant:normal;font-weight:bold;font-stretch:normal;font-size:medium;line-height:1.25;font-family:sans-serif;-inkscape-font-specification:'sans-serif Bold Italic';letter-spacing:0px;word-spacing:0px;fill:#d7e3f4;fill-opacity:1;stroke:#000000;stroke-width:0.27001071"
       d="m 96.465093,13.138776 h 7.405387 l -0.30676,1.503784 h -2.66938 l -1.259352,6.211507 h -2.072002 l 1.259347,-6.211507 h -2.669385 z m -8.277246,0 h 2.072002 l -0.597382,2.940389 h 3.056876 l 0.592001,-2.940389 h 2.072003 l -1.566111,7.715291 h -2.072002 l 0.661963,-3.271118 h -3.051495 l -0.661963,3.271118 h -2.072002 z m -3.331349,7.141683 q -0.785748,0.366902 -1.630693,0.54777 -0.844947,0.1757 -1.808293,0.1757 -1.711422,0 -2.690914,-0.831991 -0.97949,-0.837158 -0.97949,-2.27893 0,-0.935344 0.306764,-1.751831 0.306763,-0.821656 0.91491,-1.498617 0.742691,-0.826823 1.749094,-1.235067 1.011781,-0.408243 2.308801,-0.408243 0.721165,0 1.453093,0.144694 0.731928,0.144694 1.442327,0.428914 l -0.317526,1.596802 q -0.656583,-0.366903 -1.286257,-0.54777 -0.62429,-0.180868 -1.259346,-0.180868 -1.38851,0 -2.260368,0.888835 -0.871855,0.888834 -0.871855,2.284098 0,0.925008 0.505893,1.436605 0.511273,0.511596 1.436945,0.511596 0.301383,0 0.602765,-0.03617 0.301382,-0.04134 0.608146,-0.124024 l 0.306767,-1.498616 H 82.12253 l 0.263709,-1.333252 h 3.218332 z m -9.82183,-7.141683 h 2.072003 l -1.566113,7.715291 h -2.072002 z m -9.235213,0 h 2.314186 l 1.840584,5.343343 1.081747,-5.343343 h 1.958983 l -1.56611,7.715291 H 69.11466 l -1.840585,-5.343343 -1.076366,5.343343 h -1.964364 z m -6.232153,3.42098 q 0.70502,0 1.065602,-0.315227 0.365965,-0.315226 0.365965,-0.925008 0,-0.382405 -0.252946,-0.558105 -0.247565,-0.180868 -0.785748,-0.180868 h -0.855708 l -0.409021,1.979208 z m -1.146327,1.374593 -0.597383,2.919718 H 55.751589 L 57.3177,13.138776 h 3.062257 q 1.32393,0 2.007422,0.475423 0.683492,0.475423 0.683492,1.400431 0,0.935344 -0.538183,1.539958 -0.538181,0.604614 -1.458476,0.692464 0.419784,0.08268 0.69964,0.413412 0.279853,0.325561 0.489745,1.002522 l 0.683492,2.191081 H 60.88585 L 60.283086,18.936871 Q 60.100104,18.363263 59.836395,18.15139 59.578067,17.934349 59.082938,17.934349 Z m -8.63783,-4.795573 h 5.586334 l -0.306763,1.503784 h -3.514332 l -0.290619,1.436605 h 3.309822 l -0.312146,1.503784 h -3.30444 l -0.3552,1.767334 h 3.627349 l -0.296,1.503784 h -5.710117 z m -9.482776,0 h 1.969749 l 0.984873,5.76709 3.325968,-5.76709 h 2.136584 l -4.536878,7.715291 h -2.470257 z m -3.035349,3.162598 q 0,-0.909506 -0.430546,-1.384929 -0.425164,-0.475423 -1.23782,-0.475423 -1.076365,0 -1.808293,0.930176 -0.726546,0.925008 -0.726546,2.320271 0,0.888835 0.425164,1.379761 0.425164,0.490926 1.184001,0.490926 0.61891,0 1.097893,-0.248046 0.484363,-0.253215 0.823419,-0.744141 0.32291,-0.470256 0.495128,-1.059367 0.1776,-0.589111 0.1776,-1.209228 z M 35.898037,12.99925 q 1.603784,0 2.577894,0.857828 0.979492,0.852661 0.979492,2.232422 0,0.940511 -0.301383,1.777669 -0.296,0.837159 -0.866473,1.503784 -0.699637,0.821656 -1.657602,1.2299 -0.952583,0.403076 -2.201167,0.403076 -1.598402,0 -2.572512,-0.852661 -0.97411,-0.852661 -0.97411,-2.23759 0,-0.945679 0.296,-1.782837 0.296,-0.837158 0.871856,-1.508951 0.688874,-0.816488 1.641456,-1.219564 0.957965,-0.403076 2.206549,-0.403076 z M 70.263702,9.2298412 q -0.888165,0.3669027 -1.843249,0.5477703 -0.955082,0.1756997 -2.044001,0.1756997 -1.934496,0 -3.041663,-0.8319905 -1.107168,-0.837158 -1.107168,-2.2789306 0,-0.9353433 0.346751,-1.751831 0.346749,-0.8216551 1.034164,-1.4986164 0.839503,-0.826823 1.977084,-1.2350668 1.143669,-0.4082438 2.60975,-0.4082438 0.815165,0 1.642498,0.144694 0.827333,0.144694 1.630334,0.4289144 L 71.109287,4.1190421 Q 70.367118,3.7521397 69.65537,3.5712721 68.949702,3.3904045 68.231868,3.3904045 q -1.569498,0 -2.554998,0.8888346 -0.985498,0.8888347 -0.985498,2.2840982 0,0.9250082 0.57183,1.4366049 0.577918,0.5115968 1.624253,0.5115968 0.340666,0 0.681333,-0.036174 0.340666,-0.041341 0.687415,-0.1240234 l 0.34675,-1.4986167 h -1.429582 l 0.298084,-1.3332518 h 3.637832 z M 53.370292,2.0881584 h 2.615833 l 2.0805,5.3433429 1.22275,-5.3433429 h 2.214331 L 59.733457,9.8034496 H 57.117624 L 55.037125,4.4601067 53.820458,9.8034496 h -2.220414 z m -4.647663,0 h 2.342082 l -1.770252,7.7152912 h -2.342081 z m -7.044497,3.4209797 q 0.796915,0 1.2045,-0.3152262 0.413664,-0.3152262 0.413664,-0.9250079 0,-0.3824057 -0.285917,-0.5581055 -0.279834,-0.1808676 -0.888165,-0.1808676 h -0.96725 l -0.462332,1.9792072 z m -1.295751,1.3745932 -0.67525,2.9197183 h -2.342082 l 1.77025,-7.7152912 h 3.461416 q 1.496496,0 2.26908,0.4754232 0.772583,0.4754232 0.772583,1.4004314 0,0.9353433 -0.608331,1.5399575 -0.608334,0.6046142 -1.648583,0.6924643 0.4745,0.082682 0.790833,0.4134115 0.316333,0.3255613 0.553581,1.0025226 l 0.772583,2.1910807 H 43.168545 L 42.487212,7.8862539 Q 42.280379,7.3126457 41.982297,7.1007722 41.690297,6.8837313 41.130632,6.8837313 Z m -6.795079,1.5141194 h -3.625667 l -0.900333,1.4055989 h -2.402915 l 5.134331,-7.7152912 h 2.676667 l 1.605999,7.7152912 H 33.848883 Z M 30.843719,6.9974193 h 2.439414 l -0.5475,-2.9713946 z m -9.86108,-4.9092609 h 6.314498 l -0.34675,1.5037843 h -3.972416 l -0.3285,1.4366046 h 3.741249 l -0.352834,1.5037843 h -3.735164 l -0.4015,1.7673338 h 4.100165 L 25.666803,9.8034496 H 19.21239 Z m -7.932664,0 h 2.342083 l -1.4235,6.211507 h 4.100166 L 17.734141,9.8034496 H 11.279726 Z M 9.4182266,9.4417147 Q 8.5787272,9.6949292 7.8061441,9.8241202 7.033561,9.9533112 6.3400614,9.9533112 q -1.8310825,0 -2.9260822,-0.8526611 -1.0949995,-0.852661 -1.0949995,-2.25826 0,-0.9250081 0.3467498,-1.7414956 Q 3.0124794,4.2792391 3.6877291,3.6022778 4.4846455,2.8064609 5.6039785,2.3775465 6.7293946,1.9486321 8.025144,1.9486321 q 0.7056663,0 1.417416,0.144694 0.71175,0.1395263 1.447833,0.4289144 L 10.513226,4.1190421 Q 9.9292265,3.7418043 9.3391434,3.5661045 q -0.590083,-0.1757 -1.2653327,-0.1757 -1.4052496,0 -2.3542492,0.9198406 -0.9489996,0.9198404 -0.9489996,2.2996012 0,0.8888346 0.5839997,1.3952635 0.5839998,0.5064292 1.6120829,0.5064292 0.6144164,0 1.3018327,-0.1860352 0.6934999,-0.191203 1.5512494,-0.594279 z"
       inkscape:connector-curvature="0" />
  </g>
</svg>
