<?xml version="1.0" encoding="UTF-8" standalone="no"?>
<!-- Created with Inkscape (http://www.inkscape.org/) -->

<svg
   xmlns:dc="http://purl.org/dc/elements/1.1/"
   xmlns:cc="http://creativecommons.org/ns#"
   xmlns:rdf="http://www.w3.org/1999/02/22-rdf-syntax-ns#"
   xmlns:svg="http://www.w3.org/2000/svg"
   xmlns="http://www.w3.org/2000/svg"
   xmlns:sodipodi="http://sodipodi.sourceforge.net/DTD/sodipodi-0.dtd"
   xmlns:inkscape="http://www.inkscape.org/namespaces/inkscape"
   width="400"
   height="84"
   viewBox="0 0 105.83333 22.225"
   version="1.1"
   id="svg8"
   inkscape:version="0.92.3 (2405546, 2018-03-11)"
   sodipodi:docname="desc_NIGHT.svg">
  <defs
     id="defs2">
    <inkscape:path-effect
       effect="envelope"
       id="path-effect4703"
       is_visible="true"
       yy="true"
       xx="true"
       bendpath1="M 4.4121094,8.1308594 H 172.26367"
       bendpath2="M 172.26367,8.1308594 V 38.384766"
       bendpath3="M 4.4121094,38.384766 H 172.26367"
       bendpath4="M 4.4121094,8.1308594 V 38.384766" />
    <inkscape:path-effect
       effect="bspline"
       id="path-effect4701"
       is_visible="true"
       weight="33.333333"
       steps="2"
       helper_size="0"
       apply_no_weight="true"
       apply_with_weight="true"
       only_selected="false" />
    <inkscape:path-effect
       effect="bounding_box"
       id="path-effect996"
       is_visible="true"
       linkedpath=""
       visualbounds="false" />
    <filter
       inkscape:collect="always"
       style="color-interpolation-filters:sRGB"
       id="filter2577"
       x="-0.30655596"
       width="1.6131119"
       y="-0.34830374"
       height="1.6966075">
      <feGaussianBlur
         inkscape:collect="always"
         stdDeviation="1.1174571"
         id="feGaussianBlur2579" />
    </filter>
    <filter
       inkscape:collect="always"
       style="color-interpolation-filters:sRGB"
       id="filter2573"
       x="-0.27002534"
       width="1.5400507"
       y="-0.34830374"
       height="1.6966075">
      <feGaussianBlur
         inkscape:collect="always"
         stdDeviation="1.1174571"
         id="feGaussianBlur2575" />
    </filter>
    <filter
       inkscape:collect="always"
       style="color-interpolation-filters:sRGB"
       id="filter2569"
       x="-0.28940177"
       width="1.5788035"
       y="-0.33571216"
       height="1.6714243">
      <feGaussianBlur
         inkscape:collect="always"
         stdDeviation="1.1174571"
         id="feGaussianBlur2571" />
    </filter>
    <filter
       inkscape:collect="always"
       style="color-interpolation-filters:sRGB"
       id="filter2565"
       x="-0.65029764"
       width="2.3005953"
       y="-0.34830374"
       height="1.6966075">
      <feGaussianBlur
         inkscape:collect="always"
         stdDeviation="1.1174571"
         id="feGaussianBlur2567" />
    </filter>
    <filter
       inkscape:collect="always"
       style="color-interpolation-filters:sRGB"
       id="filter2561"
       x="-0.27002534"
       width="1.5400507"
       y="-0.34830374"
       height="1.6966075">
      <feGaussianBlur
         inkscape:collect="always"
         stdDeviation="1.1174571"
         id="feGaussianBlur2563" />
    </filter>
  </defs>
  <sodipodi:namedview
     id="base"
     pagecolor="#ffffff"
     bordercolor="#666666"
     borderopacity="1.0"
     inkscape:pageopacity="0.0"
     inkscape:pageshadow="2"
     inkscape:zoom="1.2068751"
     inkscape:cx="33.352469"
     inkscape:cy="22.633526"
     inkscape:document-units="px"
     inkscape:current-layer="layer1"
     showgrid="false"
     inkscape:window-width="1366"
     inkscape:window-height="715"
     inkscape:window-x="-8"
     inkscape:window-y="-8"
     inkscape:window-maximized="1"
     showguides="true"
     inkscape:guide-bbox="true"
     units="px"
     inkscape:lockguides="true"
     inkscape:snap-center="true"
     inkscape:snap-global="false">
    <sodipodi:guide
       position="52.916666,11.1125"
       orientation="1,0"
       id="guide825"
       inkscape:locked="true"
       inkscape:label=""
       inkscape:color="rgb(0,0,255)" />
    <sodipodi:guide
       position="52.916666,11.1125"
       orientation="0,1"
       id="guide827"
       inkscape:locked="true"
       inkscape:label=""
       inkscape:color="rgb(0,0,255)" />
  </sodipodi:namedview>
  <metadata
     id="metadata5">
    <rdf:RDF>
      <cc:Work
         rdf:about="">
        <dc:format>image/svg+xml</dc:format>
        <dc:type
           rdf:resource="http://purl.org/dc/dcmitype/StillImage" />
        <dc:title />
      </cc:Work>
    </rdf:RDF>
  </metadata>
  <g
     inkscape:groupmode="layer"
     id="layer2"
     inkscape:label="Layer 2" />
  <g
     inkscape:label="Layer 1"
     inkscape:groupmode="layer"
     id="layer1"
     transform="translate(0,-274.775)">
    <path
       d="M 6.8871041,282.40543 H 9.510426 l 2.086456,5.33267 1.22625,-5.33267 h 2.220672 l -1.775317,7.69988 h -2.623322 l -2.0864558,-5.33267 -1.2201498,5.33267 H 5.111786 Z"
       style="font-style:italic;font-variant:normal;font-weight:bold;font-stretch:normal;font-size:medium;line-height:0.94999999;font-family:sans-serif;-inkscape-font-specification:'sans-serif Bold Italic';letter-spacing:0px;word-spacing:0px;fill:#000000;fill-opacity:1;stroke:#000000;stroke-width:0.28719282;filter:url(#filter2561)"
       id="path2139"
       inkscape:connector-curvature="0"
       transform="matrix(1.0083418,0,0,1.5946484,-2.5319638,-169.12823)" />
    <path
       d="m 17.355988,282.40543 h 2.348789 l -1.775318,7.69988 H 15.58067 Z"
       style="font-style:italic;font-variant:normal;font-weight:bold;font-stretch:normal;font-size:medium;line-height:0.94999999;font-family:sans-serif;-inkscape-font-specification:'sans-serif Bold Italic';letter-spacing:0px;word-spacing:0px;fill:#000000;fill-opacity:1;stroke:#000000;stroke-width:0.28719282;filter:url(#filter2565)"
       id="path2141"
       inkscape:connector-curvature="0"
       transform="matrix(1.0083418,0,0,1.5946484,-2.5319638,-169.12823)" />
    <path
       d="m 28.489855,289.53285 q -0.890709,0.36617 -1.848526,0.54667 -0.957818,0.17535 -2.049852,0.17535 -1.940039,0 -3.050375,-0.83033 -1.110336,-0.83548 -1.110336,-2.27437 0,-0.93348 0.347743,-1.74834 0.347743,-0.82 1.037127,-1.49562 0.841903,-0.82516 1.982743,-1.2326 1.146941,-0.40742 2.617222,-0.40742 0.8175,0 1.647202,0.1444 0.829702,0.14441 1.635,0.42806 l -0.359943,1.59361 q -0.744291,-0.36617 -1.458079,-0.54668 -0.707687,-0.1805 -1.427576,-0.1805 -1.573993,0 -2.562315,0.88706 -0.98832,0.88706 -0.98832,2.27953 0,0.92316 0.57347,1.43374 0.579571,0.51058 1.6289,0.51058 0.341642,0 0.683284,-0.0361 0.341642,-0.0412 0.689384,-0.12378 l 0.347743,-1.49561 h -1.433676 l 0.298936,-1.3306 h 3.648249 z"
       style="font-style:italic;font-variant:normal;font-weight:bold;font-stretch:normal;font-size:medium;line-height:0.94999999;font-family:sans-serif;-inkscape-font-specification:'sans-serif Bold Italic';letter-spacing:0px;word-spacing:0px;fill:#000000;fill-opacity:1;stroke:#000000;stroke-width:0.28719282;filter:url(#filter2569)"
       id="path2143"
       inkscape:connector-curvature="0"
       transform="matrix(1.0083418,0,0,1.5946484,-2.5319638,-169.12823)" />
    <path
       d="m 32.266219,282.40543 h 2.348789 l -0.677184,2.93452 h 3.465225 l 0.671084,-2.93452 h 2.348788 l -1.775317,7.69988 h -2.348791 l 0.750394,-3.26458 h -3.459125 l -0.750392,3.26458 h -2.348789 z"
       style="font-style:italic;font-variant:normal;font-weight:bold;font-stretch:normal;font-size:medium;line-height:0.94999999;font-family:sans-serif;-inkscape-font-specification:'sans-serif Bold Italic';letter-spacing:0px;word-spacing:0px;fill:#000000;fill-opacity:1;stroke:#000000;stroke-width:0.28719282;filter:url(#filter2573)"
       id="path2145"
       inkscape:connector-curvature="0"
       transform="matrix(1.0083418,0,0,1.5946484,-2.5319638,-169.12823)" />
    <path
       d="m 41.649171,282.40543 h 8.394631 l -0.347742,1.50078 h -3.025972 l -1.427575,6.1991 h -2.348791 l 1.427578,-6.1991 h -3.025972 z"
       style="font-style:italic;font-variant:normal;font-weight:bold;font-stretch:normal;font-size:medium;line-height:0.94999999;font-family:sans-serif;-inkscape-font-specification:'sans-serif Bold Italic';letter-spacing:0px;word-spacing:0px;fill:#000000;fill-opacity:1;stroke:#000000;stroke-width:0.28719282;filter:url(#filter2577)"
       id="path2147"
       inkscape:connector-curvature="0"
       transform="matrix(1.0083418,0,0,1.5946484,-2.5319638,-169.12823)" />
    <path
       inkscape:connector-curvature="0"
       id="path844"
       style="font-style:italic;font-variant:normal;font-weight:bold;font-stretch:normal;font-size:medium;line-height:0.94999999;font-family:sans-serif;-inkscape-font-specification:'sans-serif Bold Italic';letter-spacing:0px;word-spacing:0px;fill:#5fd38d;fill-opacity:1;stroke:#000000;stroke-width:0.36417484"
       d="m 3.5558053,280.02056 h 2.6452048 l 2.1038612,8.50375 1.2364788,-8.50375 h 2.2391969 l -1.7901265,12.27861 h -2.645205 l -2.1038612,-8.50373 -1.2303279,8.50373 H 1.7656777 Z" />
    <path
       inkscape:connector-curvature="0"
       id="path846"
       style="font-style:italic;font-variant:normal;font-weight:bold;font-stretch:normal;font-size:medium;line-height:0.94999999;font-family:sans-serif;-inkscape-font-specification:'sans-serif Bold Italic';letter-spacing:0px;word-spacing:0px;fill:#5fd38d;fill-opacity:1;stroke:#000000;stroke-width:0.36417484"
       d="m 14.112018,280.02056 h 2.368383 l -1.790129,12.27861 h -2.368381 z" />
    <path
       inkscape:connector-curvature="0"
       id="path848"
       style="font-style:italic;font-variant:normal;font-weight:bold;font-stretch:normal;font-size:medium;line-height:0.94999999;font-family:sans-serif;-inkscape-font-specification:'sans-serif Bold Italic';letter-spacing:0px;word-spacing:0px;fill:#5fd38d;fill-opacity:1;stroke:#000000;stroke-width:0.36417484"
       d="m 25.33876,291.38629 q -0.898138,0.5839 -1.863945,0.87175 -0.965809,0.27963 -2.066951,0.27963 -1.956223,0 -3.075821,-1.32409 -1.119598,-1.33231 -1.119598,-3.62682 0,-1.48857 0.350644,-2.78799 0.350644,-1.30761 1.045778,-2.38499 0.848926,-1.31585 1.999284,-1.96557 1.156508,-0.64968 2.639052,-0.64968 0.82432,0 1.660943,0.23027 0.836624,0.23027 1.648639,0.6826 l -0.362945,2.54125 q -0.750501,-0.5839 -1.470243,-0.87177 -0.71359,-0.28783 -1.439482,-0.28783 -1.587124,0 -2.583691,1.41455 -0.996564,1.41454 -0.996564,3.63505 0,1.47212 0.578254,2.28631 0.584405,0.81419 1.642488,0.81419 0.344491,0 0.688984,-0.0575 0.344491,-0.0657 0.695133,-0.19738 l 0.350644,-2.38496 h -1.445634 l 0.301428,-2.12185 h 3.678683 z" />
    <path
       inkscape:connector-curvature="0"
       id="path850"
       style="font-style:italic;font-variant:normal;font-weight:bold;font-stretch:normal;font-size:medium;line-height:0.94999999;font-family:sans-serif;-inkscape-font-specification:'sans-serif Bold Italic';letter-spacing:0px;word-spacing:0px;fill:#5fd38d;fill-opacity:1;stroke:#000000;stroke-width:0.36417484"
       d="m 29.146628,280.02056 h 2.368381 l -0.682834,4.67953 h 3.494133 l 0.676681,-4.67953 h 2.368383 l -1.790127,12.27861 h -2.368384 l 0.756652,-5.20585 h -3.487981 l -0.75665,5.20585 h -2.368384 z" />
    <path
       inkscape:connector-curvature="0"
       id="path852"
       style="font-style:italic;font-variant:normal;font-weight:bold;font-stretch:normal;font-size:medium;line-height:0.94999999;font-family:sans-serif;-inkscape-font-specification:'sans-serif Bold Italic';letter-spacing:0px;word-spacing:0px;fill:#5fd38d;fill-opacity:1;stroke:#000000;stroke-width:0.36417484"
       d="m 38.607849,280.02056 h 8.464656 l -0.350642,2.39322 h -3.051212 l -1.439485,9.88539 h -2.368383 l 1.439485,-9.88539 h -3.051215 z" />
  </g>
</svg>
