<?xml version="1.0" encoding="UTF-8" standalone="no"?>
<!-- Created with Inkscape (http://www.inkscape.org/) -->

<svg
   xmlns:dc="http://purl.org/dc/elements/1.1/"
   xmlns:cc="http://creativecommons.org/ns#"
   xmlns:rdf="http://www.w3.org/1999/02/22-rdf-syntax-ns#"
   xmlns:svg="http://www.w3.org/2000/svg"
   xmlns="http://www.w3.org/2000/svg"
   xmlns:xlink="http://www.w3.org/1999/xlink"
   xmlns:sodipodi="http://sodipodi.sourceforge.net/DTD/sodipodi-0.dtd"
   xmlns:inkscape="http://www.inkscape.org/namespaces/inkscape"
   width="400"
   height="400"
   viewBox="0 0 105.83333 105.83334"
   version="1.1"
   id="svg8"
   inkscape:version="0.92.3 (2405546, 2018-03-11)"
   sodipodi:docname="hurricane.svg">
  <defs
     id="defs2">
    <linearGradient
       inkscape:collect="always"
       id="linearGradient2492">
      <stop
         id="stop2490"
         offset="0"
         style="stop-color:#ffffff;stop-opacity:1" />
      <stop
         style="stop-color:#ebebeb;stop-opacity:1;"
         offset="0.61141306"
         id="stop2500" />
      <stop
         id="stop2488"
         offset="1"
         style="stop-color:#b3b3b3;stop-opacity:1" />
    </linearGradient>
    <radialGradient
       inkscape:collect="always"
       xlink:href="#linearGradient2492"
       id="radialGradient2496"
       cx="52.754837"
       cy="52.806492"
       fx="52.754837"
       fy="52.806492"
       r="45.34404"
       gradientTransform="matrix(1.1933165,0,0.33654616,1.1973666,-27.970196,-10.422231)"
       gradientUnits="userSpaceOnUse" />
  </defs>
  <sodipodi:namedview
     id="base"
     pagecolor="#ffffff"
     bordercolor="#666666"
     borderopacity="1.0"
     inkscape:pageopacity="0.0"
     inkscape:pageshadow="2"
     inkscape:zoom="0.6"
     inkscape:cx="218.34389"
     inkscape:cy="352.84028"
     inkscape:document-units="px"
     inkscape:current-layer="layer3"
     showgrid="false"
     units="px"
     inkscape:window-width="1366"
     inkscape:window-height="715"
     inkscape:window-x="-8"
     inkscape:window-y="-8"
     inkscape:window-maximized="1"
     showguides="true"
     inkscape:guide-bbox="true"
     inkscape:lockguides="true"
     inkscape:snap-intersection-paths="true"
     inkscape:snap-center="true"
     inkscape:snap-global="false"
     inkscape:object-nodes="true">
    <sodipodi:guide
       position="52.916668,52.916668"
       orientation="1,0"
       id="guide815"
       inkscape:locked="true"
       inkscape:label=""
       inkscape:color="rgb(0,0,255)" />
    <sodipodi:guide
       position="52.916668,52.916668"
       orientation="0,1"
       id="guide817"
       inkscape:locked="true"
       inkscape:label=""
       inkscape:color="rgb(0,0,255)" />
  </sodipodi:namedview>
  <metadata
     id="metadata5">
    <rdf:RDF>
      <cc:Work
         rdf:about="">
        <dc:format>image/svg+xml</dc:format>
        <dc:type
           rdf:resource="http://purl.org/dc/dcmitype/StillImage" />
        <dc:title />
      </cc:Work>
    </rdf:RDF>
  </metadata>
  <g
     inkscape:groupmode="layer"
     id="layer3"
     inkscape:label="new">
    <path
       style="display:inline;opacity:1;fill:url(#radialGradient2496);fill-opacity:1;stroke:#cccccc;stroke-width:0.3691051;stroke-miterlimit:4;stroke-dasharray:none;stroke-opacity:0.93467335"
       d="m 44.161508,7.4925617 c 0,0 -11.97173,8.8176793 -7.818442,16.7683283 11.660775,-17.0636086 32.709933,-8.242866 32.709933,-8.242866 0,0 -16.857412,0.244336 -17.043889,8.068407 l -0.123597,0.0014 a 34.322221,25.93616 41.000137 0 1 0.219143,0.04613 l -0.09555,-0.04758 c 20.895339,-6.634364 36.970044,10.15832 36.970044,10.15832 0,0 -16.890143,-7.95657 -21.319486,-2.426579 a 34.322221,25.93616 41.000137 0 1 0.07971,0.06561 c 24.529343,5.935172 31.666186,26.226643 31.666188,26.226643 0,0 -12.702961,-14.655971 -20.184586,-12.87254 l -0.09496,-0.10958 a 34.322221,25.93616 41.000137 0 1 0.0677,0.125442 c 21.466989,16.762041 17.56562,35.235839 17.56562,35.235839 0,0 -4.725838,-16.905555 -13.200129,-19.458036 a 34.322221,25.93616 41.000137 0 1 -0.0012,0.03677 c 12.19131,22.963903 -1.95451,34.235217 -1.95451,34.235217 0,0 5.036293,-14.698536 -2.072771,-20.86309 l 0.158693,-0.530587 a 34.322221,25.93616 41.000137 0 1 -0.387124,0.487333 l 0.09359,-0.062 c -0.37301,22.723147 -20.983848,23.784972 -20.983848,23.784972 0,0 13.467692,-8.222966 9.724776,-16.267298 l 0.105061,-0.06993 a 34.322221,25.93616 41.000137 0 1 -0.248932,0.06848 l 0.143857,0.0014 C 55.319771,98.002103 34.802478,88.72591 34.802478,88.72591 c 0,0 17.105359,0.635957 17.751102,-7.0476 h 0.01875 a 34.322221,25.93616 41.000137 0 1 -0.04638,-0.01367 l 0.02763,0.01367 C 30.859054,86.826541 14.274078,68.941295 14.274078,68.941295 c 0,0 18.157891,10.222743 23.001403,5.014637 l 0.08312,0.04181 A 34.322221,25.93616 41.000137 0 1 37.19733,73.8651 l 0.07815,0.09083 C 12.674646,66.517563 5.3319738,44.754873 5.3319738,44.754873 c 0,0 12.9451472,17.330599 20.6818002,16.090675 l 0.08994,0.104531 a 34.322221,25.93616 41.000137 0 1 -0.128349,-0.23862 l 0.03841,0.134092 C 4.4702551,44.177515 8.2882921,25.638549 8.2882851,25.638549 c 0,0 4.7893529,17.153305 13.2566849,19.67719 -12.6124129,-22.815806 0.908036,-33.964875 0.908036,-33.964875 0,0 -4.281506,14.700237 2.923351,20.749905 l 9.25e-4,7.2e-4 -0.0037,0.01297 a 34.322221,25.93616 41.000137 0 1 0.02186,-0.0274 l -0.01923,0.01367 C 24.399194,9.0412936 44.161508,7.4925617 44.161508,7.4925617 Z m -7.7033,16.7676083 -0.114949,0.0014 2.02e-4,7.2e-4 -0.06717,0.0483 a 34.322221,25.93616 41.000137 0 1 0.181905,-0.05046 z m -14.857104,21.075755 -0.0076,0.02667 0.01114,0.03965 a 34.322221,25.93616 41.000137 0 1 -0.0035,-0.06632 z M 51.79214,47.72934 c 10e-7,3e-6 -2.214454,0.173982 -2.104977,2.757477 -0.807207,-0.677784 -0.327623,-2.32493 -0.327623,-2.32493 0,0 -1.514338,1.248756 -0.101292,3.804953 -0.948693,-0.282764 -1.485443,-2.204536 -1.485443,-2.204536 0,0 -0.427533,2.077386 1.98612,3.944812 -0.866782,0.138918 -2.317693,-1.802994 -2.317693,-1.802994 0,0 0.822766,2.438108 3.578954,3.271481 l -0.0085,-0.01004 a 3.8453314,2.9057889 41.000137 0 0 0.01793,0.01514 l -0.0092,-0.0043 c -0.542648,0.583495 -2.576696,-0.562309 -2.576696,-0.562309 0,0 1.857765,2.004185 4.288341,1.427399 -0.07235,0.860831 -1.988428,0.789394 -1.988428,0.789394 0,0 2.298204,1.039382 3.734169,-0.769932 0.41934,0.901255 -1.088897,1.822456 -1.088897,1.822456 0,0 2.308996,-0.119387 2.350797,-2.665195 l -0.01092,0.0073 a 3.8453314,2.9057889 41.000137 0 0 0.04372,-0.0548 l -0.01779,0.05983 c 0.796474,0.690654 0.232302,2.337184 0.232302,2.337184 0,0 1.584803,-1.262443 0.218937,-3.835231 a 3.8453314,2.9057889 41.000137 0 0 1.92e-4,-0.0043 c 0.949458,0.285971 1.478554,2.180027 1.478554,2.180027 0,0 0.437612,-2.069739 -1.967468,-3.947694 a 3.8453314,2.9057889 41.000137 0 0 -0.0077,-0.01443 l 0.01075,0.01228 c 0.838211,-0.199808 2.261074,1.442535 2.261074,1.442535 0,0 -0.799164,-2.273469 -3.54734,-2.938423 a 3.8453314,2.9057889 41.000137 0 0 -0.0094,-0.0073 c 0.496247,-0.619558 2.388343,0.271782 2.388343,0.271782 0,0 -1.800446,-1.881602 -4.141482,-1.138316 0.02089,-0.876581 1.909354,-0.904015 1.909354,-0.904015 0,0 -2.358636,-0.988261 -3.665063,0.923482 -0.465316,-0.890762 0.876282,-1.878689 0.876282,-1.878689 z m -0.876283,1.878689 h 0.01297 a 3.8453314,2.9057889 41.000137 0 0 -0.02002,0.0057 z m 1.755712,-0.01946 0.0102,0.0057 a 3.8453314,2.9057889 41.000137 0 0 -0.02467,-0.0057 z m 1.806217,6.472317 h -0.01586 a 3.8453314,2.9057889 41.000137 0 0 0.02802,-0.008 z m -1.745742,-0.01946 -0.0026,-0.0014 a 3.8453314,2.9057889 41.000137 0 0 0.0047,0.0014 z m -2.97311,-2.334301 -0.0043,-0.01514 a 3.8453314,2.9057889 41.000137 0 0 0.0141,0.02667 z m -0.07176,-3.220299 0.0025,-0.0014 a 3.8453314,2.9057889 41.000137 0 0 -0.0028,0.0029 z m -0.422334,1.482909 a 3.8453314,2.9057889 41.000137 0 0 -1.48e-4,0.0073 l -0.0012,-0.0043 z"
       id="path819-9"
       inkscape:connector-curvature="0" />
  </g>
</svg>
