<?xml version="1.0" encoding="UTF-8" standalone="no"?>
<!-- Created with Inkscape (http://www.inkscape.org/) -->

<svg
   xmlns:dc="http://purl.org/dc/elements/1.1/"
   xmlns:cc="http://creativecommons.org/ns#"
   xmlns:rdf="http://www.w3.org/1999/02/22-rdf-syntax-ns#"
   xmlns:svg="http://www.w3.org/2000/svg"
   xmlns="http://www.w3.org/2000/svg"
   xmlns:sodipodi="http://sodipodi.sourceforge.net/DTD/sodipodi-0.dtd"
   xmlns:inkscape="http://www.inkscape.org/namespaces/inkscape"
   width="600"
   height="600"
   viewBox="0 0 158.75 158.75"
   version="1.1"
   id="svg8"
   inkscape:version="0.92.4 (5da689c313, 2019-01-14)"
   sodipodi:docname="logo_wxbonanza.svg">
  <sodipodi:namedview
     inkscape:snap-intersection-paths="true"
     inkscape:object-nodes="false"
     inkscape:snap-nodes="true"
     id="base"
     pagecolor="#ffffff"
     bordercolor="#666666"
     borderopacity="1.0"
     inkscape:pageopacity="0.0"
     inkscape:pageshadow="2"
     inkscape:zoom="0.64051835"
     inkscape:cx="38.903777"
     inkscape:cy="278.25731"
     inkscape:document-units="px"
     inkscape:current-layer="layer4"
     showgrid="false"
     inkscape:snap-global="false"
     units="px"
     inkscape:pagecheckerboard="false"
     inkscape:lockguides="false"
     showguides="true"
     inkscape:guide-bbox="true"
     inkscape:window-width="1366"
     inkscape:window-height="715"
     inkscape:window-x="-8"
     inkscape:window-y="-8"
     inkscape:window-maximized="1"
     inkscape:snap-object-midpoints="false"
     inkscape:snap-others="true"
     inkscape:snap-center="true">
    <sodipodi:guide
       inkscape:color="rgb(0,0,255)"
       inkscape:label=""
       inkscape:locked="false"
       id="guide890"
       orientation="0,1"
       position="79.374999,68.791666" />
    <sodipodi:guide
       inkscape:color="rgb(0,0,255)"
       inkscape:label=""
       inkscape:locked="false"
       id="guide892"
       orientation="1,0"
       position="79.374999,68.791666" />
  </sodipodi:namedview>
  <defs
     id="defs2">
    <filter
       id="filter3657"
       inkscape:label="Outline"
       x="-0.2"
       y="-0.2"
       width="1.4"
       height="1.4"
       style="color-interpolation-filters:sRGB">
      <feGaussianBlur
         id="feGaussianBlur3633"
         result="blur1"
         stdDeviation="1.47"
         in="SourceAlpha" />
      <feComposite
         id="feComposite3635"
         result="composite1"
         operator="out"
         in2="SourceGraphic"
         in="blur1" />
      <feColorMatrix
         id="feColorMatrix3637"
         result="colormatrix1"
         values="1 0 0 0 0 0 1 0 0 0 0 0 1 0 0 0 0 0 20.08 -0 " />
      <feGaussianBlur
         id="feGaussianBlur3639"
         result="blur2"
         stdDeviation="0.01" />
      <feComposite
         id="feComposite3641"
         result="composite2"
         operator="over"
         in2="blur2"
         in="blur2" />
      <feColorMatrix
         id="feColorMatrix3643"
         result="colormatrix2"
         values="1 0 0 0 0 0 1 0 0 0 0 0 1 0 0 0 0 0 44.83 -0 " />
      <feGaussianBlur
         id="feGaussianBlur3645"
         result="blur3"
         stdDeviation="0.53" />
      <feColorMatrix
         id="feColorMatrix3647"
         result="colormatrix3"
         values="1 0 0 0 0 0 1 0 0 0 0 0 1 0 0 0 0 0 5 -1 " />
      <feFlood
         id="feFlood3649"
         result="flood"
         flood-color="rgb(75,75,75)"
         flood-opacity="1" />
      <feComposite
         id="feComposite3651"
         result="composite3"
         operator="in"
         in2="colormatrix3"
         in="flood" />
      <feComposite
         id="feComposite3653"
         result="composite4"
         operator="out"
         in2="colormatrix3"
         in="SourceGraphic" />
      <feComposite
         id="feComposite3655"
         result="composite5"
         operator="arithmetic"
         k3="1"
         k2="1"
         in2="composite3"
         in="composite4"
         k1="0"
         k4="0" />
    </filter>
    <clipPath
       clipPathUnits="userSpaceOnUse"
       id="clipPath18342">
      <circle
         r="59.467766"
         cy="68.791664"
         cx="79.375"
         id="circle18344"
         style="opacity:1;fill:#3771c8;fill-opacity:1;stroke:none;stroke-width:0.44185415;stroke-miterlimit:4;stroke-dasharray:none;stroke-opacity:1;paint-order:normal" />
    </clipPath>
    <clipPath
       clipPathUnits="userSpaceOnUse"
       id="clipPath18342-1">
      <circle
         r="59.467766"
         cy="68.791664"
         cx="79.375"
         id="circle18344-7"
         style="opacity:1;fill:#3771c8;fill-opacity:1;stroke:none;stroke-width:0.44185415;stroke-miterlimit:4;stroke-dasharray:none;stroke-opacity:1;paint-order:normal" />
    </clipPath>
    <clipPath
       clipPathUnits="userSpaceOnUse"
       id="clipPath18342-1-7">
      <circle
         r="59.467766"
         cy="68.791664"
         cx="79.375"
         id="circle18344-7-4"
         style="opacity:1;fill:#3771c8;fill-opacity:1;stroke:none;stroke-width:0.44185415;stroke-miterlimit:4;stroke-dasharray:none;stroke-opacity:1;paint-order:normal" />
    </clipPath>
    <filter
       inkscape:collect="always"
       style="color-interpolation-filters:sRGB"
       id="filter4781"
       x="-0.064922102"
       width="1.1298442"
       y="-0.075004369"
       height="1.1500087">
      <feGaussianBlur
         inkscape:collect="always"
         stdDeviation="3.7799614"
         id="feGaussianBlur4783" />
    </filter>
  </defs>
  <metadata
     id="metadata5">
    <rdf:RDF>
      <cc:Work
         rdf:about="">
        <dc:format>image/svg+xml</dc:format>
        <dc:type
           rdf:resource="http://purl.org/dc/dcmitype/StillImage" />
        <dc:title></dc:title>
      </cc:Work>
    </rdf:RDF>
  </metadata>
  <g
     inkscape:groupmode="layer"
     id="layer5"
     inkscape:label="SHADOW"
     style="display:inline"
     transform="translate(0,21.166666)">
    <g
       id="g4779"
       style="fill:#000000;stroke-width:0.94861841;filter:url(#filter4781)"
       transform="matrix(1.1039953,0,0,1.2268294,-8.2546314,-24.097695)">
      <g
         aria-label="*"
         transform="matrix(1.4786801,0,0,1.8352087,-35.162054,-69.69848)"
         style="font-style:normal;font-variant:normal;font-weight:normal;font-stretch:normal;font-size:96px;line-height:1.25;font-family:Webdings;-inkscape-font-specification:Webdings;letter-spacing:0px;word-spacing:0px;fill:#000000;fill-opacity:1;stroke:none;stroke-width:0.94861841"
         id="flowRoot922-6">
        <path
           d="m 124.70898,75.275391 -11.29687,6.890625 6.79687,10.59375 -9.75,0.65625 3.9375,12.328124 -13.96875,-5.953124 -6.234371,7.687504 -8.15625,-6.23438 -8.625,7.17188 -8.578125,-7.17188 -8.109375,6.23438 -6.234375,-7.687504 -13.96875,5.953124 3.9375,-12.328124 -9.75,-0.65625 6.796875,-10.59375 -11.296875,-6.890625 11.296875,-6.65625 -6.984375,-10.171875 9.9375,-0.9375 -3.9375,-12.375 13.96875,5.953125 6.234375,-7.640625 8.109375,6.1875 8.671875,-7.125 8.53125,7.125 8.15625,-6.1875 6.234371,7.640625 13.96875,-5.953125 -3.9375,12.375 9.9375,0.9375 -6.98437,10.171875 z"
           id="path878"
           inkscape:connector-curvature="0"
           style="stroke-width:0.94861841" />
      </g>
      <path
         sodipodi:nodetypes="ccccc"
         inkscape:connector-curvature="0"
         id="rect978-0"
         d="m 28.87012,69.031122 100.2326,6.010733 -2.75027,34.631515 H 35.898626 Z"
         style="opacity:1;fill:#000000;fill-opacity:1;stroke:none;stroke-width:0.87615889;stroke-miterlimit:4;stroke-dasharray:none;stroke-opacity:1;paint-order:normal" />
      <g
         aria-label="Ý"
         transform="matrix(1.3920467,0,0,1.3920467,-19.569076,-57.022719)"
         style="font-style:normal;font-variant:normal;font-weight:normal;font-stretch:normal;font-size:96px;line-height:1.25;font-family:Webdings;-inkscape-font-specification:Webdings;letter-spacing:0px;word-spacing:0px;fill:#000000;fill-opacity:1;stroke:none;stroke-width:0.94861841"
         id="flowRoot876-9">
        <path
           d="M 106.30469,83.349609 H 35.851562 q 1.828125,-4.96875 6.234375,-5.625 0.421875,-11.484375 10.265625,-11.484375 1.265625,0 2.296875,0.28125 1.03125,-3.984375 4.5,-6.46875 3.328125,-2.4375 7.5,-2.4375 5.8125,0 10.546875,4.40625 2.859375,-1.6875 6.28125,-1.6875 8.53125,0 9.703125,9.515625 0.84375,-0.28125 2.015625,-0.28125 3.28125,0 5.203128,1.96875 1.92187,1.96875 1.92187,5.25 0,0.890625 -0.14062,2.0625 3.75,0.9375 4.125,4.5 z M 84.460937,108.42773 q 0,3.32813 -1.78125,5.625 -0.609375,0.79688 -3.328125,3.09375 -1.78125,1.5 -1.78125,2.90625 0,1.21875 1.21875,3.09375 -4.3125,-1.73437 -4.3125,-4.35937 0,-0.14063 0.28125,-0.70313 l 1.875,-0.65625 -1.59375,-0.75 0.5625,-0.9375 2.71875,-0.84375 -1.875,-0.46875 0.84375,-1.3125 2.34375,-0.375 -1.59375,-0.84375 0.75,-1.03125 2.390625,-0.42187 -2.484375,-1.03125 q -0.04687,-1.64063 -3.75,-2.67188 -0.234375,-0.0469 -5.15625,-1.17187 -5.578125,-1.26563 -10.171875,-2.67188 -3.234375,-0.98437 -5.71875,-3.328121 -2.90625,-2.765625 -2.90625,-5.859375 l 8.203125,-0.46875 -8.203125,-1.03125 0.421875,-1.3125 7.875,-0.375 -7.21875,-1.3125 1.03125,-0.65625 8.8125,-0.46875 -7.6875,-1.5 1.40625,-0.75 6,-0.09375 -4.96875,-0.9375 0.84375,-0.46875 h 21.9375 q -9.1875,5.390625 -9.1875,9.890625 0,2.484375 3.703125,4.125 6.515625,2.906251 6.796875,3.093751 3.703125,2.48437 3.703125,6.98437 z"
           id="path881"
           inkscape:connector-curvature="0"
           style="stroke-width:0.94861841" />
      </g>
      <g
         aria-label="WEATHER"
         transform="matrix(0.43650743,0,0,0.47259065,-16.639712,-49.104856)"
         style="font-style:normal;font-weight:normal;font-size:40px;line-height:1.25;font-family:sans-serif;letter-spacing:0px;word-spacing:0px;fill:#000000;fill-opacity:1;stroke:#000000;stroke-width:0.94861841"
         id="flowRoot931-0">
        <path
           d="m 111.8125,266.23047 h 7.20703 l 5.03906,21.1914 5,-21.1914 h 7.2461 l 5,21.1914 5.03906,-21.1914 h 7.14844 l -6.875,29.16015 h -8.67188 l -5.29297,-22.16796 -5.23437,22.16796 h -8.67188 z"
           style="font-style:normal;font-variant:normal;font-weight:bold;font-stretch:normal;font-family:sans-serif;-inkscape-font-specification:'sans-serif Bold';text-align:center;text-anchor:middle;fill:#000000;stroke:#000000;stroke-width:0.94861841"
           id="path884"
           inkscape:connector-curvature="0" />
        <path
           d="m 158.43359,266.23047 h 20.29297 v 5.68359 h -12.77344 v 5.42969 h 12.01172 v 5.68359 h -12.01172 v 6.67969 h 13.20313 v 5.68359 h -20.72266 z"
           style="font-style:normal;font-variant:normal;font-weight:bold;font-stretch:normal;font-family:sans-serif;-inkscape-font-specification:'sans-serif Bold';text-align:center;text-anchor:middle;fill:#000000;stroke:#000000;stroke-width:0.94861841"
           id="path886"
           inkscape:connector-curvature="0" />
        <path
           d="m 203.47266,290.07812 h -11.75782 l -1.85547,5.3125 h -7.55859 l 10.80078,-29.16015 h 8.96485 l 10.80078,29.16015 h -7.5586 z m -9.88282,-5.41015 h 7.98828 l -3.98437,-11.60156 z"
           style="font-style:normal;font-variant:normal;font-weight:bold;font-stretch:normal;font-family:sans-serif;-inkscape-font-specification:'sans-serif Bold';text-align:center;text-anchor:middle;fill:#000000;stroke:#000000;stroke-width:0.94861841"
           id="path888"
           inkscape:connector-curvature="0" />
        <path
           d="m 210.11328,266.23047 h 26.875 v 5.68359 h -9.66797 v 23.47656 h -7.51953 v -23.47656 h -9.6875 z"
           style="font-style:normal;font-variant:normal;font-weight:bold;font-stretch:normal;font-family:sans-serif;-inkscape-font-specification:'sans-serif Bold';text-align:center;text-anchor:middle;fill:#000000;stroke:#000000;stroke-width:0.94861841"
           id="path890"
           inkscape:connector-curvature="0" />
        <path
           d="m 240.85547,266.23047 h 7.51953 v 11.11328 h 11.09375 v -11.11328 h 7.51953 v 29.16015 h -7.51953 V 283.02734 H 248.375 v 12.36328 h -7.51953 z"
           style="font-style:normal;font-variant:normal;font-weight:bold;font-stretch:normal;font-family:sans-serif;-inkscape-font-specification:'sans-serif Bold';text-align:center;text-anchor:middle;fill:#000000;stroke:#000000;stroke-width:0.94861841"
           id="path892"
           inkscape:connector-curvature="0" />
        <path
           d="m 274.37109,266.23047 h 20.29297 v 5.68359 h -12.77344 v 5.42969 h 12.01172 v 5.68359 h -12.01172 v 6.67969 h 13.20313 v 5.68359 h -20.72266 z"
           style="font-style:normal;font-variant:normal;font-weight:bold;font-stretch:normal;font-family:sans-serif;-inkscape-font-specification:'sans-serif Bold';text-align:center;text-anchor:middle;fill:#000000;stroke:#000000;stroke-width:0.94861841"
           id="path894"
           inkscape:connector-curvature="0" />
        <path
           d="m 312.39844,279.16016 q 2.36328,0 3.3789,-0.87891 1.03516,-0.87891 1.03516,-2.89063 0,-1.99218 -1.03516,-2.85156 -1.01562,-0.85937 -3.3789,-0.85937 h -3.16407 v 7.48047 z m -3.16407,5.19531 v 11.03515 h -7.51953 v -29.16015 h 11.48438 q 5.76172,0 8.4375,1.93359 2.69531,1.9336 2.69531,6.11328 0,2.89063 -1.40625,4.7461 -1.38672,1.85547 -4.19922,2.73437 1.54297,0.35156 2.75391,1.60156 1.23047,1.23047 2.48047,3.75 l 4.08203,8.28125 h -8.00781 l -3.55469,-7.24609 q -1.07422,-2.1875 -2.1875,-2.98828 -1.09375,-0.80078 -2.92969,-0.80078 z"
           style="font-style:normal;font-variant:normal;font-weight:bold;font-stretch:normal;font-family:sans-serif;-inkscape-font-specification:'sans-serif Bold';text-align:center;text-anchor:middle;fill:#000000;stroke:#000000;stroke-width:0.94861841"
           id="path896"
           inkscape:connector-curvature="0" />
      </g>
      <g
         aria-label="BONANZA"
         transform="matrix(0.399763,0,0,0.37443431,-8.0823089,-7.206954)"
         style="font-style:normal;font-weight:normal;font-size:40px;line-height:1.25;font-family:sans-serif;letter-spacing:0px;word-spacing:0px;fill:#000000;fill-opacity:1;stroke:#000000;stroke-width:0.94861841"
         id="flowRoot931-2-6">
        <path
           d="m 123.90234,277.51953 q 1.77735,0 2.69532,-0.78125 0.91797,-0.78125 0.91797,-2.30469 0,-1.5039 -0.91797,-2.28515 -0.91797,-0.80078 -2.69532,-0.80078 h -4.16015 v 6.17187 z m 0.25391,12.75391 q 2.26563,0 3.39844,-0.95703 1.15234,-0.95704 1.15234,-2.89063 0,-1.89453 -1.13281,-2.83203 -1.13281,-0.95703 -3.41797,-0.95703 h -4.41406 v 7.63672 z m 6.99219,-10.48828 q 2.42187,0.70312 3.75,2.59765 1.32812,1.89453 1.32812,4.64844 0,4.21875 -2.85156,6.28906 -2.85156,2.07031 -8.67187,2.07031 h -12.48047 v -29.16015 h 11.28906 q 6.07422,0 8.78906,1.83594 2.73438,1.83593 2.73438,5.8789 0,2.12891 -0.9961,3.63281 -0.99609,1.48438 -2.89062,2.20704 z"
           style="font-style:normal;font-variant:normal;font-weight:bold;font-stretch:normal;font-family:sans-serif;-inkscape-font-specification:'sans-serif Bold';text-align:center;text-anchor:middle;fill:#000000;stroke:#000000;stroke-width:0.94861841"
           id="path899"
           inkscape:connector-curvature="0" />
        <path
           d="m 156.01172,271.15234 q -3.4375,0 -5.33203,2.53907 -1.89453,2.53906 -1.89453,7.14843 0,4.58985 1.89453,7.12891 1.89453,2.53906 5.33203,2.53906 3.45703,0 5.35156,-2.53906 1.89453,-2.53906 1.89453,-7.12891 0,-4.60937 -1.89453,-7.14843 -1.89453,-2.53907 -5.35156,-2.53907 z m 0,-5.44922 q 7.03125,0 11.01562,4.02344 3.98438,4.02344 3.98438,11.11328 0,7.07032 -3.98438,11.09375 -3.98437,4.02344 -11.01562,4.02344 -7.01172,0 -11.01563,-4.02344 -3.98437,-4.02343 -3.98437,-11.09375 0,-7.08984 3.98437,-11.11328 4.00391,-4.02344 11.01563,-4.02344 z"
           style="font-style:normal;font-variant:normal;font-weight:bold;font-stretch:normal;font-family:sans-serif;-inkscape-font-specification:'sans-serif Bold';text-align:center;text-anchor:middle;fill:#000000;stroke:#000000;stroke-width:0.94861841"
           id="path901"
           inkscape:connector-curvature="0" />
        <path
           d="m 176.67578,266.23047 h 8.39844 l 10.60547,20 v -20 h 7.1289 v 29.16015 h -8.39843 l -10.60547,-20 v 20 h -7.12891 z"
           style="font-style:normal;font-variant:normal;font-weight:bold;font-stretch:normal;font-family:sans-serif;-inkscape-font-specification:'sans-serif Bold';text-align:center;text-anchor:middle;fill:#000000;stroke:#000000;stroke-width:0.94861841"
           id="path903"
           inkscape:connector-curvature="0" />
        <path
           d="m 227.88672,290.07812 h -11.75781 l -1.85547,5.3125 h -7.5586 l 10.80078,-29.16015 h 8.96485 l 10.80078,29.16015 h -7.55859 z m -9.88281,-5.41015 h 7.98828 l -3.98438,-11.60156 z"
           style="font-style:normal;font-variant:normal;font-weight:bold;font-stretch:normal;font-family:sans-serif;-inkscape-font-specification:'sans-serif Bold';text-align:center;text-anchor:middle;fill:#000000;stroke:#000000;stroke-width:0.94861841"
           id="path905"
           inkscape:connector-curvature="0" />
        <path
           d="m 241.12891,266.23047 h 8.39843 l 10.60547,20 v -20 h 7.12891 v 29.16015 h -8.39844 l -10.60547,-20 v 20 h -7.1289 z"
           style="font-style:normal;font-variant:normal;font-weight:bold;font-stretch:normal;font-family:sans-serif;-inkscape-font-specification:'sans-serif Bold';text-align:center;text-anchor:middle;fill:#000000;stroke:#000000;stroke-width:0.94861841"
           id="path907"
           inkscape:connector-curvature="0" />
        <path
           d="m 273.21875,266.23047 h 24.51172 v 4.55078 l -15.64453,18.92578 h 16.09375 v 5.68359 h -25.41016 v -4.55078 l 15.64453,-18.92578 h -15.19531 z"
           style="font-style:normal;font-variant:normal;font-weight:bold;font-stretch:normal;font-family:sans-serif;-inkscape-font-specification:'sans-serif Bold';text-align:center;text-anchor:middle;fill:#000000;stroke:#000000;stroke-width:0.94861841"
           id="path909"
           inkscape:connector-curvature="0" />
        <path
           d="m 321.32422,290.07812 h -11.75781 l -1.85547,5.3125 h -7.5586 l 10.80078,-29.16015 h 8.96485 l 10.80078,29.16015 h -7.55859 z m -9.88281,-5.41015 h 7.98828 l -3.98438,-11.60156 z"
           style="font-style:normal;font-variant:normal;font-weight:bold;font-stretch:normal;font-family:sans-serif;-inkscape-font-specification:'sans-serif Bold';text-align:center;text-anchor:middle;fill:#000000;stroke:#000000;stroke-width:0.94861841"
           id="path911"
           inkscape:connector-curvature="0" />
      </g>
    </g>
  </g>
  <g
     inkscape:groupmode="layer"
     id="layer2"
     inkscape:label="LOGOBG"
     style="display:inline"
     transform="translate(0,21.166666)">
    <g
       aria-label="*"
       transform="matrix(1.5862912,0,0,2.1878175,-43.497497,-104.80108)"
       style="font-style:normal;font-variant:normal;font-weight:normal;font-stretch:normal;font-size:96px;line-height:1.25;font-family:Webdings;-inkscape-font-specification:Webdings;letter-spacing:0px;word-spacing:0px;fill:#ffff00;fill-opacity:1;stroke:#000000;stroke-width:0.94861841"
       id="flowRoot922">
      <path
         d="m 124.70898,75.275391 -11.29687,6.890625 6.79687,10.59375 -9.75,0.65625 3.9375,12.328124 -13.96875,-5.953124 -6.234371,7.687504 -8.15625,-6.23438 -8.625,7.17188 -8.578125,-7.17188 -8.109375,6.23438 -6.234375,-7.687504 -13.96875,5.953124 3.9375,-12.328124 -9.75,-0.65625 6.796875,-10.59375 -11.296875,-6.890625 11.296875,-6.65625 -6.984375,-10.171875 9.9375,-0.9375 -3.9375,-12.375 13.96875,5.953125 6.234375,-7.640625 8.109375,6.1875 8.671875,-7.125 8.53125,7.125 8.15625,-6.1875 6.234371,7.640625 13.96875,-5.953125 -3.9375,12.375 9.9375,0.9375 -6.98437,10.171875 z"
         id="path883"
         inkscape:connector-curvature="0"
         style="stroke:#000000;stroke-width:0.94861841" />
    </g>
  </g>
  <g
     inkscape:groupmode="layer"
     id="layer4"
     inkscape:label="underlay"
     style="display:inline"
     transform="translate(0,21.166666)">
    <path
       style="opacity:1;fill:#008066;fill-opacity:1;stroke:#800000;stroke-width:0.99083191;stroke-miterlimit:4;stroke-dasharray:none;stroke-opacity:1;paint-order:normal"
       d="m 25.194625,60.583407 107.527035,7.16561 -6.22235,41.285453 H 32.734631 Z"
       id="rect978"
       inkscape:connector-curvature="0"
       sodipodi:nodetypes="ccccc" />
  </g>
  <g
     inkscape:groupmode="layer"
     id="layer1"
     inkscape:label="TORNADO"
     style="display:inline"
     transform="translate(0,21.166666)">
    <g
       aria-label="Ý"
       transform="matrix(1.493353,0,0,1.6595083,-26.769738,-89.689849)"
       style="font-style:normal;font-variant:normal;font-weight:normal;font-stretch:normal;font-size:96px;line-height:1.25;font-family:Webdings;-inkscape-font-specification:Webdings;letter-spacing:0px;word-spacing:0px;fill:#000000;fill-opacity:1;stroke:none;stroke-width:0.94861841"
       id="flowRoot876">
      <path
         d="M 106.30469,83.349609 H 35.851562 q 1.828125,-4.96875 6.234375,-5.625 0.421875,-11.484375 10.265625,-11.484375 1.265625,0 2.296875,0.28125 1.03125,-3.984375 4.5,-6.46875 3.328125,-2.4375 7.5,-2.4375 5.8125,0 10.546875,4.40625 2.859375,-1.6875 6.28125,-1.6875 8.53125,0 9.703125,9.515625 0.84375,-0.28125 2.015625,-0.28125 3.28125,0 5.203128,1.96875 1.92187,1.96875 1.92187,5.25 0,0.890625 -0.14062,2.0625 3.75,0.9375 4.125,4.5 z M 84.460937,108.42773 q 0,3.32813 -1.78125,5.625 -0.609375,0.79688 -3.328125,3.09375 -1.78125,1.5 -1.78125,2.90625 0,1.21875 1.21875,3.09375 -4.3125,-1.73437 -4.3125,-4.35937 0,-0.14063 0.28125,-0.70313 l 1.875,-0.65625 -1.59375,-0.75 0.5625,-0.9375 2.71875,-0.84375 -1.875,-0.46875 0.84375,-1.3125 2.34375,-0.375 -1.59375,-0.84375 0.75,-1.03125 2.390625,-0.42187 -2.484375,-1.03125 q -0.04687,-1.64063 -3.75,-2.67188 -0.234375,-0.0469 -5.15625,-1.17187 -5.578125,-1.26563 -10.171875,-2.67188 -3.234375,-0.98437 -5.71875,-3.328121 -2.90625,-2.765625 -2.90625,-5.859375 l 8.203125,-0.46875 -8.203125,-1.03125 0.421875,-1.3125 7.875,-0.375 -7.21875,-1.3125 1.03125,-0.65625 8.8125,-0.46875 -7.6875,-1.5 1.40625,-0.75 6,-0.09375 -4.96875,-0.9375 0.84375,-0.46875 h 21.9375 q -9.1875,5.390625 -9.1875,9.890625 0,2.484375 3.703125,4.125 6.515625,2.906251 6.796875,3.093751 3.703125,2.48437 3.703125,6.98437 z"
         id="path4802"
         inkscape:connector-curvature="0"
         style="stroke-width:0.94861841" />
    </g>
  </g>
  <g
     inkscape:groupmode="layer"
     id="layer3"
     inkscape:label="TEXT"
     style="display:inline;opacity:1"
     transform="translate(0,21.166666)">
    <g
       aria-label="WEATHER"
       transform="matrix(0.4682743,0,0,0.56339209,-23.627189,-80.250684)"
       style="font-style:normal;font-weight:normal;font-size:40px;line-height:1.25;font-family:sans-serif;letter-spacing:0px;word-spacing:0px;opacity:0.85100002;fill:#ffffff;fill-opacity:1;stroke:#000000;stroke-width:1.03023648;stroke-miterlimit:4;stroke-dasharray:none"
       id="flowRoot931">
      <path
         d="m 153.78516,296.03018 h -8.96485 l -3.88672,-15.95703 q -0.17578,-0.6836 -0.39062,-3.39844 h -0.0781 q -0.29297,2.40234 -0.5664,3.39844 l -4.19922,15.95703 h -9.49219 l -6.67969,-28.00782 h 9.25782 l 2.34375,16.48438 q 0.0586,0.3125 0.17578,1.81641 l 0.11718,1.62109 h 0.11719 q 0.0391,-0.50781 0.23438,-1.71875 0.19531,-1.23047 0.37109,-1.83594 l 4.31641,-16.36719 h 9.19922 l 3.59375,16.60157 0.2539,1.66015 0.19531,1.6211 h 0.0781 l 0.0586,-0.6836 0.25391,-2.71484 2.44141,-16.48438 h 8.32031 z"
         style="font-style:normal;font-variant:normal;font-weight:900;font-stretch:normal;font-family:'Segoe UI';-inkscape-font-specification:'Segoe UI Heavy';text-align:center;text-anchor:middle;fill:#ffffff;stroke:#000000;stroke-width:1.03023648;stroke-miterlimit:4;stroke-dasharray:none"
         id="path4805"
         inkscape:connector-curvature="0" />
      <path
         d="m 164,296.03018 v -28.00782 h 17.44141 v 6.60157 h -9.00391 v 4.08203 h 8.45703 v 6.60156 h -8.45703 v 4.12109 h 9.64844 v 6.60157 z"
         style="font-style:normal;font-variant:normal;font-weight:900;font-stretch:normal;font-family:'Segoe UI';-inkscape-font-specification:'Segoe UI Heavy';text-align:center;text-anchor:middle;fill:#ffffff;stroke:#000000;stroke-width:1.03023648;stroke-miterlimit:4;stroke-dasharray:none"
         id="path4807"
         inkscape:connector-curvature="0" />
      <path
         d="m 203.66797,296.03018 -1.23047,-5.15625 h -8.35938 l -1.32812,5.15625 h -9.12109 l 9.64843,-28.00782 h 10.46875 l 9.08203,28.00782 z m -5.3125,-21.91407 h -0.19531 q -0.0391,0.46875 -0.27344,1.54297 -0.23438,1.07422 -2.36328,9.21875 h 5.35156 l -1.95313,-7.61718 q -0.41015,-1.67969 -0.5664,-3.14454 z"
         style="font-style:normal;font-variant:normal;font-weight:900;font-stretch:normal;font-family:'Segoe UI';-inkscape-font-specification:'Segoe UI Heavy';text-align:center;text-anchor:middle;fill:#ffffff;stroke:#000000;stroke-width:1.03023648;stroke-miterlimit:4;stroke-dasharray:none"
         id="path4809"
         inkscape:connector-curvature="0" />
      <path
         d="m 230.26953,274.62393 v 21.40625 h -8.47656 v -21.40625 h -7.83203 v -6.60157 h 24.23828 v 6.60157 z"
         style="font-style:normal;font-variant:normal;font-weight:900;font-stretch:normal;font-family:'Segoe UI';-inkscape-font-specification:'Segoe UI Heavy';text-align:center;text-anchor:middle;fill:#ffffff;stroke:#000000;stroke-width:1.03023648;stroke-miterlimit:4;stroke-dasharray:none"
         id="path4811"
         inkscape:connector-curvature="0" />
      <path
         d="m 259.70312,296.03018 v -10.44922 h -9.6875 v 10.44922 h -8.4375 v -28.00782 h 8.4375 v 10.3711 h 9.6875 v -10.3711 h 8.4375 v 28.00782 z"
         style="font-style:normal;font-variant:normal;font-weight:900;font-stretch:normal;font-family:'Segoe UI';-inkscape-font-specification:'Segoe UI Heavy';text-align:center;text-anchor:middle;fill:#ffffff;stroke:#000000;stroke-width:1.03023648;stroke-miterlimit:4;stroke-dasharray:none"
         id="path4813"
         inkscape:connector-curvature="0" />
      <path
         d="m 273.6875,296.03018 v -28.00782 h 17.44141 v 6.60157 H 282.125 v 4.08203 h 8.45703 v 6.60156 H 282.125 v 4.12109 h 9.64844 v 6.60157 z"
         style="font-style:normal;font-variant:normal;font-weight:900;font-stretch:normal;font-family:'Segoe UI';-inkscape-font-specification:'Segoe UI Heavy';text-align:center;text-anchor:middle;fill:#ffffff;stroke:#000000;stroke-width:1.03023648;stroke-miterlimit:4;stroke-dasharray:none"
         id="path4815"
         inkscape:connector-curvature="0" />
      <path
         d="m 310.32812,296.03018 -2.08984,-6.03516 q -0.60547,-1.77734 -1.58203,-2.79297 -0.95703,-1.01562 -2.08984,-1.01562 h -0.33204 v 9.84375 h -8.4375 v -28.00782 h 11.21094 q 5.87891,0 8.67188,1.9336 2.8125,1.91406 2.8125,5.76172 0,2.89062 -1.64063,4.84375 -1.62109,1.95312 -4.84375,2.83203 v 0.0781 q 1.77735,0.54688 2.94922,1.77735 1.19141,1.23047 2.12891,3.65234 l 2.7539,7.12891 z m -0.80078,-19.1211 q 0,-1.40625 -0.85937,-2.22656 -0.85938,-0.82031 -2.69531,-0.82031 h -1.73829 v 6.40625 h 1.52344 q 1.69922,0 2.73438,-0.95703 1.03515,-0.95703 1.03515,-2.40235 z"
         style="font-style:normal;font-variant:normal;font-weight:900;font-stretch:normal;font-family:'Segoe UI';-inkscape-font-specification:'Segoe UI Heavy';text-align:center;text-anchor:middle;fill:#ffffff;stroke:#000000;stroke-width:1.03023648;stroke-miterlimit:4;stroke-dasharray:none"
         id="path4817"
         inkscape:connector-curvature="0" />
    </g>
    <g
       aria-label="BONANZA"
       transform="matrix(0.42869523,0,0,0.52520937,-14.411466,-51.229378)"
       style="font-style:normal;font-weight:normal;font-size:40px;line-height:1.25;font-family:sans-serif;letter-spacing:0px;word-spacing:0px;opacity:0.85100002;fill:#ffffff;fill-opacity:1;stroke:#000000;stroke-width:1.11519778;stroke-miterlimit:4;stroke-dasharray:none"
       id="flowRoot931-2">
      <path
         d="m 141.94922,287.43643 q 0,4.12109 -2.89063,6.36718 -2.89062,2.22657 -8.26172,2.22657 h -12.77343 v -28.00782 h 11.89453 q 11.15234,0 11.15234,6.77735 0,1.46484 -0.70312,2.69531 -0.70313,1.21094 -2.14844,2.12891 -1.42578,0.91797 -3.14453,1.25 v 0.0781 q 1.99219,0.23438 3.57422,1.19141 1.58203,0.9375 2.4414,2.36328 0.85938,1.40625 0.85938,2.92969 z m -9.84375,-11.17188 q 0,-2.59765 -4.08203,-2.59765 h -1.5625 v 5.29296 h 2.4414 q 1.40625,0 2.30469,-0.74218 0.89844,-0.76172 0.89844,-1.95313 z m 0.8789,11.13281 q 0,-1.21093 -0.8789,-1.99218 -0.87891,-0.78125 -2.32422,-0.78125 h -3.32031 v 5.72265 h 2.8125 q 1.71875,0 2.71484,-0.78125 0.99609,-0.80078 0.99609,-2.16797 z"
         style="font-style:normal;font-variant:normal;font-weight:900;font-stretch:normal;font-family:'Segoe UI';-inkscape-font-specification:'Segoe UI Heavy';text-align:center;text-anchor:middle;fill:#ffffff;stroke:#000000;stroke-width:1.11519778;stroke-miterlimit:4;stroke-dasharray:none"
         id="path4820"
         inkscape:connector-curvature="0" />
      <path
         d="m 172.32031,281.94815 q 0,4.21875 -1.8164,7.55859 -1.81641,3.32031 -5.07813,5.17578 -3.26172,1.83594 -7.30469,1.83594 -3.94531,0 -7.1875,-1.77735 -3.22265,-1.79687 -5.01953,-5.01953 -1.79687,-3.24218 -1.79687,-7.32422 0,-4.27734 1.8164,-7.69531 1.81641,-3.41797 5.09766,-5.27344 3.28125,-1.875 7.46094,-1.875 4.02343,0 7.1875,1.79688 3.18359,1.77734 4.90234,5.09766 1.73828,3.30078 1.73828,7.5 z m -8.94531,0.23437 q 0,-3.45703 -1.32813,-5.44922 -1.32812,-1.99219 -3.63281,-1.99219 -2.51953,0 -3.92578,1.91407 -1.40625,1.91406 -1.40625,5.41015 0,3.41797 1.38672,5.33203 1.40625,1.91407 3.80859,1.91407 1.46485,0 2.63672,-0.85938 1.17188,-0.85937 1.81641,-2.46094 0.64453,-1.60156 0.64453,-3.80859 z"
         style="font-style:normal;font-variant:normal;font-weight:900;font-stretch:normal;font-family:'Segoe UI';-inkscape-font-specification:'Segoe UI Heavy';text-align:center;text-anchor:middle;fill:#ffffff;stroke:#000000;stroke-width:1.11519778;stroke-miterlimit:4;stroke-dasharray:none"
         id="path4822"
         inkscape:connector-curvature="0" />
      <path
         d="m 195.875,296.03018 -9.88281,-13.51563 q -1.17188,-1.60156 -1.91407,-2.89062 H 184 q 0.11719,2.07031 0.11719,4.64843 v 11.75782 h -7.8125 v -28.00782 h 7.96875 l 9.47265,12.85157 q 0.17578,0.2539 0.42969,0.60547 0.25391,0.35156 0.50781,0.72265 0.25391,0.3711 0.46875,0.72266 0.23438,0.35156 0.35157,0.625 h 0.0781 q -0.11719,-0.85938 -0.11719,-2.96875 v -12.5586 h 7.8125 v 28.00782 z"
         style="font-style:normal;font-variant:normal;font-weight:900;font-stretch:normal;font-family:'Segoe UI';-inkscape-font-specification:'Segoe UI Heavy';text-align:center;text-anchor:middle;fill:#ffffff;stroke:#000000;stroke-width:1.11519778;stroke-miterlimit:4;stroke-dasharray:none"
         id="path4824"
         inkscape:connector-curvature="0" />
      <path
         d="m 226.36328,296.03018 -1.23047,-5.15625 h -8.35937 l -1.32813,5.15625 h -9.12109 l 9.64844,-28.00782 h 10.46875 l 9.08203,28.00782 z m -5.3125,-21.91407 h -0.19531 q -0.0391,0.46875 -0.27344,1.54297 -0.23437,1.07422 -2.36328,9.21875 h 5.35156 l -1.95312,-7.61718 q -0.41016,-1.67969 -0.56641,-3.14454 z"
         style="font-style:normal;font-variant:normal;font-weight:900;font-stretch:normal;font-family:'Segoe UI';-inkscape-font-specification:'Segoe UI Heavy';text-align:center;text-anchor:middle;fill:#ffffff;stroke:#000000;stroke-width:1.11519778;stroke-miterlimit:4;stroke-dasharray:none"
         id="path4826"
         inkscape:connector-curvature="0" />
      <path
         d="m 258.375,296.03018 -9.88281,-13.51563 q -1.17188,-1.60156 -1.91407,-2.89062 H 246.5 q 0.11719,2.07031 0.11719,4.64843 v 11.75782 h -7.8125 v -28.00782 h 7.96875 l 9.47265,12.85157 q 0.17578,0.2539 0.42969,0.60547 0.25391,0.35156 0.50781,0.72265 0.25391,0.3711 0.46875,0.72266 0.23438,0.35156 0.35157,0.625 h 0.0781 q -0.11719,-0.85938 -0.11719,-2.96875 v -12.5586 h 7.8125 v 28.00782 z"
         style="font-style:normal;font-variant:normal;font-weight:900;font-stretch:normal;font-family:'Segoe UI';-inkscape-font-specification:'Segoe UI Heavy';text-align:center;text-anchor:middle;fill:#ffffff;stroke:#000000;stroke-width:1.11519778;stroke-miterlimit:4;stroke-dasharray:none"
         id="path4828"
         inkscape:connector-curvature="0" />
      <path
         d="m 280.58203,289.42861 h 12.65625 v 6.60157 h -23.49609 v -5.91797 l 12.92968,-15.48828 h -12.1289 v -6.60157 h 22.28515 v 5.87891 z"
         style="font-style:normal;font-variant:normal;font-weight:900;font-stretch:normal;font-family:'Segoe UI';-inkscape-font-specification:'Segoe UI Heavy';text-align:center;text-anchor:middle;fill:#ffffff;stroke:#000000;stroke-width:1.11519778;stroke-miterlimit:4;stroke-dasharray:none"
         id="path4830"
         inkscape:connector-curvature="0" />
      <path
         d="m 314.48828,296.03018 -1.23047,-5.15625 h -8.35937 l -1.32813,5.15625 h -9.12109 l 9.64844,-28.00782 h 10.46875 l 9.08203,28.00782 z m -5.3125,-21.91407 h -0.19531 q -0.0391,0.46875 -0.27344,1.54297 -0.23437,1.07422 -2.36328,9.21875 h 5.35156 l -1.95312,-7.61718 q -0.41016,-1.67969 -0.56641,-3.14454 z"
         style="font-style:normal;font-variant:normal;font-weight:900;font-stretch:normal;font-family:'Segoe UI';-inkscape-font-specification:'Segoe UI Heavy';text-align:center;text-anchor:middle;fill:#ffffff;stroke:#000000;stroke-width:1.11519778;stroke-miterlimit:4;stroke-dasharray:none"
         id="path4832"
         inkscape:connector-curvature="0" />
    </g>
  </g>
</svg>
