<?xml version="1.0" encoding="UTF-8" standalone="no"?>
<!-- Created with Inkscape (http://www.inkscape.org/) -->

<svg
   xmlns:dc="http://purl.org/dc/elements/1.1/"
   xmlns:cc="http://creativecommons.org/ns#"
   xmlns:rdf="http://www.w3.org/1999/02/22-rdf-syntax-ns#"
   xmlns:svg="http://www.w3.org/2000/svg"
   xmlns="http://www.w3.org/2000/svg"
   xmlns:xlink="http://www.w3.org/1999/xlink"
   xmlns:sodipodi="http://sodipodi.sourceforge.net/DTD/sodipodi-0.dtd"
   xmlns:inkscape="http://www.inkscape.org/namespaces/inkscape"
   width="400"
   height="400"
   viewBox="0 0 105.83333 105.83334"
   version="1.1"
   id="svg8"
   inkscape:version="0.92.4 (5da689c313, 2019-01-14)"
   sodipodi:docname="sky_sun_clr.svg">
  <defs
     id="defs2">
    <linearGradient
       inkscape:collect="always"
       id="linearGradient1806">
      <stop
         style="stop-color:#ffff00;stop-opacity:1"
         offset="0"
         id="stop1802" />
      <stop
         id="stop1810"
         offset="0.61815721"
         style="stop-color:#fff017;stop-opacity:1;" />
      <stop
         style="stop-color:#ffd300;stop-opacity:1"
         offset="1"
         id="stop1804" />
    </linearGradient>
    <radialGradient
       inkscape:collect="always"
       xlink:href="#linearGradient1806"
       id="radialGradient1808"
       cx="52.916668"
       cy="244.08331"
       fx="52.916668"
       fy="244.08331"
       r="34.584824"
       gradientUnits="userSpaceOnUse"
       gradientTransform="matrix(3.6284116e-8,-1.1796012,1.1740707,5.4357227e-7,-233.6544,306.50374)" />
  </defs>
  <sodipodi:namedview
     id="base"
     pagecolor="#ffffff"
     bordercolor="#666666"
     borderopacity="1.0"
     inkscape:pageopacity="0.0"
     inkscape:pageshadow="2"
     inkscape:zoom="0.98994949"
     inkscape:cx="75.720623"
     inkscape:cy="248.30456"
     inkscape:document-units="px"
     inkscape:current-layer="layer2"
     showgrid="false"
     units="px"
     showguides="true"
     inkscape:guide-bbox="true"
     guidetolerance="10"
     inkscape:window-width="1366"
     inkscape:window-height="715"
     inkscape:window-x="-8"
     inkscape:window-y="-8"
     inkscape:window-maximized="1"
     inkscape:snap-global="true"
     inkscape:snap-bbox="true"
     inkscape:snap-others="true"
     inkscape:snap-to-guides="false"
     inkscape:bbox-nodes="true"
     inkscape:snap-intersection-paths="true"
     inkscape:bbox-paths="false"
     inkscape:snap-bbox-edge-midpoints="false"
     inkscape:snap-bbox-midpoints="false"
     inkscape:object-paths="false"
     inkscape:snap-smooth-nodes="true"
     inkscape:snap-midpoints="false"
     inkscape:snap-object-midpoints="true"
     inkscape:snap-center="true">
    <sodipodi:guide
       position="52.916668,52.916668"
       orientation="1,0"
       id="guide3723"
       inkscape:locked="false"
       inkscape:label=""
       inkscape:color="rgb(0,0,255)" />
    <sodipodi:guide
       position="52.916668,52.916668"
       orientation="0,1"
       id="guide3725"
       inkscape:locked="false"
       inkscape:label=""
       inkscape:color="rgb(0,0,255)" />
  </sodipodi:namedview>
  <metadata
     id="metadata5">
    <rdf:RDF>
      <cc:Work
         rdf:about="">
        <dc:format>image/svg+xml</dc:format>
        <dc:type
           rdf:resource="http://purl.org/dc/dcmitype/StillImage" />
        <dc:title></dc:title>
      </cc:Work>
    </rdf:RDF>
  </metadata>
  <g
     inkscape:groupmode="layer"
     id="layer3"
     inkscape:label="shine">
    <path
       sodipodi:type="star"
       style="opacity:1;fill:#ffff00;fill-opacity:1;stroke:none;stroke-width:0.12462202;stroke-miterlimit:4;stroke-dasharray:none;stroke-opacity:1;paint-order:normal"
       id="path1812"
       sodipodi:sides="32"
       sodipodi:cx="52.916668"
       sodipodi:cy="52.916668"
       sodipodi:r1="41.916656"
       sodipodi:r2="50.501999"
       sodipodi:arg1="1.0471976"
       sodipodi:arg2="1.1453724"
       inkscape:flatsided="false"
       inkscape:rounded="0.03"
       inkscape:randomized="0"
       d="m 73.874994,89.217558 c -0.252019,0.145504 0.149268,9.579455 -0.1158,9.699555 -0.265068,0.120101 -7.093297,-6.401841 -7.36886,-6.308299 -0.275564,0.09354 -1.722459,9.424506 -2.005865,9.490586 -0.283405,0.0661 -5.708064,-7.662662 -5.996582,-7.624678 -0.288517,0.03798 -3.527992,8.907388 -3.818844,8.916908 -0.290851,0.01 -4.103473,-8.62902 -4.393858,-8.648052 -0.290384,-0.01903 -5.197947,8.047952 -5.485068,8.000552 -0.28712,-0.0474 -2.341189,-9.263763 -2.62228,-9.339082 -0.281092,-0.07532 -6.668149,6.879242 -6.940504,6.776742 -0.272356,-0.10251 -0.488933,-9.542507 -0.74993,-9.671216 -0.260997,-0.12871 -7.882096,5.446171 -8.12922,5.292499 -0.247125,-0.153671 1.382111,-9.454533 1.15124,-9.631687 -0.230872,-0.177154 -8.79314,3.803804 -9.005536,3.604874 -0.212395,-0.198931 3.200043,-9.003231 3.008169,-9.222022 -0.191875,-0.218791 -9.366267,2.015259 -9.535773,1.778715 -0.169505,-0.236545 4.894998,-8.205939 4.749495,-8.457959 -0.145504,-0.252019 -9.5794548,0.149268 -9.6995556,-0.1158 C 6.7961217,73.494126 13.318064,66.665897 13.224522,66.390334 13.130981,66.11477 3.8000138,64.667875 3.7339329,64.384469 3.6678521,64.101064 11.396598,58.676405 11.358614,58.387887 11.32063,58.09937 2.4512298,54.859895 2.4417083,54.569043 c -0.00952,-0.290851 8.6290177,-4.103473 8.6480497,-4.393858 0.01903,-0.290384 -8.0479537,-5.197947 -8.0005499,-5.485068 0.047404,-0.28712 9.2637609,-2.341189 9.3390789,-2.62228 0.07532,-0.281092 -6.8792451,-6.668149 -6.7767378,-6.940504 0.1025074,-0.272356 9.5425038,-0.488933 9.6712128,-0.74993 0.12871,-0.260997 -5.4461713,-7.882096 -5.2925,-8.12922 0.153672,-0.247125 9.454534,1.382111 9.631688,1.15124 0.177154,-0.230872 -3.803804,-8.79314 -3.604874,-9.005536 0.19893,-0.212395 9.003231,3.200043 9.222021,3.008169 0.218791,-0.191875 -2.015258,-9.366267 -1.778714,-9.535773 0.236545,-0.169505 8.205939,4.894998 8.457958,4.749495 0.25202,-0.145504 -0.149268,-9.5794548 0.115801,-9.6995556 0.265068,-0.1201007 7.093297,6.4018416 7.36886,6.3082996 0.275564,-0.09354 1.722459,-9.4245082 2.005865,-9.4905891 0.283405,-0.066081 5.708064,7.6626651 5.996581,7.6246811 0.288518,-0.03798 3.527993,-8.9073842 3.818845,-8.9169057 0.290851,-0.00952 4.103473,8.6290177 4.393857,8.6480497 0.290385,0.01903 5.197948,-8.0479537 5.485069,-8.0005499 0.28712,0.047404 2.341188,9.2637609 2.62228,9.3390789 0.281091,0.07532 6.668149,-6.8792451 6.940504,-6.7767378 0.272356,0.1025074 0.488933,9.5425038 0.74993,9.6712128 0.260996,0.12871 7.882096,-5.4461713 8.12922,-5.2925 0.247124,0.153672 -1.382111,9.454534 -1.15124,9.631688 0.230872,0.177154 8.79314,-3.803804 9.005536,-3.604874 0.212395,0.19893 -3.200043,9.003231 -3.008169,9.222021 0.191875,0.218791 9.366267,-2.015258 9.535773,-1.778714 0.169505,0.236545 -4.894998,8.205939 -4.749495,8.457958 0.145504,0.25202 9.579455,-0.149268 9.699555,0.115801 0.120101,0.265068 -6.401841,7.093297 -6.308299,7.36886 0.09354,0.275564 9.424506,1.722459 9.490586,2.005865 0.0661,0.283405 -7.662662,5.708064 -7.624678,5.996581 0.03798,0.288518 8.907388,3.527993 8.916908,3.818845 0.01,0.290851 -8.62902,4.103473 -8.648052,4.393857 -0.01903,0.290385 8.047952,5.197948 8.000552,5.485069 -0.0474,0.28712 -9.263763,2.341188 -9.339082,2.62228 -0.07532,0.281091 6.879242,6.668149 6.776742,6.940504 -0.10251,0.272356 -9.542507,0.488933 -9.671216,0.74993 -0.12871,0.260996 5.446171,7.882096 5.292499,8.12922 -0.153671,0.247124 -9.454533,-1.382111 -9.631687,-1.15124 -0.177154,0.230872 3.803804,8.79314 3.604874,9.005536 -0.198931,0.212395 -9.003231,-3.200043 -9.222022,-3.008169 -0.218791,0.191875 2.015259,9.366267 1.778715,9.535773 -0.236545,0.169505 -8.205939,-4.894998 -8.457959,-4.749495 z" />
  </g>
  <g
     inkscape:label="MAIN"
     inkscape:groupmode="layer"
     id="layer1"
     transform="translate(0,-191.16665)"
     style="display:inline">
    <circle
       style="fill:url(#radialGradient1808);fill-opacity:1;stroke:none;stroke-width:0.13229169;stroke-miterlimit:4;stroke-dasharray:none"
       id="path3727"
       cx="52.916668"
       cy="244.08331"
       r="40.605026" />
  </g>
  <g
     inkscape:groupmode="layer"
     id="layer2"
     inkscape:label="smile"
     style="display:none">
    <path
       style="opacity:1;fill:none;fill-opacity:1;stroke:#000000;stroke-width:1.0583334;stroke-linecap:square;stroke-linejoin:miter;stroke-miterlimit:4;stroke-dasharray:none;stroke-dashoffset:0;stroke-opacity:1;paint-order:stroke markers fill"
       id="path830"
       sodipodi:type="arc"
       sodipodi:cx="52.916668"
       sodipodi:cy="52.916668"
       sodipodi:rx="26.959074"
       sodipodi:ry="26.959074"
       sodipodi:start="0.34906585"
       sodipodi:end="2.7925268"
       d="M 78.249911,62.137214 A 26.959074,26.959074 0 0 1 52.916668,79.875742 26.959074,26.959074 0 0 1 27.583425,62.137214"
       sodipodi:open="true" />
    <path
       style="opacity:1;fill:#000000;fill-opacity:1;stroke:none;stroke-width:1.0583334;stroke-linecap:square;stroke-linejoin:miter;stroke-miterlimit:4;stroke-dasharray:none;stroke-dashoffset:0;stroke-opacity:1;paint-order:stroke markers fill"
       d="M 31.930292,42.354916 V 46.571 c 2.8e-5,3.19404 1.704111,6.145424 4.470299,7.742327 2.765885,1.59675 6.173495,1.59675 8.93938,0 2.766188,-1.596903 4.470271,-4.548287 4.470299,-7.742327 v -5.458641 z"
       id="path4599"
       inkscape:connector-curvature="0"
       sodipodi:nodetypes="ccccccc" />
    <path
       sodipodi:nodetypes="ccccccc"
       inkscape:connector-curvature="0"
       id="path4614"
       d="m 73.903043,42.35491 v 4.216084 c -2.9e-5,3.19404 -1.704111,6.145424 -4.470299,7.742327 -2.765885,1.59675 -6.173495,1.59675 -8.93938,0 -2.766189,-1.596903 -4.470271,-4.548287 -4.470299,-7.742327 v -5.458641 z"
       style="opacity:1;fill:#000000;fill-opacity:1;stroke:none;stroke-width:1.0583334;stroke-linecap:square;stroke-linejoin:miter;stroke-miterlimit:4;stroke-dasharray:none;stroke-dashoffset:0;stroke-opacity:1;paint-order:stroke markers fill" />
    <path
       style="opacity:1;fill:none;fill-opacity:1;stroke:#000000;stroke-width:1.0583334;stroke-linecap:square;stroke-linejoin:miter;stroke-miterlimit:4;stroke-dasharray:none;stroke-dashoffset:0;stroke-opacity:1;paint-order:stroke markers fill"
       d="m 49.532913,41.556128 c 0,0 2.582928,-1.866583 6.725497,0.02691"
       id="path4616"
       inkscape:connector-curvature="0"
       sodipodi:nodetypes="cc" />
    <path
       style="opacity:1;fill:none;fill-opacity:1;stroke:#000000;stroke-width:1.0583334;stroke-linecap:square;stroke-linejoin:miter;stroke-miterlimit:4;stroke-dasharray:none;stroke-dashoffset:0;stroke-opacity:1;paint-order:stroke markers fill"
       d="m 71.998809,44.39627 1.904234,-2.04136 6.971183,-3.505775 1.830555,1.331312"
       id="path4620"
       inkscape:connector-curvature="0" />
    <path
       inkscape:connector-curvature="0"
       id="path4622"
       d="m 33.834526,44.396275 -1.904234,-2.041359 -6.971183,-3.505775 -1.830555,1.331312"
       style="opacity:1;fill:none;fill-opacity:1;stroke:#000000;stroke-width:1.0583334;stroke-linecap:square;stroke-linejoin:miter;stroke-miterlimit:4;stroke-dasharray:none;stroke-dashoffset:0;stroke-opacity:1;paint-order:stroke markers fill" />
  </g>
</svg>
