<?xml version="1.0" encoding="UTF-8" standalone="no"?>
<!-- Created with Inkscape (http://www.inkscape.org/) -->

<svg
   xmlns:dc="http://purl.org/dc/elements/1.1/"
   xmlns:cc="http://creativecommons.org/ns#"
   xmlns:rdf="http://www.w3.org/1999/02/22-rdf-syntax-ns#"
   xmlns:svg="http://www.w3.org/2000/svg"
   xmlns="http://www.w3.org/2000/svg"
   xmlns:xlink="http://www.w3.org/1999/xlink"
   xmlns:sodipodi="http://sodipodi.sourceforge.net/DTD/sodipodi-0.dtd"
   xmlns:inkscape="http://www.inkscape.org/namespaces/inkscape"
   width="400"
   height="400"
   viewBox="0 0 105.83333 105.83334"
   version="1.1"
   id="svg8"
   inkscape:version="0.92.3 (2405546, 2018-03-11)"
   sodipodi:docname="hurricane.svg"
   inkscape:export-filename="C:\Users\Kyle\Documents\GitHub\ksgwxfan.github.io\5day\hurricane1.png"
   inkscape:export-xdpi="96"
   inkscape:export-ydpi="96">
  <defs
     id="defs2">
    <linearGradient
       inkscape:collect="always"
       id="linearGradient2492">
      <stop
         id="stop2490"
         offset="0"
         style="stop-color:#ffffff;stop-opacity:1" />
      <stop
         style="stop-color:#ebebeb;stop-opacity:1;"
         offset="0.61141306"
         id="stop2500" />
      <stop
         id="stop2488"
         offset="1"
         style="stop-color:#b3b3b3;stop-opacity:1" />
    </linearGradient>
    <radialGradient
       inkscape:collect="always"
       xlink:href="#linearGradient2492"
       id="radialGradient2496"
       cx="52.754837"
       cy="52.806492"
       fx="52.754837"
       fy="52.806492"
       r="45.34404"
       gradientTransform="matrix(1.1933165,0,0,1.1973666,-10.198376,-10.422231)"
       gradientUnits="userSpaceOnUse" />
  </defs>
  <sodipodi:namedview
     id="base"
     pagecolor="#ffffff"
     bordercolor="#666666"
     borderopacity="1.0"
     inkscape:pageopacity="0.0"
     inkscape:pageshadow="2"
     inkscape:zoom="0.89161746"
     inkscape:cx="129.0683"
     inkscape:cy="175.66196"
     inkscape:document-units="px"
     inkscape:current-layer="layer3"
     showgrid="false"
     units="px"
     inkscape:window-width="1366"
     inkscape:window-height="715"
     inkscape:window-x="-8"
     inkscape:window-y="-8"
     inkscape:window-maximized="1"
     showguides="true"
     inkscape:guide-bbox="true"
     inkscape:lockguides="true"
     inkscape:snap-intersection-paths="true"
     inkscape:snap-center="true"
     inkscape:snap-global="true"
     inkscape:object-nodes="true">
    <sodipodi:guide
       position="52.916668,52.916668"
       orientation="1,0"
       id="guide815"
       inkscape:locked="true"
       inkscape:label=""
       inkscape:color="rgb(0,0,255)" />
    <sodipodi:guide
       position="52.916668,52.916668"
       orientation="0,1"
       id="guide817"
       inkscape:locked="true"
       inkscape:label=""
       inkscape:color="rgb(0,0,255)" />
  </sodipodi:namedview>
  <metadata
     id="metadata5">
    <rdf:RDF>
      <cc:Work
         rdf:about="">
        <dc:format>image/svg+xml</dc:format>
        <dc:type
           rdf:resource="http://purl.org/dc/dcmitype/StillImage" />
        <dc:title />
      </cc:Work>
    </rdf:RDF>
  </metadata>
  <g
     inkscape:groupmode="layer"
     id="layer3"
     inkscape:label="new">
    <path
       style="display:inline;opacity:1;fill:url(#radialGradient2496);fill-opacity:1;stroke:#cccccc;stroke-width:0.3691051;stroke-miterlimit:4;stroke-dasharray:none;stroke-opacity:0.93467335"
       d="m 56.897982,7.4925617 c 0,0 -14.450132,8.8176793 -12.531549,16.7683283 16.456877,-17.0636086 35.026772,-8.242866 35.026772,-8.242866 0,0 -16.926088,0.244336 -19.311692,8.068407 l -0.123991,0.0014 a 29.835995,29.835995 0 0 1 0.206177,0.04613 l -0.08218,-0.04758 c 22.760072,-6.634364 34.114825,10.15832 34.114825,10.15832 0,0 -14.653774,-7.95657 -20.637443,-2.426579 a 29.835995,29.835995 0 0 1 0.06127,0.06561 c 22.861133,5.935172 24.294613,26.226643 24.294615,26.226643 0,0 -8.583579,-14.655971 -16.566477,-12.87254 l -0.06416,-0.10958 a 29.835995,29.835995 0 0 1 0.03244,0.125442 c 16.755646,16.762041 7.661814,35.235839 7.661814,35.235839 0,0 0.02584,-16.905555 -7.731021,-19.458036 a 29.835995,29.835995 0 0 1 -0.01158,0.03677 c 5.736801,22.963903 -11.577069,34.235217 -11.577069,34.235217 0,0 9.167639,-14.698536 3.791259,-20.86309 l 0.307826,-0.530587 a 29.835995,29.835995 0 0 1 -0.5241,0.487333 l 0.111018,-0.062 c -6.75985,22.723147 -27.669137,23.784972 -27.669137,23.784972 0,0 15.778937,-8.222966 14.297057,-16.267298 l 0.124717,-0.06993 a 29.835995,29.835995 0 0 1 -0.26818,0.06848 l 0.143463,0.0014 C 42.616552,98.002103 24.706537,88.72591 24.706537,88.72591 c 0,0 16.926609,0.635957 19.731984,-7.0476 h 0.01875 a 29.835995,29.835995 0 0 1 -0.04254,-0.01367 l 0.02379,0.01367 C 21.296972,86.826541 9.7390373,68.941295 9.7390373,68.941295 c 0,0 15.2845647,10.222743 21.5919287,5.014637 l 0.07137,0.04181 A 29.835995,29.835995 0 0 1 31.278345,73.8651 l 0.05262,0.09083 C 8.820848,66.517563 7.5950574,44.754873 7.5950574,44.754873 c 0,0 8.0740016,17.330599 16.1591626,16.090675 l 0.06056,0.104531 a 29.835995,29.835995 0 0 1 -0.06128,-0.23862 l 7.24e-4,0.134092 C 6.8956178,44.177515 15.924438,25.638549 15.924431,25.638549 c 0,0 -0.03196,17.153305 7.725979,19.67719 -6.19953,-22.815806 10.454609,-33.964875 10.454609,-33.964875 0,0 -8.41333,14.700237 -2.908865,20.749905 l 7.23e-4,7.2e-4 -0.0073,0.01297 a 29.835995,29.835995 0 0 1 0.02956,-0.0274 l -0.02307,0.01367 C 36.700363,9.0412936 56.897982,7.4925617 56.897982,7.4925617 Z M 44.481778,24.26017 l -0.115343,0.0014 v 7.2e-4 l -0.08075,0.0483 a 29.835995,29.835995 0 0 1 0.196088,-0.05046 z m -20.780908,21.075755 -0.01514,0.02667 v 0.03965 a 29.835995,29.835995 0 0 1 0.01514,-0.06632 z m 29.518314,2.393415 c 0,3e-6 -2.263355,0.173982 -2.880026,2.757477 -0.616701,-0.677784 0.32585,-2.32493 0.32585,-2.32493 0,0 -1.865329,1.248756 -1.170758,3.804953 -0.869216,-0.282764 -0.86581,-2.204536 -0.86581,-2.204536 0,0 -1.011428,2.077386 0.877344,3.944812 -0.905828,0.138918 -1.810922,-1.802994 -1.810922,-1.802994 0,0 0.137482,2.438108 2.659433,3.271481 l -0.0057,-0.01004 a 3.3427117,3.3427117 0 0 0 0.01367,0.01514 l -0.008,-0.0043 c -0.706652,0.583495 -2.418647,-0.562309 -2.418647,-0.562309 0,0 1.294445,2.004185 3.887139,1.427399 -0.314304,0.860831 -2.210304,0.789394 -2.210304,0.789394 0,0 2.006063,1.039382 3.950575,-0.769932 0.166023,0.901255 -1.601138,1.822456 -1.601138,1.822456 0,0 2.342552,-0.119387 3.099908,-2.665195 l -0.01297,0.0073 a 3.3427117,3.3427117 0 0 0 0.05912,-0.0548 l -0.03461,0.05983 c 0.60235,0.690654 -0.424615,2.337184 -0.424615,2.337184 0,0 1.93964,-1.262443 1.296913,-3.835231 a 3.3427117,3.3427117 0 0 0 0.0014,-0.0043 c 0.86908,0.285971 0.86581,2.180027 0.86581,2.180027 0,0 1.019358,-2.069739 -0.857882,-3.947694 a 3.3427117,3.3427117 0 0 0 -0.0036,-0.01443 l 0.0073,0.01228 c 0.894372,-0.199808 1.855618,1.442535 1.855618,1.442535 0,0 -0.160155,-2.273469 -2.721432,-2.938423 a 3.3427117,3.3427117 0 0 0 -0.0073,-0.0073 c 0.670388,-0.619558 2.311953,0.271782 2.311953,0.271782 0,0 -1.271581,-1.881602 -3.821533,-1.138316 0.267272,-0.876581 2.163447,-0.904015 2.163447,-0.904015 0,0 -2.080864,-0.988261 -3.924628,0.923482 -0.214948,-0.890762 1.404329,-1.878689 1.404329,-1.878689 z m -1.404329,1.878689 h 0.01297 a 3.3427117,3.3427117 0 0 0 -0.02162,0.0057 z m 1.761181,-0.01946 0.0086,0.0057 a 3.3427117,3.3427117 0 0 0 -0.02307,-0.0057 z m -0.01297,6.472317 h -0.01586 a 3.3427117,3.3427117 0 0 0 0.03027,-0.008 z m -1.740272,-0.01946 -0.0022,-0.0014 a 3.3427117,3.3427117 0 0 0 0.0043,0.0014 z m -2.317003,-2.334301 v -0.01514 a 3.3427117,3.3427117 0 0 0 0.0066,0.02667 z m 0.833374,-3.220299 0.0029,-0.0014 a 3.3427117,3.3427117 0 0 0 -0.0036,0.0029 z m -0.839138,1.482909 a 3.3427117,3.3427117 0 0 0 -0.0022,0.0073 v -0.0043 z"
       id="path819-9"
       inkscape:connector-curvature="0" />
  </g>
</svg>
