<?xml version="1.0" encoding="UTF-8" standalone="no"?>
<!-- Created with Inkscape (http://www.inkscape.org/) -->

<svg
   xmlns:dc="http://purl.org/dc/elements/1.1/"
   xmlns:cc="http://creativecommons.org/ns#"
   xmlns:rdf="http://www.w3.org/1999/02/22-rdf-syntax-ns#"
   xmlns:svg="http://www.w3.org/2000/svg"
   xmlns="http://www.w3.org/2000/svg"
   xmlns:xlink="http://www.w3.org/1999/xlink"
   xmlns:sodipodi="http://sodipodi.sourceforge.net/DTD/sodipodi-0.dtd"
   xmlns:inkscape="http://www.inkscape.org/namespaces/inkscape"
   width="400"
   height="400"
   viewBox="0 0 105.83333 105.83334"
   version="1.1"
   id="svg8"
   inkscape:version="0.92.5 (2060ec1f9f, 2020-04-08)"
   sodipodi:docname="sky_hurricane.svg"
   inkscape:export-filename="C:\Users\Kyle\Documents\GitHub\ksgwxfan.github.io\5day\hurricane1.png"
   inkscape:export-xdpi="96"
   inkscape:export-ydpi="96">
  <defs
     id="defs2">
    <linearGradient
       inkscape:collect="always"
       id="linearGradient873">
      <stop
         style="stop-color:#ffffff;stop-opacity:1"
         offset="0"
         id="stop869" />
      <stop
         style="stop-color:#e6e6e6;stop-opacity:1"
         offset="1"
         id="stop871" />
    </linearGradient>
    <radialGradient
       inkscape:collect="always"
       xlink:href="#linearGradient873"
       id="radialGradient877"
       cx="52.916664"
       cy="52.916664"
       fx="52.916664"
       fy="52.916664"
       r="49.511253"
       gradientTransform="matrix(3.7795275,0,0,3.7208704,0,3.1039402)"
       gradientUnits="userSpaceOnUse" />
  </defs>
  <sodipodi:namedview
     id="base"
     pagecolor="#ffffff"
     bordercolor="#666666"
     borderopacity="1.0"
     inkscape:pageopacity="0.63529412"
     inkscape:pageshadow="2"
     inkscape:zoom="1"
     inkscape:cx="133.50232"
     inkscape:cy="205.49587"
     inkscape:document-units="px"
     inkscape:current-layer="layer2"
     showgrid="false"
     units="px"
     inkscape:window-width="1366"
     inkscape:window-height="715"
     inkscape:window-x="-8"
     inkscape:window-y="-8"
     inkscape:window-maximized="1"
     showguides="true"
     inkscape:guide-bbox="true"
     inkscape:lockguides="true"
     inkscape:snap-intersection-paths="true"
     inkscape:snap-center="true"
     inkscape:snap-global="false"
     inkscape:object-nodes="true"
     inkscape:pagecheckerboard="true"
     inkscape:snap-to-guides="true">
    <sodipodi:guide
       position="52.916668,52.916668"
       orientation="1,0"
       id="guide815"
       inkscape:locked="true"
       inkscape:label=""
       inkscape:color="rgb(0,0,255)" />
    <sodipodi:guide
       position="52.916668,52.916668"
       orientation="0,1"
       id="guide817"
       inkscape:locked="true"
       inkscape:label=""
       inkscape:color="rgb(0,0,255)" />
  </sodipodi:namedview>
  <metadata
     id="metadata5">
    <rdf:RDF>
      <cc:Work
         rdf:about="">
        <dc:format>image/svg+xml</dc:format>
        <dc:type
           rdf:resource="http://purl.org/dc/dcmitype/StillImage" />
        <dc:title />
      </cc:Work>
    </rdf:RDF>
  </metadata>
  <g
     inkscape:groupmode="layer"
     id="layer2"
     inkscape:label="new"
     style="display:inline">
    <path
       style="opacity:1;fill:url(#radialGradient877);fill-opacity:1;stroke:#999999;stroke-width:4;stroke-miterlimit:4;stroke-dasharray:none;stroke-dashoffset:0;stroke-opacity:1;paint-order:stroke fill markers"
       d="M 197.22266,15.775391 C 153.07502,20.464529 117.44398,51.7633 107.0918,93.693359 104.27161,102.78494 105.07132,125.45965 95.683594,103.85352 86.952311,77.886011 95.841189,52.335282 104.0293,29.566406 71.125634,56.013416 58.570134,103.02148 71.632812,147.30469 c 2.372259,9.89029 14.552456,30.63716 -3.947265,15.17969 C 47.491516,142.63014 41.595962,114.35393 36.554688,89.023438 23.711131,130.1421 37.595709,180.26371 70.572266,215.03516 c 6.928119,8.03803 27.222068,21.29814 4.568359,16.13086 -26.246146,-8.42053 -45.348933,-31.84467 -62.269531,-52.94922 10.658235,44.7731 47.264874,84.57832 91.320316,100.52148 9.62757,4.03333 32.60012,6.25297 11.86132,12.75977 -25.265011,5.26941 -52.457503,-7.02645 -76.722652,-18.25 31.303736,36.42944 80.821202,55.2537 124.150392,48.0957 9.74656,-1.05168 29.24137,-10.46857 15.97461,5.96875 -17.51406,17.54737 -45.50525,19.67482 -70.61328,21.33984 43.56171,18.32531 92.72168,11.12419 123.71484,-17.21679 7.25723,-5.85644 18.04957,-24.38469 15.81055,-2.41993 -5.07121,25.12312 -26.36594,41.10277 -45.58985,55.20899 44.14714,-4.68911 79.77834,-35.9864 90.13086,-77.91602 2.82017,-9.09163 2.02066,-31.76603 11.40821,-10.16015 8.73128,25.96751 -0.15761,51.51822 -8.34571,74.28711 32.90409,-26.4474 45.45914,-73.45466 32.39649,-117.73828 -2.3718,-9.88801 -14.55113,-30.63734 3.94726,-15.17969 20.19403,19.85424 26.08962,48.13046 31.13086,73.46094 12.84356,-41.11866 -1.04101,-91.24029 -34.01758,-126.01172 -6.92812,-8.03805 -27.22206,-21.29815 -4.56835,-16.13086 26.24615,8.42053 45.34897,31.84467 62.26953,52.94922 -10.65822,-44.7731 -47.26488,-84.57833 -91.32032,-100.52149 -9.62757,-4.03332 -32.60012,-6.25297 -11.86132,-12.75976 25.26501,-5.26941 52.45748,7.02642 76.72265,18.25 C 329.36614,90.324469 279.84874,71.502162 236.51953,78.660156 226.77195,79.713628 207.27894,89.124831 220.54492,72.6875 238.05915,55.140499 266.05022,53.013898 291.1582,51.349609 247.5965,33.0243 198.43652,40.22738 167.44336,68.568359 c -7.25726,5.856529 -18.04958,24.382799 -15.81055,2.417969 4.93921,-25.038115 26.49692,-41.179236 45.58985,-55.210937 z M 186.19727,173.19727 c -2.20485,1.61865 -4.69525,3.48081 -5.26563,6.36914 -0.25856,2.53381 0.98811,0.39629 1.82617,-0.2793 3.57908,-3.26934 9.25663,-4.10029 14.28711,-1.98633 -2.89946,0.19199 -6.13176,0.43676 -8.1543,2.46094 -1.53194,1.89617 0.71811,0.81096 1.84376,0.68945 5.00363,-0.82572 10.72294,1.34643 14.33789,5.54883 -2.80213,-1.29472 -5.94179,-2.71333 -8.85938,-2.10547 -2.39491,0.75061 0.25736,1.00738 1.36914,1.47266 5.0875,1.83915 9.31412,6.4308 10.54492,11.5957 -1.95397,-2.43456 -4.15856,-5.13801 -7.18945,-6.10937 -2.61604,-0.59609 -0.27271,0.93408 0.52734,1.86132 3.8081,4.01114 5.4109,9.79378 3.92774,14.53711 -0.58217,-2.92205 -1.26371,-6.18428 -3.5957,-8.47461 -2.13619,-1.78315 -0.72899,0.60935 -0.45508,1.75 1.50847,5.10844 0.0576,10.53114 -3.74219,13.58204 0.94573,-2.62656 1.97313,-5.57282 0.96484,-8.56836 -1.08408,-2.4924 -0.99267,0.12309 -1.31836,1.17187 -1.1955,4.83689 -5.31011,8.44736 -10.4082,8.98828 2.21997,-1.62725 4.68001,-3.47101 5.26563,-6.36914 0.25856,-2.53381 -0.98812,-0.39628 -1.82618,0.2793 -3.57907,3.26934 -9.25662,4.10028 -14.28711,1.98633 2.89947,-0.19208 6.13179,-0.43868 8.1543,-2.46289 1.53204,-1.89617 -0.71822,-0.80883 -1.84375,-0.6875 -5.00363,0.82572 -10.721,-1.34643 -14.33594,-5.54883 2.80213,1.29472 5.94179,2.71333 8.85938,2.10547 2.3949,-0.75061 -0.25931,-1.00739 -1.3711,-1.47266 -5.0875,-1.83916 -9.31411,-6.4308 -10.54492,-11.5957 1.95398,2.43456 4.16052,5.138 7.19141,6.10937 2.61604,0.59608 0.27271,-0.93408 -0.52734,-1.86133 -3.80814,-4.01114 -5.41286,-9.79377 -3.92969,-14.53711 0.58216,2.92206 1.2637,6.18428 3.5957,8.47461 2.13634,1.78314 0.72902,-0.60908 0.45508,-1.75 -1.50847,-5.10838 -0.0575,-10.53117 3.74219,-13.58203 -0.94573,2.62656 -1.97313,5.57282 -0.96485,8.56836 1.08408,2.49243 0.99268,-0.12309 1.31836,-1.17187 1.19547,-4.83694 5.31006,-8.44736 10.40821,-8.98828 z"
       id="path821"
       inkscape:connector-curvature="0"
       transform="scale(0.26458334)"
       sodipodi:nodetypes="cccccccccccccccccccccccccccccccccccccccccccccccccccccccccccccccccccccccccc" />
    <path
       style="display:none;opacity:1;fill:#5fbcd3;fill-opacity:1;stroke:none;stroke-width:1.0583334;stroke-miterlimit:4;stroke-dasharray:none;stroke-dashoffset:0;stroke-opacity:1;paint-order:stroke fill markers"
       d="M 58.313754,7.6005691 C 47.22069,8.762367 37.358489,16.517231 33.408612,26.905974 c -0.99904,2.252562 -1.549718,7.870532 -3.161987,2.517317 -1.305569,-6.433803 1.741006,-12.764577 4.521794,-18.405875 -9.025894,6.552606 -13.689437,18.1995 -11.915688,29.171269 0.261074,2.450454 2.593395,7.591047 -1.47959,3.761245 -4.347545,-4.919157 -4.874425,-11.925142 -5.286784,-18.201115 -4.540346,10.187709 -2.755738,22.605996 4.266126,31.221094 1.451034,1.991532 6.041347,5.277184 0.59926,3.996918 C 14.72704,58.880527 10.767635,53.076674 7.2724244,47.847735 8.4342577,58.940881 16.189109,68.80314 26.57783,72.753274 c 2.252138,0.999313 7.87056,1.54944 2.517318,3.161588 -6.433805,1.305568 -12.764578,-1.741006 -18.405878,-4.521795 6.552636,9.02589 18.199436,13.689579 29.171267,11.916087 2.449582,-0.260569 7.590714,-2.593356 3.760753,1.479214 -4.918948,4.347599 -11.924765,4.874747 -18.200619,5.28728 10.187708,4.540346 22.605993,2.755739 31.221093,-4.266126 1.991522,-1.451012 5.277181,-6.041353 3.996921,-0.599284 -2.086295,6.224593 -7.890169,10.18381 -13.119095,13.678827 11.092939,-1.161794 20.955199,-8.916374 24.905145,-19.305009 0.999035,-2.252575 1.549752,-7.870349 3.161988,-2.517198 1.305568,6.433804 -1.741006,12.764577 -4.521798,18.405878 9.026011,-6.552703 13.68942,-18.199794 11.915693,-29.171665 -0.261038,-2.449889 -2.593063,-7.590695 1.479587,-3.760851 4.347543,4.919157 4.874427,11.925141 5.286782,18.201113 4.540346,-10.187707 2.755742,-22.605995 -4.266126,-31.221093 -1.451033,-1.991534 -6.041345,-5.277183 -0.59926,-3.996917 6.224704,2.0863 10.184109,7.890153 13.679321,13.119092 C 97.399089,47.549269 89.644236,37.687012 79.255514,33.736878 77.003376,32.737568 71.384957,32.187433 76.7382,30.575287 83.172001,29.269719 89.502774,32.31629 95.144075,35.097083 88.591435,26.071193 76.94463,21.407504 65.972796,23.180995 c -2.449894,0.261012 -7.590518,2.592863 -3.760753,-1.47971 4.91898,-4.347509 11.924803,-4.874433 18.200621,-5.286783 -10.187704,-4.540345 -22.605995,-2.755739 -31.221095,4.266125 -1.991532,1.451035 -5.277186,6.041347 -3.996921,0.599261 2.050783,-6.203534 7.925094,-10.202773 13.119106,-13.6793189 z M 52.88411,53.048959 c 0.847121,0.370099 -0.664991,0.603094 0,0 z"
       id="path821-4"
       inkscape:connector-curvature="0"
       inkscape:label="orig"
       sodipodi:insensitive="true" />
  </g>
</svg>
