<?xml version="1.0" encoding="UTF-8" standalone="no"?>
<svg id="svg8" version="1.1" viewBox="0 0 105.83333 105.83334" height="400" width="400" sodipodi:docname="sky_cloudy.svg" inkscape:version="1.3.2 (091e20e, 2023-11-25, custom)" xmlns:inkscape="http://www.inkscape.org/namespaces/inkscape" xmlns:sodipodi="http://sodipodi.sourceforge.net/DTD/sodipodi-0.dtd" xmlns:xlink="http://www.w3.org/1999/xlink" xmlns="http://www.w3.org/2000/svg" xmlns:svg="http://www.w3.org/2000/svg" xmlns:rdf="http://www.w3.org/1999/02/22-rdf-syntax-ns#" xmlns:cc="http://creativecommons.org/ns#" xmlns:dc="http://purl.org/dc/elements/1.1/">
    <sodipodi:namedview id="namedview1" pagecolor="#505050" bordercolor="#eeeeee" borderopacity="1" inkscape:showpageshadow="0" inkscape:pageopacity="0" inkscape:pagecheckerboard="0" inkscape:deskcolor="#d1d1d1" inkscape:zoom="1.945" inkscape:cx="199.74293" inkscape:cy="200" inkscape:window-width="1920" inkscape:window-height="1013" inkscape:window-x="-9" inkscape:window-y="-9" inkscape:window-maximized="1" inkscape:current-layer="layer4" />
    <defs id="defs2">
        <linearGradient id="linearGradient889">
            <stop id="stop885" offset="0" style="stop-color:#cccccc;stop-opacity:1;" />
            <stop id="stop887" offset="1" style="stop-color:#ececec;stop-opacity:1" />
        </linearGradient>
        <linearGradient id="linearGradient1236">
            <stop id="stop1232" offset="0" style="stop-color:#b3b3b3;stop-opacity:1;" />
            <stop id="stop1234" offset="1" style="stop-color:#e6e6e6;stop-opacity:1" />
        </linearGradient>
        <linearGradient gradientTransform="matrix(1.2857143,0,0,1.4903823,17.332908,-48.172989)" y2="82.398811" x2="8.6934528" y1="90.525299" x1="8.6934528" gradientUnits="userSpaceOnUse" id="linearGradient1254" xlink:href="#linearGradient1236" />
        <linearGradient y2="82.398811" x2="8.6934528" y1="90.525299" x1="8.6934528" gradientTransform="matrix(1.6530613,0,0,2.1502462,33.894435,-111.14114)" gradientUnits="userSpaceOnUse" id="linearGradient1258" xlink:href="#linearGradient1236" />
        <linearGradient y2="82.398811" x2="8.6934528" y1="90.525299" x1="8.6934528" gradientTransform="matrix(2.5306123,0,0,2.9344482,55.273228,-186.52986)" gradientUnits="userSpaceOnUse" id="linearGradient1262" xlink:href="#linearGradient1236" />
        <linearGradient gradientTransform="matrix(1,0,0,1.1120113,3.9687501,-10.283414)" y2="82.398811" x2="8.6934528" y1="90.525299" x1="8.6934528" gradientUnits="userSpaceOnUse" id="linearGradient1289" xlink:href="#linearGradient1236" />
        <linearGradient y2="56.885418" x2="-20.977678" y1="71.4375" x1="-21.355656" gradientTransform="translate(58.58631,-13.796131)" gradientUnits="userSpaceOnUse" id="linearGradient895" xlink:href="#linearGradient889" />
        <linearGradient y2="56.885418" x2="-20.977678" y1="71.4375" x1="-21.355656" gradientTransform="translate(41.010418,0.18898912)" gradientUnits="userSpaceOnUse" id="linearGradient899" xlink:href="#linearGradient889" />
        <linearGradient y2="56.885418" x2="-20.977678" y1="71.4375" x1="-21.355656" gradientTransform="translate(57.641369,-30.616071)" gradientUnits="userSpaceOnUse" id="linearGradient903" xlink:href="#linearGradient889" />
        <linearGradient y2="56.885418" x2="-20.977678" y1="71.4375" x1="-21.355656" gradientTransform="translate(63.554957,-29.25368)" gradientUnits="userSpaceOnUse" id="linearGradient907" xlink:href="#linearGradient889" />
        <linearGradient y2="56.885418" x2="-20.977678" y1="71.4375" x1="-21.355656" gradientTransform="translate(89.576702,-64.212225)" gradientUnits="userSpaceOnUse" id="linearGradient911" xlink:href="#linearGradient889" />
        <linearGradient y2="56.885418" x2="-20.977678" y1="71.4375" x1="-21.355656" gradientTransform="translate(81.718206,-98.96068)" gradientUnits="userSpaceOnUse" id="linearGradient915" xlink:href="#linearGradient889" />
        <linearGradient y2="56.885418" x2="-20.977678" y1="71.4375" x1="-21.355656" gradientTransform="translate(38.742559,15.686013)" gradientUnits="userSpaceOnUse" id="linearGradient923" xlink:href="#linearGradient889" />
        <linearGradient y2="56.885418" x2="-20.977678" y1="71.4375" x1="-21.355656" gradientTransform="translate(38.931549,-15.119047)" gradientUnits="userSpaceOnUse" id="linearGradient927" xlink:href="#linearGradient889" />
        <linearGradient y2="56.885418" x2="-20.977678" y1="71.4375" x1="-21.355656" gradientTransform="translate(72.004466,-10.394345)" gradientUnits="userSpaceOnUse" id="linearGradient936" xlink:href="#linearGradient889" />
        <linearGradient y2="56.885418" x2="-20.977678" y1="71.4375" x1="-21.355656" gradientTransform="translate(66.334822,-23.056548)" gradientUnits="userSpaceOnUse" id="linearGradient940" xlink:href="#linearGradient889" />
        <linearGradient y2="56.885418" x2="-20.977678" y1="71.4375" x1="-21.355656" gradientTransform="translate(95.534553,-61.911189)" gradientUnits="userSpaceOnUse" id="linearGradient944" xlink:href="#linearGradient889" />
        <linearGradient y2="56.885418" x2="-20.977678" y1="71.4375" x1="-21.355656" gradientTransform="translate(54.379317,-38.51572)" gradientUnits="userSpaceOnUse" id="linearGradient988" xlink:href="#linearGradient889" />
        <linearGradient y2="56.885418" x2="-20.977678" y1="71.4375" x1="-21.355656" gradientTransform="translate(38.931549,-15.119047)" gradientUnits="userSpaceOnUse" id="linearGradient1118" xlink:href="#linearGradient889" />
        <linearGradient y2="56.885418" x2="-20.977678" y1="71.4375" x1="-21.355656" gradientTransform="translate(54.379317,-38.51572)" gradientUnits="userSpaceOnUse" id="linearGradient1120" xlink:href="#linearGradient889" />
        <linearGradient y2="56.885418" x2="-20.977678" y1="71.4375" x1="-21.355656" gradientTransform="translate(57.641369,-30.616071)" gradientUnits="userSpaceOnUse" id="linearGradient1122" xlink:href="#linearGradient889" />
        <linearGradient y2="56.885418" x2="-20.977678" y1="71.4375" x1="-21.355656" gradientTransform="translate(58.58631,-13.796131)" gradientUnits="userSpaceOnUse" id="linearGradient1124" xlink:href="#linearGradient889" />
        <linearGradient y2="56.885418" x2="-20.977678" y1="71.4375" x1="-21.355656" gradientTransform="translate(41.010418,0.18898912)" gradientUnits="userSpaceOnUse" id="linearGradient1126" xlink:href="#linearGradient889" />
        <linearGradient y2="56.885418" x2="-20.977678" y1="71.4375" x1="-21.355656" gradientTransform="translate(63.554957,-29.25368)" gradientUnits="userSpaceOnUse" id="linearGradient1128" xlink:href="#linearGradient889" />
        <linearGradient y2="56.885418" x2="-20.977678" y1="71.4375" x1="-21.355656" gradientTransform="translate(81.718206,-98.96068)" gradientUnits="userSpaceOnUse" id="linearGradient1130" xlink:href="#linearGradient889" />
        <linearGradient y2="56.885418" x2="-20.977678" y1="71.4375" x1="-21.355656" gradientTransform="translate(89.576702,-64.212225)" gradientUnits="userSpaceOnUse" id="linearGradient1132" xlink:href="#linearGradient889" />
        <linearGradient y2="56.885418" x2="-20.977678" y1="71.4375" x1="-21.355656" gradientTransform="translate(38.742559,15.686013)" gradientUnits="userSpaceOnUse" id="linearGradient1134" xlink:href="#linearGradient889" />
        <linearGradient y2="56.885418" x2="-20.977678" y1="71.4375" x1="-21.355656" gradientTransform="translate(66.334822,-23.056548)" gradientUnits="userSpaceOnUse" id="linearGradient1136" xlink:href="#linearGradient889" />
        <linearGradient y2="56.885418" x2="-20.977678" y1="71.4375" x1="-21.355656" gradientTransform="translate(95.534553,-61.911189)" gradientUnits="userSpaceOnUse" id="linearGradient1138" xlink:href="#linearGradient889" />
        <linearGradient y2="56.885418" x2="-20.977678" y1="71.4375" x1="-21.355656" gradientTransform="translate(72.004466,-10.394345)" gradientUnits="userSpaceOnUse" id="linearGradient1140" xlink:href="#linearGradient889" />
    </defs>
    <metadata id="metadata5">
        <rdf:RDF>
            <cc:Work rdf:about="">
                <dc:format>image/svg+xml</dc:format>
                <dc:type rdf:resource="http://purl.org/dc/dcmitype/StillImage" />
                <dc:title />
            </cc:Work>
        </rdf:RDF>
    </metadata>
    <g id="layer4">
        <g id="g1116" transform="rotate(79.989845,54.179514,68.239267)" inkscape:label="cloud-back">
            <circle r="10.96131" cy="48.758945" cx="18.142857" id="circle1090" style="fill:url(#linearGradient1118);fill-opacity:1;stroke:none;stroke-width:0.5291667;stroke-miterlimit:4;stroke-dasharray:none" />
            <circle transform="rotate(19.112972)" r="10.96131" cy="25.362263" cx="33.590626" id="circle1092" style="fill:url(#linearGradient1120);fill-opacity:1;stroke:none;stroke-width:0.5291667;stroke-miterlimit:4;stroke-dasharray:none" />
            <circle style="fill:url(#linearGradient1122);fill-opacity:1;stroke:none;stroke-width:0.5291667;stroke-miterlimit:4;stroke-dasharray:none" id="circle1094" cx="36.852676" cy="33.261921" r="10.96131" />
            <circle style="fill:url(#linearGradient1124);fill-opacity:1;stroke:none;stroke-width:0.5291667;stroke-miterlimit:4;stroke-dasharray:none" id="circle1096" cx="37.797619" cy="50.081852" r="10.96131" />
            <circle r="10.96131" cy="64.066971" cx="20.221725" id="circle1098" style="fill:url(#linearGradient1126);fill-opacity:1;stroke:none;stroke-width:0.5291667;stroke-miterlimit:4;stroke-dasharray:none" />
            <circle transform="rotate(25.144784)" r="10.96131" cy="34.62431" cx="42.766266" id="circle1100" style="fill:url(#linearGradient1128);fill-opacity:1;stroke:none;stroke-width:0.5291667;stroke-miterlimit:4;stroke-dasharray:none" />
            <circle transform="rotate(95.98612)" style="fill:url(#linearGradient1130);fill-opacity:1;stroke:none;stroke-width:0.5291667;stroke-miterlimit:4;stroke-dasharray:none" id="circle1102" cx="60.929516" cy="-35.082691" r="10.96131" />
            <circle transform="rotate(55.234799)" style="fill:url(#linearGradient1132);fill-opacity:1;stroke:none;stroke-width:0.5291667;stroke-miterlimit:4;stroke-dasharray:none" id="circle1104" cx="68.78801" cy="-0.3342357" r="10.96131" />
            <circle style="fill:url(#linearGradient1134);fill-opacity:1;stroke:none;stroke-width:0.5291667;stroke-miterlimit:4;stroke-dasharray:none" id="circle1106" cx="17.953873" cy="79.564003" r="10.96131" />
            <circle style="fill:url(#linearGradient1136);fill-opacity:1;stroke:none;stroke-width:0.5291667;stroke-miterlimit:4;stroke-dasharray:none" id="circle1108" cx="45.546127" cy="40.821438" r="10.96131" />
            <circle transform="rotate(36.202587)" style="fill:url(#linearGradient1138);fill-opacity:1;stroke:none;stroke-width:0.5291667;stroke-miterlimit:4;stroke-dasharray:none" id="circle1110" cx="74.745865" cy="1.9667993" r="10.96131" />
            <circle style="fill:url(#linearGradient1140);fill-opacity:1;stroke:none;stroke-width:0.5291667;stroke-miterlimit:4;stroke-dasharray:none" id="circle1112" cx="51.215775" cy="53.483643" r="10.96131" />
            <path id="path1114" transform="scale(0.26458334)" d="m 139.28516,84.285156 a 41.428574,41.428574 0 0 0 -29.43555,12.324219 41.428574,41.428574 0 0 0 -7.71289,-3.611328 41.428574,41.428574 0 0 0 -52.710939,25.580073 41.428574,41.428574 0 0 0 0.619141,28.66797 41.428574,41.428574 0 0 0 -22.902344,37.03907 41.428574,41.428574 0 0 0 16.302734,32.875 A 41.428574,41.428574 0 0 0 35,242.14258 a 41.428574,41.428574 0 0 0 8.517578,25.10937 41.428574,41.428574 0 0 0 -17.089844,33.46289 41.428574,41.428574 0 0 0 41.429688,41.42774 41.428574,41.428574 0 0 0 41.427738,-41.42774 41.428574,41.428574 0 0 0 -3.47852,-16.49804 41.428574,41.428574 0 0 0 41.85352,-30.01368 41.428574,41.428574 0 0 0 25.24804,-7.3125 41.428574,41.428574 0 0 0 6.64453,-5.81835 41.428574,41.428574 0 0 0 14.01954,2.5 41.428574,41.428574 0 0 0 39.91211,-30.49415 41.428574,41.428574 0 0 0 23.51757,-15.75195 41.428574,41.428574 0 0 0 -8.96093,-57.89844 41.428574,41.428574 0 0 0 -39.63086,-5.07421 41.428574,41.428574 0 0 0 -29.59961,-20.90625 41.428574,41.428574 0 0 0 -39.52539,-29.162114 z" style="fill:none;fill-opacity:1;stroke:#333333;stroke-width:2;stroke-miterlimit:4;stroke-dasharray:none" />
        </g>
        <g transform="rotate(-5.5985408,105.77804,103.3094)" id="g986" inkscape:label="cloud-mid">
            <circle style="fill:url(#linearGradient927);fill-opacity:1;stroke:none;stroke-width:0.5291667;stroke-miterlimit:4;stroke-dasharray:none" id="circle925" cx="18.142857" cy="48.758945" r="10.96131" />
            <circle style="fill:url(#linearGradient988);fill-opacity:1;stroke:none;stroke-width:0.5291667;stroke-miterlimit:4;stroke-dasharray:none" id="path883" cx="33.590626" cy="25.362263" r="10.96131" transform="rotate(19.112972)" />
            <circle r="10.96131" cy="33.261921" cx="36.852676" id="circle901" style="fill:url(#linearGradient903);fill-opacity:1;stroke:none;stroke-width:0.5291667;stroke-miterlimit:4;stroke-dasharray:none" />
            <circle r="10.96131" cy="50.081852" cx="37.797619" id="circle893" style="fill:url(#linearGradient895);fill-opacity:1;stroke:none;stroke-width:0.5291667;stroke-miterlimit:4;stroke-dasharray:none" />
            <circle style="fill:url(#linearGradient899);fill-opacity:1;stroke:none;stroke-width:0.5291667;stroke-miterlimit:4;stroke-dasharray:none" id="circle897" cx="20.221725" cy="64.066971" r="10.96131" />
            <circle style="fill:url(#linearGradient907);fill-opacity:1;stroke:none;stroke-width:0.5291667;stroke-miterlimit:4;stroke-dasharray:none" id="circle905" cx="42.766266" cy="34.62431" r="10.96131" transform="rotate(25.144784)" />
            <circle r="10.96131" cy="-35.082691" cx="60.929516" id="circle913" style="fill:url(#linearGradient915);fill-opacity:1;stroke:none;stroke-width:0.5291667;stroke-miterlimit:4;stroke-dasharray:none" transform="rotate(95.98612)" />
            <circle r="10.96131" cy="-0.3342357" cx="68.78801" id="circle909" style="fill:url(#linearGradient911);fill-opacity:1;stroke:none;stroke-width:0.5291667;stroke-miterlimit:4;stroke-dasharray:none" transform="rotate(55.234799)" />
            <circle r="10.96131" cy="79.564003" cx="17.953873" id="circle921" style="fill:url(#linearGradient923);fill-opacity:1;stroke:none;stroke-width:0.5291667;stroke-miterlimit:4;stroke-dasharray:none" />
            <circle r="10.96131" cy="40.821438" cx="45.546127" id="circle929" style="fill:url(#linearGradient940);fill-opacity:1;stroke:none;stroke-width:0.5291667;stroke-miterlimit:4;stroke-dasharray:none" />
            <circle r="10.96131" cy="1.9667993" cx="74.745865" id="circle942" style="fill:url(#linearGradient944);fill-opacity:1;stroke:none;stroke-width:0.5291667;stroke-miterlimit:4;stroke-dasharray:none" transform="rotate(36.202587)" />
            <circle r="10.96131" cy="53.483643" cx="51.215775" id="circle934" style="fill:url(#linearGradient936);fill-opacity:1;stroke:none;stroke-width:0.5291667;stroke-miterlimit:4;stroke-dasharray:none" />
            <path style="fill:none;fill-opacity:1;stroke:#333333;stroke-width:2;stroke-miterlimit:4;stroke-dasharray:none" d="m 139.28516,84.285156 a 41.428574,41.428574 0 0 0 -29.43555,12.324219 41.428574,41.428574 0 0 0 -7.71289,-3.611328 41.428574,41.428574 0 0 0 -52.710939,25.580073 41.428574,41.428574 0 0 0 0.619141,28.66797 41.428574,41.428574 0 0 0 -22.902344,37.03907 41.428574,41.428574 0 0 0 16.302734,32.875 A 41.428574,41.428574 0 0 0 35,242.14258 a 41.428574,41.428574 0 0 0 8.517578,25.10937 41.428574,41.428574 0 0 0 -17.089844,33.46289 41.428574,41.428574 0 0 0 41.429688,41.42774 41.428574,41.428574 0 0 0 41.427738,-41.42774 41.428574,41.428574 0 0 0 -3.47852,-16.49804 41.428574,41.428574 0 0 0 41.85352,-30.01368 41.428574,41.428574 0 0 0 25.24804,-7.3125 41.428574,41.428574 0 0 0 6.64453,-5.81835 41.428574,41.428574 0 0 0 14.01954,2.5 41.428574,41.428574 0 0 0 39.91211,-30.49415 41.428574,41.428574 0 0 0 23.51757,-15.75195 41.428574,41.428574 0 0 0 -8.96093,-57.89844 41.428574,41.428574 0 0 0 -39.63086,-5.07421 41.428574,41.428574 0 0 0 -29.59961,-20.90625 41.428574,41.428574 0 0 0 -39.52539,-29.162114 z" transform="scale(0.26458334)" id="circle946" />
        </g>
        <g id="g864" transform="matrix(1,0,0,1.0684685,0,-2.3200678)" inkscape:label="cloud-front">
            <circle r="5.3861609" style="fill:#cccccc;stroke:none;stroke-width:0.26458335" id="circle850" cx="45.28157" cy="69.925598" />
            <path id="path852" d="m 12.954368,96.788893 65.347377,-0.640012 7.879103,-1.344542 c 1.144097,-1.552557 1.967892,-1.042031 0.641457,-3.26038 -1.174473,-1.964204 -21.260969,-5.83479 -24.989701,-4.171861 -2.592509,1.156198 -4.216357,1.953365 -6.815373,2.532916 -3.883433,0.86596 -10.087805,0.261645 -13.229842,-1.489951 -3.152554,-1.757458 -8.915593,2.515997 -11.626225,3.724877 -8.348822,3.723383 -8.504339,-5.90242 -17.206796,4.648953 z" style="fill:#b3b3b3;stroke:#b3b3b3;stroke-width:0.25454965px;stroke-linecap:butt;stroke-linejoin:miter;stroke-opacity:1" />
            <ellipse ry="10.297688" rx="9.260417" cy="86.598907" cx="13.418156" id="ellipse854" style="fill:url(#linearGradient1289);fill-opacity:1;stroke:none;stroke-width:0.27900827" />
            <ellipse ry="13.801561" rx="11.90625" cy="81.674347" cx="29.482145" id="ellipse856" style="fill:url(#linearGradient1254);fill-opacity:1;stroke:none;stroke-width:0.36625502" />
            <ellipse style="fill:url(#linearGradient1258);fill-opacity:1;stroke:none;stroke-width:0.49882829" id="ellipse858" cx="49.514885" cy="76.195877" rx="15.308036" ry="19.912176" />
            <ellipse ry="27.174213" rx="23.434525" cy="69.129578" cx="79.18602" id="ellipse860" style="fill:url(#linearGradient1262);fill-opacity:1;stroke:none;stroke-width:0.72100538" />
            <path id="path862" d="m 79.185864,41.955581 c -9.616564,0.01085 -18.251336,6.833189 -21.77851,17.207217 -2.380739,-1.875044 -5.109417,-2.87036 -7.89254,-2.878894 -6.468011,0.01097 -12.232739,5.308628 -14.40171,13.234853 -1.731091,-1.07901 -3.665699,-1.644462 -5.631183,-1.645897 -5.257817,0.0027 -9.891629,4.002778 -11.400337,9.841262 -1.414552,-0.921681 -3.023792,-1.409232 -4.663281,-1.412835 -5.1143433,0 -9.2603551,4.610355 -9.2604172,10.297562 6.11e-5,5.687207 4.1460732,10.297564 9.2604172,10.297564 0.467098,-0.0027 0.933345,-0.04466 1.394747,-0.12557 l 62.007074,-0.60772 c 0.786032,0.09307 1.575621,0.139983 2.36574,0.14056 12.942563,1.42e-4 23.434666,-12.166111 23.434746,-27.174052 -8e-5,-15.00794 -10.492184,-27.174192 -23.434746,-27.17405 z" style="display:inline;fill:none;stroke:#333333;stroke-width:0.5291667;stroke-miterlimit:4;stroke-dasharray:none" />
        </g>
    </g>
</svg>
