<?xml version="1.0" encoding="UTF-8" standalone="no"?>
<!-- Created with Inkscape (http://www.inkscape.org/) -->

<svg
   xmlns:dc="http://purl.org/dc/elements/1.1/"
   xmlns:cc="http://creativecommons.org/ns#"
   xmlns:rdf="http://www.w3.org/1999/02/22-rdf-syntax-ns#"
   xmlns:svg="http://www.w3.org/2000/svg"
   xmlns="http://www.w3.org/2000/svg"
   xmlns:xlink="http://www.w3.org/1999/xlink"
   xmlns:sodipodi="http://sodipodi.sourceforge.net/DTD/sodipodi-0.dtd"
   xmlns:inkscape="http://www.inkscape.org/namespaces/inkscape"
   width="400"
   height="400"
   viewBox="0 0 105.83333 105.83334"
   version="1.1"
   id="svg8"
   inkscape:version="0.92.5 (2060ec1f9f, 2020-04-08)"
   sodipodi:docname="sky_sun_mostly.svg">
  <defs
     id="defs2">
    <inkscape:path-effect
       effect="spiro"
       id="path-effect871"
       is_visible="true" />
    <radialGradient
       inkscape:collect="always"
       xlink:href="#linearGradient1806"
       id="radialGradient1808"
       cx="52.916668"
       cy="244.08331"
       fx="52.916668"
       fy="244.08331"
       r="34.584824"
       gradientUnits="userSpaceOnUse"
       gradientTransform="matrix(3.0904541e-8,-1.0047105,1,4.6298087e-7,-191.16665,106.08248)" />
    <linearGradient
       inkscape:collect="always"
       id="linearGradient1806">
      <stop
         style="stop-color:#ffff00;stop-opacity:1"
         offset="0"
         id="stop1802" />
      <stop
         id="stop1810"
         offset="0.61815721"
         style="stop-color:#fff017;stop-opacity:1;" />
      <stop
         style="stop-color:#ffd300;stop-opacity:1"
         offset="1"
         id="stop1804" />
    </linearGradient>
  </defs>
  <sodipodi:namedview
     id="base"
     pagecolor="#ffffff"
     bordercolor="#666666"
     borderopacity="1.0"
     inkscape:pageopacity="0.0"
     inkscape:pageshadow="2"
     inkscape:zoom="0.5"
     inkscape:cx="-665.12946"
     inkscape:cy="203.56135"
     inkscape:document-units="px"
     inkscape:current-layer="layer2"
     showgrid="false"
     units="px"
     showguides="true"
     inkscape:guide-bbox="true"
     guidetolerance="10"
     inkscape:window-width="1920"
     inkscape:window-height="1013"
     inkscape:window-x="-9"
     inkscape:window-y="-9"
     inkscape:window-maximized="1">
    <sodipodi:guide
       position="52.916668,52.916668"
       orientation="1,0"
       id="guide3723"
       inkscape:locked="false"
       inkscape:label=""
       inkscape:color="rgb(0,0,255)" />
    <sodipodi:guide
       position="52.916668,52.916668"
       orientation="0,1"
       id="guide3725"
       inkscape:locked="false"
       inkscape:label=""
       inkscape:color="rgb(0,0,255)" />
  </sodipodi:namedview>
  <metadata
     id="metadata5">
    <rdf:RDF>
      <cc:Work
         rdf:about="">
        <dc:format>image/svg+xml</dc:format>
        <dc:type
           rdf:resource="http://purl.org/dc/dcmitype/StillImage" />
        <dc:title />
      </cc:Work>
    </rdf:RDF>
  </metadata>
  <g
     inkscape:groupmode="layer"
     id="layer1"
     inkscape:label="sun">
    <path
       sodipodi:type="star"
       style="opacity:1;fill:#ffff00;fill-opacity:1;stroke:none;stroke-width:0.12462202;stroke-miterlimit:4;stroke-dasharray:none;stroke-opacity:1;paint-order:normal"
       id="path1812"
       sodipodi:sides="32"
       sodipodi:cx="52.916668"
       sodipodi:cy="52.916668"
       sodipodi:r1="35.701988"
       sodipodi:r2="43.014442"
       sodipodi:arg1="1.0471976"
       sodipodi:arg2="1.1453724"
       inkscape:flatsided="false"
       inkscape:rounded="0.03"
       inkscape:randomized="0"
       d="m 70.767661,83.835498 c -0.214655,0.12393 0.127135,8.159177 -0.09863,8.261471 -0.225769,0.102294 -6.041626,-5.452685 -6.276334,-5.373012 -0.234708,0.07967 -1.467084,8.027203 -1.70847,8.083487 -0.241387,0.05628 -4.861772,-6.526576 -5.107513,-6.494223 -0.245742,0.03235 -3.004924,7.586749 -3.252653,7.594859 -0.247729,0.0081 -3.495082,-7.349654 -3.742414,-7.365865 -0.247331,-0.01621 -4.427286,6.854741 -4.671837,6.814365 -0.244552,-0.04037 -1.994079,-7.890289 -2.233495,-7.95444 -0.239416,-0.06415 -5.679511,5.859308 -5.911487,5.771998 -0.231975,-0.08731 -0.416444,-8.127704 -0.638744,-8.237331 -0.222301,-0.109626 -6.713475,4.638705 -6.92396,4.507818 -0.210485,-0.130888 1.177194,-8.052778 0.980552,-8.203667 -0.196642,-0.150888 -7.489444,3.23984 -7.670349,3.070404 -0.180906,-0.169437 2.725593,-7.668386 2.562167,-7.854739 -0.163427,-0.186352 -7.977598,1.716469 -8.121972,1.514996 -0.144374,-0.201474 4.16925,-6.989304 4.045319,-7.203958 -0.123931,-0.214655 -8.159177,0.127135 -8.261471,-0.09863 -0.102294,-0.225769 5.452685,-6.041626 5.373012,-6.276334 -0.07967,-0.234708 -8.027204,-1.467084 -8.083487,-1.70847 -0.05628,-0.241387 6.526575,-4.861772 6.494223,-5.107513 -0.03235,-0.245742 -7.5867493,-3.004924 -7.5948591,-3.252653 -0.00811,-0.247729 7.3496541,-3.495082 7.3658651,-3.742414 0.01621,-0.247331 -6.854741,-4.427286 -6.814365,-4.671837 0.04037,-0.244552 7.890289,-1.994079 7.95444,-2.233495 0.06415,-0.239416 -5.859308,-5.679511 -5.771998,-5.911487 0.08731,-0.231975 8.127704,-0.416444 8.237331,-0.638744 0.109626,-0.222301 -4.638706,-6.713475 -4.507818,-6.92396 0.130888,-0.210485 8.052778,1.177194 8.203666,0.980552 0.150889,-0.196642 -3.239839,-7.489444 -3.070403,-7.670349 0.169437,-0.180906 7.668386,2.725593 7.854739,2.562167 0.186352,-0.163427 -1.716469,-7.977598 -1.514996,-8.121972 0.201474,-0.144374 6.989304,4.16925 7.203958,4.045319 0.214655,-0.123931 -0.127135,-8.159177 0.09863,-8.261471 0.225769,-0.102294 6.041626,5.452685 6.276334,5.373012 0.234707,-0.07967 1.467083,-8.027204 1.70847,-8.083487 0.241387,-0.05628 4.861772,6.526575 5.107513,6.494223 0.245741,-0.03235 3.004924,-7.5867493 3.252653,-7.5948591 0.247729,-0.00811 3.495082,7.3496541 3.742413,7.3658651 0.247332,0.01621 4.427287,-6.854741 4.671838,-6.814365 0.244551,0.04037 1.994079,7.890289 2.233495,7.95444 0.239416,0.06415 5.679511,-5.859308 5.911487,-5.771998 0.231975,0.08731 0.416444,8.127704 0.638744,8.237331 0.222301,0.109626 6.713475,-4.638706 6.92396,-4.507818 0.210485,0.130888 -1.177194,8.052778 -0.980552,8.203666 0.196642,0.150889 7.489444,-3.239839 7.670349,-3.070403 0.180906,0.169437 -2.725594,7.668386 -2.562167,7.854739 0.163427,0.186352 7.977598,-1.716469 8.121972,-1.514996 0.144374,0.201474 -4.16925,6.989304 -4.045319,7.203958 0.12393,0.214655 8.159177,-0.127135 8.261471,0.09863 0.102294,0.225769 -5.452685,6.041626 -5.373012,6.276334 0.07967,0.234707 8.027203,1.467083 8.083487,1.70847 0.05628,0.241387 -6.526576,4.861772 -6.494223,5.107513 0.03235,0.245741 7.586749,3.004924 7.594859,3.252653 0.0081,0.247729 -7.349654,3.495082 -7.365865,3.742413 -0.01621,0.247332 6.854741,4.427287 6.814365,4.671838 -0.04037,0.244551 -7.890289,1.994079 -7.95444,2.233495 -0.06415,0.239416 5.859308,5.679511 5.771998,5.911487 -0.08731,0.231975 -8.127704,0.416444 -8.237331,0.638744 -0.109626,0.222301 4.638705,6.713475 4.507818,6.92396 -0.130888,0.210485 -8.052778,-1.177194 -8.203667,-0.980552 -0.150888,0.196642 3.23984,7.489444 3.070404,7.670349 -0.169437,0.180906 -7.668386,-2.725594 -7.854739,-2.562167 -0.186352,0.163427 1.716469,7.977598 1.514996,8.121972 -0.201474,0.144374 -6.989304,-4.16925 -7.203958,-4.045319 z" />
    <circle
       style="display:inline;fill:url(#radialGradient1808);fill-opacity:1;stroke:none;stroke-width:0.13229167;stroke-miterlimit:4;stroke-dasharray:none"
       id="path3727"
       cx="52.916668"
       cy="52.916664"
       r="34.584824" />
  </g>
  <g
     inkscape:groupmode="layer"
     id="layer2"
     inkscape:label="clouds">
    <g
       id="g834">
      <path
         inkscape:connector-curvature="0"
         id="path893"
         d="m 12.208578,71.044313 a 3.3855385,5.609076 68.941996 0 0 -6.8568902,3.74758 3.3855385,5.609076 68.941996 0 0 3.2777922,3.747581 3.3855385,5.609076 68.941996 0 0 4.665491,-1.43496 3.3855385,5.609076 68.941996 0 0 3.299904,1.43496 3.3855385,5.609076 68.941996 0 0 4.665318,-1.434602 3.3855385,5.609076 68.941996 0 0 3.300077,1.434602 3.3855385,5.609076 68.941996 0 0 4.665317,-1.434602 3.3855385,5.609076 68.941996 0 0 3.300078,1.434602 3.3855385,5.609076 68.941996 0 0 4.665317,-1.434602 3.3855385,5.609076 68.941996 0 0 3.300077,1.434602 3.3855385,5.609076 68.941996 0 0 4.665317,-1.434602 3.3855385,5.609076 68.941996 0 0 3.300078,1.434602 3.3855385,5.609076 68.941996 0 0 6.856889,-3.747581 3.3855385,5.609076 68.941996 0 0 -3.277791,-3.74758 3.3855385,5.609076 68.941996 0 0 -4.664832,1.434601 3.3855385,5.609076 68.941996 0 0 -3.300563,-1.434601 3.3855385,5.609076 68.941996 0 0 -4.664832,1.434601 3.3855385,5.609076 68.941996 0 0 -3.300562,-1.434601 3.3855385,5.609076 68.941996 0 0 -4.664833,1.434601 3.3855385,5.609076 68.941996 0 0 -3.300561,-1.434601 3.3855385,5.609076 68.941996 0 0 -4.664834,1.434601 3.3855385,5.609076 68.941996 0 0 -3.300562,-1.434601 3.3855385,5.609076 68.941996 0 0 -4.664833,1.434601 3.3855385,5.609076 68.941996 0 0 -3.300562,-1.434601 z"
         style="fill:#e6e6e6;stroke:#333333;stroke-width:0.5291667;stroke-miterlimit:4;stroke-dasharray:none" />
      <path
         inkscape:connector-curvature="0"
         id="path893-8"
         d="m 57.093326,26.868491 a 3.3855385,5.609076 68.941996 0 0 -6.856891,3.74758 3.3855385,5.609076 68.941996 0 0 3.277793,3.747582 3.3855385,5.609076 68.941996 0 0 4.665491,-1.434961 3.3855385,5.609076 68.941996 0 0 3.299903,1.434961 3.3855385,5.609076 68.941996 0 0 4.665318,-1.434603 3.3855385,5.609076 68.941996 0 0 3.300077,1.434603 3.3855385,5.609076 68.941996 0 0 4.665317,-1.434603 3.3855385,5.609076 68.941996 0 0 3.300078,1.434603 3.3855385,5.609076 68.941996 0 0 4.665318,-1.434603 3.3855385,5.609076 68.941996 0 0 3.300077,1.434603 3.3855385,5.609076 68.941996 0 0 4.665316,-1.434603 3.3855385,5.609076 68.941996 0 0 3.300079,1.434603 3.3855385,5.609076 68.941996 0 0 6.856888,-3.747582 3.3855385,5.609076 68.941996 0 0 -3.27779,-3.74758 3.3855385,5.609076 68.941996 0 0 -4.664832,1.434601 3.3855385,5.609076 68.941996 0 0 -3.300563,-1.434601 3.3855385,5.609076 68.941996 0 0 -4.664832,1.434601 3.3855385,5.609076 68.941996 0 0 -3.300563,-1.434601 3.3855385,5.609076 68.941996 0 0 -4.664832,1.434601 3.3855385,5.609076 68.941996 0 0 -3.300562,-1.434601 3.3855385,5.609076 68.941996 0 0 -4.664833,1.434601 3.3855385,5.609076 68.941996 0 0 -3.300563,-1.434601 3.3855385,5.609076 68.941996 0 0 -4.664833,1.434601 3.3855385,5.609076 68.941996 0 0 -3.300561,-1.434601 z"
         style="fill:#e6e6e6;stroke:#333333;stroke-width:0.5291667;stroke-miterlimit:4;stroke-dasharray:none" />
    </g>
  </g>
</svg>
