<?xml version="1.0" encoding="UTF-8" standalone="no"?>
<!-- Created with Inkscape (http://www.inkscape.org/) -->

<svg
   xmlns:dc="http://purl.org/dc/elements/1.1/"
   xmlns:cc="http://creativecommons.org/ns#"
   xmlns:rdf="http://www.w3.org/1999/02/22-rdf-syntax-ns#"
   xmlns:svg="http://www.w3.org/2000/svg"
   xmlns="http://www.w3.org/2000/svg"
   xmlns:xlink="http://www.w3.org/1999/xlink"
   xmlns:sodipodi="http://sodipodi.sourceforge.net/DTD/sodipodi-0.dtd"
   xmlns:inkscape="http://www.inkscape.org/namespaces/inkscape"
   width="400"
   height="400"
   viewBox="0 0 105.83333 105.83334"
   version="1.1"
   id="svg8"
   inkscape:version="0.92.3 (2405546, 2018-03-11)"
   sodipodi:docname="cloudy_overcast.svg">
  <defs
     id="defs2">
    <linearGradient
       inkscape:collect="always"
       id="linearGradient889">
      <stop
         style="stop-color:#cccccc;stop-opacity:1;"
         offset="0"
         id="stop885" />
      <stop
         style="stop-color:#ececec;stop-opacity:1"
         offset="1"
         id="stop887" />
    </linearGradient>
    <linearGradient
       inkscape:collect="always"
       id="linearGradient1236">
      <stop
         style="stop-color:#b3b3b3;stop-opacity:1;"
         offset="0"
         id="stop1232" />
      <stop
         style="stop-color:#e6e6e6;stop-opacity:1"
         offset="1"
         id="stop1234" />
    </linearGradient>
    <inkscape:path-effect
       effect="spiro"
       id="path-effect871"
       is_visible="true" />
    <linearGradient
       inkscape:collect="always"
       xlink:href="#linearGradient1236"
       id="linearGradient1254"
       gradientUnits="userSpaceOnUse"
       x1="8.6934528"
       y1="90.525299"
       x2="8.6934528"
       y2="82.398811"
       gradientTransform="matrix(1.2857143,0,0,1.4903823,17.332908,-48.172989)" />
    <linearGradient
       inkscape:collect="always"
       xlink:href="#linearGradient1236"
       id="linearGradient1258"
       gradientUnits="userSpaceOnUse"
       gradientTransform="matrix(1.6530613,0,0,2.1502462,33.894435,-111.14114)"
       x1="8.6934528"
       y1="90.525299"
       x2="8.6934528"
       y2="82.398811" />
    <linearGradient
       inkscape:collect="always"
       xlink:href="#linearGradient1236"
       id="linearGradient1262"
       gradientUnits="userSpaceOnUse"
       gradientTransform="matrix(2.5306123,0,0,2.9344482,55.273228,-186.52986)"
       x1="8.6934528"
       y1="90.525299"
       x2="8.6934528"
       y2="82.398811" />
    <linearGradient
       inkscape:collect="always"
       xlink:href="#linearGradient1236"
       id="linearGradient1289"
       gradientUnits="userSpaceOnUse"
       x1="8.6934528"
       y1="90.525299"
       x2="8.6934528"
       y2="82.398811"
       gradientTransform="matrix(1,0,0,1.1120113,3.9687501,-10.283414)" />
    <linearGradient
       inkscape:collect="always"
       xlink:href="#linearGradient889"
       id="linearGradient891"
       x1="-21.355656"
       y1="71.4375"
       x2="-20.977678"
       y2="56.885418"
       gradientUnits="userSpaceOnUse"
       gradientTransform="translate(54.379317,-38.51572)" />
    <linearGradient
       inkscape:collect="always"
       xlink:href="#linearGradient889"
       id="linearGradient895"
       gradientUnits="userSpaceOnUse"
       gradientTransform="translate(58.58631,-13.796131)"
       x1="-21.355656"
       y1="71.4375"
       x2="-20.977678"
       y2="56.885418" />
    <linearGradient
       inkscape:collect="always"
       xlink:href="#linearGradient889"
       id="linearGradient899"
       gradientUnits="userSpaceOnUse"
       gradientTransform="translate(41.010418,0.18898912)"
       x1="-21.355656"
       y1="71.4375"
       x2="-20.977678"
       y2="56.885418" />
    <linearGradient
       inkscape:collect="always"
       xlink:href="#linearGradient889"
       id="linearGradient903"
       gradientUnits="userSpaceOnUse"
       gradientTransform="translate(57.641369,-30.616071)"
       x1="-21.355656"
       y1="71.4375"
       x2="-20.977678"
       y2="56.885418" />
    <linearGradient
       inkscape:collect="always"
       xlink:href="#linearGradient889"
       id="linearGradient907"
       gradientUnits="userSpaceOnUse"
       gradientTransform="translate(63.554957,-29.25368)"
       x1="-21.355656"
       y1="71.4375"
       x2="-20.977678"
       y2="56.885418" />
    <linearGradient
       inkscape:collect="always"
       xlink:href="#linearGradient889"
       id="linearGradient911"
       gradientUnits="userSpaceOnUse"
       gradientTransform="translate(89.576702,-64.212225)"
       x1="-21.355656"
       y1="71.4375"
       x2="-20.977678"
       y2="56.885418" />
    <linearGradient
       inkscape:collect="always"
       xlink:href="#linearGradient889"
       id="linearGradient915"
       gradientUnits="userSpaceOnUse"
       gradientTransform="translate(81.718206,-98.96068)"
       x1="-21.355656"
       y1="71.4375"
       x2="-20.977678"
       y2="56.885418" />
    <linearGradient
       inkscape:collect="always"
       xlink:href="#linearGradient889"
       id="linearGradient923"
       gradientUnits="userSpaceOnUse"
       gradientTransform="translate(38.742559,15.686013)"
       x1="-21.355656"
       y1="71.4375"
       x2="-20.977678"
       y2="56.885418" />
    <linearGradient
       inkscape:collect="always"
       xlink:href="#linearGradient889"
       id="linearGradient927"
       gradientUnits="userSpaceOnUse"
       gradientTransform="translate(38.931549,-15.119047)"
       x1="-21.355656"
       y1="71.4375"
       x2="-20.977678"
       y2="56.885418" />
    <linearGradient
       inkscape:collect="always"
       xlink:href="#linearGradient889"
       id="linearGradient936"
       gradientUnits="userSpaceOnUse"
       gradientTransform="translate(72.004466,-10.394345)"
       x1="-21.355656"
       y1="71.4375"
       x2="-20.977678"
       y2="56.885418" />
    <linearGradient
       inkscape:collect="always"
       xlink:href="#linearGradient889"
       id="linearGradient940"
       gradientUnits="userSpaceOnUse"
       gradientTransform="translate(66.334822,-23.056548)"
       x1="-21.355656"
       y1="71.4375"
       x2="-20.977678"
       y2="56.885418" />
    <linearGradient
       inkscape:collect="always"
       xlink:href="#linearGradient889"
       id="linearGradient944"
       gradientUnits="userSpaceOnUse"
       gradientTransform="translate(95.534553,-61.911189)"
       x1="-21.355656"
       y1="71.4375"
       x2="-20.977678"
       y2="56.885418" />
    <linearGradient
       inkscape:collect="always"
       xlink:href="#linearGradient889"
       id="linearGradient988"
       gradientUnits="userSpaceOnUse"
       gradientTransform="translate(54.379317,-38.51572)"
       x1="-21.355656"
       y1="71.4375"
       x2="-20.977678"
       y2="56.885418" />
    <linearGradient
       inkscape:collect="always"
       xlink:href="#linearGradient889"
       id="linearGradient1118"
       gradientUnits="userSpaceOnUse"
       gradientTransform="translate(38.931549,-15.119047)"
       x1="-21.355656"
       y1="71.4375"
       x2="-20.977678"
       y2="56.885418" />
    <linearGradient
       inkscape:collect="always"
       xlink:href="#linearGradient889"
       id="linearGradient1120"
       gradientUnits="userSpaceOnUse"
       gradientTransform="translate(54.379317,-38.51572)"
       x1="-21.355656"
       y1="71.4375"
       x2="-20.977678"
       y2="56.885418" />
    <linearGradient
       inkscape:collect="always"
       xlink:href="#linearGradient889"
       id="linearGradient1122"
       gradientUnits="userSpaceOnUse"
       gradientTransform="translate(57.641369,-30.616071)"
       x1="-21.355656"
       y1="71.4375"
       x2="-20.977678"
       y2="56.885418" />
    <linearGradient
       inkscape:collect="always"
       xlink:href="#linearGradient889"
       id="linearGradient1124"
       gradientUnits="userSpaceOnUse"
       gradientTransform="translate(58.58631,-13.796131)"
       x1="-21.355656"
       y1="71.4375"
       x2="-20.977678"
       y2="56.885418" />
    <linearGradient
       inkscape:collect="always"
       xlink:href="#linearGradient889"
       id="linearGradient1126"
       gradientUnits="userSpaceOnUse"
       gradientTransform="translate(41.010418,0.18898912)"
       x1="-21.355656"
       y1="71.4375"
       x2="-20.977678"
       y2="56.885418" />
    <linearGradient
       inkscape:collect="always"
       xlink:href="#linearGradient889"
       id="linearGradient1128"
       gradientUnits="userSpaceOnUse"
       gradientTransform="translate(63.554957,-29.25368)"
       x1="-21.355656"
       y1="71.4375"
       x2="-20.977678"
       y2="56.885418" />
    <linearGradient
       inkscape:collect="always"
       xlink:href="#linearGradient889"
       id="linearGradient1130"
       gradientUnits="userSpaceOnUse"
       gradientTransform="translate(81.718206,-98.96068)"
       x1="-21.355656"
       y1="71.4375"
       x2="-20.977678"
       y2="56.885418" />
    <linearGradient
       inkscape:collect="always"
       xlink:href="#linearGradient889"
       id="linearGradient1132"
       gradientUnits="userSpaceOnUse"
       gradientTransform="translate(89.576702,-64.212225)"
       x1="-21.355656"
       y1="71.4375"
       x2="-20.977678"
       y2="56.885418" />
    <linearGradient
       inkscape:collect="always"
       xlink:href="#linearGradient889"
       id="linearGradient1134"
       gradientUnits="userSpaceOnUse"
       gradientTransform="translate(38.742559,15.686013)"
       x1="-21.355656"
       y1="71.4375"
       x2="-20.977678"
       y2="56.885418" />
    <linearGradient
       inkscape:collect="always"
       xlink:href="#linearGradient889"
       id="linearGradient1136"
       gradientUnits="userSpaceOnUse"
       gradientTransform="translate(66.334822,-23.056548)"
       x1="-21.355656"
       y1="71.4375"
       x2="-20.977678"
       y2="56.885418" />
    <linearGradient
       inkscape:collect="always"
       xlink:href="#linearGradient889"
       id="linearGradient1138"
       gradientUnits="userSpaceOnUse"
       gradientTransform="translate(95.534553,-61.911189)"
       x1="-21.355656"
       y1="71.4375"
       x2="-20.977678"
       y2="56.885418" />
    <linearGradient
       inkscape:collect="always"
       xlink:href="#linearGradient889"
       id="linearGradient1140"
       gradientUnits="userSpaceOnUse"
       gradientTransform="translate(72.004466,-10.394345)"
       x1="-21.355656"
       y1="71.4375"
       x2="-20.977678"
       y2="56.885418" />
  </defs>
  <sodipodi:namedview
     id="base"
     pagecolor="#ffffff"
     bordercolor="#666666"
     borderopacity="1.0"
     inkscape:pageopacity="0.0"
     inkscape:pageshadow="2"
     inkscape:zoom="1.4"
     inkscape:cx="173.50782"
     inkscape:cy="179.87544"
     inkscape:document-units="px"
     inkscape:current-layer="layer4"
     showgrid="false"
     units="px"
     showguides="true"
     inkscape:guide-bbox="true"
     guidetolerance="10"
     inkscape:window-width="1366"
     inkscape:window-height="715"
     inkscape:window-x="-8"
     inkscape:window-y="-8"
     inkscape:window-maximized="1">
    <sodipodi:guide
       position="52.916668,52.916668"
       orientation="1,0"
       id="guide3723"
       inkscape:locked="false"
       inkscape:label=""
       inkscape:color="rgb(0,0,255)" />
    <sodipodi:guide
       position="52.916668,52.916668"
       orientation="0,1"
       id="guide3725"
       inkscape:locked="false"
       inkscape:label=""
       inkscape:color="rgb(0,0,255)" />
  </sodipodi:namedview>
  <metadata
     id="metadata5">
    <rdf:RDF>
      <cc:Work
         rdf:about="">
        <dc:format>image/svg+xml</dc:format>
        <dc:type
           rdf:resource="http://purl.org/dc/dcmitype/StillImage" />
        <dc:title></dc:title>
      </cc:Work>
    </rdf:RDF>
  </metadata>
  <g
     inkscape:groupmode="layer"
     id="layer4"
     inkscape:label="more clouds">
    <g
       transform="rotate(79.989845,54.179514,68.239267)"
       id="g1116">
      <circle
         style="fill:url(#linearGradient1118);fill-opacity:1;stroke:none;stroke-width:0.5291667;stroke-miterlimit:4;stroke-dasharray:none"
         id="circle1090"
         cx="18.142857"
         cy="48.758945"
         r="10.96131" />
      <circle
         style="fill:url(#linearGradient1120);fill-opacity:1;stroke:none;stroke-width:0.5291667;stroke-miterlimit:4;stroke-dasharray:none"
         id="circle1092"
         cx="33.590626"
         cy="25.362263"
         r="10.96131"
         transform="rotate(19.112972)" />
      <circle
         r="10.96131"
         cy="33.261921"
         cx="36.852676"
         id="circle1094"
         style="fill:url(#linearGradient1122);fill-opacity:1;stroke:none;stroke-width:0.5291667;stroke-miterlimit:4;stroke-dasharray:none" />
      <circle
         r="10.96131"
         cy="50.081852"
         cx="37.797619"
         id="circle1096"
         style="fill:url(#linearGradient1124);fill-opacity:1;stroke:none;stroke-width:0.5291667;stroke-miterlimit:4;stroke-dasharray:none" />
      <circle
         style="fill:url(#linearGradient1126);fill-opacity:1;stroke:none;stroke-width:0.5291667;stroke-miterlimit:4;stroke-dasharray:none"
         id="circle1098"
         cx="20.221725"
         cy="64.066971"
         r="10.96131" />
      <circle
         style="fill:url(#linearGradient1128);fill-opacity:1;stroke:none;stroke-width:0.5291667;stroke-miterlimit:4;stroke-dasharray:none"
         id="circle1100"
         cx="42.766266"
         cy="34.62431"
         r="10.96131"
         transform="rotate(25.144784)" />
      <circle
         r="10.96131"
         cy="-35.082691"
         cx="60.929516"
         id="circle1102"
         style="fill:url(#linearGradient1130);fill-opacity:1;stroke:none;stroke-width:0.5291667;stroke-miterlimit:4;stroke-dasharray:none"
         transform="rotate(95.98612)" />
      <circle
         r="10.96131"
         cy="-0.3342357"
         cx="68.78801"
         id="circle1104"
         style="fill:url(#linearGradient1132);fill-opacity:1;stroke:none;stroke-width:0.5291667;stroke-miterlimit:4;stroke-dasharray:none"
         transform="rotate(55.234799)" />
      <circle
         r="10.96131"
         cy="79.564003"
         cx="17.953873"
         id="circle1106"
         style="fill:url(#linearGradient1134);fill-opacity:1;stroke:none;stroke-width:0.5291667;stroke-miterlimit:4;stroke-dasharray:none" />
      <circle
         r="10.96131"
         cy="40.821438"
         cx="45.546127"
         id="circle1108"
         style="fill:url(#linearGradient1136);fill-opacity:1;stroke:none;stroke-width:0.5291667;stroke-miterlimit:4;stroke-dasharray:none" />
      <circle
         r="10.96131"
         cy="1.9667993"
         cx="74.745865"
         id="circle1110"
         style="fill:url(#linearGradient1138);fill-opacity:1;stroke:none;stroke-width:0.5291667;stroke-miterlimit:4;stroke-dasharray:none"
         transform="rotate(36.202587)" />
      <circle
         r="10.96131"
         cy="53.483643"
         cx="51.215775"
         id="circle1112"
         style="fill:url(#linearGradient1140);fill-opacity:1;stroke:none;stroke-width:0.5291667;stroke-miterlimit:4;stroke-dasharray:none" />
      <path
         inkscape:connector-curvature="0"
         style="fill:none;fill-opacity:1;stroke:#333333;stroke-width:2;stroke-miterlimit:4;stroke-dasharray:none"
         d="m 139.28516,84.285156 a 41.428574,41.428574 0 0 0 -29.43555,12.324219 41.428574,41.428574 0 0 0 -7.71289,-3.611328 41.428574,41.428574 0 0 0 -52.710939,25.580073 41.428574,41.428574 0 0 0 0.619141,28.66797 41.428574,41.428574 0 0 0 -22.902344,37.03907 41.428574,41.428574 0 0 0 16.302734,32.875 A 41.428574,41.428574 0 0 0 35,242.14258 a 41.428574,41.428574 0 0 0 8.517578,25.10937 41.428574,41.428574 0 0 0 -17.089844,33.46289 41.428574,41.428574 0 0 0 41.429688,41.42774 41.428574,41.428574 0 0 0 41.427738,-41.42774 41.428574,41.428574 0 0 0 -3.47852,-16.49804 41.428574,41.428574 0 0 0 41.85352,-30.01368 41.428574,41.428574 0 0 0 25.24804,-7.3125 41.428574,41.428574 0 0 0 6.64453,-5.81835 41.428574,41.428574 0 0 0 14.01954,2.5 41.428574,41.428574 0 0 0 39.91211,-30.49415 41.428574,41.428574 0 0 0 23.51757,-15.75195 41.428574,41.428574 0 0 0 -8.96093,-57.89844 41.428574,41.428574 0 0 0 -39.63086,-5.07421 41.428574,41.428574 0 0 0 -29.59961,-20.90625 41.428574,41.428574 0 0 0 -39.52539,-29.162114 z"
         transform="scale(0.26458334)"
         id="path1114" />
    </g>
    <g
       id="g986"
       transform="rotate(-5.5985408,105.77804,103.3094)">
      <circle
         r="10.96131"
         cy="48.758945"
         cx="18.142857"
         id="circle925"
         style="fill:url(#linearGradient927);fill-opacity:1;stroke:none;stroke-width:0.5291667;stroke-miterlimit:4;stroke-dasharray:none" />
      <circle
         transform="rotate(19.112972)"
         r="10.96131"
         cy="25.362263"
         cx="33.590626"
         id="path883"
         style="fill:url(#linearGradient988);fill-opacity:1;stroke:none;stroke-width:0.5291667;stroke-miterlimit:4;stroke-dasharray:none" />
      <circle
         style="fill:url(#linearGradient903);fill-opacity:1;stroke:none;stroke-width:0.5291667;stroke-miterlimit:4;stroke-dasharray:none"
         id="circle901"
         cx="36.852676"
         cy="33.261921"
         r="10.96131" />
      <circle
         style="fill:url(#linearGradient895);fill-opacity:1;stroke:none;stroke-width:0.5291667;stroke-miterlimit:4;stroke-dasharray:none"
         id="circle893"
         cx="37.797619"
         cy="50.081852"
         r="10.96131" />
      <circle
         r="10.96131"
         cy="64.066971"
         cx="20.221725"
         id="circle897"
         style="fill:url(#linearGradient899);fill-opacity:1;stroke:none;stroke-width:0.5291667;stroke-miterlimit:4;stroke-dasharray:none" />
      <circle
         transform="rotate(25.144784)"
         r="10.96131"
         cy="34.62431"
         cx="42.766266"
         id="circle905"
         style="fill:url(#linearGradient907);fill-opacity:1;stroke:none;stroke-width:0.5291667;stroke-miterlimit:4;stroke-dasharray:none" />
      <circle
         transform="rotate(95.98612)"
         style="fill:url(#linearGradient915);fill-opacity:1;stroke:none;stroke-width:0.5291667;stroke-miterlimit:4;stroke-dasharray:none"
         id="circle913"
         cx="60.929516"
         cy="-35.082691"
         r="10.96131" />
      <circle
         transform="rotate(55.234799)"
         style="fill:url(#linearGradient911);fill-opacity:1;stroke:none;stroke-width:0.5291667;stroke-miterlimit:4;stroke-dasharray:none"
         id="circle909"
         cx="68.78801"
         cy="-0.3342357"
         r="10.96131" />
      <circle
         style="fill:url(#linearGradient923);fill-opacity:1;stroke:none;stroke-width:0.5291667;stroke-miterlimit:4;stroke-dasharray:none"
         id="circle921"
         cx="17.953873"
         cy="79.564003"
         r="10.96131" />
      <circle
         style="fill:url(#linearGradient940);fill-opacity:1;stroke:none;stroke-width:0.5291667;stroke-miterlimit:4;stroke-dasharray:none"
         id="circle929"
         cx="45.546127"
         cy="40.821438"
         r="10.96131" />
      <circle
         transform="rotate(36.202587)"
         style="fill:url(#linearGradient944);fill-opacity:1;stroke:none;stroke-width:0.5291667;stroke-miterlimit:4;stroke-dasharray:none"
         id="circle942"
         cx="74.745865"
         cy="1.9667993"
         r="10.96131" />
      <circle
         style="fill:url(#linearGradient936);fill-opacity:1;stroke:none;stroke-width:0.5291667;stroke-miterlimit:4;stroke-dasharray:none"
         id="circle934"
         cx="51.215775"
         cy="53.483643"
         r="10.96131" />
      <path
         id="circle946"
         transform="scale(0.26458334)"
         d="m 139.28516,84.285156 a 41.428574,41.428574 0 0 0 -29.43555,12.324219 41.428574,41.428574 0 0 0 -7.71289,-3.611328 41.428574,41.428574 0 0 0 -52.710939,25.580073 41.428574,41.428574 0 0 0 0.619141,28.66797 41.428574,41.428574 0 0 0 -22.902344,37.03907 41.428574,41.428574 0 0 0 16.302734,32.875 A 41.428574,41.428574 0 0 0 35,242.14258 a 41.428574,41.428574 0 0 0 8.517578,25.10937 41.428574,41.428574 0 0 0 -17.089844,33.46289 41.428574,41.428574 0 0 0 41.429688,41.42774 41.428574,41.428574 0 0 0 41.427738,-41.42774 41.428574,41.428574 0 0 0 -3.47852,-16.49804 41.428574,41.428574 0 0 0 41.85352,-30.01368 41.428574,41.428574 0 0 0 25.24804,-7.3125 41.428574,41.428574 0 0 0 6.64453,-5.81835 41.428574,41.428574 0 0 0 14.01954,2.5 41.428574,41.428574 0 0 0 39.91211,-30.49415 41.428574,41.428574 0 0 0 23.51757,-15.75195 41.428574,41.428574 0 0 0 -8.96093,-57.89844 41.428574,41.428574 0 0 0 -39.63086,-5.07421 41.428574,41.428574 0 0 0 -29.59961,-20.90625 41.428574,41.428574 0 0 0 -39.52539,-29.162114 z"
         style="fill:none;fill-opacity:1;stroke:#333333;stroke-width:2;stroke-miterlimit:4;stroke-dasharray:none"
         inkscape:connector-curvature="0" />
    </g>
  </g>
  <g
     inkscape:groupmode="layer"
     id="layer2"
     inkscape:label="clouds"
     style="display:inline"
     sodipodi:insensitive="true">
    <g
       id="g8043"
       transform="matrix(1,0,0,1.0684685,0,-2.3200678)">
      <circle
         r="5.3861609"
         style="fill:#cccccc;stroke:none;stroke-width:0.26458335"
         id="circle931"
         cx="45.28157"
         cy="69.925598" />
      <path
         sodipodi:nodetypes="cccsssssc"
         inkscape:connector-curvature="0"
         id="path1158"
         d="m 12.954368,96.788893 65.347377,-0.640012 7.879103,-1.344542 c 1.144097,-1.552557 1.967892,-1.042031 0.641457,-3.26038 -1.174473,-1.964204 -21.260969,-5.83479 -24.989701,-4.171861 -2.592509,1.156198 -4.216357,1.953365 -6.815373,2.532916 -3.883433,0.86596 -10.087805,0.261645 -13.229842,-1.489951 -3.152554,-1.757458 -8.915593,2.515997 -11.626225,3.724877 -8.348822,3.723383 -8.504339,-5.90242 -17.206796,4.648953 z"
         style="fill:#b3b3b3;stroke:#b3b3b3;stroke-width:0.25454965px;stroke-linecap:butt;stroke-linejoin:miter;stroke-opacity:1" />
      <ellipse
         ry="10.297688"
         rx="9.260417"
         cy="86.598907"
         cx="13.418156"
         id="path1162"
         style="fill:url(#linearGradient1289);fill-opacity:1;stroke:none;stroke-width:0.27900827" />
      <ellipse
         ry="13.801561"
         rx="11.90625"
         cy="81.674347"
         cx="29.482145"
         id="circle1252"
         style="fill:url(#linearGradient1254);fill-opacity:1;stroke:none;stroke-width:0.36625502" />
      <ellipse
         style="fill:url(#linearGradient1258);fill-opacity:1;stroke:none;stroke-width:0.49882829"
         id="ellipse1256"
         cx="49.514885"
         cy="76.195877"
         rx="15.308036"
         ry="19.912176" />
      <ellipse
         ry="27.174213"
         rx="23.434525"
         cy="69.129578"
         cx="79.18602"
         id="ellipse1260"
         style="fill:url(#linearGradient1262);fill-opacity:1;stroke:none;stroke-width:0.72100538" />
      <path
         sodipodi:nodetypes="cccccccccccccc"
         inkscape:connector-curvature="0"
         id="circle7420-8"
         d="m 79.185864,41.955581 c -9.616564,0.01085 -18.251336,6.833189 -21.77851,17.207217 -2.380739,-1.875044 -5.109417,-2.87036 -7.89254,-2.878894 -6.468011,0.01097 -12.232739,5.308628 -14.40171,13.234853 -1.731091,-1.07901 -3.665699,-1.644462 -5.631183,-1.645897 -5.257817,0.0027 -9.891629,4.002778 -11.400337,9.841262 -1.414552,-0.921681 -3.023792,-1.409232 -4.663281,-1.412835 -5.1143433,0 -9.2603551,4.610355 -9.2604172,10.297562 6.11e-5,5.687207 4.1460732,10.297564 9.2604172,10.297564 0.467098,-0.0027 0.933345,-0.04466 1.394747,-0.12557 l 62.007074,-0.60772 c 0.786032,0.09307 1.575621,0.139983 2.36574,0.14056 12.942563,1.42e-4 23.434666,-12.166111 23.434746,-27.174052 -8e-5,-15.00794 -10.492184,-27.174192 -23.434746,-27.17405 z"
         style="display:inline;fill:none;stroke:#333333;stroke-width:0.5291667;stroke-miterlimit:4;stroke-dasharray:none" />
    </g>
    <g
       transform="matrix(1,0,0,1.0684685,0,-2.3200678)"
       id="g864">
      <circle
         cy="69.925598"
         cx="45.28157"
         id="circle850"
         style="fill:#cccccc;stroke:none;stroke-width:0.26458335"
         r="5.3861609" />
      <path
         style="fill:#b3b3b3;stroke:#b3b3b3;stroke-width:0.25454965px;stroke-linecap:butt;stroke-linejoin:miter;stroke-opacity:1"
         d="m 12.954368,96.788893 65.347377,-0.640012 7.879103,-1.344542 c 1.144097,-1.552557 1.967892,-1.042031 0.641457,-3.26038 -1.174473,-1.964204 -21.260969,-5.83479 -24.989701,-4.171861 -2.592509,1.156198 -4.216357,1.953365 -6.815373,2.532916 -3.883433,0.86596 -10.087805,0.261645 -13.229842,-1.489951 -3.152554,-1.757458 -8.915593,2.515997 -11.626225,3.724877 -8.348822,3.723383 -8.504339,-5.90242 -17.206796,4.648953 z"
         id="path852"
         inkscape:connector-curvature="0"
         sodipodi:nodetypes="cccsssssc" />
      <ellipse
         style="fill:url(#linearGradient1289);fill-opacity:1;stroke:none;stroke-width:0.27900827"
         id="ellipse854"
         cx="13.418156"
         cy="86.598907"
         rx="9.260417"
         ry="10.297688" />
      <ellipse
         style="fill:url(#linearGradient1254);fill-opacity:1;stroke:none;stroke-width:0.36625502"
         id="ellipse856"
         cx="29.482145"
         cy="81.674347"
         rx="11.90625"
         ry="13.801561" />
      <ellipse
         ry="19.912176"
         rx="15.308036"
         cy="76.195877"
         cx="49.514885"
         id="ellipse858"
         style="fill:url(#linearGradient1258);fill-opacity:1;stroke:none;stroke-width:0.49882829" />
      <ellipse
         style="fill:url(#linearGradient1262);fill-opacity:1;stroke:none;stroke-width:0.72100538"
         id="ellipse860"
         cx="79.18602"
         cy="69.129578"
         rx="23.434525"
         ry="27.174213" />
      <path
         style="display:inline;fill:none;stroke:#333333;stroke-width:0.5291667;stroke-miterlimit:4;stroke-dasharray:none"
         d="m 79.185864,41.955581 c -9.616564,0.01085 -18.251336,6.833189 -21.77851,17.207217 -2.380739,-1.875044 -5.109417,-2.87036 -7.89254,-2.878894 -6.468011,0.01097 -12.232739,5.308628 -14.40171,13.234853 -1.731091,-1.07901 -3.665699,-1.644462 -5.631183,-1.645897 -5.257817,0.0027 -9.891629,4.002778 -11.400337,9.841262 -1.414552,-0.921681 -3.023792,-1.409232 -4.663281,-1.412835 -5.1143433,0 -9.2603551,4.610355 -9.2604172,10.297562 6.11e-5,5.687207 4.1460732,10.297564 9.2604172,10.297564 0.467098,-0.0027 0.933345,-0.04466 1.394747,-0.12557 l 62.007074,-0.60772 c 0.786032,0.09307 1.575621,0.139983 2.36574,0.14056 12.942563,1.42e-4 23.434666,-12.166111 23.434746,-27.174052 -8e-5,-15.00794 -10.492184,-27.174192 -23.434746,-27.17405 z"
         id="path862"
         inkscape:connector-curvature="0"
         sodipodi:nodetypes="cccccccccccccc" />
    </g>
  </g>
</svg>
