<?xml version="1.0" encoding="UTF-8" standalone="no"?>
<!-- Created with Inkscape (http://www.inkscape.org/) -->

<svg
   xmlns:dc="http://purl.org/dc/elements/1.1/"
   xmlns:cc="http://creativecommons.org/ns#"
   xmlns:rdf="http://www.w3.org/1999/02/22-rdf-syntax-ns#"
   xmlns:svg="http://www.w3.org/2000/svg"
   xmlns="http://www.w3.org/2000/svg"
   xmlns:sodipodi="http://sodipodi.sourceforge.net/DTD/sodipodi-0.dtd"
   xmlns:inkscape="http://www.inkscape.org/namespaces/inkscape"
   width="121"
   height="9"
   viewBox="0 0 32.014584 2.38125"
   version="1.1"
   id="svg8"
   inkscape:version="0.92.5 (2060ec1f9f, 2020-04-08)"
   sodipodi:docname="uvi.svg">
  <defs
     id="defs2" />
  <sodipodi:namedview
     id="base"
     pagecolor="#ffffff"
     bordercolor="#666666"
     borderopacity="1.0"
     inkscape:pageopacity="0.0"
     inkscape:pageshadow="2"
     inkscape:zoom="4"
     inkscape:cx="27.052775"
     inkscape:cy="-4.2373478"
     inkscape:document-units="px"
     inkscape:current-layer="layer3"
     showgrid="true"
     units="px"
     borderlayer="true"
     inkscape:snap-page="true"
     inkscape:window-width="1366"
     inkscape:window-height="715"
     inkscape:window-x="-8"
     inkscape:window-y="-8"
     inkscape:window-maximized="1"
     inkscape:snap-global="true"
     inkscape:snap-grids="false">
    <inkscape:grid
       type="xygrid"
       id="grid863"
       empspacing="10"
       spacingy="1.190625"
       visible="true"
       originx="1.4552083"
       dotted="false"
       spacingx="0.13229167"
       color="#3f3fff"
       opacity="0.1254902" />
  </sodipodi:namedview>
  <metadata
     id="metadata5">
    <rdf:RDF>
      <cc:Work
         rdf:about="">
        <dc:format>image/svg+xml</dc:format>
        <dc:type
           rdf:resource="http://purl.org/dc/dcmitype/StillImage" />
        <dc:title></dc:title>
      </cc:Work>
    </rdf:RDF>
  </metadata>
  <g
     inkscape:groupmode="layer"
     id="layer3"
     inkscape:label="container (invisible)">
    <rect
       style="opacity:1;vector-effect:none;fill:none;fill-opacity:0.02471008;stroke:none;stroke-width:0.26458335;stroke-linecap:butt;stroke-linejoin:miter;stroke-miterlimit:4;stroke-dasharray:none;stroke-dashoffset:0;stroke-opacity:1;paint-order:normal"
       id="rect883"
       width="32.014584"
       height="2.3812501"
       x="0"
       y="0" />
  </g>
  <g
     inkscape:label="colors"
     inkscape:groupmode="layer"
     id="layer1"
     transform="translate(0,-294.61875)"
     style="display:inline">
    <path
       style="opacity:1;vector-effect:none;fill:#008000;fill-opacity:1;stroke:#000000;stroke-width:0.26458335;stroke-linecap:butt;stroke-linejoin:miter;stroke-miterlimit:4;stroke-dasharray:none;stroke-dashoffset:0;stroke-opacity:1;paint-order:normal"
       d="m 1.4552084,296.86771 v -2.11667 h 5.2916668 v 2.11667 z"
       id="path5258"
       inkscape:connector-curvature="0" />
    <path
       inkscape:connector-curvature="0"
       id="path5260"
       d="m 6.7468752,296.86771 v -2.11667 h 7.9374998 v 2.11667 z"
       style="opacity:1;vector-effect:none;fill:#ffff00;fill-opacity:1;stroke:#000000;stroke-width:0.26458335;stroke-linecap:butt;stroke-linejoin:miter;stroke-miterlimit:4;stroke-dasharray:none;stroke-dashoffset:0;stroke-opacity:1;paint-order:normal" />
    <path
       style="opacity:1;vector-effect:none;fill:#ffa500;fill-opacity:1;stroke:#000000;stroke-width:0.26458335;stroke-linecap:butt;stroke-linejoin:miter;stroke-miterlimit:4;stroke-dasharray:none;stroke-dashoffset:0;stroke-opacity:1;paint-order:normal"
       d="m 14.684375,296.86771 v -2.11667 h 5.291667 v 2.11667 z"
       id="path5262"
       inkscape:connector-curvature="0" />
    <path
       style="opacity:1;vector-effect:none;fill:#ff0000;fill-opacity:1;stroke:#000000;stroke-width:0.26458335;stroke-linecap:butt;stroke-linejoin:miter;stroke-miterlimit:4;stroke-dasharray:none;stroke-dashoffset:0;stroke-opacity:1;paint-order:normal"
       d="m 19.976042,296.86771 v -2.11667 h 7.9375 v 2.11667 z"
       id="path5266"
       inkscape:connector-curvature="0" />
    <path
       inkscape:connector-curvature="0"
       id="path5268"
       d="m 27.913542,296.86771 v -2.11667 h 2.645833 v 2.11667 z"
       style="opacity:1;vector-effect:none;fill:#ab37c8;fill-opacity:1;stroke:#000000;stroke-width:0.26458335;stroke-linecap:butt;stroke-linejoin:miter;stroke-miterlimit:4;stroke-dasharray:none;stroke-dashoffset:0;stroke-opacity:1;paint-order:normal" />
  </g>
  <g
     inkscape:groupmode="layer"
     id="layer2"
     inkscape:label="text"
     transform="translate(0,-0.26458334)"
     style="display:inline">
    <g
       aria-label="low"
       style="font-style:normal;font-variant:normal;font-weight:bold;font-stretch:normal;font-size:14.11111069px;line-height:1.25;font-family:sans-serif;-inkscape-font-specification:'sans-serif Bold';text-align:center;text-anchor:middle;opacity:1;vector-effect:none;fill:#ececec;fill-opacity:1;stroke:none;stroke-width:0.28561419;stroke-linecap:butt;stroke-linejoin:miter;stroke-miterlimit:4;stroke-dasharray:none;stroke-dashoffset:0;stroke-opacity:1;paint-order:stroke fill markers"
       id="text4601"
       transform="matrix(0.92636626,0,0,0.92636626,1.6045532,0.22970283)">
      <path
         d="M 1.4340211,1.9438952 V 0.68126768 H 1.5890504 V 1.9438952 Z"
         style="font-style:normal;font-variant:normal;font-weight:normal;font-stretch:normal;font-size:1.76388896px;font-family:Arial;-inkscape-font-specification:Arial;fill:#ececec;stroke:none;stroke-width:0.28561419"
         id="path4677"
         inkscape:connector-curvature="0" />
      <path
         d="m 1.7725018,1.4865588 q 0,-0.2540758 0.1412489,-0.3763767 0.1179945,-0.1016303 0.2876655,-0.1016303 0.1886189,0 0.308336,0.1240234 0.1197171,0.1231622 0.1197171,0.3410645 0,0.1765611 -0.053399,0.2781914 -0.052538,0.1007691 -0.154168,0.1567519 -0.1007691,0.055983 -0.2204861,0.055983 -0.1920641,0 -0.3109199,-0.1231622 Q 1.7725018,1.7182415 1.7725018,1.4865588 Z m 0.1593356,0 q 0,0.1756999 0.076653,0.2635498 0.076653,0.086989 0.1929254,0.086989 0.1154107,0 0.192064,-0.08785 0.076653,-0.08785 0.076653,-0.2678562 0,-0.1696709 -0.077515,-0.2566596 -0.076653,-0.08785 -0.1912028,-0.08785 -0.116272,0 -0.1929254,0.086989 -0.076653,0.086989 -0.076653,0.2626886 z"
         style="font-style:normal;font-variant:normal;font-weight:normal;font-stretch:normal;font-size:1.76388896px;font-family:Arial;-inkscape-font-specification:Arial;fill:#ececec;stroke:none;stroke-width:0.28561419"
         id="path4679"
         inkscape:connector-curvature="0" />
      <path
         d="M 2.980869,1.9438952 2.700955,1.0292223 h 0.160197 l 0.1455552,0.5279609 0.05426,0.1963705 q 0.00345,-0.014642 0.04737,-0.188619 L 3.2538929,1.0292223 H 3.4132285 L 3.5501711,1.5597671 3.5958186,1.7346057 3.6483563,1.5580445 3.8051082,1.0292223 H 3.9558311 L 3.6698882,1.9438952 H 3.5088299 L 3.3632746,1.396125 3.3279624,1.2402344 3.1427885,1.9438952 Z"
         style="font-style:normal;font-variant:normal;font-weight:normal;font-stretch:normal;font-size:1.76388896px;font-family:Arial;-inkscape-font-specification:Arial;fill:#ececec;stroke:none;stroke-width:0.28561419"
         id="path4681"
         inkscape:connector-curvature="0" />
    </g>
    <g
       aria-label="mod"
       style="font-style:normal;font-variant:normal;font-weight:bold;font-stretch:normal;font-size:14.11111069px;line-height:1.25;font-family:sans-serif;-inkscape-font-specification:'sans-serif Bold';text-align:center;text-anchor:middle;opacity:1;vector-effect:none;fill:#000000;fill-opacity:1;stroke:none;stroke-width:0.2924293;stroke-linecap:butt;stroke-linejoin:miter;stroke-miterlimit:4;stroke-dasharray:none;stroke-dashoffset:0;stroke-opacity:1;paint-order:stroke fill markers"
       id="text4605"
       transform="matrix(0.90477712,0,0,0.90477712,2.4250684,0.25826346)">
      <path
         d="M 7.5680136,1.9438952 V 1.0292223 h 0.1386651 v 0.1283298 q 0.043064,-0.067179 0.1145494,-0.1076592 0.071486,-0.041341 0.1627808,-0.041341 0.1016303,0 0.1662258,0.042202 0.065457,0.042202 0.092156,0.1179945 0.1085205,-0.1601969 0.2824979,-0.1601969 0.1360812,0 0.2092895,0.075792 0.073208,0.074931 0.073208,0.2316826 V 1.9438952 H 8.6532187 V 1.367703 q 0,-0.093018 -0.015503,-0.1334975 -0.014642,-0.041341 -0.05426,-0.066318 -0.039619,-0.024977 -0.093018,-0.024977 -0.096463,0 -0.1601969,0.064596 -0.063734,0.063734 -0.063734,0.2049832 v 0.531406 H 8.1114774 v -0.594279 q 0,-0.1033528 -0.037896,-0.1550293 -0.037896,-0.051676 -0.1240234,-0.051676 -0.065457,0 -0.1214396,0.034451 -0.055122,0.034451 -0.080099,0.1007691 -0.024977,0.066318 -0.024977,0.1912028 v 0.4745619 z"
         style="font-style:normal;font-variant:normal;font-weight:normal;font-stretch:normal;font-size:1.76388896px;font-family:Arial;-inkscape-font-specification:Arial;fill:#000000;stroke:none;stroke-width:0.2924293"
         id="path4670"
         inkscape:connector-curvature="0" />
      <path
         d="m 8.9813641,1.4865588 q 0,-0.2540758 0.1412489,-0.3763767 0.1179945,-0.1016303 0.2876655,-0.1016303 0.188619,0 0.308336,0.1240234 0.1197171,0.1231622 0.1197171,0.3410645 0,0.1765611 -0.053399,0.2781914 -0.052538,0.1007691 -0.154168,0.1567519 -0.1007691,0.055983 -0.2204861,0.055983 -0.1920641,0 -0.3109199,-0.1231622 Q 8.9813641,1.7182415 8.9813641,1.4865588 Z m 0.1593356,0 q 0,0.1756999 0.076653,0.2635498 0.076653,0.086989 0.1929254,0.086989 0.1154107,0 0.1920641,-0.08785 0.076653,-0.08785 0.076653,-0.2678562 0,-0.1696709 -0.077515,-0.2566596 -0.076653,-0.08785 -0.1912028,-0.08785 -0.116272,0 -0.1929254,0.086989 -0.076653,0.086989 -0.076652,0.262688 z"
         style="font-style:normal;font-variant:normal;font-weight:normal;font-stretch:normal;font-size:1.76388896px;font-family:Arial;-inkscape-font-specification:Arial;fill:#000000;stroke:none;stroke-width:0.2924293"
         id="path4672"
         inkscape:connector-curvature="0" />
      <path
         d="M 10.614339,1.9438952 V 1.8284845 q -0.08699,0.1360813 -0.255798,0.1360813 -0.109382,0 -0.201538,-0.060289 -0.09129,-0.060289 -0.14211,-0.1679484 -0.049954,-0.1085205 -0.049954,-0.2489081 0,-0.1369426 0.045647,-0.2480469 0.04565,-0.1119656 0.136943,-0.1713935 0.09129,-0.059428 0.204122,-0.059428 0.08268,0 0.147278,0.035312 0.06459,0.034451 0.105075,0.090434 V 0.68126768 h 0.154168 V 1.9438952 Z M 10.124274,1.4874201 q 0,0.1756998 0.07407,0.2626885 0.07407,0.086989 0.174839,0.086989 0.10163,0 0.172254,-0.082682 0.07149,-0.083544 0.07149,-0.2540758 0,-0.1877578 -0.07235,-0.2756077 -0.07235,-0.08785 -0.178284,-0.08785 -0.103352,0 -0.173116,0.084405 -0.0689,0.084405 -0.0689,0.2661337 z"
         style="font-style:normal;font-variant:normal;font-weight:normal;font-stretch:normal;font-size:1.76388896px;font-family:Arial;-inkscape-font-specification:Arial;fill:#000000;stroke:none;stroke-width:0.2924293"
         id="path4674"
         inkscape:connector-curvature="0" />
    </g>
    <g
       aria-label="high"
       style="font-style:normal;font-variant:normal;font-weight:normal;font-stretch:normal;font-size:3.52777767px;line-height:1.25;font-family:sans-serif;-inkscape-font-specification:sans-serif;text-align:center;text-anchor:middle;opacity:1;vector-effect:none;fill:#000000;fill-opacity:1;stroke:none;stroke-width:0.30930561;stroke-linecap:butt;stroke-linejoin:miter;stroke-miterlimit:4;stroke-dasharray:none;stroke-dashoffset:0;stroke-opacity:1;paint-order:stroke fill markers"
       id="text4609"
       transform="matrix(0.85541076,0,0,0.85541076,3.752404,0.32357133)">
      <path
         d="M 14.322123,1.768626 V 0.50599843 h 0.155029 v 0.45303008 q 0.108521,-0.12574599 0.273886,-0.12574599 0.10163,0 0.176561,0.0404799 0.07493,0.0396186 0.106798,0.11024306 0.03273,0.0706244 0.03273,0.20498312 V 1.768626 H 14.912096 V 1.1889886 q 0,-0.1162719 -0.05082,-0.1688096 -0.04995,-0.053399 -0.142111,-0.053399 -0.0689,0 -0.130052,0.0361735 -0.06029,0.035312 -0.08613,0.096463 -0.02584,0.06115 -0.02584,0.1688096 V 1.768626 Z"
         style="font-style:normal;font-variant:normal;font-weight:normal;font-stretch:normal;font-size:1.76388896px;font-family:Arial;-inkscape-font-specification:Arial;stroke-width:0.30930561"
         id="path4661"
         inkscape:connector-curvature="0" />
      <path
         d="m 15.304837,0.68428213 v -0.1782837 h 0.155029 v 0.1782837 z m 0,1.08434387 V 0.85395309 h 0.155029 V 1.768626 Z"
         style="font-style:normal;font-variant:normal;font-weight:normal;font-stretch:normal;font-size:1.76388896px;font-family:Arial;-inkscape-font-specification:Arial;stroke-width:0.30930561"
         id="path4663"
         inkscape:connector-curvature="0" />
      <path
         d="m 15.668294,1.8444181 0.150723,0.022393 q 0.0095,0.069763 0.05254,0.1016303 0.0577,0.043064 0.157613,0.043064 0.107659,0 0.166226,-0.043064 0.05857,-0.043064 0.07924,-0.1205783 0.01206,-0.04737 0.0112,-0.1989543 -0.101631,0.1197171 -0.253215,0.1197171 -0.188619,0 -0.291972,-0.1360813 -0.103353,-0.1360813 -0.103353,-0.3264228 0,-0.1309136 0.04737,-0.2411567 0.04737,-0.11110434 0.136943,-0.17139351 0.09043,-0.0602892 0.211873,-0.0602892 0.16192,0 0.266995,0.13091363 V 0.85395309 h 0.142972 V 1.6446025 q 0,0.213596 -0.04393,0.3023072 -0.04306,0.089573 -0.137804,0.1412489 -0.09388,0.051676 -0.231683,0.051676 -0.163642,0 -0.264411,-0.07407 -0.100769,-0.073208 -0.09732,-0.2213474 z m 0.12833,-0.5494928 q 0,0.1800063 0.07149,0.2626886 0.07149,0.082682 0.179145,0.082682 0.106798,0 0.179145,-0.081821 0.07235,-0.082682 0.07235,-0.2583821 0,-0.1679484 -0.07493,-0.2532146 -0.07407,-0.0852661 -0.179145,-0.0852661 -0.103353,0 -0.1757,0.0844049 -0.07235,0.083544 -0.07235,0.2489081 z"
         style="font-style:normal;font-variant:normal;font-weight:normal;font-stretch:normal;font-size:1.76388896px;font-family:Arial;-inkscape-font-specification:Arial;stroke-width:0.30930561"
         id="path4665"
         inkscape:connector-curvature="0" />
      <path
         d="M 16.678568,1.768626 V 0.50599843 h 0.15503 v 0.45303008 q 0.10852,-0.12574599 0.273885,-0.12574599 0.10163,0 0.176561,0.0404799 0.07493,0.0396186 0.106798,0.11024306 0.03273,0.0706244 0.03273,0.20498312 V 1.768626 H 17.268541 V 1.1889886 q 0,-0.1162719 -0.05082,-0.1688096 -0.04995,-0.053399 -0.14211,-0.053399 -0.0689,0 -0.130053,0.0361735 -0.06029,0.035312 -0.08613,0.096463 -0.02584,0.06115 -0.02584,0.1688096 V 1.768626 Z"
         style="font-style:normal;font-variant:normal;font-weight:normal;font-stretch:normal;font-size:1.76388896px;font-family:Arial;-inkscape-font-specification:Arial;stroke-width:0.30930561"
         id="path4667"
         inkscape:connector-curvature="0" />
    </g>
    <g
       aria-label="very high"
       style="font-style:normal;font-variant:normal;font-weight:normal;font-stretch:normal;font-size:3.52777767px;line-height:1.25;font-family:sans-serif;-inkscape-font-specification:sans-serif;text-align:center;text-anchor:middle;opacity:1;vector-effect:none;fill:#000000;fill-opacity:1;stroke:none;stroke-width:0.31688038;stroke-linecap:butt;stroke-linejoin:miter;stroke-miterlimit:4;stroke-dasharray:none;stroke-dashoffset:0;stroke-opacity:1;paint-order:stroke fill markers"
       id="text4613"
       transform="matrix(0.83496285,0,0,0.83496285,5.1251143,0.35062183)">
      <path
         d="M 19.377802,1.768626 19.029847,0.85395309 h 0.163642 l 0.19637,0.54777021 q 0.03187,0.088711 0.05857,0.1843126 0.02067,-0.072347 0.0577,-0.1739773 L 19.70939,0.85395309 h 0.159336 L 19.522496,1.768626 Z"
         style="font-style:normal;font-variant:normal;font-weight:normal;font-stretch:normal;font-size:1.76388896px;font-family:Arial;-inkscape-font-specification:Arial;stroke-width:0.31688038"
         id="path4644"
         inkscape:connector-curvature="0" />
      <path
         d="m 20.631816,1.4740703 0.160197,0.019809 q -0.0379,0.1403876 -0.140387,0.2179023 -0.102492,0.077515 -0.261828,0.077515 -0.200676,0 -0.318671,-0.1231621 -0.117133,-0.1240235 -0.117133,-0.3470934 0,-0.2308214 0.118856,-0.35828995 0.118855,-0.12746853 0.308336,-0.12746853 0.183451,0 0.299723,0.12488471 0.116272,0.12488467 0.116272,0.35139977 0,0.01378 -8.61e-4,0.041341 h -0.682129 q 0.0086,0.150723 0.08527,0.2308214 0.07665,0.080099 0.191203,0.080099 0.08527,0 0.145555,-0.044786 0.06029,-0.044786 0.0956,-0.1429715 z M 20.122803,1.2234396 h 0.510736 q -0.01033,-0.1154107 -0.05857,-0.1731161 -0.07407,-0.0895724 -0.192064,-0.0895724 -0.106798,0 -0.180006,0.0714857 -0.07235,0.071486 -0.0801,0.1912028 z"
         style="font-style:normal;font-variant:normal;font-weight:normal;font-stretch:normal;font-size:1.76388896px;font-family:Arial;-inkscape-font-specification:Arial;stroke-width:0.31688038"
         id="path4646"
         inkscape:connector-curvature="0" />
      <path
         d="M 20.9858,1.768626 V 0.85395309 h 0.139526 v 0.1386651 q 0.0534,-0.0973239 0.09819,-0.12832981 0.04565,-0.0310059 0.09991,-0.0310059 0.07838,0 0.159336,0.0499539 l -0.0534,0.14383272 q -0.05684,-0.0335896 -0.113688,-0.0335896 -0.05082,0 -0.09129,0.0310058 -0.04048,0.030145 -0.05771,0.084405 -0.02584,0.082682 -0.02584,0.1808675 V 1.768626 Z"
         style="font-style:normal;font-variant:normal;font-weight:normal;font-stretch:normal;font-size:1.76388896px;font-family:Arial;-inkscape-font-specification:Arial;stroke-width:0.31688038"
         id="path4648"
         inkscape:connector-curvature="0" />
      <path
         d="m 21.569744,2.120887 -0.01723,-0.1455553 q 0.05082,0.01378 0.08871,0.01378 0.05168,0 0.08268,-0.017226 0.03101,-0.017225 0.05082,-0.048231 0.01464,-0.023254 0.04737,-0.1154107 0.0043,-0.012919 0.01378,-0.037896 l -0.34709,-0.91639491 h 0.167087 l 0.190342,0.52968341 q 0.03703,0.1007691 0.06632,0.2118734 0.0267,-0.1067979 0.06373,-0.2084283 l 0.195509,-0.53312851 h 0.155029 L 21.978849,1.7841289 q -0.05598,0.1507229 -0.08699,0.207567 -0.04134,0.076653 -0.09474,0.1119656 -0.0534,0.036174 -0.127469,0.036174 -0.04479,0 -0.09991,-0.018948 z"
         style="font-style:normal;font-variant:normal;font-weight:normal;font-stretch:normal;font-size:1.76388896px;font-family:Arial;-inkscape-font-specification:Arial;stroke-width:0.31688038"
         id="path4650"
         inkscape:connector-curvature="0" />
      <path
         d="M 22.947782,1.768626 V 0.50599843 h 0.155029 v 0.45303008 q 0.108521,-0.12574599 0.273885,-0.12574599 0.101631,0 0.176561,0.0404799 0.07493,0.0396186 0.106798,0.11024306 0.03273,0.0706244 0.03273,0.20498312 V 1.768626 h -0.15503 V 1.1889886 q 0,-0.1162719 -0.05082,-0.1688096 -0.04995,-0.053399 -0.14211,-0.053399 -0.0689,0 -0.130052,0.0361735 -0.06029,0.035312 -0.08613,0.096463 -0.02584,0.06115 -0.02584,0.1688096 V 1.768626 Z"
         style="font-style:normal;font-variant:normal;font-weight:normal;font-stretch:normal;font-size:1.76388896px;font-family:Arial;-inkscape-font-specification:Arial;stroke-width:0.31688038"
         id="path4652"
         inkscape:connector-curvature="0" />
      <path
         d="m 23.930495,0.68428213 v -0.1782837 h 0.15503 v 0.1782837 z m 0,1.08434387 V 0.85395309 h 0.15503 V 1.768626 Z"
         style="font-style:normal;font-variant:normal;font-weight:normal;font-stretch:normal;font-size:1.76388896px;font-family:Arial;-inkscape-font-specification:Arial;stroke-width:0.31688038"
         id="path4654"
         inkscape:connector-curvature="0" />
      <path
         d="m 24.293953,1.8444181 0.150723,0.022393 q 0.0095,0.069763 0.05254,0.1016303 0.05771,0.043064 0.157613,0.043064 0.107659,0 0.166226,-0.043064 0.05857,-0.043064 0.07924,-0.1205783 0.01206,-0.04737 0.0112,-0.1989543 -0.101631,0.1197171 -0.253215,0.1197171 -0.188619,0 -0.291972,-0.1360813 -0.103353,-0.1360813 -0.103353,-0.3264228 0,-0.1309136 0.04737,-0.2411567 0.04737,-0.11110434 0.136943,-0.17139351 0.09043,-0.0602892 0.211873,-0.0602892 0.16192,0 0.266995,0.13091363 V 0.85395309 H 25.0691 V 1.6446025 q 0,0.213596 -0.04392,0.3023072 -0.04306,0.089573 -0.137804,0.1412489 -0.09388,0.051676 -0.231683,0.051676 -0.163642,0 -0.264411,-0.07407 -0.100769,-0.073208 -0.09732,-0.2213474 z m 0.12833,-0.5494928 q 0,0.1800063 0.07149,0.2626886 0.07148,0.082682 0.179145,0.082682 0.106798,0 0.179145,-0.081821 0.07235,-0.082682 0.07235,-0.2583821 0,-0.1679484 -0.07493,-0.2532146 -0.07407,-0.0852661 -0.179145,-0.0852661 -0.103353,0 -0.1757,0.0844049 -0.07235,0.083544 -0.07235,0.2489081 z"
         style="font-style:normal;font-variant:normal;font-weight:normal;font-stretch:normal;font-size:1.76388896px;font-family:Arial;-inkscape-font-specification:Arial;stroke-width:0.31688038"
         id="path4656"
         inkscape:connector-curvature="0" />
      <path
         d="M 25.304227,1.768626 V 0.50599843 h 0.15503 v 0.45303008 q 0.10852,-0.12574599 0.273885,-0.12574599 0.10163,0 0.176561,0.0404799 0.07493,0.0396186 0.106798,0.11024306 0.03273,0.0706244 0.03273,0.20498312 V 1.768626 H 25.8942 V 1.1889886 q 0,-0.1162719 -0.05082,-0.1688096 -0.04995,-0.053399 -0.142111,-0.053399 -0.0689,0 -0.130052,0.0361735 -0.06029,0.035312 -0.08613,0.096463 -0.02584,0.06115 -0.02584,0.1688096 V 1.768626 Z"
         style="font-style:normal;font-variant:normal;font-weight:normal;font-stretch:normal;font-size:1.76388896px;font-family:Arial;-inkscape-font-specification:Arial;stroke-width:0.31688038"
         id="path4658"
         inkscape:connector-curvature="0" />
    </g>
    <g
       aria-label="ex"
       style="font-style:normal;font-variant:normal;font-weight:normal;font-stretch:normal;font-size:3.52777767px;line-height:1.25;font-family:sans-serif;-inkscape-font-specification:sans-serif;text-align:center;text-anchor:middle;display:inline;opacity:1;vector-effect:none;fill:#000000;fill-opacity:1;stroke:none;stroke-width:0.29588839;stroke-linecap:butt;stroke-linejoin:miter;stroke-miterlimit:4;stroke-dasharray:none;stroke-dashoffset:0;stroke-opacity:1;paint-order:stroke fill markers"
       id="text4617"
       transform="matrix(0.89419983,0,0,0.89419983,4.3944722,0.27225637)">
      <path
         d="m 27.565933,1.4856975 0.160197,0.019809 q -0.0379,0.1403876 -0.140388,0.2179023 -0.102491,0.077515 -0.261827,0.077515 -0.200677,0 -0.318672,-0.1231621 -0.117133,-0.1240235 -0.117133,-0.3470934 0,-0.2308214 0.118856,-0.35828995 0.118856,-0.12746854 0.308336,-0.12746854 0.183451,0 0.299723,0.12488472 0.116272,0.12488467 0.116272,0.35139977 0,0.01378 -8.61e-4,0.041341 h -0.682129 q 0.0086,0.150723 0.08527,0.2308214 0.07665,0.080099 0.191203,0.080099 0.08527,0 0.145555,-0.044786 0.06029,-0.044786 0.0956,-0.1429715 z M 27.05692,1.2350668 h 0.510735 q -0.01033,-0.1154107 -0.05857,-0.1731161 -0.07407,-0.0895724 -0.192064,-0.0895724 -0.106798,0 -0.180007,0.0714857 -0.07235,0.071486 -0.0801,0.1912028 z"
         style="font-style:normal;font-variant:normal;font-weight:normal;font-stretch:normal;font-size:1.76388896px;font-family:Arial;-inkscape-font-specification:Arial;fill:#000000;stroke-width:0.29588839"
         id="path4639"
         inkscape:connector-curvature="0" />
      <path
         d="M 27.818286,1.7802532 28.15246,1.30483 27.843263,0.86558029 h 0.193787 l 0.140387,0.21445721 q 0.03962,0.06115 0.06373,0.1024916 0.0379,-0.056844 0.06976,-0.1007691 l 0.154168,-0.21617971 h 0.185174 l -0.316088,0.43063691 0.340203,0.484036 H 28.484043 L 28.296285,1.4960328 28.246335,1.4193798 28.00604,1.7802536 Z"
         style="font-style:normal;font-variant:normal;font-weight:normal;font-stretch:normal;font-size:1.76388896px;font-family:Arial;-inkscape-font-specification:Arial;fill:#000000;stroke-width:0.29588839"
         id="path4641"
         inkscape:connector-curvature="0" />
    </g>
  </g>
</svg>
