<?xml version="1.0" encoding="UTF-8" standalone="no"?>
<!-- Created with Inkscape (http://www.inkscape.org/) -->

<svg
   xmlns:dc="http://purl.org/dc/elements/1.1/"
   xmlns:cc="http://creativecommons.org/ns#"
   xmlns:rdf="http://www.w3.org/1999/02/22-rdf-syntax-ns#"
   xmlns:svg="http://www.w3.org/2000/svg"
   xmlns="http://www.w3.org/2000/svg"
   xmlns:sodipodi="http://sodipodi.sourceforge.net/DTD/sodipodi-0.dtd"
   xmlns:inkscape="http://www.inkscape.org/namespaces/inkscape"
   width="40"
   height="34"
   viewBox="0 0 10.583333 8.9958341"
   version="1.1"
   id="svg8"
   inkscape:version="0.92.5 (2060ec1f9f, 2020-04-08)"
   sodipodi:docname="windboxlogo.svg">
  <defs
     id="defs2">
    <inkscape:path-effect
       is_visible="true"
       id="path-effect856"
       effect="spiro" />
    <inkscape:path-effect
       effect="spiro"
       id="path-effect844"
       is_visible="true" />
    <inkscape:path-effect
       is_visible="true"
       id="path-effect840"
       effect="spiro" />
    <inkscape:path-effect
       effect="spiro"
       id="path-effect836"
       is_visible="true" />
    <inkscape:path-effect
       is_visible="true"
       id="path-effect832"
       effect="spiro" />
    <inkscape:path-effect
       effect="spiro"
       id="path-effect828"
       is_visible="true" />
    <inkscape:path-effect
       effect="powerstroke"
       id="path-effect886"
       is_visible="true"
       offset_points="1,0.26458335"
       sort_points="true"
       interpolator_type="CubicBezierJohan"
       interpolator_beta="0.2"
       start_linecap_type="zerowidth"
       linejoin_type="extrp_arc"
       miter_limit="4"
       end_linecap_type="zerowidth" />
    <inkscape:path-effect
       effect="powerstroke"
       id="path-effect882"
       is_visible="true"
       offset_points="1,0.26458335"
       sort_points="true"
       interpolator_type="CubicBezierJohan"
       interpolator_beta="0.2"
       start_linecap_type="zerowidth"
       linejoin_type="extrp_arc"
       miter_limit="4"
       end_linecap_type="zerowidth" />
  </defs>
  <sodipodi:namedview
     id="base"
     pagecolor="#ffffff"
     bordercolor="#666666"
     borderopacity="1.0"
     inkscape:pageopacity="0.0"
     inkscape:pageshadow="2"
     inkscape:zoom="5.6"
     inkscape:cx="-23.976743"
     inkscape:cy="23.963662"
     inkscape:document-units="px"
     inkscape:current-layer="layer3"
     showgrid="false"
     units="px"
     borderlayer="true"
     inkscape:snap-page="true"
     inkscape:window-width="1366"
     inkscape:window-height="715"
     inkscape:window-x="-8"
     inkscape:window-y="-8"
     inkscape:window-maximized="1"
     fit-margin-top="0"
     fit-margin-left="0"
     fit-margin-right="0"
     fit-margin-bottom="0"
     inkscape:snap-global="false"
     showguides="false"
     inkscape:snap-bbox="true"
     inkscape:bbox-nodes="true"
     inkscape:snap-bbox-edge-midpoints="true"
     inkscape:snap-bbox-midpoints="true"
     inkscape:bbox-paths="true"
     inkscape:snap-smooth-nodes="true" />
  <metadata
     id="metadata5">
    <rdf:RDF>
      <cc:Work
         rdf:about="">
        <dc:format>image/svg+xml</dc:format>
        <dc:type
           rdf:resource="http://purl.org/dc/dcmitype/StillImage" />
        <dc:title />
      </cc:Work>
    </rdf:RDF>
  </metadata>
  <g
     inkscape:label="Layer 1"
     inkscape:groupmode="layer"
     id="layer1"
     transform="translate(-2.7484122,-276.7833)"
     sodipodi:insensitive="true"
     style="display:none">
    <path
       style="font-style:normal;font-variant:normal;font-weight:bold;font-stretch:normal;font-size:16.93333435px;line-height:1.25;font-family:Webdings;-inkscape-font-specification:'Webdings Bold';text-align:center;text-anchor:middle;fill:#000000;fill-opacity:1;stroke:none;stroke-width:0.5291667;stroke-miterlimit:4;stroke-dasharray:none;stroke-dashoffset:0;stroke-opacity:1;paint-order:fill markers stroke"
       d="m 11.379187,276.99136 c -0.181901,0 -0.35947,0.0737 -0.532709,0.22088 -0.173239,0.1386 -0.259859,0.29883 -0.259859,0.48074 0,0.51106 0.272851,0.76658 0.818555,0.76658 -0.233873,-0.29457 -0.350809,-0.48946 -0.350809,-0.58468 0,-0.26853 0.11693,-0.40278 0.350809,-0.40278 0.346478,0 0.519717,0.20355 0.519717,0.61066 0,0.25121 -0.09528,0.47641 -0.285844,0.67564 -0.181901,0.19922 -0.39412,0.29883 -0.636654,0.29883 -0.554364,0 -0.831547,-0.19056 -0.831547,-0.57168 0,-0.19926 0.04765,-0.35084 0.142921,-0.45476 -0.4157742,0 -0.6236602,0.17324 -0.6236602,0.51972 0,0.30318 0.147258,0.55003 0.4417582,0.7406 0.251198,0.15589 0.541372,0.23388 0.870527,0.23388 0.381124,0 0.710279,-0.143 0.987462,-0.42878 0.277183,-0.29451 0.415773,-0.63232 0.415773,-1.01345 0,-0.7276 -0.342147,-1.0914 -1.02644,-1.0914 z"
       id="path970"
       inkscape:connector-curvature="0"
       sodipodi:nodetypes="scscssscsscscscss" />
    <path
       style="font-style:normal;font-variant:normal;font-weight:bold;font-stretch:normal;font-size:16.93333435px;line-height:1.25;font-family:Webdings;-inkscape-font-specification:'Webdings Bold';text-align:center;text-anchor:middle;fill:#000000;fill-opacity:1;stroke:none;stroke-width:0.5291667;stroke-miterlimit:4;stroke-dasharray:none;stroke-dashoffset:0;stroke-opacity:1;paint-order:fill markers stroke"
       d="m 8.3908149,277.41954 v 5.1e-4 c -0.442611,-0.0559 -0.763218,0.36779 -0.701766,0.78342 -0.04769,0.4099 0.218163,-0.2324 0.420129,-0.23513 0.334754,-0.20942 0.823904,0.051 0.720886,0.4687 -0.01459,0.59938 -0.577515,0.97554 -1.105359,1.1095 -1.05689,0.3007 -2.168747,0.12084 -3.2447629,0.25993 -0.4108122,0.075 -0.8427958,0.21595 -1.1172444,0.54984 0.051777,0.0693 0.1316604,0.0864 0.2237589,0.0827 0.00967,-0.003 0.019251,-0.006 0.028939,-0.009 0.023887,-0.007 0.047721,-0.0131 0.07183,-0.0191 0.023945,-0.006 0.04826,-0.0112 0.072347,-0.0165 0.023373,-0.005 0.046382,-0.0101 0.069763,-0.015 0.023405,-0.005 0.046817,-0.009 0.07028,-0.0145 0.023204,-0.005 0.046485,-0.009 0.069763,-0.014 0.023606,-0.004 0.047623,-0.009 0.071313,-0.0124 0.023619,-0.004 0.047109,-0.008 0.070797,-0.0114 0.023998,-0.004 0.048286,-0.007 0.072347,-0.01 0.023357,-0.003 0.046387,-0.007 0.069763,-0.0103 0.024024,-0.003 0.048281,-0.006 0.072347,-0.009 0.024284,-0.003 0.048541,-0.006 0.072864,-0.008 0.02435,-0.003 0.048488,-0.005 0.072864,-0.007 0.024273,-0.002 0.04857,-0.004 0.072864,-0.006 0.00705,-5.8e-4 0.014129,-0.001 0.021188,-0.002 0.7050024,-0.13767 1.4400024,-0.0364 2.1538734,-0.10904 0.80079,-0.0761 1.709324,-0.2133 2.264461,-0.85782 0.3183079,-0.40614 0.4494909,-1.03685 0.155547,-1.48932 -0.17402,-0.23475 -0.449703,-0.40596 -0.748792,-0.39996 z"
       id="path1251"
       inkscape:connector-curvature="0" />
    <path
       style="font-style:normal;font-variant:normal;font-weight:bold;font-stretch:normal;font-size:16.93333435px;line-height:1.25;font-family:Webdings;-inkscape-font-specification:'Webdings Bold';text-align:center;text-anchor:middle;fill:#000000;fill-opacity:1;stroke:none;stroke-width:0.5291667;stroke-miterlimit:4;stroke-dasharray:none;stroke-dashoffset:0;stroke-opacity:1;paint-order:fill markers stroke"
       d="m 9.3478618,279.34552 c -0.3302699,-0.009 -0.4202419,0.6237 -0.2604489,0.6475 0.2261599,-0.3532 0.8757319,-0.11608 0.7203699,0.31729 -0.145691,0.41059 -0.6799499,0.35463 -1.0330119,0.35502 -1.102092,-0.0331 -2.205557,-0.16821 -3.308326,-0.17466 -0.01001,8.2e-4 -0.02001,0.002 -0.02997,0.003 -0.02617,0.002 -0.05239,0.004 -0.07855,0.007 -0.02646,0.002 -0.0526,0.004 -0.07906,0.006 -0.02658,0.002 -0.05352,0.004 -0.0801,0.007 -0.02706,0.002 -0.05404,0.004 -0.08113,0.006 -0.02667,0.002 -0.0534,0.004 -0.0801,0.005 -0.02612,10e-4 -0.05192,0.003 -0.07803,0.005 -0.02622,0.002 -0.05286,0.003 -0.07906,0.005 -0.02654,0.002 -0.05306,0.004 -0.07958,0.006 -0.02649,0.002 -0.0526,0.004 -0.07906,0.006 -0.02618,0.002 -0.052394,0.005 -0.078549,0.007 -0.026772,0.003 -0.053815,0.005 -0.080615,0.008 -0.025601,0.002 -0.050885,0.004 -0.076481,0.006 -0.025257,0.002 -0.050728,0.004 -0.075964,0.007 -0.024979,0.002 -0.049986,0.005 -0.074931,0.008 -0.02436,0.003 -0.048549,0.005 -0.072864,0.009 -0.023641,0.003 -0.047225,0.006 -0.070797,0.0103 -0.023524,0.004 -0.046872,0.008 -0.07028,0.0114 -0.022908,0.004 -0.046015,0.009 -0.068729,0.0145 -0.023519,0.005 -0.046782,0.0106 -0.07028,0.016 -0.023069,0.006 -0.04631,0.0116 -0.069247,0.0176 -0.02413,0.006 -0.04814,0.0121 -0.072347,0.0181 -0.024466,0.006 -0.048819,0.0123 -0.07338,0.0181 -0.022929,0.005 -0.046339,0.0106 -0.069247,0.016 -0.020518,0.005 -0.041077,0.009 -0.061495,0.0145 -0.019391,0.005 -0.038656,0.01 -0.057878,0.0155 -0.018878,0.006 -0.037666,0.0114 -0.056327,0.0176 -0.00815,0.003 -0.016216,0.005 -0.024289,0.008 0.00384,0.0351 0.036129,0.0742 0.1116208,0.11782 0.087452,-0.008 0.1742308,-0.004 0.2604495,0.004 0.017391,-0.002 0.034836,-0.005 0.052193,-0.007 0.024471,-0.003 0.048862,-0.005 0.073381,-0.008 0.024998,-0.003 0.050381,-0.005 0.075448,-0.006 0.025969,-0.002 0.051506,-0.003 0.077515,-0.004 0.02631,-6.4e-4 0.05276,-1.5e-4 0.079065,5.3e-4 0.024741,7.4e-4 0.049678,5.5e-4 0.074414,0.002 l 0.072864,0.003 c 0.025225,10e-4 0.050765,0.003 0.075964,0.004 0.024704,0.002 0.049198,0.003 0.073897,0.005 0.024064,0.002 0.048278,0.004 0.072347,0.006 0.025223,0.002 0.050259,0.004 0.075448,0.006 0.02643,0.002 0.053126,0.005 0.079582,0.007 0.02749,0.002 0.05465,0.004 0.08216,0.006 0.02746,0.002 0.05522,0.004 0.08268,0.006 0.02743,0.002 0.05473,0.003 0.08216,0.005 0.02793,0.002 0.0558,0.003 0.08372,0.005 0.02778,0.002 0.05546,0.004 0.0832,0.006 0.02734,0.002 0.05485,0.005 0.08217,0.007 0.02764,0.002 0.05508,0.005 0.08268,0.007 0.02781,0.003 0.05589,0.005 0.08372,0.008 0.02858,0.003 0.05717,0.005 0.08578,0.007 0.0314,0.002 0.06265,0.005 0.09405,0.007 10e-4,2e-5 0.0021,-10e-6 0.0031,0 1.204586,0.0214 2.406668,0.19971 3.612699,0.16485 0.4404246,-0.013 0.9778158,-0.21724 1.0567828,-0.70796 0.08635,-0.40053 -0.05573,-0.92909 -0.5110802,-1.0232 -0.110373,-0.0298 -0.224935,-0.0402 -0.338997,-0.0403 -0.02415,-0.007 -0.04723,-0.0102 -0.06925,-0.0109 z"
       id="path1249"
       inkscape:connector-curvature="0" />
    <path
       style="font-style:normal;font-variant:normal;font-weight:bold;font-stretch:normal;font-size:16.93333435px;line-height:1.25;font-family:Webdings;-inkscape-font-specification:'Webdings Bold';text-align:center;text-anchor:middle;fill:#000000;fill-opacity:1;stroke:none;stroke-width:0.5291667;stroke-miterlimit:4;stroke-dasharray:none;stroke-dashoffset:0;stroke-opacity:1;paint-order:fill markers stroke"
       d="m 4.1548972,281.102 c -0.022405,5e-4 -0.044804,0.002 -0.067179,0.003 -0.022926,0.002 -0.045867,0.003 -0.068729,0.006 -0.022733,0.002 -0.045522,0.005 -0.068213,0.007 -0.02263,0.003 -0.045135,0.006 -0.067696,0.009 -0.022624,0.003 -0.045138,0.007 -0.067696,0.0109 -0.02195,0.004 -0.043751,0.008 -0.065629,0.0114 -0.02178,0.004 -0.0438,0.008 -0.065629,0.0119 -0.021746,0.004 -0.043308,0.007 -0.065112,0.0103 -0.022074,0.003 -0.044541,0.006 -0.066662,0.01 -0.0055,7.7e-4 -0.011033,9.3e-4 -0.016537,0.002 -0.0065,0.009 -0.015968,0.0153 -0.020672,0.0264 -0.00383,0.18362 0.2802631,0.20923 0.513147,0.26096 0.00552,4.5e-4 0.011036,10e-4 0.016536,0.002 0.023244,0.002 0.04653,0.004 0.069763,0.006 0.023564,0.002 0.046698,0.004 0.07028,0.006 0.024963,0.002 0.050002,0.004 0.074931,0.007 0.025257,0.002 0.050744,0.005 0.075964,0.008 0.024638,0.003 0.049249,0.005 0.073897,0.008 0.026014,0.003 0.052057,0.006 0.078031,0.009 0.027513,0.004 0.054714,0.007 0.082166,0.0114 0.027287,0.004 0.054887,0.008 0.082166,0.0129 0.027477,0.004 0.054753,0.009 0.082166,0.0134 0.02633,0.005 0.05269,0.009 0.07906,0.0129 0.02679,0.005 0.05386,0.009 0.08061,0.0139 0.02643,0.005 0.05263,0.01 0.07906,0.0145 0.02591,0.005 0.05165,0.0103 0.07752,0.015 0.02539,0.005 0.05107,0.01 0.07648,0.015 0.02578,0.005 0.05176,0.0102 0.07751,0.0155 0.0278,0.006 0.05551,0.0119 0.0832,0.0181 0.02753,0.006 0.05462,0.0126 0.08217,0.0186 0.0276,0.006 0.05557,0.012 0.0832,0.0181 0.02746,0.006 0.05467,0.0129 0.08217,0.0191 0.0031,6.6e-4 0.0062,10e-4 0.0093,0.002 1.04961,0.14199 2.096223,0.31052 3.111438,0.61443 0.2938,0.12732 0.8196146,0.2178 0.8077026,0.62219 -0.01899,0.35293 -0.6836336,0.32482 -0.5400186,-0.0631 -0.343151,0.21342 -0.210781,0.86349 0.244947,0.76636 0.4131586,0.0292 0.7997346,-0.30321 0.7673946,-0.73122 0.03344,-0.56527 -0.52521,-0.91053 -0.9885696,-1.08262 -0.812742,-0.29855 -1.684783,-0.37124 -2.532662,-0.52038 -0.305977,-0.046 -0.612565,-0.0883 -0.919324,-0.12868 -0.0045,-3.1e-4 -0.009,-7.4e-4 -0.01344,-10e-4 -0.02966,-0.002 -0.05925,-0.005 -0.08888,-0.007 -0.02824,-0.003 -0.05653,-0.005 -0.08475,-0.008 -0.02656,-0.003 -0.05298,-0.005 -0.07958,-0.007 -0.0267,-0.002 -0.05389,-0.005 -0.08061,-0.007 -0.02675,-0.002 -0.05332,-0.004 -0.0801,-0.006 -0.02742,-0.002 -0.05474,-0.003 -0.08216,-0.005 -0.02804,-0.002 -0.0562,-0.003 -0.08423,-0.005 -0.028,-0.002 -0.05573,-0.004 -0.08372,-0.006 -0.0283,-0.002 -0.05698,-0.004 -0.08527,-0.006 -0.02697,-0.002 -0.05367,-0.004 -0.080615,-0.007 -0.024215,-0.002 -0.048615,-0.004 -0.072864,-0.006 -0.023958,-0.002 -0.047878,-0.004 -0.07183,-0.006 -0.024154,-0.002 -0.048188,-0.003 -0.072347,-0.005 -0.023212,-0.002 -0.046527,-0.003 -0.069763,-0.004 l -0.07183,-0.003 c -0.023767,-9e-4 -0.047541,-10e-4 -0.071313,-0.002 -0.022344,-5.5e-4 -0.04483,-5.3e-4 -0.06718,0 z"
       id="path1247"
       inkscape:connector-curvature="0" />
    <path
       style="font-style:normal;font-variant:normal;font-weight:bold;font-stretch:normal;font-size:16.93333435px;line-height:1.25;font-family:Webdings;-inkscape-font-specification:'Webdings Bold';text-align:center;text-anchor:middle;fill:#000000;fill-opacity:1;stroke:none;stroke-width:0.5291667;stroke-miterlimit:4;stroke-dasharray:none;stroke-dashoffset:0;stroke-opacity:1;paint-order:fill markers stroke"
       d="m 3.5058412,281.67819 c -0.019973,5.3e-4 -0.039992,0.001 -0.059945,0.002 -0.019063,0.001 -0.037828,0.002 -0.056844,0.004 -0.00552,6.1e-4 -0.011012,10e-4 -0.016536,0.002 -0.029977,0.26592 0.4995342,0.2999 0.728121,0.42891 0.9864207,0.32289 2.0194347,0.51001 2.9775957,0.91571 0.576169,0.26558 1.222914,0.72857 1.221631,1.43144 0.06385,0.39291 -0.295112,0.75146 -0.687813,0.62012 -0.399497,-0.077 -0.394513,-0.61661 -0.19327,-0.88315 0.09992,-0.13476 0.308633,-0.25607 0.02015,-0.18656 -0.456402,0.008 -0.715314,0.47819 -0.58291,0.8878 0.0535,0.43258 0.49448,0.68325 0.902271,0.66508 0.413045,0.0455 0.860988,-0.19243 0.949812,-0.62012 0.18603,-0.63884 -0.05116,-1.3515 -0.558622,-1.77457 -0.889855,-0.77675 -2.079127,-1.00806 -3.181718,-1.33635 -0.01276,-0.002 -0.02547,-0.005 -0.03824,-0.007 -0.02558,-0.005 -0.0509,-0.009 -0.07648,-0.0145 -0.02583,-0.005 -0.05166,-0.009 -0.07751,-0.0129 -0.02695,-0.004 -0.05371,-0.009 -0.08062,-0.0139 -0.026516,-0.005 -0.053521,-0.009 -0.080099,-0.0129 -0.026822,-0.004 -0.053269,-0.008 -0.080099,-0.0124 -0.025445,-0.004 -0.050983,-0.007 -0.076481,-0.0109 -0.024675,-0.003 -0.049702,-0.006 -0.074414,-0.009 -0.024794,-0.003 -0.049633,-0.005 -0.074414,-0.008 -0.024188,-0.003 -0.048122,-0.005 -0.072347,-0.008 -0.023704,-0.002 -0.047572,-0.004 -0.071313,-0.006 -0.024199,-0.002 -0.048164,-0.004 -0.072347,-0.006 -0.022958,-0.002 -0.046281,-0.004 -0.069246,-0.006 -0.022418,-0.002 -0.044766,-0.004 -0.067179,-0.006 -0.022651,-0.002 -0.045061,-0.004 -0.067696,-0.006 -0.022106,-0.002 -0.044527,-0.004 -0.066662,-0.005 -0.022093,-0.002 -0.044051,-0.003 -0.066146,-0.005 -0.02159,-10e-4 -0.042979,-0.003 -0.064596,-0.004 -0.020974,-8.7e-4 -0.042061,-10e-4 -0.063045,-0.002 -0.021233,-3.2e-4 -0.042329,-7.4e-4 -0.063562,-10e-4 -0.019696,-2.3e-4 -0.039735,-3.7e-4 -0.059428,0 z"
       id="path966"
       inkscape:connector-curvature="0" />
    <path
       style="font-style:normal;font-variant:normal;font-weight:bold;font-stretch:normal;font-size:16.93333435px;line-height:1.25;font-family:Webdings;-inkscape-font-specification:'Webdings Bold';text-align:center;text-anchor:middle;fill:#000000;fill-opacity:1;stroke:none;stroke-width:0.5291667;stroke-miterlimit:4;stroke-dasharray:none;stroke-dashoffset:0;stroke-opacity:1;paint-order:fill markers stroke"
       d="m 11.872919,279.79783 c -0.337816,0 -0.636653,0.12556 -0.896513,0.3768 -0.251196,0.24253 -0.376793,0.53271 -0.376793,0.87052 0,0.49373 0.27285,0.7406 0.818553,0.7406 0.121268,0 0.238204,-0.0173 0.350809,-0.052 -0.467745,-0.21654 -0.701617,-0.44608 -0.701617,-0.68862 0,-0.20788 0.07796,-0.38979 0.233872,-0.54571 0.164577,-0.15588 0.35514,-0.23387 0.571689,-0.23387 0.225211,0 0.337816,0.0996 0.337816,0.29884 0,0.2079 -0.138584,0.38545 -0.415773,0.53271 h 0.233873 c 0.459083,0 0.688625,-0.21222 0.688625,-0.63665 0,-0.44176 -0.281514,-0.66264 -0.844541,-0.66264 z"
       id="path952"
       inkscape:connector-curvature="0"
       sodipodi:nodetypes="scsscscsscsss" />
    <path
       style="font-style:normal;font-variant:normal;font-weight:bold;font-stretch:normal;font-size:16.93333435px;line-height:1.25;font-family:Webdings;-inkscape-font-specification:'Webdings Bold';text-align:center;text-anchor:middle;fill:#000000;fill-opacity:1;stroke:none;stroke-width:0.5291667;stroke-miterlimit:4;stroke-dasharray:none;stroke-dashoffset:0;stroke-opacity:1;paint-order:fill markers stroke"
       d="m 11.470138,282.64328 c -0.727604,0 -1.11306,0.37246 -1.156369,1.1174 0.346477,-0.4331 0.731933,-0.64965 1.156369,-0.64965 0.407112,0 0.610669,0.18623 0.610669,0.55869 0,0.44176 -0.203557,0.66264 -0.610669,0.66264 -0.199225,0 -0.298837,-0.0996 -0.298837,-0.29884 0,-0.14724 0.09528,-0.28152 0.285845,-0.40277 -0.493732,0 -0.740597,0.16458 -0.740597,0.49373 0,0.44176 0.251196,0.66264 0.753589,0.66264 0.718943,0 1.078414,-0.37246 1.078414,-1.1174 0,-0.68429 -0.359471,-1.02644 -1.078414,-1.02644 z"
       id="path948"
       inkscape:connector-curvature="0"
       sodipodi:nodetypes="scsssscssss" />
  </g>
  <g
     inkscape:groupmode="layer"
     id="layer2"
     inkscape:label="Layer 2"
     sodipodi:insensitive="true"
     style="display:inline">
    <path
       style="opacity:1;vector-effect:none;fill:#808305;fill-opacity:0.02471008;stroke:#000000;stroke-width:0.46774399;stroke-linecap:butt;stroke-linejoin:miter;stroke-miterlimit:4;stroke-dasharray:none;stroke-dashoffset:0;stroke-opacity:1;paint-order:normal"
       d="M 0.90203467,7.9601641 H 9.0430107 C 9.2295941,7.9388251 9.4072256,7.846776 9.5322481,7.7066401 9.6572706,7.5665042 9.7285399,7.3795639 9.7285399,7.1917642 9.7285399,7.0039646 9.6572706,6.8170243 9.5322481,6.6768884 9.4072256,6.5367525 9.2295941,6.4447034 9.0430107,6.4233644 8.8906731,6.405942 8.7333193,6.4351461 8.5973787,6.5060716 8.461438,6.5769972 8.3474679,6.6893532 8.2746107,6.8242685"
       id="path826"
       inkscape:connector-curvature="0"
       inkscape:path-effect="#path-effect828"
       inkscape:original-d="m 0.90203467,7.9601641 c 2.38341783,-2.645e-4 8.14097603,0 8.14097603,0 0,0 2.645e-4,-0.8577542 0,-1.5367997 -2.646e-4,-0.6790455 -0.4340484,0.1445065 -0.7684,0.4009041"
       sodipodi:nodetypes="ccsc"
       transform="matrix(1.1294956,0,0,1.1331411,-0.80435764,-2.2822518)" />
    <path
       sodipodi:nodetypes="ccsc"
       inkscape:original-d="m 0.90203467,7.9601641 c 2.38341783,-2.645e-4 6.02430933,0 6.02430933,0 0,0 2.645e-4,-0.8577542 0,-1.5367997 -2.646e-4,-0.6790455 -0.4340484,0.1445065 -0.7684,0.4009041"
       inkscape:path-effect="#path-effect840"
       inkscape:connector-curvature="0"
       id="path838"
       d="M 0.90203467,7.9601641 H 6.926344 C 7.1129274,7.9388251 7.2905589,7.846776 7.4155814,7.7066401 7.5406039,7.5665042 7.6118732,7.3795639 7.6118732,7.1917642 7.6118732,7.0039646 7.5406039,6.8170243 7.4155814,6.6768884 7.2905589,6.5367525 7.1129274,6.4447034 6.926344,6.4233644 6.7740064,6.405942 6.6166526,6.4351461 6.480712,6.5060716 6.3447713,6.5769972 6.2308012,6.6893532 6.157944,6.8242685"
       style="opacity:1;vector-effect:none;fill:#808305;fill-opacity:0.02471008;stroke:#000000;stroke-width:0.46774399;stroke-linecap:butt;stroke-linejoin:miter;stroke-miterlimit:4;stroke-dasharray:none;stroke-dashoffset:0;stroke-opacity:1;paint-order:normal"
       transform="matrix(1.1294956,0,0,1.1331411,-0.80435764,-3.6485364)" />
    <path
       transform="matrix(1.1294956,0,0,1.1331411,-0.80435764,-5.0148208)"
       style="opacity:1;vector-effect:none;fill:#808305;fill-opacity:0.02471008;stroke:#000000;stroke-width:0.46774399;stroke-linecap:butt;stroke-linejoin:miter;stroke-miterlimit:4;stroke-dasharray:none;stroke-dashoffset:0;stroke-opacity:1;paint-order:normal"
       d="M 0.90203467,7.9601641 H 4.8096773 C 4.9962607,7.9388251 5.1738922,7.846776 5.2989147,7.7066401 5.4239372,7.5665042 5.4952065,7.3795639 5.4952065,7.1917642 5.4952065,7.0039646 5.4239372,6.8170243 5.2989147,6.6768884 5.1738922,6.5367525 4.9962607,6.4447034 4.8096773,6.4233644 4.6573397,6.405942 4.4999859,6.4351461 4.3640453,6.5060716 4.2281046,6.5769972 4.1141345,6.6893532 4.0412773,6.8242685"
       id="path842"
       inkscape:connector-curvature="0"
       inkscape:path-effect="#path-effect844"
       inkscape:original-d="m 0.90203467,7.9601641 c 2.38341783,-2.645e-4 3.90764263,0 3.90764263,0 0,0 2.645e-4,-0.8577542 0,-1.5367997 -2.646e-4,-0.6790455 -0.4340484,0.1445065 -0.7684,0.4009041"
       sodipodi:nodetypes="ccsc" />
  </g>
  <g
     inkscape:label="Layer 2 copy"
     id="g852"
     inkscape:groupmode="layer"
     style="display:none"
     sodipodi:insensitive="true">
    <path
       transform="matrix(1.1294956,0,0,1.1331411,-0.80435764,-6.0731542)"
       sodipodi:nodetypes="ccsc"
       inkscape:original-d="m 0.90203467,7.9601641 c 2.38341783,-2.645e-4 8.14097603,0 8.14097603,0 0,0 2.645e-4,-0.8577542 0,-1.5367997 -2.646e-4,-0.6790455 -0.4340484,0.1445065 -0.7684,0.4009041"
       inkscape:path-effect="#path-effect828"
       inkscape:connector-curvature="0"
       id="path846"
       d="M 0.90203467,7.9601641 H 9.0430107 C 9.2295941,7.9388251 9.4072256,7.846776 9.5322481,7.7066401 9.6572706,7.5665042 9.7285399,7.3795639 9.7285399,7.1917642 9.7285399,7.0039646 9.6572706,6.8170243 9.5322481,6.6768884 9.4072256,6.5367525 9.2295941,6.4447034 9.0430107,6.4233644 8.8906731,6.405942 8.7333193,6.4351461 8.5973787,6.5060716 8.461438,6.5769972 8.3474679,6.6893532 8.2746107,6.8242685"
       style="opacity:1;vector-effect:none;fill:#808305;fill-opacity:0.02471008;stroke:#000000;stroke-width:0.46774399;stroke-linecap:butt;stroke-linejoin:miter;stroke-miterlimit:4;stroke-dasharray:none;stroke-dashoffset:0;stroke-opacity:1;paint-order:normal" />
    <path
       transform="matrix(1.1294956,0,0,1.1331411,-0.80435764,-3.6485364)"
       style="opacity:1;vector-effect:none;fill:#808305;fill-opacity:0.02471008;stroke:#000000;stroke-width:0.46774399;stroke-linecap:butt;stroke-linejoin:miter;stroke-miterlimit:4;stroke-dasharray:none;stroke-dashoffset:0;stroke-opacity:1;paint-order:normal"
       d="M 0.90203467,7.9601641 H 6.926344 C 7.1129274,7.9388251 7.2905589,7.846776 7.4155814,7.7066401 7.5406039,7.5665042 7.6118732,7.3795639 7.6118732,7.1917642 7.6118732,7.0039646 7.5406039,6.8170243 7.4155814,6.6768884 7.2905589,6.5367525 7.1129274,6.4447034 6.926344,6.4233644 6.7740064,6.405942 6.6166526,6.4351461 6.480712,6.5060716 6.3447713,6.5769972 6.2308012,6.6893532 6.157944,6.8242685"
       id="path848"
       inkscape:connector-curvature="0"
       inkscape:path-effect="#path-effect840"
       inkscape:original-d="m 0.90203467,7.9601641 c 2.38341783,-2.645e-4 6.02430933,0 6.02430933,0 0,0 2.645e-4,-0.8577542 0,-1.5367997 -2.646e-4,-0.6790455 -0.4340484,0.1445065 -0.7684,0.4009041"
       sodipodi:nodetypes="ccsc" />
    <path
       transform="matrix(1.1294956,0,0,1.1331411,-0.80435764,-1.2239184)"
       style="opacity:1;vector-effect:none;fill:#808305;fill-opacity:0.02471008;stroke:#000000;stroke-width:0.46774399;stroke-linecap:butt;stroke-linejoin:miter;stroke-miterlimit:4;stroke-dasharray:none;stroke-dashoffset:0;stroke-opacity:1;paint-order:normal"
       d="M 0.90203467,7.9601641 H 4.8096773 C 4.9962607,7.9388251 5.1738922,7.846776 5.2989147,7.7066401 5.4239372,7.5665042 5.4952065,7.3795639 5.4952065,7.1917642 5.4952065,7.0039646 5.4239372,6.8170243 5.2989147,6.6768884 5.1738922,6.5367525 4.9962607,6.4447034 4.8096773,6.4233644 4.6573397,6.405942 4.4999859,6.4351461 4.3640453,6.5060716 4.2281046,6.5769972 4.1141345,6.6893532 4.0412773,6.8242685"
       id="path854"
       inkscape:connector-curvature="0"
       inkscape:path-effect="#path-effect856"
       inkscape:original-d="m 0.90203467,7.9601641 c 2.38341783,-2.645e-4 3.90764263,0 3.90764263,0 0,0 2.645e-4,-0.8577542 0,-1.5367997 -2.646e-4,-0.6790455 -0.4340484,0.1445065 -0.7684,0.4009041"
       sodipodi:nodetypes="ccsc" />
  </g>
  <g
     inkscape:groupmode="layer"
     id="layer3"
     inkscape:label="Layer 2 copy 1"
     sodipodi:insensitive="true"
     style="display:none">
    <path
       style="opacity:1;vector-effect:none;fill:none;fill-opacity:1;stroke:#000000;stroke-width:0.13229167;stroke-linecap:butt;stroke-linejoin:miter;stroke-miterlimit:4;stroke-dasharray:none;stroke-dashoffset:0;stroke-opacity:1;paint-order:normal"
       d="M 10.207447,5.5109843 A 0.65793528,0.66208344 0 0 1 9.5495122,6.1730676 0.65793528,0.66208344 0 0 1 8.8915769,5.5109843 0.65793528,0.66208344 0 0 1 9.5495122,4.8489009 0.65793528,0.66208344 0 0 1 10.207447,5.5109843 Z"
       id="path869"
       inkscape:connector-curvature="0" />
    <path
       style="opacity:1;vector-effect:none;fill:#000000;fill-opacity:1;stroke:none;stroke-width:0.13229167;stroke-linecap:butt;stroke-linejoin:miter;stroke-miterlimit:4;stroke-dasharray:none;stroke-dashoffset:0;stroke-opacity:1;paint-order:normal"
       d="M 8.9927976,5.6892374 H 0.18658645 L 0.91141856,2.4154995 1.739012,5.3285272 h 7.2537852 z"
       id="path874"
       inkscape:connector-curvature="0"
       sodipodi:nodetypes="cccccc" />
    <path
       style="opacity:1;vector-effect:none;fill:#000000;fill-opacity:1;stroke:#000000;stroke-width:0.13229167;stroke-linecap:butt;stroke-linejoin:miter;stroke-miterlimit:4;stroke-dasharray:none;stroke-dashoffset:0;stroke-opacity:1;paint-order:normal"
       d="M 2.3122236,5.4345894 1.5080857,2.4145851"
       id="path876"
       inkscape:connector-curvature="0" />
    <path
       style="opacity:1;vector-effect:none;fill:#000000;fill-opacity:1;stroke:#000000;stroke-width:0.13229167;stroke-linecap:butt;stroke-linejoin:miter;stroke-miterlimit:4;stroke-dasharray:none;stroke-dashoffset:0;stroke-opacity:1;paint-order:normal"
       d="M 2.970159,5.4855193 2.5292239,3.8295515"
       id="path878"
       inkscape:connector-curvature="0" />
  </g>
</svg>
