<?xml version="1.0" encoding="UTF-8" standalone="no"?>
<!-- Created with Inkscape (http://www.inkscape.org/) -->

<svg
   xmlns:dc="http://purl.org/dc/elements/1.1/"
   xmlns:cc="http://creativecommons.org/ns#"
   xmlns:rdf="http://www.w3.org/1999/02/22-rdf-syntax-ns#"
   xmlns:svg="http://www.w3.org/2000/svg"
   xmlns="http://www.w3.org/2000/svg"
   xmlns:xlink="http://www.w3.org/1999/xlink"
   xmlns:sodipodi="http://sodipodi.sourceforge.net/DTD/sodipodi-0.dtd"
   xmlns:inkscape="http://www.inkscape.org/namespaces/inkscape"
   width="375"
   height="500"
   viewBox="0 0 99.218749 132.29167"
   version="1.1"
   id="svg8"
   inkscape:version="0.92.5 (2060ec1f9f, 2020-04-08)"
   sodipodi:docname="valentines.svg">
  <defs
     id="defs2">
    <pattern
       inkscape:collect="always"
       xlink:href="#pattern2332"
       id="pattern2355"
       patternTransform="matrix(0.1172939,0,0,0.1172939,-5.6126601,163.37198)" />
    <pattern
       patternUnits="userSpaceOnUse"
       width="300"
       height="409.04201"
       patternTransform="matrix(0.26458334,0,0,0.26458334,0,24.065969)"
       id="pattern2332">
      <rect
         style="opacity:1;vector-effect:none;fill:none;fill-opacity:1;fill-rule:nonzero;stroke:none;stroke-width:2.88000011;stroke-linecap:round;stroke-linejoin:round;stroke-miterlimit:4;stroke-dasharray:none;stroke-opacity:1;paint-order:stroke fill markers"
         id="rect1723"
         width="300"
         height="409.04202"
         x="0"
         y="-1.4210855e-14" />
      <path
         d="m 50.109581,409.04198 q -1.69852,-6.46534 -4.876396,-12.10878 -3.123084,-5.69828 -12.163589,-17.64268 -6.629707,-8.76658 -8.163855,-11.12258 -2.520382,-3.83535 -3.670991,-7.01326 -1.095821,-3.23266 -1.095821,-6.5201 0,-6.08179 4.05453,-10.19112 4.054533,-4.10933 10.026746,-4.10933 6.027005,0 10.465073,4.27371 3.342248,3.17786 5.424303,9.47882 1.808103,-6.19139 5.095559,-9.42406 4.547648,-4.38327 10.519865,-4.38327 5.917421,0 10.026742,4.10933 4.109322,4.05453 4.109322,9.698 0,4.93119 -2.410802,10.30069 -2.410802,5.31473 -9.31446,13.9717 -8.985717,11.34172 -13.095039,18.62892 -3.232668,5.75304 -4.931187,12.05401 z"
         style="font-style:normal;font-variant:normal;font-weight:normal;font-stretch:normal;font-size:29.68939209px;line-height:1.25;font-family:Arial;-inkscape-font-specification:Arial;font-variant-ligatures:normal;font-variant-caps:normal;font-variant-numeric:normal;font-feature-settings:normal;text-align:center;writing-mode:lr-tb;text-anchor:middle;fill:#e9afc6;fill-opacity:1;fill-rule:nonzero;stroke:none;stroke-width:2.87999988;stroke-linecap:round;stroke-linejoin:round;stroke-miterlimit:4;stroke-dasharray:none;stroke-opacity:1;paint-order:stroke fill markers"
         id="path1725"
         inkscape:connector-curvature="0" />
      <path
         d="m 150.10958,409.04198 q -1.69852,-6.46534 -4.87639,-12.10878 -3.12309,-5.69828 -12.16359,-17.64268 -6.62971,-8.76658 -8.16386,-11.12258 -2.52038,-3.83535 -3.67099,-7.01326 -1.09582,-3.23266 -1.09582,-6.5201 0,-6.08179 4.05453,-10.19112 4.05453,-4.10933 10.02675,-4.10933 6.027,0 10.46507,4.27371 3.34225,3.17786 5.4243,9.47882 1.8081,-6.19139 5.09556,-9.42406 4.54765,-4.38327 10.51987,-4.38327 5.91742,0 10.02674,4.10933 4.10932,4.05453 4.10932,9.698 0,4.93119 -2.4108,10.30069 -2.4108,5.31473 -9.31446,13.9717 -8.98572,11.34172 -13.09504,18.62892 -3.23267,5.75304 -4.93119,12.05401 z"
         style="font-style:normal;font-variant:normal;font-weight:normal;font-stretch:normal;font-size:29.68939209px;line-height:1.25;font-family:Arial;-inkscape-font-specification:Arial;font-variant-ligatures:normal;font-variant-caps:normal;font-variant-numeric:normal;font-feature-settings:normal;text-align:center;writing-mode:lr-tb;text-anchor:middle;fill:#c6afe9;fill-opacity:1;fill-rule:nonzero;stroke:none;stroke-width:2.87999988;stroke-linecap:round;stroke-linejoin:round;stroke-miterlimit:4;stroke-dasharray:none;stroke-opacity:1;paint-order:stroke fill markers"
         id="path1727"
         inkscape:connector-curvature="0" />
      <path
         d="m 250.10959,409.04198 q -1.69852,-6.46534 -4.8764,-12.10878 -3.12308,-5.69828 -12.16359,-17.64268 -6.6297,-8.76658 -8.16385,-11.12258 -2.52038,-3.83535 -3.67099,-7.01326 -1.09582,-3.23266 -1.09582,-6.5201 0,-6.08179 4.05453,-10.19112 4.05453,-4.10933 10.02674,-4.10933 6.02701,0 10.46507,4.27371 3.34226,3.17786 5.42431,9.47882 1.8081,-6.19139 5.09556,-9.42406 4.54765,-4.38327 10.51986,-4.38327 5.91742,0 10.02675,4.10933 4.10932,4.05453 4.10932,9.698 0,4.93119 -2.4108,10.30069 -2.41081,5.31473 -9.31447,13.9717 -8.98571,11.34172 -13.09503,18.62892 -3.23267,5.75304 -4.93119,12.05401 z"
         style="font-style:normal;font-variant:normal;font-weight:normal;font-stretch:normal;font-size:29.68939209px;line-height:1.25;font-family:Arial;-inkscape-font-specification:Arial;font-variant-ligatures:normal;font-variant-caps:normal;font-variant-numeric:normal;font-feature-settings:normal;text-align:center;writing-mode:lr-tb;text-anchor:middle;fill:#e9afaf;fill-opacity:1;fill-rule:nonzero;stroke:none;stroke-width:2.87999988;stroke-linecap:round;stroke-linejoin:round;stroke-miterlimit:4;stroke-dasharray:none;stroke-opacity:1;paint-order:stroke fill markers"
         id="path1729"
         inkscape:connector-curvature="0" />
      <path
         inkscape:connector-curvature="0"
         id="path1731"
         d="m 15.724609,240.28029 c -3.981477,0 -7.4877656,1.46062 -10.519531,4.3828 -2.1916383,2.15512 -3.8903021,5.29626 -5.09570301,9.42384 C 0.07410539,253.98019 0.03581204,253.88178 0,253.77639 v 54.87302 c 0.03557374,0.13153 0.07472477,0.26079 0.10937499,0.39258 1.13234641,-4.20064 2.77652981,-8.2193 4.93164051,-12.05469 2.7395486,-4.85813 7.1052255,-11.06774 13.0957035,-18.62888 4.602439,-5.77132 7.707252,-10.42756 9.314453,-13.97071 1.607201,-3.57967 2.410156,-7.01332 2.410156,-10.30078 0,-3.76232 -1.369827,-6.99619 -4.109375,-9.69922 -2.739548,-2.73954 -6.082396,-4.10742 -10.027344,-4.10742 z"
         style="font-style:normal;font-variant:normal;font-weight:normal;font-stretch:normal;font-size:29.68939209px;line-height:1.25;font-family:Arial;-inkscape-font-specification:Arial;font-variant-ligatures:normal;font-variant-caps:normal;font-variant-numeric:normal;font-feature-settings:normal;text-align:center;writing-mode:lr-tb;text-anchor:middle;fill:#ffaaee;fill-opacity:1;fill-rule:nonzero;stroke:none;stroke-width:2.87999988;stroke-linecap:round;stroke-linejoin:round;stroke-miterlimit:4;stroke-dasharray:none;stroke-opacity:1;paint-order:stroke fill markers" />
      <path
         d="m 100.10958,309.04203 q -1.698522,-6.46534 -4.876398,-12.10881 -3.123084,-5.69828 -12.163589,-17.6427 -6.629707,-8.76655 -8.163855,-11.12256 -2.520382,-3.83537 -3.670991,-7.01324 -1.095821,-3.23267 -1.095821,-6.52013 0,-6.08179 4.05453,-10.19111 4.054533,-4.10932 10.026746,-4.10932 6.027005,0 10.465074,4.27369 3.342247,3.17787 5.424304,9.47883 1.8081,-6.19138 5.09556,-9.42404 4.54764,-4.38328 10.51986,-4.38328 5.91742,0 10.02674,4.10932 4.10933,4.05454 4.10933,9.698 0,4.93118 -2.41081,10.30071 -2.4108,5.31472 -9.31446,13.97169 -8.98571,11.34171 -13.09504,18.6289 -3.23266,5.75308 -4.93118,12.05405 z"
         style="font-style:normal;font-variant:normal;font-weight:normal;font-stretch:normal;font-size:29.68939209px;line-height:1.25;font-family:Arial;-inkscape-font-specification:Arial;font-variant-ligatures:normal;font-variant-caps:normal;font-variant-numeric:normal;font-feature-settings:normal;text-align:center;writing-mode:lr-tb;text-anchor:middle;fill:#e9afdd;fill-opacity:1;fill-rule:nonzero;stroke:none;stroke-width:2.87999988;stroke-linecap:round;stroke-linejoin:round;stroke-miterlimit:4;stroke-dasharray:none;stroke-opacity:1;paint-order:stroke fill markers"
         id="path1733"
         inkscape:connector-curvature="0" />
      <path
         d="m 200.10959,309.04203 q -1.69852,-6.46534 -4.8764,-12.10881 -3.12308,-5.69828 -12.16359,-17.6427 -6.62971,-8.76655 -8.16385,-11.12256 -2.52039,-3.83537 -3.671,-7.01324 -1.09582,-3.23267 -1.09582,-6.52013 0,-6.08179 4.05453,-10.19111 4.05453,-4.10932 10.02675,-4.10932 6.027,0 10.46507,4.27369 3.34225,3.17787 5.42431,9.47883 1.8081,-6.19138 5.09555,-9.42404 4.54765,-4.38328 10.51987,-4.38328 5.91742,0 10.02674,4.10932 4.10932,4.05454 4.10932,9.698 0,4.93118 -2.4108,10.30071 -2.4108,5.31472 -9.31446,13.97169 -8.98572,11.34171 -13.09504,18.6289 -3.23266,5.75308 -4.93118,12.05405 z"
         style="font-style:normal;font-variant:normal;font-weight:normal;font-stretch:normal;font-size:29.68939209px;line-height:1.25;font-family:Arial;-inkscape-font-specification:Arial;font-variant-ligatures:normal;font-variant-caps:normal;font-variant-numeric:normal;font-feature-settings:normal;text-align:center;writing-mode:lr-tb;text-anchor:middle;fill:#ffaacc;fill-opacity:1;fill-rule:nonzero;stroke:none;stroke-width:2.87999988;stroke-linecap:round;stroke-linejoin:round;stroke-miterlimit:4;stroke-dasharray:none;stroke-opacity:1;paint-order:stroke fill markers"
         id="path1735"
         inkscape:connector-curvature="0" />
      <path
         d="m 50.109585,209.04203 q -1.69852,-6.46534 -4.876396,-12.1088 -3.123084,-5.69826 -12.16359,-17.64269 -6.629706,-8.76655 -8.163855,-11.12256 -2.520381,-3.83537 -3.67099,-7.01324 -1.095821,-3.23267 -1.095821,-6.52013 0,-6.08179 4.054529,-10.19112 4.054534,-4.10932 10.026747,-4.10932 6.027005,0 10.465073,4.2737 3.342248,3.17787 5.424303,9.47883 1.808103,-6.19137 5.095559,-9.42404 4.547648,-4.38328 10.519865,-4.38328 5.917421,0 10.026742,4.10932 4.109322,4.05453 4.109322,9.698 0,4.93119 -2.410802,10.3007 -2.410802,5.31473 -9.31446,13.9717 -8.985718,11.34172 -13.095039,18.62892 -3.232668,5.75305 -4.931187,12.05401 z"
         style="font-style:normal;font-variant:normal;font-weight:normal;font-stretch:normal;font-size:29.68939209px;line-height:1.25;font-family:Arial;-inkscape-font-specification:Arial;font-variant-ligatures:normal;font-variant-caps:normal;font-variant-numeric:normal;font-feature-settings:normal;text-align:center;writing-mode:lr-tb;text-anchor:middle;fill:#ffbfbf;fill-opacity:1;fill-rule:nonzero;stroke:none;stroke-width:2.87999988;stroke-linecap:round;stroke-linejoin:round;stroke-miterlimit:4;stroke-dasharray:none;stroke-opacity:1;paint-order:stroke fill markers"
         id="path1737"
         inkscape:connector-curvature="0" />
      <path
         d="m 150.10959,209.04203 q -1.69852,-6.46534 -4.8764,-12.1088 -3.12308,-5.69826 -12.16359,-17.64269 -6.62971,-8.76655 -8.16385,-11.12256 -2.52039,-3.83537 -3.671,-7.01324 -1.09582,-3.23267 -1.09582,-6.52013 0,-6.08179 4.05453,-10.19112 4.05454,-4.10932 10.02675,-4.10932 6.027,0 10.46507,4.2737 3.34225,3.17787 5.42431,9.47883 1.8081,-6.19137 5.09555,-9.42404 4.54765,-4.38328 10.51987,-4.38328 5.91742,0 10.02674,4.10932 4.10932,4.05453 4.10932,9.698 0,4.93119 -2.4108,10.3007 -2.4108,5.31473 -9.31446,13.9717 -8.98572,11.34172 -13.09504,18.62892 -3.23267,5.75305 -4.93118,12.05401 z"
         style="font-style:normal;font-variant:normal;font-weight:normal;font-stretch:normal;font-size:29.68939209px;line-height:1.25;font-family:Arial;-inkscape-font-specification:Arial;font-variant-ligatures:normal;font-variant-caps:normal;font-variant-numeric:normal;font-feature-settings:normal;text-align:center;writing-mode:lr-tb;text-anchor:middle;fill:#eeaaff;fill-opacity:1;fill-rule:nonzero;stroke:none;stroke-width:2.87999988;stroke-linecap:round;stroke-linejoin:round;stroke-miterlimit:4;stroke-dasharray:none;stroke-opacity:1;paint-order:stroke fill markers"
         id="path1739"
         inkscape:connector-curvature="0" />
      <path
         d="m 250.10959,209.04203 q -1.69852,-6.46534 -4.87639,-12.1088 -3.12309,-5.69826 -12.16359,-17.64269 -6.62971,-8.76655 -8.16386,-11.12256 -2.52038,-3.83537 -3.67099,-7.01324 -1.09582,-3.23267 -1.09582,-6.52013 0,-6.08179 4.05453,-10.19112 4.05453,-4.10932 10.02675,-4.10932 6.027,0 10.46507,4.2737 3.34225,3.17787 5.4243,9.47883 1.80811,-6.19137 5.09556,-9.42404 4.54765,-4.38328 10.51986,-4.38328 5.91743,0 10.02675,4.10932 4.10932,4.05453 4.10932,9.698 0,4.93119 -2.4108,10.3007 -2.4108,5.31473 -9.31446,13.9717 -8.98572,11.34172 -13.09504,18.62892 -3.23267,5.75305 -4.93119,12.05401 z"
         style="font-style:normal;font-variant:normal;font-weight:normal;font-stretch:normal;font-size:29.68939209px;line-height:1.25;font-family:Arial;-inkscape-font-specification:Arial;font-variant-ligatures:normal;font-variant-caps:normal;font-variant-numeric:normal;font-feature-settings:normal;text-align:center;writing-mode:lr-tb;text-anchor:middle;fill:#ddafe9;fill-opacity:1;fill-rule:nonzero;stroke:none;stroke-width:2.87999988;stroke-linecap:round;stroke-linejoin:round;stroke-miterlimit:4;stroke-dasharray:none;stroke-opacity:1;paint-order:stroke fill markers"
         id="path1741"
         inkscape:connector-curvature="0" />
      <path
         id="path1743"
         inkscape:connector-curvature="0"
         style="font-style:normal;font-variant:normal;font-weight:normal;font-stretch:normal;font-size:29.68939209px;line-height:1.25;font-family:Arial;-inkscape-font-specification:Arial;font-variant-ligatures:normal;font-variant-caps:normal;font-variant-numeric:normal;font-feature-settings:normal;text-align:center;writing-mode:lr-tb;text-anchor:middle;fill:#ffaacc;fill-opacity:1;fill-rule:nonzero;stroke:none;stroke-width:2.87999988;stroke-linecap:round;stroke-linejoin:round;stroke-miterlimit:4;stroke-dasharray:none;stroke-opacity:1;paint-order:stroke fill markers"
         d="m 200.10959,309.04203 q -1.69852,-6.46534 -4.8764,-12.10881 -3.12308,-5.69828 -12.16359,-17.6427 -6.62971,-8.76655 -8.16385,-11.12256 -2.52039,-3.83537 -3.671,-7.01324 -1.09582,-3.23267 -1.09582,-6.52013 0,-6.08179 4.05453,-10.19111 4.05453,-4.10932 10.02675,-4.10932 6.027,0 10.46507,4.27369 3.34225,3.17787 5.42431,9.47883 1.8081,-6.19138 5.09555,-9.42404 4.54765,-4.38328 10.51987,-4.38328 5.91742,0 10.02674,4.10932 4.10932,4.05454 4.10932,9.698 0,4.93118 -2.4108,10.30071 -2.4108,5.31472 -9.31446,13.97169 -8.98572,11.34171 -13.09504,18.6289 -3.23266,5.75308 -4.93118,12.05405 z" />
      <path
         sodipodi:nodetypes="scscccccccs"
         inkscape:connector-curvature="0"
         id="path1745"
         d="m 284.2207,240.33498 c -3.98147,0 -7.32432,1.36983 -10.02734,4.10937 -2.70302,2.73955 -4.05469,6.13493 -4.05469,10.18946 0,2.19164 0.36518,4.36637 1.09571,6.52148 0.76707,2.11859 1.99162,4.45481 3.67187,7.01171 1.02277,1.57068 3.74426,5.27869 8.16406,11.12306 6.02701,7.96292 10.08006,13.84371 12.16211,17.64255 2.05376,3.64721 3.64063,7.55475 4.76758,11.7168 V 253.776 c -1.37357,-4.04235 -3.14291,-7.10283 -5.31445,-9.16758 -2.95872,-2.84914 -6.44684,-4.27344 -10.46485,-4.27344 z"
         style="font-style:normal;font-variant:normal;font-weight:normal;font-stretch:normal;font-size:29.68939209px;line-height:1.25;font-family:Arial;-inkscape-font-specification:Arial;font-variant-ligatures:normal;font-variant-caps:normal;font-variant-numeric:normal;font-feature-settings:normal;text-align:center;writing-mode:lr-tb;text-anchor:middle;fill:#ffaaee;fill-opacity:1;fill-rule:nonzero;stroke:none;stroke-width:2.87999988;stroke-linecap:round;stroke-linejoin:round;stroke-miterlimit:4;stroke-dasharray:none;stroke-opacity:1;paint-order:stroke fill markers" />
      <path
         style="font-style:normal;font-variant:normal;font-weight:normal;font-stretch:normal;font-size:29.68939209px;line-height:1.25;font-family:Arial;-inkscape-font-specification:Arial;font-variant-ligatures:normal;font-variant-caps:normal;font-variant-numeric:normal;font-feature-settings:normal;text-align:center;writing-mode:lr-tb;text-anchor:middle;fill:#f2c7d7;fill-opacity:1;fill-rule:nonzero;stroke:none;stroke-width:2.87999988;stroke-linecap:round;stroke-linejoin:round;stroke-miterlimit:4;stroke-dasharray:none;stroke-opacity:1;paint-order:stroke fill markers"
         d="m 15.724609,40.280264 c -3.981477,0 -7.4877656,1.460628 -10.519531,4.382808 C 3.0134397,46.818193 1.3147759,49.959324 0.10937499,54.086904 0.07410539,53.980163 0.03581204,53.881755 0,53.776363 v 54.873027 c 0.03557374,0.13153 0.07472477,0.26079 0.10937499,0.39258 1.13234641,-4.20064 2.77652981,-8.2193 4.93164051,-12.054692 2.7395486,-4.858129 7.1052255,-11.067745 13.0957035,-18.628883 4.602439,-5.77132 7.707252,-10.427561 9.314453,-13.97071 1.607201,-3.57967 2.410156,-7.013321 2.410156,-10.300781 0,-3.762312 -1.369827,-6.996189 -4.109375,-9.69922 -2.739548,-2.739541 -6.082396,-4.10742 -10.027344,-4.10742 z"
         id="path1747"
         inkscape:connector-curvature="0" />
      <path
         inkscape:connector-curvature="0"
         id="path1749"
         style="font-style:normal;font-variant:normal;font-weight:normal;font-stretch:normal;font-size:29.68939209px;line-height:1.25;font-family:Arial;-inkscape-font-specification:Arial;font-variant-ligatures:normal;font-variant-caps:normal;font-variant-numeric:normal;font-feature-settings:normal;text-align:center;writing-mode:lr-tb;text-anchor:middle;fill:#ffaaaa;fill-opacity:1;fill-rule:nonzero;stroke:none;stroke-width:2.87999988;stroke-linecap:round;stroke-linejoin:round;stroke-miterlimit:4;stroke-dasharray:none;stroke-opacity:1;paint-order:stroke fill markers"
         d="m 100.10958,109.04201 q -1.698522,-6.46534 -4.876398,-12.108817 -3.123084,-5.69828 -12.163589,-17.642698 -6.629707,-8.76655 -8.163855,-11.12256 -2.520382,-3.83537 -3.670991,-7.013242 -1.095821,-3.232668 -1.095821,-6.520128 0,-6.081792 4.05453,-10.19111 4.054533,-4.109322 10.026746,-4.109322 6.027005,0 10.465074,4.27369 3.342247,3.177872 5.424304,9.478832 1.8081,-6.191373 5.09556,-9.42404 4.54764,-4.383281 10.51986,-4.383281 5.91742,0 10.02674,4.109322 4.10933,4.054537 4.10933,9.697999 0,4.931187 -2.41081,10.300709 -2.4108,5.314719 -9.31446,13.971689 -8.98571,11.341712 -13.09504,18.628905 -3.23266,5.753082 -4.93118,12.054052 z" />
      <path
         inkscape:connector-curvature="0"
         id="path1751"
         style="font-style:normal;font-variant:normal;font-weight:normal;font-stretch:normal;font-size:29.68939209px;line-height:1.25;font-family:Arial;-inkscape-font-specification:Arial;font-variant-ligatures:normal;font-variant-caps:normal;font-variant-numeric:normal;font-feature-settings:normal;text-align:center;writing-mode:lr-tb;text-anchor:middle;fill:#ffaacc;fill-opacity:1;fill-rule:nonzero;stroke:none;stroke-width:2.87999988;stroke-linecap:round;stroke-linejoin:round;stroke-miterlimit:4;stroke-dasharray:none;stroke-opacity:1;paint-order:stroke fill markers"
         d="m 200.10959,109.04201 q -1.69852,-6.46534 -4.8764,-12.108817 -3.12308,-5.69828 -12.16359,-17.642698 -6.62971,-8.76655 -8.16385,-11.12256 -2.52039,-3.83537 -3.671,-7.013242 -1.09582,-3.232668 -1.09582,-6.520128 0,-6.081792 4.05453,-10.19111 4.05453,-4.109322 10.02675,-4.109322 6.027,0 10.46507,4.27369 3.34225,3.177872 5.42431,9.478832 1.8081,-6.191373 5.09555,-9.42404 4.54765,-4.383281 10.51987,-4.383281 5.91742,0 10.02674,4.109322 4.10932,4.054537 4.10932,9.697999 0,4.931187 -2.4108,10.300709 -2.4108,5.314719 -9.31446,13.971689 -8.98572,11.341712 -13.09504,18.628905 -3.23266,5.753082 -4.93118,12.054052 z" />
      <path
         d="m 200.10959,109.04201 q -1.69852,-6.46534 -4.8764,-12.108817 -3.12308,-5.69828 -12.16359,-17.642698 -6.62971,-8.76655 -8.16385,-11.12256 -2.52039,-3.83537 -3.671,-7.013242 -1.09582,-3.232668 -1.09582,-6.520128 0,-6.081792 4.05453,-10.19111 4.05453,-4.109322 10.02675,-4.109322 6.027,0 10.46507,4.27369 3.34225,3.177872 5.42431,9.478832 1.8081,-6.191373 5.09555,-9.42404 4.54765,-4.383281 10.51987,-4.383281 5.91742,0 10.02674,4.109322 4.10932,4.054537 4.10932,9.697999 0,4.931187 -2.4108,10.300709 -2.4108,5.314719 -9.31446,13.971689 -8.98572,11.341712 -13.09504,18.628905 -3.23266,5.753082 -4.93118,12.054052 z"
         style="font-style:normal;font-variant:normal;font-weight:normal;font-stretch:normal;font-size:29.68939209px;line-height:1.25;font-family:Arial;-inkscape-font-specification:Arial;font-variant-ligatures:normal;font-variant-caps:normal;font-variant-numeric:normal;font-feature-settings:normal;text-align:center;writing-mode:lr-tb;text-anchor:middle;fill:#ffccaa;fill-opacity:1;fill-rule:nonzero;stroke:none;stroke-width:2.87999988;stroke-linecap:round;stroke-linejoin:round;stroke-miterlimit:4;stroke-dasharray:none;stroke-opacity:1;paint-order:stroke fill markers"
         inkscape:connector-curvature="0"
         id="path1753" />
      <path
         style="font-style:normal;font-variant:normal;font-weight:normal;font-stretch:normal;font-size:29.68939209px;line-height:1.25;font-family:Arial;-inkscape-font-specification:Arial;font-variant-ligatures:normal;font-variant-caps:normal;font-variant-numeric:normal;font-feature-settings:normal;text-align:center;writing-mode:lr-tb;text-anchor:middle;fill:#f2c7d7;fill-opacity:1;fill-rule:nonzero;stroke:none;stroke-width:2.87999988;stroke-linecap:round;stroke-linejoin:round;stroke-miterlimit:4;stroke-dasharray:none;stroke-opacity:1;paint-order:stroke fill markers"
         d="m 284.2207,40.334954 c -3.98147,0 -7.32432,1.369829 -10.02734,4.10937 -2.70302,2.739549 -4.05469,6.134929 -4.05469,10.189459 0,2.191642 0.36518,4.366371 1.09571,6.52148 0.76707,2.118592 1.99162,4.454812 3.67187,7.011719 1.02277,1.570674 3.74426,5.278681 8.16406,11.123052 6.02701,7.96292 10.08006,13.843713 12.16211,17.642554 2.05376,3.647202 3.64063,7.554742 4.76758,11.716802 V 53.775974 c -1.37357,-4.042348 -3.14291,-7.102828 -5.31445,-9.167581 -2.95872,-2.84914 -6.44684,-4.273439 -10.46485,-4.273439 z"
         id="path1755"
         inkscape:connector-curvature="0"
         sodipodi:nodetypes="scscccccccs" />
    </pattern>
  </defs>
  <sodipodi:namedview
     id="base"
     pagecolor="#ffffff"
     bordercolor="#666666"
     borderopacity="1.0"
     inkscape:pageopacity="0.0"
     inkscape:pageshadow="2"
     inkscape:zoom="0.98994949"
     inkscape:cx="-88.598686"
     inkscape:cy="264.10173"
     inkscape:document-units="px"
     inkscape:current-layer="layer1"
     showgrid="false"
     units="px"
     borderlayer="true"
     inkscape:snap-page="true"
     inkscape:window-width="1366"
     inkscape:window-height="715"
     inkscape:window-x="-8"
     inkscape:window-y="-8"
     inkscape:window-maximized="1"
     inkscape:snap-bbox="true"
     inkscape:bbox-nodes="true"
     inkscape:snap-bbox-edge-midpoints="true"
     inkscape:snap-global="false"
     inkscape:bbox-paths="true"
     inkscape:snap-bbox-midpoints="false"
     inkscape:snap-nodes="true"
     inkscape:snap-others="false"
     inkscape:snap-intersection-paths="false"
     inkscape:object-paths="false"
     inkscape:snap-smooth-nodes="false"
     inkscape:object-nodes="true"
     inkscape:snap-grids="false"
     inkscape:snap-to-guides="false" />
  <metadata
     id="metadata5">
    <rdf:RDF>
      <cc:Work
         rdf:about="">
        <dc:format>image/svg+xml</dc:format>
        <dc:type
           rdf:resource="http://purl.org/dc/dcmitype/StillImage" />
        <dc:title />
      </cc:Work>
    </rdf:RDF>
  </metadata>
  <g
     inkscape:label="bg"
     inkscape:groupmode="layer"
     id="layer1"
     transform="translate(0,-164.70833)">
    <rect
       style="opacity:1;vector-effect:none;fill:#ffd5d5;fill-opacity:1;fill-rule:nonzero;stroke:none;stroke-width:0.76200002;stroke-linecap:round;stroke-linejoin:round;stroke-miterlimit:4;stroke-dasharray:none;stroke-opacity:1;paint-order:stroke fill markers"
       id="rect812"
       width="99.21875"
       height="132.29167"
       x="0"
       y="164.70833" />
    <rect
       y="164.70833"
       x="0"
       height="132.29167"
       width="99.21875"
       id="rect2353"
       style="opacity:1;vector-effect:none;fill:url(#pattern2355);fill-opacity:1;fill-rule:nonzero;stroke:none;stroke-width:0.76200002;stroke-linecap:round;stroke-linejoin:round;stroke-miterlimit:4;stroke-dasharray:none;stroke-opacity:1;paint-order:stroke fill markers" />
  </g>
</svg>
