<?xml version="1.0" encoding="UTF-8"?>
<!-- Created with Inkscape (http://www.inkscape.org/) -->
<svg width="500" height="500" enable-background="new" version="1.1" viewBox="0 0 132.29 132.29" xmlns="http://www.w3.org/2000/svg" xmlns:cc="http://creativecommons.org/ns#" xmlns:dc="http://purl.org/dc/elements/1.1/" xmlns:rdf="http://www.w3.org/1999/02/22-rdf-syntax-ns#" xmlns:xlink="http://www.w3.org/1999/xlink">
 <defs>
  <radialGradient id="radialGradient1180" cx="101.51" cy="250.27" r="55.562" gradientTransform="matrix(-.57066 7.4793e-8 0 -.59787 145.43 179.79)" gradientUnits="userSpaceOnUse">
   <stop stop-color="#585858" offset="0"/>
   <stop stop-color="#0f0f0f" stop-opacity="0" offset="1"/>
  </radialGradient>
  <clipPath id="clipPath845">
   <circle cx="66.146" cy="230.85" r="66.146" fill="#ff8080" style="paint-order:fill markers stroke"/>
  </clipPath>
  <filter id="filter857" x="-.0684" y="-.0684" width="1.1368" height="1.1368" color-interpolation-filters="sRGB">
   <feGaussianBlur stdDeviation="4.3781746"/>
  </filter>
  <filter id="filter965" x="-.098775" y="-.11344" width="1.1975" height="1.2269" color-interpolation-filters="sRGB">
   <feGaussianBlur stdDeviation="8.3924841"/>
  </filter>
  <filter id="filter1003" x="-.098775" y="-.11344" width="1.1975" height="1.2269" color-interpolation-filters="sRGB">
   <feGaussianBlur stdDeviation="8.3924841"/>
  </filter>
 </defs>
 <metadata>
  <rdf:RDF>
   <cc:Work rdf:about="">
    <dc:format>image/svg+xml</dc:format>
    <dc:type rdf:resource="http://purl.org/dc/dcmitype/StillImage"/>
    <dc:title/>
   </cc:Work>
  </rdf:RDF>
 </metadata>
 <g>
  <circle cx="66.146" cy="66.146" r="66.146" fill="#0f0f0f" style="paint-order:fill markers stroke"/>
  <circle cx="66.146" cy="66.146" r="66.146" fill="url(#radialGradient1180)" style="paint-order:fill markers stroke"/>
  <path transform="translate(0 -164.71)" d="m66.147 154.04c-42.386 0-76.811 34.423-76.811 76.809 0 42.386 34.425 76.811 76.811 76.811 42.386 0 76.809-34.425 76.809-76.811 0-42.386-34.423-76.809-76.809-76.809zm-1.14e-4 9.0482c35.101 0 58.586 32.659 58.586 67.761 0 35.101-23.485 50.317-58.586 50.317-35.101 0-58.586-15.215-58.586-50.317 0-35.101 23.485-67.761 58.586-67.761z" clip-path="url(#clipPath845)" color="#000000" color-rendering="auto" dominant-baseline="auto" enable-background="accumulate" filter="url(#filter857)" image-rendering="auto" shape-rendering="auto" solid-color="#000000" style="font-feature-settings:normal;font-variant-alternates:normal;font-variant-caps:normal;font-variant-ligatures:normal;font-variant-numeric:normal;font-variant-position:normal;isolation:auto;mix-blend-mode:normal;paint-order:fill markers stroke;shape-padding:0;text-decoration-color:#000000;text-decoration-line:none;text-decoration-style:solid;text-indent:0;text-orientation:mixed;text-transform:none;white-space:normal"/>
  <ellipse cx="66.146" cy="86.585" rx="34.344" ry="34.344" stroke="#333" stroke-linecap="square" stroke-linejoin="round" stroke-width="1.2599" style="paint-order:fill markers stroke"/>
 </g>
 <g display="none">
  <path transform="scale(.26458)" d="m169.38 255.77-21.592 37.4 80.92 140.16h42.59l80.408-139.27-22.105-38.289z" fill="#0b0b67" filter="url(#filter1003)" style="paint-order:stroke fill markers"/>
  <path transform="scale(.26458)" d="m189.49 270.84-19.603 31.956 68.02 107.46h24.141l67.556-106.65-20.07-32.763z" fill="#00f" filter="url(#filter965)" style="paint-order:stroke fill markers"/>
 </g>
</svg>
