<?xml version="1.0" encoding="UTF-8"?>
<!-- Created with Inkscape (http://www.inkscape.org/) -->
<svg width="500" height="500" version="1.1" viewBox="0 0 132.29 132.29" xmlns="http://www.w3.org/2000/svg" xmlns:cc="http://creativecommons.org/ns#" xmlns:dc="http://purl.org/dc/elements/1.1/" xmlns:rdf="http://www.w3.org/1999/02/22-rdf-syntax-ns#">
 <metadata>
  <rdf:RDF>
   <cc:Work rdf:about="">
    <dc:format>image/svg+xml</dc:format>
    <dc:type rdf:resource="http://purl.org/dc/dcmitype/StillImage"/>
    <dc:title/>
   </cc:Work>
  </rdf:RDF>
 </metadata>
 <g transform="translate(0 -164.71)">
  <path d="m132.16 230.85a66.014 66.014 0 0 1-66.014 66.014 66.014 66.014 0 0 1-66.014-66.014 66.014 66.014 0 0 1 66.014-66.014 66.014 66.014 0 0 1 66.014 66.014z" fill="#ccc" stroke="#000" stroke-linecap="round" stroke-width=".26406" style="paint-order:markers stroke fill"/>
 </g>
 <g stroke-linecap="round">
  <path d="m129.89 66.146a63.74 63.74 0 0 1-63.74 63.74 63.74 63.74 0 0 1-63.74-63.74 63.74 63.74 0 0 1 63.74-63.74 63.74 63.74 0 0 1 63.74 63.74z" fill="#ccc" stroke="#5a5a5a" stroke-width="1.0583" style="paint-order:markers stroke fill"/>
  <g fill="#5a5a5a">
   <g transform="matrix(.51631 0 0 .51631 -190.72 -18.75)" style="paint-order:markers stroke fill" aria-label="IN GOD WE TRUST">
    <path d="m391.11 203.09v0.24089h-4.6159v-0.24089h0.29297q0.38412 0 0.61849-0.13672 0.16927-0.0911 0.26042-0.3125 0.0716-0.15625 0.0716-0.82031v-5.8073q0-0.67708-0.0716-0.84635t-0.29297-0.29297q-0.21484-0.13021-0.58594-0.13021h-0.29297v-0.24089h4.6159v0.24089h-0.29297q-0.38411 0-0.61849 0.13672-0.16927 0.0911-0.26693 0.3125-0.0716 0.15625-0.0716 0.82031v5.8073q0 0.67709 0.0716 0.84636 0.0781 0.16927 0.29297 0.29948 0.22136 0.12369 0.59245 0.12369z"/>
    <path d="m394.73 194.5 4.3555 5.4753v-3.7956q0-0.79427-0.22786-1.0742-0.3125-0.3776-1.0482-0.36458v-0.24089h2.9167v0.24089q-0.55989 0.0716-0.7552 0.1888-0.18881 0.11068-0.29948 0.3711-0.10417 0.2539-0.10417 0.8789v7.3503h-0.22135l-5.9701-7.3503v5.612q0 0.76172 0.34506 1.0286 0.35156 0.26692 0.80078 0.26692h0.20833v0.24089h-3.1315v-0.24089q0.72917-7e-3 1.0156-0.29948 0.28645-0.29296 0.28645-0.99609v-6.2305l-0.1888-0.23437q-0.27995-0.35157-0.49479-0.46224-0.21484-0.11068-0.61849-0.1237v-0.24089z"/>
    <path d="m413.58 194.3v3.112h-0.24089q-0.4362-1.276-1.3086-1.9401-0.8724-0.66407-1.9076-0.66407-0.98959 0-1.6471 0.5599-0.65755 0.55338-0.93099 1.5495-0.27344 0.99609-0.27344 2.0443 0 1.2695 0.29948 2.2266t0.96354 1.4062q0.67058 0.44922 1.5886 0.44922 0.31901 0 0.65104-0.0651 0.33854-0.0716 0.6901-0.20183v-1.8359q0-0.52084-0.0716-0.67058-0.0716-0.15625-0.29948-0.27995-0.22136-0.12369-0.54037-0.12369h-0.22786v-0.24089h4.2904v0.24089q-0.48828 0.0326-0.68359 0.13672-0.1888 0.0976-0.29297 0.33203-0.0586 0.12369-0.0586 0.60547v1.8359q-0.84636 0.37761-1.7643 0.56641-0.91145 0.19531-1.8945 0.19531-1.2565 0-2.0898-0.33854-0.82682-0.34505-1.4648-0.89844-0.63152-0.55989-0.98959-1.2565-0.45573-0.89844-0.45573-2.0117 0-1.9922 1.3997-3.3659t3.5221-1.3737q0.65755 0 1.1849 0.10417 0.28646 0.0521 0.92448 0.29948 0.64453 0.24088 0.76172 0.24088 0.18229 0 0.33854-0.13021 0.15625-0.13672 0.28646-0.50781z"/>
    <path d="m419.9 194.38q2.1094-0.0781 3.4245 1.2305 1.3216 1.3086 1.3216 3.2747 0 1.6797-0.98307 2.9557-1.3021 1.6927-3.6784 1.6927-2.3828 0-3.6849-1.6146-1.0286-1.276-1.0286-3.0274 0-1.9661 1.3346-3.2747 1.3411-1.3151 3.2943-1.237zm0.0781 0.41666q-1.2109 0-1.8424 1.237-0.51433 1.0156-0.51433 2.9167 0 2.2591 0.79427 3.3398 0.55339 0.75521 1.5495 0.75521 0.67058 0 1.1198-0.32552 0.57291-0.41667 0.89192-1.3281 0.31901-0.91796 0.31901-2.3893 0-1.7513-0.32552-2.6172-0.32552-0.87239-0.83333-1.2305-0.5013-0.35808-1.1589-0.35808z"/>
    <path d="m425.29 203.33v-0.24089h0.29296q0.38412 0 0.58594-0.11718 0.20834-0.1237 0.30599-0.33204 0.0586-0.13671 0.0586-0.82031v-5.8073q0-0.67708-0.0716-0.84635t-0.29297-0.29297q-0.21484-0.13021-0.58594-0.13021h-0.29296v-0.24089h3.9518q1.582 0 2.5456 0.42969 1.1784 0.52735 1.7839 1.595 0.61197 1.0677 0.61197 2.4154 0 0.93099-0.29947 1.7188-0.29948 0.78125-0.77474 1.2956-0.47526 0.50781-1.1003 0.82031-0.61849 0.30599-1.5169 0.47526-0.39714 0.0781-1.25 0.0781zm3.3659-8.3268v6.888q0 0.54687 0.0521 0.67057t0.17579 0.1888q0.17578 0.0977 0.50781 0.0977 1.0872 0 1.6602-0.74219 0.78125-1.0026 0.78125-3.112 0-1.6992-0.53385-2.7148-0.42318-0.79427-1.0872-1.0807-0.46875-0.20182-1.556-0.19531z"/>
    <path d="m451.06 194.5v0.24089q-0.24739 0.0195-0.41666 0.13672-0.16927 0.11719-0.29948 0.35807-0.0391 0.0781-0.41016 1.0091l-2.7669 7.2852h-0.25391l-2.1875-5.6901-2.4088 5.6901h-0.24089l-2.9036-7.207q-0.4427-1.0872-0.61849-1.3151-0.17578-0.22787-0.59244-0.26693v-0.24089h3.8281v0.24089q-0.46224 0.013-0.61849 0.14323-0.14974 0.1237-0.14974 0.3125 0 0.24739 0.31901 1.0482l1.7318 4.2838 1.3867-3.3464-0.36458-0.9375q-0.29948-0.76823-0.46224-1.0221-0.16276-0.26042-0.3776-0.37109-0.20834-0.11068-0.61849-0.11068v-0.24089h4.2773v0.24089q-0.44922 7e-3 -0.64453 0.0716-0.13672 0.0456-0.21485 0.15625-0.0781 0.10417-0.0781 0.24089 0 0.14974 0.29297 0.91797l1.6081 4.1797 1.4388-3.7826q0.22787-0.58593 0.27995-0.80078 0.0521-0.21484 0.0521-0.39713 0-0.26693-0.18229-0.41667-0.18229-0.15625-0.69661-0.16927v-0.24089z"/>
    <path d="m454.81 195.01v3.5938h0.17579q0.83984 0 1.2174-0.52735 0.37761-0.52734 0.48177-1.556h0.2474v4.6224h-0.2474q-0.0781-0.75521-0.33203-1.237-0.24739-0.48177-0.57942-0.64453-0.33204-0.16927-0.96355-0.16927v2.487q0 0.72916 0.0586 0.89192 0.0651 0.16276 0.23437 0.26693t0.54688 0.10417h0.52734q1.237 0 1.9792-0.57292 0.7487-0.57292 1.0742-1.7448h0.24088l-0.39713 2.806h-7.6302v-0.24089h0.29297q0.38411 0 0.61849-0.13672 0.16927-0.0911 0.26041-0.3125 0.0716-0.15625 0.0716-0.82031v-5.8073q0-0.59896-0.0326-0.73568-0.0651-0.22786-0.24089-0.35156-0.2474-0.18229-0.67708-0.18229h-0.29297v-0.24089h7.3893v2.6107h-0.24739q-0.18881-0.95703-0.53386-1.3737-0.33854-0.41666-0.96354-0.61198-0.36458-0.11718-1.3672-0.11718z"/>
    <path d="m409.32 206.35v2.3893h-0.23437q-0.20833-0.82683-0.46224-1.1849-0.25391-0.36458-0.69661-0.57943-0.2474-0.11718-0.86589-0.11718h-0.65755v6.8099q0 0.67708 0.0716 0.84636 0.0781 0.16927 0.29297 0.29947 0.22136 0.1237 0.59896 0.1237h0.29297v0.24089h-4.6224v-0.24089h0.29297q0.38412 0 0.61849-0.13672 0.16927-0.0911 0.26693-0.3125 0.0716-0.15625 0.0716-0.82031v-6.8099h-0.63802q-0.89193 0-1.2956 0.3776-0.56641 0.52734-0.71615 1.5039h-0.24739v-2.3893z"/>
    <path d="m413.35 211.15v2.474q0 0.71614 0.0846 0.90495 0.0911 0.18229 0.3125 0.29297 0.22135 0.11067 0.82682 0.11067v0.24089h-4.5182v-0.24089q0.61198 0 0.82682-0.11067 0.22136-0.11719 0.30599-0.29948 0.0911-0.1823 0.0911-0.89844v-5.7292q0-0.71614-0.0911-0.89844-0.0846-0.1888-0.30599-0.29947-0.22135-0.11068-0.82682-0.11068v-0.24089h4.1016q1.6016 0 2.3438 0.22136 0.74219 0.22135 1.2109 0.82031 0.46875 0.59245 0.46875 1.3932 0 0.97656-0.70312 1.6146-0.44922 0.40365-1.2565 0.60547l2.1224 2.9883q0.41667 0.57943 0.59245 0.72266 0.26693 0.20182 0.61849 0.22135v0.24089h-2.78l-2.845-4.0234zm0-4.3294v3.8672h0.3711q0.90494 0 1.3542-0.16276 0.44922-0.16927 0.70313-0.59896 0.26041-0.4362 0.26041-1.1328 0-1.0091-0.47526-1.4909-0.46875-0.48177-1.5169-0.48177z"/>
    <path d="m419.76 206.35h4.5573v0.24089h-0.22786q-0.51432 0-0.70964 0.11068-0.1888 0.10416-0.27343 0.29296-0.0781 0.18881-0.0781 0.94401v4.3229q0 1.1849 0.17578 1.569 0.18229 0.38412 0.59245 0.63802 0.41016 0.25391 1.0352 0.25391 0.71614 0 1.2174-0.31901 0.50782-0.32552 0.75521-0.89193 0.25391-0.5664 0.25391-1.9726v-3.6003q0-0.59244-0.1237-0.84635t-0.3125-0.35156q-0.29297-0.14974-0.82682-0.14974v-0.24089h3.0534v0.24089h-0.18229q-0.37109 0-0.61849 0.14974-0.24739 0.14974-0.35807 0.44922-0.0846 0.20833-0.0846 0.74869v3.3529q0 1.556-0.20833 2.2461-0.20182 0.69011-0.99609 1.2695-0.79427 0.57943-2.168 0.57943-1.1458 0-1.7708-0.30599-0.85286-0.41666-1.2044-1.0677-0.35156-0.65104-0.35156-1.7513v-4.3229q0-0.76171-0.0846-0.94401-0.0846-0.1888-0.29297-0.29947-0.20833-0.11068-0.76823-0.10417z"/>
    <path d="m435.35 206.15 0.0716 2.9427h-0.26692q-0.18881-1.1068-0.93099-1.7774-0.73568-0.67708-1.5951-0.67708-0.66406 0-1.0547 0.35807-0.38412 0.35157-0.38412 0.81381 0 0.29297 0.13672 0.52083 0.1888 0.30599 0.60547 0.60547 0.30599 0.21484 1.4128 0.76172 1.5495 0.76172 2.0898 1.4388 0.53386 0.67708 0.53386 1.5495 0 1.1068-0.86589 1.9076-0.85937 0.79427-2.1875 0.79427-0.41666 0-0.78776-0.0846-0.37109-0.0846-0.93099-0.31901-0.3125-0.13021-0.51432-0.13021-0.16927 0-0.35807 0.13021-0.1888 0.1302-0.30599 0.39713h-0.24089v-3.3333h0.24089q0.28646 1.4062 1.1003 2.1484 0.82031 0.73567 1.7643 0.73567 0.72917 0 1.1589-0.39713 0.43619-0.39714 0.43619-0.92448 0-0.3125-0.16927-0.60547-0.16276-0.29297-0.5013-0.55339-0.33854-0.26692-1.1979-0.6901-1.2044-0.59245-1.7318-1.0091-0.52734-0.41666-0.8138-0.93098-0.27995-0.51433-0.27995-1.1328 0-1.0547 0.77474-1.7969t1.9531-0.74219q0.42968 0 0.83333 0.10417 0.30599 0.0781 0.74219 0.29297 0.44271 0.20833 0.61849 0.20833 0.16927 0 0.26692-0.10417 0.0977-0.10416 0.1823-0.5013z"/>
    <path d="m444.92 206.35v2.3893h-0.23437q-0.20834-0.82683-0.46224-1.1849-0.25391-0.36458-0.69662-0.57943-0.24739-0.11718-0.86588-0.11718h-0.65756v6.8099q0 0.67708 0.0716 0.84636 0.0781 0.16927 0.29297 0.29947 0.22135 0.1237 0.59896 0.1237h0.29297v0.24089h-4.6224v-0.24089h0.29297q0.38411 0 0.61849-0.13672 0.16927-0.0911 0.26692-0.3125 0.0716-0.15625 0.0716-0.82031v-6.8099h-0.63802q-0.89193 0-1.2956 0.3776-0.56641 0.52734-0.71615 1.5039h-0.2474v-2.3893z"/>
   </g>
   <g transform="matrix(-.02902 1.0288 -1.0288 -.02902 136.12 .012764)" stroke-width="1.2267" style="paint-order:markers stroke fill" aria-label="LIBERTY">
    <path d="m16.927 90.808 2.466-1.1045 3.4227 5.8708-0.18041 0.10518-0.12792-0.21942q-0.16772-0.28769-0.37246-0.40353-0.14218-0.08698-0.34776-0.05859-0.1483 0.01459-0.64566 0.30455l-4.3494 2.5357q-0.50711 0.29565-0.60262 0.4232-0.09551 0.12755-0.0915 0.34735-0.0037 0.21777 0.15833 0.4957l0.12792 0.21942-0.18041 0.10518-2.0553-3.5254 0.18041-0.10518 0.16772 0.28769q0.16772 0.28769 0.37246 0.40353 0.14218 0.08698 0.3506 0.06347 0.1483-0.01459 0.64565-0.30455l4.2129-2.4562q0.50711-0.29565 0.6144-0.4366 0.10242-0.13811 0.07118-0.34857-0.02718-0.14749-0.30009-0.61559l-0.32123-0.551q-0.30702-0.52662-0.69699-0.76967-0.38997-0.24305-0.93763-0.2635-0.5505-0.02532-1.4643 0.20034z"/>
    <path d="m16.677 83.747 0.19394-0.07746 1.4843 3.7163-0.19394 0.07746-0.09421-0.23587q-0.12352-0.30926-0.30896-0.45399-0.12781-0.10697-0.33534-0.10918-0.14883-0.0074-0.68347 0.20612l-4.6755 1.8674q-0.54513 0.21772-0.65838 0.32981-0.11325 0.11209-0.14167 0.33008-0.03575 0.21484 0.08358 0.51362l0.09421 0.23587-0.19394 0.07746-1.4843-3.7163 0.19394-0.07746 0.094207 0.23587q0.12352 0.30926 0.30896 0.45399 0.12781 0.10697 0.33743 0.11442 0.14883 0.0074 0.68347-0.20612l4.6755-1.8674q0.54513-0.21772 0.65838-0.32981 0.11116-0.11733 0.14691-0.33217 0.02841-0.21799-0.09092-0.51676z"/>
    <path d="m11.049 77.869q-0.0029-1.1186 0.24764-1.63 0.35478-0.73318 1.1513-0.92106 0.8405-0.19825 1.5492 0.34788 0.86037 0.67273 1.2335 2.2549l0.89276 3.785-0.20326 0.04794q-0.1218-0.51639-0.25795-0.67564-0.14294-0.16346-0.3136-0.19859-0.17196-0.04063-0.77624 0.1019l-4.8343 1.1402q-0.60428 0.14253-0.73996 0.25572-0.14247 0.10899-0.1918 0.3178-0.049334 0.20881 0.071169 0.7197l-0.20326 0.04794-0.84223-3.5708q-0.30191-1.28-0.19687-1.8673 0.099546-0.58599 0.48294-1.0012 0.3779-0.41389 0.8888-0.53439 0.53836-0.12698 1.0534 0.16328 0.5095 0.29156 0.98865 1.2166zm0.32332 2.0346q-0.184-0.78008-0.4466-1.1067-0.2639-0.33209-0.62917-0.45471-0.36527-0.12261-0.85968-6e-3 -0.49441 0.11662-0.7609 0.38824-0.27327 0.26742-0.35256 0.66887-0.079286 0.40144 0.11539 1.2022zm0.42849-0.10107 2.3897-0.56365 0.27597-0.05929q0.29665-0.06997 0.41548-0.25458 0.11204-0.1888 0.04207-0.48545-0.10366-0.43948-0.38274-0.76219-0.28588-0.32691-0.70059-0.43786-0.4202-0.10966-0.87616-0.0021-0.52188 0.1231-0.87688 0.46199-0.36049 0.34019-0.42553 0.80206-0.06503 0.46187 0.13871 1.3011z"/>
    <path d="m6.8104 70.078 3.1111-0.16686-0.00816-0.15218q-0.038997-0.72706-0.51306-1.0295t-1.3694-0.34483l-0.011487-0.21417 4.0017-0.21463 0.01149 0.21417q-0.65016 0.1027-1.0554 0.34488-0.40559 0.23654-0.53107 0.53154-0.13112 0.2953-0.1018 0.84201l2.153-0.11548q0.63125-0.03386 0.76943-0.09214 0.13788-0.06392 0.2202-0.21529 0.08232-0.15138 0.06479-0.47827l-0.02449-0.45653q-0.05743-1.0709-0.58788-1.6868-0.53074-0.62155-1.5604-0.84895l-0.01119-0.20854 2.4476 0.21352 0.35429 6.6055-0.20854 0.01118-0.0136-0.25362q-0.01783-0.33253-0.14708-0.52908-0.08677-0.14231-0.28262-0.21094-0.13859-0.05474-0.71348-0.02391l-5.0274 0.26964q-0.51852 0.02781-0.63537 0.06234-0.19424 0.06694-0.29317 0.22486-0.14632 0.22264-0.12637 0.59462l0.013603 0.25363-0.20854 0.01118-0.3431-6.397 2.2601-0.12122 0.011487 0.21417q-0.81974 0.20788-1.1644 0.52595-0.34499 0.31243-0.48506 0.86256-0.084522 0.32106-0.037969 1.189z"/>
    <path d="m10.735 60.04 2.1281 0.26715q0.61603 0.07733 0.78758 0.02492 0.16665-0.05872 0.28576-0.23718t0.18449-0.69928l0.20721 0.02601-0.48789 3.8866-0.20721-0.02601q0.06608-0.52643-0.0059-0.72319-0.0769-0.20306-0.22457-0.29555-0.14696-0.09809-0.763-0.17542l-4.9283-0.61866q-0.61603-0.07733-0.78268-0.01861-0.17155 0.05242-0.29065 0.23087-0.11911 0.17846-0.18449 0.69928l-0.20721-0.02601 0.4429-3.5282q0.17294-1.3777 0.4435-1.9922t0.8364-0.95307q0.56024-0.33924 1.2491-0.25277 0.84004 0.10545 1.3129 0.77918 0.29871 0.43001 0.38514 1.1462l2.7997-1.503q0.54342-0.29585 0.6856-0.43159 0.20243-0.20782 0.2572-0.50812l0.20721 0.02601-0.30019 2.3913-3.7682 2.0129zm-3.7242-0.46751 3.3266 0.41759 0.04007-0.31922q0.09772-0.77844 0.0062-1.1824-0.0971-0.4047-0.4393-0.66951-0.34707-0.27111-0.9463-0.34634-0.86804-0.10897-1.3338 0.24783-0.46504 0.3512-0.57822 1.2528z"/>
    <path d="m10.055 44.808 1.9752 0.62413-0.06122 0.19375q-0.73793-0.04376-1.1003 0.07261-0.36771 0.11466-0.66096 0.42451-0.1615 0.1739-0.32306 0.68519l-0.17176 0.54358 5.6295 1.7788q0.55972 0.17686 0.71836 0.16188 0.16034-0.02037 0.3241-0.16396 0.16008-0.15067 0.25871-0.46283l0.07653-0.24219 0.19913 0.06292-1.2074 3.8212-0.19913-0.06292 0.07653-0.24219q0.10034-0.31753 0.04854-0.547-0.03113-0.16374-0.18861-0.30229-0.11046-0.10002-0.65942-0.27348l-5.6295-1.7788-0.16666 0.52743q-0.23298 0.73732-0.02627 1.1696 0.28798 0.60598 1.0562 0.98486l-0.064623 0.20451-1.9752-0.62412z"/>
    <path d="m15.209 34.355 0.18413 0.09853q-0.13363 0.3574-0.08019 0.61644 0.07587 0.36067 0.71889 1.3961l1.6606 2.7706 1.6323 0.87344q0.52254 0.27961 0.68122 0.2941 0.15371 0.01183 0.33845-0.09416 0.18243-0.11363 0.32623-0.38237l0.20238-0.37822 0.18413 0.09853-2.0265 3.7872-0.18413-0.09853 0.18907-0.35334q0.15978-0.29859 0.14847-0.5287-4.36e-4 -0.16667-0.1297-0.33186-0.09014-0.11865-0.59776-0.39027l-1.3536-0.72431-3.7409 0.04037q-1.1089 0.01475-1.3621 0.12895-0.25813 0.11154-0.43619 0.43235l-0.18413-0.09853 1.7309-3.2348 0.18413 0.09853-0.07722 0.14432q-0.15711 0.29362-0.13642 0.45832 0.02336 0.15973 0.11791 0.21032 0.17916 0.09587 1.1138 0.08386l2.8869-0.02361-1.3857-2.3034q-0.50416-0.8523-0.74801-0.98279-0.13437-0.0719-0.29318 0.0096-0.21495 0.10263-0.48216 0.54218l-0.18413-0.09853z"/>
   </g>
   <g transform="matrix(0 1.1783 -1.1783 0 144.08 -11.791)" stroke-width="1.2743" style="paint-order:markers stroke fill" aria-label="1776">
    <path d="m109.23 75.81 6.3153 1.5478q0.71183 0.17446 0.92649 0.16066 0.20897-0.01519 0.3831-0.1838 0.17413-0.16861 0.2816-0.60709l0.0433-0.17653 0.2107 0.05164-0.9965 4.066-0.2107-0.05164 0.0502-0.20501q0.12143-0.49543 0.0592-0.73404-0.0622-0.23861-0.24342-0.36149-0.18116-0.12288-0.91007-0.30152l-4.0033-0.98115q-0.5353-0.13119-0.67883-0.11204-0.14924 0.01776-0.27524 0.13779-0.13031 0.11294-0.17497 0.29517-0.0712 0.29042 9e-3 0.75079l-0.23013 0.05226-0.60194-3.1598z"/>
    <path d="m118.26 71.823-6.3378-2.7492-0.14932 1.6408q-0.0877 0.96344 0.11929 1.4709 0.14435 0.3546 0.60879 0.62059l-0.0202 0.22188-2.4062-0.79594 0.42938-4.7179 7.8394 3.3922z"/>
    <path d="m118.52 64.008-6.6728-1.7886 0.0933 1.6449q0.0548 0.96587 0.33404 1.4375 0.19487 0.32956 0.69334 0.52445l0.0126 0.22244-2.497-0.43391-0.26823-4.7298 8.2526 2.204z"/>
    <path d="m108.81 54.494 0.16071-0.03354q0.48083 0.98374 1.0316 1.5276 0.54381 0.53936 1.2174 0.78211 0.66663 0.23821 1.5867 0.25582-0.22489-0.2166-0.31129-0.37226-0.19265-0.34911-0.27171-0.72791-0.18207-0.8724 0.33403-1.585 0.50916-0.71719 1.6054-0.94598 0.76909-0.16051 1.4778 0.021 0.70871 0.18151 1.1798 0.68813 0.47109 0.50662 0.60884 1.1667 0.14974 0.71744-0.11358 1.4073-0.26905 0.69104-0.95479 1.1935-0.68693 0.49675-1.5766 0.68242-1.3086 0.27311-2.5641-0.11771-1.2624-0.39536-2.169-1.41-0.91348-1.0192-1.2412-2.5321zm4.4768 2.5096q0.80163-0.11939 1.169-0.19605 0.79205-0.1653 1.5013-0.46906 0.70805-0.30949 0.9514-0.6358 0.17283-0.23372 0.11893-0.492-0.0551-0.26402-0.40242-0.40715-0.35305-0.14194-1.2943 0.05451-1.5841 0.33061-2.1065 0.84093-0.33878 0.32825-0.25133 0.74723 0.0479 0.22958 0.31398 0.55738z"/>
   </g>
  </g>
 </g>
 <path d="m90.555 65.128c12.482-7.4404 3.7597-19.744 3.7597-19.744 0-16.464-5.1131-22.638-5.1131-22.638-10.677-8.3902-20.001-8.7068-25.114-8.2319-5.1131 0.47492-14.888 5.0658-14.888 5.0658l-1.5039 3.7993c-3.7597 3.641-8.1209 12.664-8.1209 12.664l-1.2031 4.5909-3.0077 4.7492c-2.707 3.7993-4.5116 8.5485-4.5116 8.5485l0.30077 0.94983 0.60154 0.63322 1.3535-0.31661h1.6542l0.90232 0.79153-1.5039 5.5407 1.0527 1.7414c-1.0527 0.31661-0.75193 2.058-0.75193 2.058l0.70788 2.7535c-1.2031 0.94984-1.0087 3.1038-1.0087 3.1038 0.15039 4.116 3.8009 3.2105 3.8009 3.2105 3.4029 3.5821 11.697 5.8208 11.697 5.8208s-1.813 6.3244 0.89391 15.348c0 0-2.2558 7.5987-6.3162 12.348 0 0 21.505 12.19 46.469-1.2665l1.2031 1.2665s5.1131 0.3166 6.617-5.5407c0 0 5.1131-1.7414 4.3612-6.9655 0 0-0.45114-5.3824-2.8573-8.2319 0 0-2.9325-0.63322-5.1883 5.2241 0 0-1.4029-0.39343-1.5533-1.8182 0 0-0.86361-6.8601-3.2569-10.543 2.028-6.9961 0.52414-14.911 0.52414-14.911z" fill="none" stroke="#5a5a5a" stroke-linecap="round" stroke-width=".39522" style="paint-order:markers stroke fill"/>
 <path d="m47.694 23.379 11.27-1.915 3.1902 1.903s1.7014 1.5671 0.63804 4.4776c0 0-2.8712 6.9402-3.0838 8.9551l0.15738 1.4418 3.1902 1.903s-2.4458 10.634-2.2331 15.112l0.5317 4.2537s2.1268 2.7985 5.955 0.44776c0 0 4.0409 2.1268 7.3374-2.0149 0 0-0.85071 3.1343-0.53169 5.9328 0 0-0.74437 2.3507 1.2761 2.9104 0 0 3.7219 1.1194 4.6789 0.11194l5.636 13.769s-2.0204 7.388 0.85071 9.6268c0 0 2.7651 4.3888 4.1474 16.355" fill="none" stroke="#5a5a5a" stroke-linecap="round" stroke-width=".39522" style="paint-order:markers stroke fill"/>
 <g fill="#5a5a5a">
  <path d="m40.513 39.585 0.31902-1.7071 3.6421-0.41977 0.93047 0.83954-0.07975 0.83954s-0.51226 0.41377 0.57419 1.4151c0.26771 0.24674 0.02768 0.82956 0.5841 1.1849 0.5547 0.35424 1.6928 0.537 2.218 0.75815l-0.5317 0.5597-2.5521-1.0075-0.31902-1.2313-1.1697-2.0149z" style="paint-order:markers stroke fill"/>
  <path d="m42.764 40.899s-1.6209 3.253 0.21378 5.9887c0 0-0.65472-1.7107-0.12569-3.7771l0.5317-2.0149s0.85071 1.2873 1.5419 1.7351l-0.8782-1.4843-0.90232-1.3456z" style="paint-order:markers stroke fill"/>
  <path d="m32.054 55.357s1.4287-1.1477 2.4814-1.2664c0 0 2.4658 1.0898 3.4809 1.0898l1.0499-0.71875 0.43198-0.49371 0.03004-0.93543 0.26884 0.6632-0.0357 0.43452-1.0903 1.1873-0.78953 0.31661-1.6167-0.27704s-0.38022-0.1822-0.60154 0.63322l-0.73133-0.64154s-1.4262-0.24333-2.1151-0.08217c-0.68894 0.16116-0.76279 0.09049-0.76279 0.09049z" style="paint-order:markers stroke fill"/>
 </g>
 <path d="m35.212 63.272s1.6848 0.23967 2.7482-0.12413c0 0 0.37219 0.55969 0.15951 1.4272" fill="none" stroke="#5a5a5a" stroke-linecap="round" stroke-width=".39522" style="paint-order:markers stroke fill"/>
 <path d="m37.961 74.398s2.499-0.11194 3.5624-1.0634c0 0 7.9754 1.4552 9.9959-1.2313l6.0613-3.5821 11.963-0.05598-5.4765 3.1903-5.636 6.6044-8.773 1.9589-4.2116-1.4235-2.711-1.1831-2.8307-1.6091z" fill="#a6a6a6" style="paint-order:markers stroke fill"/>
</svg>
