<?xml version="1.0" encoding="UTF-8"?>
<!-- Created with Inkscape (http://www.inkscape.org/) -->
<svg width="500" height="500" version="1.1" viewBox="0 0 132.29 132.29" xmlns="http://www.w3.org/2000/svg" xmlns:cc="http://creativecommons.org/ns#" xmlns:dc="http://purl.org/dc/elements/1.1/" xmlns:rdf="http://www.w3.org/1999/02/22-rdf-syntax-ns#">
 <metadata>
  <rdf:RDF>
   <cc:Work rdf:about="">
    <dc:format>image/svg+xml</dc:format>
    <dc:type rdf:resource="http://purl.org/dc/dcmitype/StillImage"/>
    <dc:title/>
   </cc:Work>
  </rdf:RDF>
 </metadata>
 <g transform="translate(0 -164.71)">
  <circle cx="66.146" cy="230.85" r="66.014" fill="#ccc" stroke="#000" stroke-linecap="round" stroke-width=".26406" style="paint-order:markers stroke fill"/>
 </g>
 <g>
  <path d="m129.89 66.146a63.74 63.74 0 0 1-63.74 63.74 63.74 63.74 0 0 1-63.74-63.74 63.74 63.74 0 0 1 63.74-63.74 63.74 63.74 0 0 1 63.74 63.74z" fill="none" stroke="#5a5a5a" stroke-linecap="round" stroke-width=".52917" style="paint-order:markers stroke fill"/>
  <g fill="#5a5a5a">
   <g transform="matrix(0 1.1684 -1.1684 0 143.43 -11.14)" stroke-linecap="round" stroke-width=".52917" style="paint-order:markers stroke fill" aria-label="QUARTER DOLLAR">
    <path d="m101.98 103.91q0.5972 0.32259 1.1604 0.24432 0.56318-0.0783 1.082-0.55441 0.14214-0.13045 0.27595-0.30564l0.19894 0.21676q-0.41264 0.62748-0.83549 1.0156-0.66094 0.6066-1.4801 0.76265-0.81558 0.15279-1.6525-0.23128-1.0437 0.6175-2.1967 0.43836-1.1494-0.18241-2.0038-1.1134-0.99143-1.0802-0.92205-2.4598 0.06612-1.3831 1.1819-2.4071 1.1122-1.0208 2.4923-0.96503 1.3801 0.05575 2.3683 1.1324 0.86098 0.9381 0.93193 2.1496 0.071 1.2115-0.60107 2.077zm-4.9472-4.1206q-0.63961 0.58703-0.37799 1.5711 0.22064 0.82531 1.1664 1.8558 1.1349 1.2366 2.1199 1.4324 0.68716 0.13528 1.2237-0.35717 0.54012-0.49572 0.46711-1.1816-0.10104-0.98745-1.1805-2.1636-1.0632-1.1584-1.8129-1.4261-0.9412-0.34074-1.6057 0.26911z"/>
    <path d="m99.203 97.517 2.1401-2.6112 0.13802 0.11312-0.107 0.13056q-0.24153 0.2947-0.26983 0.45858-0.029 0.1571 0.0395 0.29425 0.0715 0.13343 0.50421 0.48807l2.477 2.0301q0.67892 0.55643 0.98156 0.63609 0.30569 0.07593 0.64379-0.03985 0.33809-0.11578 0.63159-0.47389 0.33631-0.41034 0.38893-0.84738 0.052-0.44383-0.15641-0.85157-0.2053-0.41147-1.0111-1.0718l-2.0629-1.6907q-0.33946-0.27821-0.54303-0.32657-0.20358-0.04836-0.34819 0.01396-0.22338 0.09755-0.47408 0.40344l-0.13802-0.11312 1.4339-1.7495 0.13802 0.11312-0.0856 0.10445q-0.17426 0.21263-0.20464 0.4247-0.0304 0.21207 0.0892 0.41612 0.0796 0.14633 0.38924 0.40008l1.9211 1.5745q0.89156 0.7307 1.1891 1.1741 0.30064 0.43972 0.25965 1.1669-0.041 0.7272-0.68608 1.5143-0.53809 0.65654-1.0069 0.87096-0.63925 0.29301-1.1774 0.18872-0.53813-0.1043-1.1686-0.62098l-2.477-2.0301q-0.43646-0.3577-0.58065-0.39482-0.14792-0.04017-0.30918 0.02723-0.16125 0.0674-0.42045 0.39126z"/>
    <path d="m109.21 91.835-1.2068 1.97 0.39927 0.567q0.2009 0.28144 0.37775 0.38978 0.23442 0.14361 0.46137 0.02245 0.13383-0.07073 0.43379-0.48653l0.15218 0.09322-1.1363 1.8549-0.15217-0.09322q0.13869-0.32795 0.0556-0.6447-0.0872-0.31927-0.55086-0.99358l-3.228-4.7208 0.0479-0.07814 5.8054 0.79054q0.82618 0.11019 1.1082 0.02841 0.21316-0.06173 0.38993-0.30412l0.15217 0.09322-1.6528 2.698-0.15218-0.09322 0.068-0.11104q0.19904-0.32491 0.18918-0.51194-0.0104-0.13079-0.13375-0.20638-0.074-0.04535-0.16729-0.06855-0.0421-0.01445-0.38404-0.06558zm-0.39001-0.04661-2.4296-0.34583 1.3966 2.0321z"/>
    <path d="m110.7 86.607 1.677 0.73947q0.48545 0.21406 0.63873 0.21312 0.15081-0.0073 0.292-0.12426 0.14118-0.11696 0.32216-0.52739l0.16328 0.072-1.3505 3.0627-0.16328-0.072q0.18292-0.41484 0.17211-0.59355-0.0133-0.18508-0.11154-0.29693-0.0963-0.11627-0.58177-0.33033l-3.8836-1.7124q-0.48545-0.21406-0.63626-0.20676-0.15328 9.38e-4 -0.29446 0.1179-0.14119 0.11696-0.32216 0.52739l-0.16329-0.072 1.226-2.7803q0.47871-1.0856 0.85059-1.5226 0.37189-0.43694 0.91801-0.57565 0.5417-0.14066 1.0845 0.09869 0.66197 0.2919 0.8843 0.95922 0.13934 0.42516 0.0348 1.0327l2.66-0.54549q0.51731-0.10925 0.66694-0.18559 0.21659-0.12061 0.33491-0.35309l0.16329 0.072-0.83093 1.8844-3.5777 0.72594zm-2.9347-1.2941 2.6214 1.1559 0.11092-0.25155q0.27049-0.61343 0.29443-0.96658 0.0195-0.3551-0.19585-0.65565-0.21784-0.30691-0.69004-0.51512-0.68404-0.30162-1.1527-0.12347-0.46668 0.17374-0.77998 0.88426z"/>
    <path d="m110.59 76.164 1.6984 0.49875-0.0489 0.1666q-0.63121-0.0245-0.93873 0.08123-0.31215 0.10438-0.55728 0.37422-0.13494 0.15139-0.26404 0.59102l-0.13726 0.4674 4.8406 1.4215q0.48128 0.14133 0.61655 0.12576 0.13663-0.0202 0.27403-0.14574 0.13413-0.13152 0.21295-0.39993l0.0611-0.20825 0.17123 0.05028-0.96488 3.2857-0.17122-0.05028 0.0611-0.20825q0.0802-0.27304 0.0319-0.46817-0.0294-0.13935-0.16641-0.25497-0.0961-0.08352-0.56814-0.22214l-4.8406-1.4215-0.13318 0.45352q-0.18618 0.634-2e-3 0.99974 0.25662 0.51269 0.91952 0.82297l-0.0516 0.17585-1.6984-0.49875z"/>
    <path d="m111.3 74.019 2.6292 0.41895 0.0205-0.1286q0.0979-0.61443-0.24388-0.95217-0.34179-0.33773-1.0822-0.53386l0.0288-0.181 3.3818 0.53887-0.0288 0.181q-0.56162-0.03088-0.94368 0.09871-0.38131 0.12483-0.53909 0.34877-0.16255 0.22318-0.23617 0.6852l1.8195 0.28993q0.53346 0.085 0.65937 0.06111 0.12667-0.02866 0.22261-0.14035 0.0959-0.1117 0.13996-0.38795l0.0615-0.38581q0.1442-0.90498-0.18842-1.5148-0.33187-0.61454-1.1513-0.98931l0.0281-0.17623 2.0066 0.61766-0.88951 5.5823-0.17624-0.02808 0.0342-0.21434q0.0448-0.28102-0.0279-0.46843-0.0469-0.13446-0.19826-0.22695-0.10597-0.07061-0.5918-0.14802l-4.2486-0.677q-0.4382-0.06982-0.54202-0.06195-0.1743 0.02107-0.28529 0.13525-0.1622 0.15974-0.21229 0.47411l-0.0342 0.21434-0.17623-0.02808 0.86143-5.4061 1.91 0.30435-0.0288 0.181q-0.72218 0.02656-1.0672 0.23043-0.3443 0.1991-0.56005 0.63359-0.12824 0.25307-0.24512 0.98658z"/>
    <path d="m115.11 68.42 1.8321 0.04893q0.53036 0.01416 0.67185-0.04478 0.13681-0.06389 0.22315-0.22563 0.0863-0.16174 0.0983-0.61013l0.1784 0.0048-0.0894 3.3461-0.1784-0.0048q0.0121-0.45321-0.0656-0.61451-0.0824-0.16625-0.21573-0.23253-0.1332-0.07111-0.66355-0.08527l-4.2428-0.11331q-0.53035-0.01416-0.66716 0.04973-0.14149 0.05894-0.22783 0.22068-0.0863 0.16174-0.0983 0.61013l-0.17839-0.0048 0.0811-3.0375q0.0317-1.1861 0.21028-1.7313 0.17861-0.54526 0.63145-0.88056 0.44802-0.33542 1.041-0.31959 0.72321 0.01931 1.1818 0.55265 0.29004 0.34066 0.42354 0.94251l2.255-1.5127q0.43735-0.29711 0.5469-0.42446 0.15474-0.19369 0.17616-0.45366l0.17839 0.0048-0.055 2.0587-3.0359 2.0274zm-3.2062-0.08562 2.8639 0.07648 7e-3 -0.27482q0.0179-0.67018-0.0937-1.0061-0.11647-0.33603-0.42966-0.53256-0.31789-0.20148-0.83378-0.21526-0.74732-0.01996-1.1135 0.32248-0.36606 0.33761-0.38679 1.1139z"/>
    <path d="m118.04 61.376-0.17627 0.02782-0.0338-0.21439q-0.0444-0.28109-0.15343-0.41524-0.11458-0.13817-0.27831-0.18557-0.10681-0.02709-0.60705 0.05186l-4.2496 0.67071q-0.49547 0.0782-0.61107 0.15016-0.1156 0.07196-0.18055 0.24822-0.0705 0.17226-0.0276 0.44381l0.0338 0.21439-0.17627 0.02782-0.45642-2.8918q-0.18271-1.1577 0.0204-1.9124 0.2498-0.92322 0.96119-1.4896 0.71064-0.57115 1.6968-0.72679 0.68128-0.10752 1.2923 0.02064 0.60629 0.12892 1.0376 0.4173 0.42649 0.28913 0.72736 0.7104 0.29534 0.41726 0.52298 1.0552 0.10303 0.28159 0.20154 0.9057zm-6.4821-1.5014 5.0405-0.79553q0.40019-0.06316 0.48469-0.11556 0.0845-0.0524 0.11786-0.15044 0.0512-0.13991 0.0128-0.38288-0.12557-0.79562-0.73485-1.1291-0.82391-0.4559-2.3675-0.21228-1.2434 0.19625-1.925 0.70421-0.53235 0.4014-0.66528 0.92043-0.0935 0.36633 0.0368 1.1612z"/>
    <path d="m109.5 52.751q-0.51686-1.4759 0.12157-2.693 0.637-1.2218 2.0286-1.652 1.1888-0.36755 2.3071 0.04903 1.483 0.55119 2.003 2.2331 0.5214 1.6865-0.33645 2.9614-0.67807 1.0073-1.9176 1.3905-1.3916 0.43023-2.6098-0.22806-1.2243-0.66147-1.5964-2.0609zm0.27781-0.14647q0.26498 0.85708 1.2787 1.0334 0.83139 0.14179 2.1769-0.27419 1.599-0.49434 2.1901-1.293 0.41343-0.55693 0.19547-1.2619-0.14674-0.47462-0.47543-0.72134-0.42027-0.31432-1.1352-0.34067-0.71952-0.02492-1.7609 0.29704-1.2395 0.38322-1.7812 0.80308-0.54624 0.42129-0.68856 0.85906-0.14374 0.43316 1.4e-4 0.89857z"/>
    <path d="m109.93 42.431 2.1834-0.75108 2.4632 5.2587-0.1616 0.0757-0.0921-0.19655q-0.1207-0.2577-0.28608-0.37197-0.11434-0.08492-0.29148-0.07651-0.12733 0.0011-0.57284 0.20973l-3.896 1.8249q-0.45425 0.21277-0.5453 0.31401-0.0911 0.10124-0.10449 0.28861-0.0198 0.18505 0.0968 0.43401l0.0921 0.19655-0.16161 0.0757-1.4792-3.1579 0.16161-0.0757 0.1207 0.2577q0.12071 0.2577 0.28608 0.37197 0.11434 0.08492 0.29353 0.08087 0.12733-0.0011 0.57284-0.20973l3.7737-1.7676q0.45424-0.21277 0.55636-0.32451 0.0977-0.1097 0.0873-0.29121-0.0118-0.12761-0.20825-0.54691l-0.23122-0.49355q-0.22095-0.47171-0.53423-0.70845-0.31327-0.23673-0.77781-0.29609-0.46659-0.06373-1.2616 0.05833z"/>
    <path d="m106.57 37.085 2.0705-1.0219 3.1103 4.9039-0.1507 0.09558-0.11625-0.18328q-0.15241-0.24031-0.33094-0.33268-0.12419-0.06973-0.29884-0.03892-0.12616 0.0172-0.54161 0.28069l-3.6331 2.3043q-0.42359 0.26866-0.50107 0.38063-0.0775 0.11197-0.067 0.29953 4e-3 0.18607 0.15103 0.41824l0.11625 0.18328-0.1507 0.09558-1.8677-2.9448 0.1507-0.09558 0.15241 0.24031q0.15242 0.24031 0.33095 0.33269 0.12419 0.06973 0.30142 0.04299 0.12616-0.0172 0.54161-0.28069l3.5191-2.232q0.42359-0.26866 0.51071-0.39245 0.083-0.12121 0.0496-0.29993-0.0279-0.12507-0.27592-0.51608l-0.29191-0.46025q-0.279-0.43988-0.61977-0.63498t-0.80908-0.19506q-0.4709-4e-3 -1.244 0.21785z"/>
    <path d="m104.26 33.575 1.4828 1.7716 0.66466-0.19782q0.33078-0.10076 0.48982-0.23387 0.21082-0.17646 0.16827-0.43017-0.0244-0.14939-0.32296-0.5662l0.13685-0.11454 1.3962 1.668-0.13684 0.11454q-0.26668-0.23594-0.5934-0.25808-0.33043-0.01904-1.1173 0.20559l-5.5032 1.5558-0.0588-0.07027 2.599-5.251q0.36767-0.74802 0.38-1.0414 9e-3 -0.22172-0.16404-0.46651l0.13685-0.11454 2.0308 2.4262-0.13685 0.11454-0.0836-0.09986q-0.24456-0.29218-0.42499-0.34243-0.12728-0.03184-0.23824 0.06103-0.0666 0.05572-0.11827 0.13673-0.0271 0.03526-0.18452 0.34313zm-0.16844 0.35483-1.1019 2.1928 2.3711-0.6764z"/>
    <path d="m99.788 30.492 1.2323-1.3567q0.35672-0.39272 0.40435-0.53842 0.0408-0.14537-0.0254-0.31632-0.0663-0.17095-0.39829-0.47254l0.11999-0.1321 2.4777 2.2506-0.11999 0.1321q-0.3356-0.30483-0.50854-0.35115-0.17976-0.04599-0.31697 0.01181-0.14079 0.05456-0.4975 0.44729l-2.8537 3.1418q-0.35672 0.39272-0.39754 0.53809-0.04763 0.14569 0.01863 0.31664 0.06626 0.17095 0.39829 0.47254l-0.11999 0.1321-2.2492-2.043q-0.87827-0.79775-1.175-1.2888-0.29674-0.49108-0.25545-1.053 0.03805-0.55838 0.43692-0.99751 0.48643-0.53553 1.1898-0.53518 0.4474 0.0024 0.99064 0.29385l0.3246-2.6959q0.06012-0.52529 0.03507-0.69139-0.04585-0.24363-0.22891-0.42946l0.11999-0.1321 1.5245 1.3847-0.44393 3.6235zm-2.1565 2.3742 1.9263-2.1207-0.2035-0.18484q-0.49626-0.45076-0.82367-0.58526-0.33066-0.13093-0.68393-0.02177-0.36008 0.10949-0.70707 0.4915-0.50265 0.55338-0.482 1.0543 0.01708 0.49768 0.59188 1.0198z"/>
   </g>
   <g transform="matrix(0 1.0558 -1.0558 0 135.98 -3.4356)" stroke-linecap="round" stroke-width="1.2919" style="paint-order:markers stroke fill" aria-label="UNITED STATES OF AMERICA">
    <path d="m54.315 123.58-3.2631-0.86647 0.0458-0.17248 0.16316 0.0433q0.36827 0.0978 0.52916 0.0557 0.15499-0.0387 0.25149-0.15779 0.09184-0.12033 0.23542-0.66107l0.82191-3.0953q0.22528-0.84841 0.17245-1.1569-0.05749-0.3097-0.3029-0.56948-0.24541-0.25979-0.69292-0.37862-0.51278-0.13615-0.93237-3e-3 -0.42549 0.13653-0.71032 0.49505-0.28949 0.35729-0.55686 1.3642l-0.68451 2.5779q-0.11264 0.42421-0.07234 0.62953 0.0403 0.20532 0.15691 0.31114 0.1813 0.16292 0.56355 0.26442l-0.0458 0.17248-2.1863-0.58054 0.0458-0.17247 0.13052 0.0346q0.26571 0.0706 0.47132 0.0104 0.20561-0.0602 0.3418-0.25357 0.10021-0.13308 0.20295-0.51999l0.63747-2.4007q0.29584-1.1141 0.57622-1.5686 0.27572-0.45576 0.9546-0.71963 0.67888-0.26387 1.6625-3e-3 0.82044 0.21786 1.2098 0.55578 0.53145 0.46049 0.65939 0.9935 0.12794 0.533-0.08125 1.3208l-0.8219 3.0953q-0.14482 0.54541-0.11888 0.69203 0.0247 0.15127 0.15283 0.27013 0.12813 0.11886 0.53026 0.22065z"/>
    <path d="m44.506 120.56-1.4032-4.9896-1.0894 2.5923q-0.22797 0.54247-0.15269 0.79907 0.10505 0.34758 0.61124 0.54984l-0.06914 0.16452-1.992-0.83713 0.06914-0.16452q0.40295 0.11179 0.56998 0.0878 0.16071-0.0214 0.31105-0.16749 0.14402-0.14352 0.3234-0.57038l2.1096-5.02 0.15118 0.0635 1.9678 6.7336 1.6107-3.8328q0.21863-0.52024 0.05958-0.80158-0.1635-0.28321-0.4703-0.41214l-0.14229-0.0598 0.06914-0.16452 2.1387 0.8988-0.06914 0.16452q-0.49987-0.20484-0.7796-0.087-0.27973 0.11788-0.48154 0.59809l-1.7882 4.2553 0.06168 0.21426q0.09029 0.32046 0.20526 0.45771 0.11497 0.13726 0.38691 0.262l-0.06914 0.16452z"/>
    <path d="m39.506 111.04 0.08616-0.15628 2.9946 1.651-0.08616 0.15628-0.19007-0.10479q-0.2492-0.1374-0.45016-0.13253-0.14242-1e-3 -0.28073 0.10959-0.10235 0.0757-0.33988 0.50657l-2.0772 3.7676q-0.24218 0.43927-0.25627 0.5747-0.01409 0.13543 0.08528 0.29486 0.09281 0.16132 0.33356 0.29406l0.19007 0.10479-0.08616 0.15627-2.9946-1.651 0.08616-0.15628 0.19007 0.1048q0.2492 0.13739 0.45016 0.13252 0.14242 1e-3 0.28495-0.10726 0.10235-0.0758 0.33988-0.50657l2.0772-3.7676q0.24218-0.43927 0.25627-0.5747 0.0099-0.13776-0.08295-0.29908-0.09936-0.15943-0.34011-0.29216z"/>
    <path d="m30.515 112.68 1.0056-1.4567 0.14289 0.0986q-0.22097 0.59177-0.21687 0.91694 0.0014 0.32914 0.18084 0.64645 0.10151 0.17557 0.47859 0.43587l0.40089 0.27675 2.8661-4.1518q0.28497-0.4128 0.31254-0.54614 0.02361-0.13608-0.05257-0.30589-0.08289-0.16857-0.31311-0.3275l-0.17862-0.1233 0.10138-0.14686 2.8181 1.9454-0.10138 0.14687-0.17862-0.12331q-0.23418-0.16166-0.43462-0.17695-0.14156-0.0157-0.29426 0.0782-0.10942 0.0651-0.38891 0.46998l-2.8661 4.1518 0.38898 0.26853q0.54378 0.37539 0.9488 0.31505 0.56727-0.0831 1.0696-0.61548l0.15083 0.10412-1.0056 1.4567z"/>
    <path d="m27.804 109.88 1.7766-1.9829-0.09699-0.0869q-0.4634-0.41518-0.93244-0.31087-0.46904 0.1043-1.035 0.62038l-0.13651-0.1223 2.2851-2.5505 0.13651 0.1223q-0.33023 0.45533-0.4283 0.84667-0.10166 0.38813 0.0011 0.64207 0.09952 0.25754 0.44797 0.56973l1.2294-1.3722q0.36047-0.40234 0.4086-0.52111 0.04454-0.12199 0.0026-0.26314-0.0419-0.14116-0.25025-0.32783l-0.29097-0.26069q-0.68253-0.61151-1.3753-0.66229-0.69633-0.054-1.4553 0.43167l-0.13291-0.11908 1.6063-1.3519 4.2101 3.772-0.11908 0.13291-0.16165-0.14483q-0.21194-0.18989-0.40885-0.23031-0.13846-0.0334-0.29818 0.0437-0.11676 0.0508-0.44504 0.41722l-2.8709 3.2043q-0.2961 0.33049-0.34572 0.42201-0.07672 0.15792-0.04088 0.31307 0.04639 0.22288 0.28348 0.4353l0.16165 0.14483-0.11908 0.13291-4.0772-3.6529 1.2906-1.4405 0.1365 0.1223q-0.36894 0.62139-0.38453 1.0219-0.01918 0.39727 0.22912 0.81401 0.14323 0.24489 0.69644 0.74053z"/>
    <path d="m28.903 102.59-0.13546 0.11618-0.14129-0.16475q-0.18525-0.21601-0.34849-0.27299-0.17004-0.0575-0.33429-0.0119-0.10514 0.033-0.48956 0.36267l-3.2657 2.8008q-0.38076 0.32654-0.44141 0.44845-0.06065 0.12191-0.02346 0.30605 0.03039 0.18361 0.20936 0.3923l0.14129 0.16475-0.13546 0.11617-1.9059-2.2223q-0.76298-0.88965-0.98605-1.6387-0.27176-0.917 0.03666-1.7724 0.30528-0.85908 1.0631-1.509 0.52354-0.449 1.111-0.66051 0.58377-0.20837 1.1022-0.18916 0.51478 0.02235 0.99194 0.22311 0.47036 0.20024 0.99885 0.62384 0.23546 0.18565 0.64679 0.66526zm-6.3059 2.1231 3.8735-3.322q0.30754-0.26375 0.35198-0.3527 0.04444-0.0889 0.0214-0.18991-0.02986-0.14594-0.18999-0.33266-0.52436-0.61141-1.218-0.57565-0.9406 0.0442-2.1268 1.0615-0.95556 0.8195-1.2692 1.6095-0.24257 0.62104-0.08339 1.1326 0.11258 0.36094 0.64059 0.96921z"/>
    <path d="m14.821 94.676 1.8421-1.167 0.10173 0.16957q-0.63115 0.54176-0.77428 1.2688-0.14975 0.72541 0.17778 1.2714 0.25309 0.42186 0.62944 0.53355 0.36974 0.11003 0.66339-0.06614 0.18612-0.11166 0.27877-0.28536 0.12243-0.23656 0.15388-0.6154 0.01986-0.27627-0.05454-1.1878-0.10664-1.2747 0.11755-1.876 0.22667-0.5972 0.78088-0.92969 0.70311-0.42182 1.5418-0.17694 0.83211 0.24322 1.3383 1.087 0.1588 0.2647 0.24647 0.5327 0.08767 0.268 0.15216 0.71302 0.03638 0.24815 0.1133 0.37636 0.06451 0.10753 0.21919 0.17785 0.15468 0.07032 0.36891 0.04303l0.09181 0.15303-2.1176 1.2704-0.09181-0.15303q0.78418-0.71794 0.94552-1.5178 0.15472-0.80151-0.20507-1.4012-0.2779-0.46322-0.69396-0.58484-0.41854-0.12575-0.75355 0.07524-0.19852 0.1191-0.32013 0.33829-0.12408 0.21506-0.16049 0.52938-0.04055 0.3168 0.01815 1.024 0.08267 0.99094 0.01895 1.4848-0.06372 0.49381-0.28128 0.87181-0.22004 0.37387-0.61296 0.60959-0.67002 0.40197-1.4368 0.19266t-1.2159-0.95791q-0.16376-0.27297-0.25143-0.5691-0.06699-0.22416-0.09675-0.58315-0.03638-0.36064-0.10337-0.47231-0.06451-0.10753-0.16791-0.12987-0.10339-0.02234-0.38794 0.07525z"/>
    <path d="m11.56 87.567 1.6084-0.73917 0.07251 0.15777q-0.49212 0.39603-0.65461 0.67772-0.16687 0.2837-0.17453 0.64818-0.0023 0.20279 0.18899 0.61912l0.20342 0.44263 4.5841-2.1067q0.45578-0.20946 0.54757-0.31004 0.08977-0.10496 0.11096-0.28986 0.01479-0.18727-0.10203-0.44146l-0.09063-0.19721 0.16215-0.07452 1.43 3.1116-0.16215 0.07452-0.09063-0.19721q-0.11883-0.25857-0.28337-0.37404-0.11372-0.08575-0.29294-0.08301-0.12733 1.31e-4 -0.57435 0.20557l-4.5841 2.1067 0.19738 0.42948q0.27593 0.6004 0.65498 0.7553 0.53021 0.21814 1.2339 0.01682l0.07653 0.16654-1.6084 0.73917z"/>
    <path d="m14.604 81.829 0.70915 2.1987 0.69031 0.06622q0.34441 0.03082 0.5418-0.03284 0.26165-0.08439 0.31748-0.33551 0.03347-0.14763-0.08674-0.64604l0.16984-0.05478 0.6677 2.0702-0.16984 0.05478q-0.15857-0.31881-0.45307-0.46201-0.2991-0.14172-1.1127-0.22897l-5.6847-0.6244-0.02813-0.08722 4.3804-3.891q0.62163-0.55524 0.74321-0.8225 0.09196-0.20196 0.02312-0.49397l0.16984-0.05478 0.9712 3.0112-0.16984 0.05478-0.03997-0.12394q-0.11696-0.36263-0.26532-0.47695-0.10602-0.0773-0.24372-0.03288-0.08263 0.02665-0.16096 0.08232-0.03835 0.02251-0.29986 0.24874zm-0.28934 0.26563-1.8446 1.6186 2.4516 0.26339z"/>
    <path d="m8.0835 74.152 1.7395-0.32754 0.03213 0.17063q-0.5734 0.26502-0.79928 0.49896-0.23062 0.23483-0.32635 0.58659-0.051403 0.19618 0.033384 0.64646l0.090142 0.47872 4.9579-0.93355q0.49294-0.09282 0.60636-0.16816 0.11253-0.08008 0.17787-0.25435 0.05971-0.17811 0.0079-0.45302l-0.04016-0.21329 0.17537-0.03302 0.63367 3.3653-0.17537 0.03302-0.04016-0.21329q-0.05266-0.27965-0.18432-0.43154-0.08956-0.11074-0.26411-0.15149-0.12357-0.03072-0.60704 0.06032l-4.9579 0.93355 0.087464 0.4645q0.12227 0.64936 0.45252 0.89146 0.46157 0.34008 1.1931 0.31522l0.03391 0.18011-1.7395 0.32754z"/>
    <path d="m8.1302 70.252 2.6577-0.15827-0.0077-0.13q-0.03703-0.62108-0.44364-0.87711-0.40661-0.25602-1.1719-0.28776l-0.010895-0.18296 3.4184-0.20357 0.0109 0.18296q-0.55505 0.09103-0.90015 0.30002-0.34538 0.20417-0.45113 0.45688-0.11056 0.253-0.08274 0.72002l1.8392-0.10953q0.53924-0.03211 0.65702-0.08261 0.1175-0.05531 0.18708-0.18508 0.06958-0.12977 0.05295-0.40901l-0.02322-0.38998q-0.05448-0.91478-0.51085-1.4384-0.45666-0.52845-1.3376-0.71757l-0.01061-0.17814 2.0926 0.17012 0.33603 5.6427-0.17814 0.01061-0.0129-0.21666q-0.01692-0.28406-0.12834-0.45137-0.07486-0.12117-0.24257-0.17882-0.1187-0.04608-0.60979-0.01683l-4.2946 0.25575q-0.44294 0.02638-0.54262 0.05647-0.16564 0.05818-0.24938 0.19362-0.12391 0.19098-0.10499 0.50875l0.012902 0.21666-0.17814 0.01061-0.32542-5.4646 1.9307-0.11497 0.010895 0.18296q-0.69943 0.18177-0.99237 0.4553-0.29323 0.26871-0.41014 0.73951-0.070607 0.27478-0.026452 1.0162z"/>
    <path d="m7.6594 60.977 2.1797 0.06737-0.010916 0.19745q-0.8264 0.0944-1.3528 0.61597-0.53093 0.51649-0.56607 1.1522-0.027157 0.49121 0.22174 0.7948 0.24434 0.29851 0.58626 0.31741 0.21671 0.01198 0.39085-0.07983 0.23406-0.12714 0.47263-0.42311 0.17143-0.21756 0.62122-1.0139 0.62681-1.115 1.1498-1.487 0.52267-0.3672 1.168-0.33153 0.81868 0.04526 1.3756 0.71851 0.55238 0.66816 0.49807 1.6506-0.01704 0.30821-0.09482 0.57925t-0.27405 0.67561q-0.1091 0.22583-0.11735 0.37512-0.0069 0.12521 0.08167 0.27019 0.0886 0.14498 0.28125 0.24258l-0.0099 0.17818-2.4657-0.13632 0.0099-0.17818q1.0519-0.15439 1.6342-0.72601 0.57773-0.5767 0.61634-1.275 0.02982-0.53937-0.24637-0.87345-0.27592-0.3389-0.666-0.36046-0.23116-0.01278-0.45479 0.10045-0.22337 0.10841-0.42984 0.34818-0.21129 0.2395-0.55946 0.85788-0.48749 0.86669-0.81727 1.2397-0.32978 0.37304-0.72194 0.5639-0.39189 0.18604-0.84939 0.16075-0.78016-0.04313-1.2975-0.64656-0.51732-0.60343-0.46913-1.4751 0.017572-0.31784 0.11113-0.61216 0.070303-0.22315 0.24706-0.53702 0.17221-0.31895 0.1794-0.44898 0.00692-0.12521-0.066137-0.20171-0.073059-0.0765-0.36336-0.15534z"/>
    <path d="m9.0512 52.794q0.29898-1.5349 1.4646-2.2632 1.1667-0.733 2.5851-0.40179 1.2118 0.28296 1.9667 1.2071 1.0018 1.2245 0.60151 2.9388-0.40141 1.719-1.7856 2.3864-1.0939 0.52713-2.3573 0.23211-1.4184-0.33121-2.1377-1.5145-0.72282-1.1891-0.33744-2.585zm0.31376 0.01383q-0.20399 0.8736 0.58201 1.5376 0.64606 0.54214 2.0175 0.86238 1.6298 0.38057 2.5433-0.01038 0.63805-0.27201 0.80585-0.99061 0.11296-0.48377-0.0462-0.86268-0.20408-0.48351-0.80789-0.86719-0.60851-0.38478-1.67-0.63264-1.2634-0.29502-1.9429-0.20605-0.68421 0.08788-1.0281 0.3939-0.34277 0.30133-0.45354 0.77571z"/>
    <path d="m11.634 45.843 2.5155 0.94318 0.06604-0.17613q0.1524-0.40645 0.12698-0.70959-0.02542-0.30314-0.24841-0.58764-0.2213-0.28902-0.69324-0.52778l0.05927-0.15806 3.0755 1.1532-0.05927 0.15806q-0.90378-0.241-1.3232 0.03957-0.42224 0.27437-0.60342 0.75759l-0.06604 0.17613 1.8742 0.70273q0.46968 0.1761 0.60572 0.17045 0.13774-0.01017 0.28394-0.12533 0.14338-0.12138 0.2399-0.37879l0.0762-0.20322 0.1671 0.06265-1.2006 3.2019-0.1671-0.06265 0.0762-0.20322q0.09991-0.26645 0.06603-0.46459-0.0192-0.14112-0.14904-0.26192-0.08976-0.09032-0.5504-0.26304l-4.0284-1.5104q-0.46968-0.1761-0.60572-0.17045-0.13604 0.0057-0.27942 0.12703-0.1462 0.11516-0.24272 0.37258l-0.0762 0.20322-0.1671-0.06265 1.9372-5.1664 1.7568 0.6587-0.06943 0.18516q-0.64241-0.16876-1.0387-0.01858-0.39458 0.14566-0.70109 0.5922-0.16934 0.24557-0.44366 0.97718z"/>
    <path d="m19.642 38.966-1.1474 2.0052 0.41604 0.55481q0.20922 0.27532 0.38922 0.37832 0.23862 0.13654 0.46183 0.0087 0.13166-0.0747 0.41906-0.49928l0.15489 0.08863-1.0804 1.888-0.15489-0.08863q0.12882-0.33194 0.03628-0.64607-0.09672-0.31652-0.5803-0.97667l-3.3677-4.6222 0.04551-0.07954 5.8265 0.61669q0.8291 0.08545 1.1085-0.0047 0.21122-0.06807 0.38067-0.31564l0.15489 0.08863-1.5714 2.7462-0.15489-0.08863 0.06468-0.11303q0.18924-0.33071 0.1738-0.51737-0.01428-0.13042-0.13986-0.20229-0.07535-0.04312-0.16926-0.06352-0.04247-0.01319-0.38583-0.05407zm-0.39123-0.03493-2.4388-0.27306 1.4567 1.9894z"/>
    <path d="m23.917 32.135-2.2462-4.0862 1.6693-2.0741 0.13902 0.11189-0.13306 0.16532q-0.18144 0.22544-0.21141 0.42421-0.023 0.13627 0.05563 0.29242 0.05691 0.11391 0.4364 0.41934l3.3591 2.7035q0.39076 0.3145 0.52172 0.3518 0.13096 0.0373 0.30892-0.02997 0.17421-0.07029 0.34658-0.28446l0.13306-0.16532 0.13902 0.11189-2.141 2.6602-0.13902-0.11189 0.13306-0.16532q0.18144-0.22544 0.21141-0.42421 0.023-0.13627-0.05939-0.29545-0.05691-0.11391-0.44016-0.42236l-3.7761-3.0392 3.0753 5.6946-0.07258 0.09018-6.2107-1.7297 3.5883 2.888q0.37573 0.30241 0.47727 0.35317 0.22718 0.10236 0.47745 0.03756 0.24954-0.07158 0.53078-0.42101l0.13902 0.11189-1.4032 1.7434-0.13902-0.11189 0.04234-0.0526q0.13984-0.16606 0.20142-0.35795 0.05782-0.19492 0.02061-0.34869t-0.18054-0.33724q-0.03528-0.04078-0.3772-0.31597l-3.2238-2.5947q-0.38701-0.31148-0.5142-0.34575-0.13096-0.0373-0.30516 0.033-0.17797 0.06727-0.35034 0.28144l-0.13004 0.16157-0.13902-0.11189 1.6753-2.0816z"/>
    <path d="m26.455 23.636 1.797 1.9645 0.09609-0.08789q0.45909-0.41994 0.40181-0.89702-0.05728-0.47708-0.51468-1.0915l0.13524-0.1237 2.3113 2.5268-0.13524 0.1237q-0.42033-0.37376-0.80002-0.51015-0.37613-0.13965-0.63902-0.06259-0.26614 0.0735-0.61134 0.38927l1.2436 1.3595q0.3646 0.39859 0.47802 0.45826 0.11697 0.05642 0.26159 0.02872t0.35103-0.21651l0.28826-0.26369q0.67617-0.61852 0.7954-1.3028 0.12279-0.68754-0.28524-1.4909l0.13168-0.12045 1.186 1.7324-4.1709 3.8153-0.12045-0.13168 0.16015-0.14649q0.20997-0.19207 0.26972-0.384 0.04695-0.13446-0.01391-0.30104-0.03898-0.12122-0.37103-0.48422l-2.9038-3.1745q-0.2995-0.32741-0.38565-0.38587-0.14953-0.092-0.30747-0.07173-0.22638 0.02406-0.46127 0.23891l-0.16015 0.14649-0.12045-0.13168 4.0392-3.6949 1.3054 1.4271-0.13524 0.1237q-0.58175-0.42874-0.97871-0.48397-0.3934-0.05848-0.83271 0.14727-0.25789 0.11824-0.80595 0.61957z"/>
    <path d="m33.94 21.581 1.049 1.5029q0.30366 0.43505 0.43513 0.51386 0.13267 0.07209 0.31406 0.04547t0.54921-0.28336l0.10214 0.14634-2.7448 1.9158-0.10214-0.14633q0.37177-0.25949 0.45535-0.41783 0.08478-0.16505 0.0589-0.31168-0.02193-0.14939-0.32559-0.58444l-2.4293-3.4804q-0.30366-0.43505-0.43633-0.50714-0.13147-0.07881-0.31287-0.05218t-0.54921 0.28336l-0.10214-0.14633 2.4916-1.7392q0.97292-0.6791 1.5177-0.85934 0.54473-0.18024 1.0835-0.01514 0.53597 0.16114 0.87552 0.64761 0.41408 0.59325 0.25748 1.279-0.10174 0.43569-0.50658 0.9006l2.5564 0.91539q0.49881 0.17532 0.66633 0.18779 0.24773 0.0094 0.46958-0.12778l0.10214 0.14633-1.6888 1.1788-3.4344-1.2378zm-1.8358-2.6301 1.6398 2.3493 0.22543-0.15735q0.54974-0.38372 0.75362-0.67307 0.20112-0.29331 0.17317-0.662-0.02676-0.37541-0.32214-0.79859-0.42789-0.61302-0.92088-0.70417-0.48904-0.09391-1.1258 0.35054z"/>
    <path d="m42.48 19.609 0.08616 0.15628-2.9946 1.651-0.08616-0.15628 0.19007-0.10479q0.2492-0.13739 0.35235-0.30992 0.07722-0.11968 0.05717-0.29589-0.0094-0.12698-0.24696-0.5578l-2.0772-3.7676q-0.24218-0.43927-0.34919-0.52347-0.10701-0.0842-0.29486-0.08528-0.18596-0.0076-0.42671 0.12511l-0.19007 0.10479-0.08616-0.15628 2.9946-1.651 0.08616 0.15628-0.19007 0.10479q-0.2492 0.13739-0.35235 0.30992-0.07722 0.11968-0.0614 0.29822 0.0094 0.12698 0.24695 0.5578l2.0772 3.7676q0.24218 0.43927 0.34919 0.52347 0.11123 0.08187 0.29719 0.0895 0.18785 0.0011 0.4286-0.13166z"/>
    <path d="m46.213 10.855 0.87824 2.0898-0.17341 0.07287q-0.53947-0.73593-1.2562-0.94745t-1.3926 0.07251q-0.5647 0.23731-0.89962 0.75998-0.33492 0.52266-0.3323 1.1389 2e-3 0.78914 0.34772 1.6117 0.34008 0.80926 0.82491 1.3903 0.48296 0.57657 1.0626 0.73582 0.57777 0.15481 1.2714-0.13669 0.56915-0.23918 0.93583-0.68625 0.37113-0.44894 0.63981-1.2786l0.21863 0.52024q-0.28453 0.74215-0.73499 1.214-0.44788 0.4655-1.1815 0.77382-0.96488 0.40548-1.8789 0.33444-0.90957-0.07292-1.6232-0.62578-0.70921-0.55473-1.053-1.3729-0.36251-0.86261-0.23855-1.825 0.1284-0.96428 0.71381-1.7125 0.58985-0.75013 1.4525-1.1126 0.63584-0.26721 1.4587-0.28864 0.47634-0.01184 0.5875-0.05855 0.14229-0.0598 0.20158-0.20504 0.06187-0.15156-0.0023-0.39141z"/>
    <path d="m52.812 13.954-2.2329 0.59291-0.10232 0.68589q-0.04883 0.34232 0.0044 0.54277 0.07055 0.26571 0.31841 0.33464 0.14567 0.04116 0.6497-0.05275l0.0458 0.17248-2.1024 0.55825-0.0458-0.17248q0.32668-0.14164 0.48512-0.42823 0.1572-0.29126 0.28699-1.0992l0.92156-5.6442 0.08857-0.023518 3.656 4.5784q0.52188 0.64988 0.78241 0.78531 0.19687 0.10242 0.49207 0.04899l0.0458 0.17248-3.058 0.812-0.0458-0.17248 0.12586-0.03342q0.36826-0.09779 0.4902-0.23995 0.08275-0.10182 0.04562-0.24166-0.02228-0.08391-0.07377-0.16505-0.02046-0.03948-0.23268-0.31248zm-0.25009-0.30287-1.5197-1.9269-0.39155 2.4344z"/>
   </g>
   <g transform="rotate(90 66.402 65.839)" style="paint-order:normal" aria-label="E PLURIBUS">
    <path d="m18.62 82.433 1.4525-0.48631-0.02379-0.07104q-0.11365-0.33943-0.37788-0.42068-0.26423-0.08125-0.69406 0.01584l-0.03348-0.09999 1.8682-0.6255 0.03348 0.09999q-0.29465 0.13377-0.45501 0.30158-0.16124 0.16518-0.18208 0.3214-0.02348 0.1571 0.06197 0.41233l1.0051-0.33654q0.2947-0.09867 0.35255-0.14438 0.05697-0.04834 0.07617-0.13085 0.01919-0.08251-0.0319-0.23512l-0.07136-0.21313q-0.16739-0.49994-0.49937-0.72237-0.33286-0.22507-0.85054-0.19805l-0.0326-0.09736 1.1878-0.2192 1.0325 3.0838-0.09736 0.0326-0.03965-0.11841q-0.05198-0.15524-0.13895-0.23147-0.05974-0.05608-0.16154-0.06296-0.07284-0.0078-0.34123 0.08206l-2.3471 0.78584q-0.24208 0.08105-0.29293 0.11271-0.08328 0.05715-0.10949 0.14493-0.0402 0.12466 0.01795 0.29832l0.03964 0.11841-0.09736 0.0326-0.99993-2.9865 1.0551-0.35328 0.03348 0.09999q-0.36125 0.20581-0.48295 0.40165-0.12259 0.19321-0.11695 0.47224 2e-3 0.16321 0.13765 0.56842z"/>
    <path d="m18.91 76.664 1.0195-0.22155q0.29827-0.06482 0.36924-0.11715 0.06767-0.05446 0.09374-0.15667 0.02547-0.10492-0.02874-0.35438l0.10033-0.0218 0.40598 1.8682-0.10033 0.0218q-0.05539-0.25488-0.12093-0.33435-0.06884-0.08159-0.15242-0.10034-0.08417-0.02146-0.38244 0.04335l-2.3862 0.51852q-0.29827 0.06481-0.36594 0.11928-0.07097 0.05234-0.09704 0.15455-0.02606 0.10221 0.02874 0.35438l-0.10033 0.0218-0.34823-1.6025q-0.17206-0.79177 0.03511-1.1974 0.20717-0.40564 0.63017-0.49756 0.35792-0.07778 0.66112 0.08918 0.3032 0.16696 0.48024 0.53739 0.12223 0.24888 0.25834 0.87524zm-1.8005 0.39125 1.589-0.34529q-0.01402-0.09066-0.02404-0.13676-0.07189-0.33081-0.306-0.46734-0.23683-0.13595-0.64899-0.04639-0.40944 0.08897-0.56036 0.30918-0.15092 0.22021-0.07373 0.57542z"/>
    <path d="m18.362 71.03 1.3278-0.03866 0.45245 3.3101-0.10172 0.0139-0.01691-0.12372q-0.02217-0.16221-0.09343-0.25329-0.04826-0.06622-0.147-0.09193-0.07012-0.02122-0.35054 0.01711l-2.4523 0.3352q-0.28592 0.03908-0.35327 0.0791-0.06735 0.04001-0.10681 0.14063-0.04258 0.09824-0.02116 0.25495l0.01691 0.12372-0.10172 0.0139-0.2717-1.9877 0.10172-0.0139 0.02217 0.16221q0.02217 0.16221 0.09343 0.25329 0.04826 0.06622 0.14737 0.09468 0.07012 0.02122 0.35054-0.01711l2.3754-0.32468q0.28592-0.03908 0.36114-0.08297 0.07247-0.04351 0.09781-0.145 0.01535-0.07211-0.02073-0.33604l-0.04246-0.31067q-0.04059-0.29692-0.17212-0.48059-0.13153-0.18367-0.37651-0.29581-0.24536-0.1149-0.7029-0.18398z"/>
    <path d="m15.872 70.704-0.10027-1.9398 0.10253-0.0053 5e-3 0.09699q0.01132 0.21892 0.06272 0.29962 0.04849 0.07807 0.13072 0.10994 0.08208 0.0291 0.40353 0.01248l1.84-0.09511q0.50434-0.02607 0.66397-0.10934 0.15948-0.08604 0.25854-0.26621 0.09905-0.18017 0.0853-0.4462-0.01576-0.30482-0.16257-0.51118-0.14973-0.20899-0.39626-0.30183-0.24667-0.09561-0.84524-0.06467l-1.5324 0.07921q-0.25217 0.01304-0.35752 0.07127-0.10535 0.05824-0.14276 0.14075-0.05729 0.128-0.04554 0.35523l-0.10253 0.0053-0.06718-1.2997 0.10253-0.0053 4e-3 0.07759q0.0082 0.15795 0.07734 0.25996 0.06918 0.10201 0.19909 0.14253 0.09054 0.03144 0.32054 0.01955l1.4271-0.07377q0.6623-0.03424 0.96062 0.03926 0.29818 0.07072 0.56228 0.39605 0.2641 0.32533 0.29433 0.91004 0.02521 0.48772-0.09128 0.76048-0.15859 0.37218-0.42796 0.53615-0.26938 0.16396-0.7377 0.18817l-1.84 0.09511q-0.32422 0.01676-0.39995 0.05679-0.0785 0.04018-0.12103 0.13129-0.04253 0.09111-0.02744 0.32928z"/>
    <path d="m17.763 64.97 1.0538 0.03687q0.30504 0.01067 0.38673-0.02256 0.07901-0.03611 0.12945-0.12874 0.05044-0.09264 0.05947-0.35054l0.10261 0.0036-0.06734 1.9245-0.1026-0.0036q0.0091-0.26067-0.03482-0.35384-0.04662-0.09603-0.123-0.1348-0.07629-0.04154-0.38133-0.05221l-2.4404-0.08539q-0.30504-0.01067-0.38405 0.02543-0.08168 0.03324-0.13212 0.12587-0.05044 0.09264-0.05947 0.35054l-0.1026-0.0036 0.06113-1.7471q0.02387-0.68219 0.12922-0.99503 0.10535-0.31284 0.36746-0.50358 0.25934-0.19084 0.60044-0.1789 0.41597 0.01456 0.67726 0.32356 0.16524 0.19736 0.23917 0.54424l1.3045-0.8595q0.25302-0.16884 0.31665-0.24158 0.08995-0.11069 0.1035-0.26015l0.10261 0.0036-0.04143 1.1841-1.7562 1.1519zm-1.8441-0.06453 1.6472 0.05764 0.0055-0.15807q0.01349-0.38546-0.04915-0.57924-0.06541-0.19387-0.24465-0.30842-0.18192-0.11743-0.47864-0.12781-0.42984-0.01504-0.64213 0.18022-0.2122 0.19248-0.22782 0.63896z"/>
    <path d="m19.709 60.355 0.10214 0.01045-0.20032 1.9571-0.10214-0.01045 0.01272-0.12422q0.01667-0.16286-0.03113-0.26817-0.0313-0.07573-0.1212-0.12398-0.06314-0.03715-0.3447-0.06596l-2.4623-0.25202q-0.28708-0.02938-0.36196-0.0064-0.07488 0.02302-0.13693 0.1115-0.06453 0.08544-0.08064 0.24278l-0.01271 0.12422-0.10214-0.01045 0.20032-1.9571 0.10214 0.01045-0.01271 0.12422q-0.01667 0.16286 0.03113 0.26817 0.0313 0.07573 0.12092 0.12674 0.06314 0.03715 0.3447 0.06596l2.4623 0.25202q0.28708 0.02938 0.36196 0.0064 0.07516-0.02578 0.13969-0.11122 0.06205-0.08849 0.07816-0.24583z"/>
    <path d="m18.25 57.411q0.21181-0.50748 0.42278-0.69152 0.30048-0.26468 0.69727-0.19807 0.41869 0.07029 0.63583 0.45282 0.26175 0.4688 0.12944 1.2569l-0.31653 1.8855-0.10125-0.017q0.04318-0.25723 0.01182-0.35535-0.03364-0.10131-0.10429-0.14975-0.07019-0.05118-0.37121-0.10171l-2.4081-0.40428q-0.30102-0.05053-0.38407-0.02509-0.08533 0.02225-0.14747 0.10748-0.06214 0.08523-0.10487 0.33973l-0.10125-0.017 0.29862-1.7787q0.10704-0.63761 0.26654-0.88376 0.15676-0.24661 0.40962-0.36172 0.25012-0.11557 0.50462-0.07285 0.26818 0.04502 0.44627 0.27469 0.17536 0.22921 0.21627 0.73972zm-0.24111 0.98369q0.06524-0.38859 0.0084-0.58664-0.05633-0.20078-0.19851-0.32595-0.14218-0.12516-0.38847-0.16651-0.24629-0.04135-0.41881 0.03098-0.1748 0.06913-0.28722 0.23596-0.11242 0.16683-0.17675 0.56682zm0.21345 0.03583 1.1904 0.19984 0.13637 0.02571q0.14777 0.02481 0.2368-0.03621 0.08675-0.06422 0.11156-0.21199 0.03675-0.21892-0.02825-0.41835-0.06727-0.20262-0.23408-0.33192-0.16954-0.12976-0.39668-0.16789-0.25997-0.04364-0.48542 0.04231-0.22819 0.08549-0.34566 0.28242-0.11747 0.19693-0.18502 0.61608z"/>
    <path d="m16.81 55.421 0.48327-1.8813 0.09944 0.02554-0.02416 0.09407q-0.05454 0.21232-0.02956 0.30468 0.02298 0.08899 0.09194 0.14394 0.06966 0.05227 0.38141 0.13236l1.7845 0.45841q0.48914 0.12565 0.66634 0.09382 0.1779-0.03452 0.32621-0.17691 0.14831-0.14239 0.21459-0.4004 0.07594-0.29563-0.0026-0.5364-0.08053-0.24415-0.28811-0.40634-0.20689-0.16488-0.78741-0.314l-1.4862-0.38178q-0.24457-0.06282-0.3625-0.03869-0.11793 0.02414-0.17827 0.09172-0.09288 0.10506-0.14949 0.32544l-0.09944-0.02554 0.32379-1.2605 0.09944 0.02554-0.01933 0.07525q-0.03935 0.15319-0.0038 0.2712 0.03558 0.11801 0.14747 0.19545 0.07703 0.05703 0.3001 0.11433l1.3841 0.35555q0.64233 0.165 0.90512 0.32418 0.26348 0.1565 0.41845 0.54582t0.0093 0.9564q-0.12151 0.47301-0.3141 0.69857-0.26244 0.30789-0.56848 0.38398-0.30604 0.07609-0.76024-0.04058l-1.7845-0.45841q-0.31444-0.08077-0.39867-0.06517-0.08691 0.01492-0.1547 0.08918-0.06778 0.07426-0.12447 0.30609z"/>
    <path d="m18.685 48.74 1.1965 0.37745-0.03686 0.10763q-0.47235-0.07669-0.84522 0.12999-0.3746 0.20316-0.49326 0.54968-0.09169 0.26777-0.0012 0.47472 0.08872 0.20343 0.27511 0.26725 0.11813 0.04045 0.22889 0.01679 0.14945-0.03388 0.32774-0.16054 0.12888-0.09372 0.50222-0.46449 0.52109-0.51962 0.86872-0.64401 0.34673-0.12177 0.6985-0.0013 0.44628 0.15282 0.64962 0.61254 0.20161 0.45619 0.01823 0.99173-0.05753 0.16801-0.1429 0.30596-0.08537 0.13795-0.25718 0.33135-0.09565 0.10803-0.12352 0.18941-0.02337 0.06825 0.0031 0.16236 0.02643 0.09411 0.11788 0.17822l-0.03326 0.09713-1.3441-0.46026 0.03326-0.09713q0.60659 0.07866 1.0182-0.147 0.40991-0.22919 0.54026-0.60984 0.10068-0.29402-1.23e-4 -0.52212-0.09991-0.23072-0.31255-0.30354-0.12601-0.04315-0.26751-0.01535-0.14061 0.02518-0.29236 0.12573-0.15438 0.09965-0.44367 0.38774-0.4052 0.40385-0.64602 0.55896-0.24082 0.15511-0.48777 0.1996-0.24604 0.04187-0.49543-0.04353-0.42528-0.14563-0.61757-0.5605-0.1923-0.41488-0.02959-0.89003 0.05933-0.17326 0.15707-0.32164 0.07375-0.1126 0.22061-0.25882 0.14513-0.14974 0.16941-0.22062 0.02337-0.06825-0.0051-0.12202-0.02852-0.05376-0.17697-0.14272z"/>
   </g>
   <g transform="matrix(0 .58369 -.58369 0 104.97 12.644)" style="paint-order:normal" aria-label="UNUM">
    <path d="m15.437 82.683-0.84193-3.2695 0.17282-0.0445 0.0421 0.16348q0.09502 0.36899 0.2105 0.48867 0.10961 0.11621 0.2607 0.14205 0.14988 0.02117 0.69169-0.11835l3.1014-0.79863q0.85008-0.2189 1.0932-0.41598 0.2419-0.20174 0.34828-0.54291 0.10639-0.34116-0.0091-0.78956-0.1323-0.51378-0.45378-0.8145-0.32735-0.30418-0.77941-0.37703-0.45326-0.07752-1.4621 0.18228l-2.5829 0.66512q-0.42504 0.10945-0.58435 0.2451-0.15931 0.13565-0.19449 0.28915-0.0533 0.23785 0.04532 0.62085l-0.17282 0.0445-0.56409-2.1906 0.17282-0.0445 0.03368 0.13078q0.06856 0.26623 0.22169 0.41606 0.15313 0.14982 0.38843 0.1739 0.1651 0.02223 0.55277-0.0776l2.4054-0.61942q1.1163-0.28746 1.6499-0.26549 0.53239 0.0173 1.0948 0.48009t0.81622 1.4483q0.21168 0.82205 0.10762 1.327-0.14137 0.68885-0.54349 1.0613-0.40213 0.3725-1.1915 0.57576l-3.1014 0.79863q-0.54648 0.14072-0.66162 0.23512-0.11982 0.0956-0.16073 0.26551-0.04092 0.16991 0.06719 0.57039z"/>
    <path d="m13.297 72.546 3.7184-3.6108-2.7982 0.27721q-0.58556 0.05801-0.7753 0.24644-0.25556 0.25796-0.19223 0.79937l-0.17759 0.01759-0.21302-2.1502 0.17759-0.01759q0.09369 0.40754 0.19435 0.54297 0.09538 0.13111 0.29545 0.19368 0.19479 0.05825 0.65556 0.0126l5.4188-0.53682 0.01617 0.16319-4.9828 4.9381 4.1373-0.40987q0.56156-0.05563 0.73314-0.32951 0.17111-0.27868 0.1383-0.60985l-0.01522-0.15359 0.17759-0.01759 0.22871 2.3086-0.17759 0.01759q-0.05805-0.53708-0.29496-0.72687-0.2369-0.18979-0.75527-0.13844l-4.5933 0.45504-0.159 0.15631q-0.23874 0.23206-0.30464 0.39853-0.0659 0.16647-0.04602 0.465l-0.17759 0.01759z"/>
    <path d="m12.826 66.658 0.17689-3.3716 0.17821 0.0093-0.0088 0.16858q-0.01996 0.3805 0.05434 0.5293 0.06974 0.14372 0.20613 0.21366 0.13665 0.06513 0.69536 0.09444l3.1982 0.16779q0.8766 0.04599 1.1676-0.06915 0.29125-0.11995 0.49501-0.41354t0.22802-0.75597q0.0278-0.52982-0.18875-0.91307-0.22112-0.38832-0.63055-0.59334-0.40918-0.20983-1.4495-0.26441l-2.6635-0.13974q-0.4383-0.023-0.63095 0.05866t-0.27222 0.21755q-0.12215 0.21093-0.14287 0.60588l-0.17821-0.0093 0.11852-2.2589 0.17821 0.0093-0.0071 0.13486q-0.0144 0.27454 0.08677 0.46338 0.10118 0.18884 0.31844 0.28234 0.15084 0.0707 0.55061 0.09168l2.4805 0.13014q1.1511 0.06039 1.6536 0.24131 0.50272 0.1761 0.90056 0.7862t0.34452 1.6264q-0.04447 0.8477-0.29511 1.2982-0.34136 0.61479-0.83666 0.84961-0.4953 0.23482-1.3093 0.19212l-3.1982-0.16774q-0.56353-0.02957-0.70168 0.02597-0.14296 0.05529-0.23293 0.20512-0.08997 0.14983-0.10688 0.5643z"/>
    <path d="m18.52 54.979-3.7976-2.7057 0.60322-2.5931 0.17382 0.04043-0.04808 0.2067q-0.06557 0.28186-0.0063 0.47393 0.03845 0.13274 0.17708 0.23927 0.10072 0.0779 0.57519 0.18827l4.1997 0.97695q0.48856 0.11365 0.62272 0.09039t0.26527-0.16113q0.12641-0.13896 0.1887-0.40673l0.04808-0.2067 0.17382 0.04043-0.77369 3.326-0.17382-0.04043 0.04808-0.2067q0.06557-0.28186 0.0063-0.47393-0.03845-0.13274-0.18178-0.24036-0.10072-0.0779-0.57989-0.18937l-4.7212-1.0982 5.2428 3.7946-0.02623 0.11274-6.3458 1.1385 4.4863 1.0436q0.46977 0.10928 0.58328 0.11092 0.24909-0.0064 0.44641-0.17346 0.19371-0.17282 0.29534-0.60971l0.17382 0.04043-0.50705 2.1797-0.17382-0.04043 0.0153-0.06577q0.05387-0.2103 0.02603-0.40991-0.03254-0.2007-0.13283-0.32306-0.10028-0.12237-0.30906-0.2254-0.04949-0.02142-0.47698-0.12086l-4.0306-0.93761q-0.48386-0.11256-0.61333-0.0882-0.13416 0.02326-0.26057 0.16222-0.13111 0.13787-0.1934 0.40564l-0.04699 0.202-0.17382-0.04043 0.6054-2.6025z"/>
   </g>
  </g>
 </g>
 <g stroke="#5a5a5a">
  <g transform="matrix(1.1297 0 0 1.1847 -8.5747 -9.4801)" fill="none" stroke-width=".26458">
   <path d="m57.588 80.002-1.3155 5.81s8.6967 4.3118 19.586-0.21924l-2.1924-7.6736" style="paint-order:markers stroke fill"/>
   <path d="m58.325 86.67 3.6485-14.05" style="paint-order:markers stroke fill"/>
   <path d="m60.877 87.383 2.4848-14.945" style="paint-order:markers stroke fill"/>
   <path d="m63.435 87.712 1.2789-16.114" style="paint-order:markers stroke fill"/>
   <path d="m65.993 87.822 0.03654-16.407" style="paint-order:markers stroke fill"/>
   <path d="m68.477 87.602-1.2789-16.041" style="paint-order:markers stroke fill"/>
   <path d="m71.145 87.127-2.6675-15.201" style="paint-order:markers stroke fill"/>
   <path d="m73.52 86.396-3.0694-13.155" style="paint-order:markers stroke fill"/>
  </g>
  <g transform="matrix(1.1297 0 0 1.1847 -9.4503 -9.4801)" fill="#ccc" stroke-width=".26458">
   <path d="m52.193 77.463h29.456v3.4106h-29.456z" style="paint-order:markers stroke fill"/>
   <path d="m52.193 78.284h29.456" style="paint-order:markers stroke fill"/>
   <path d="m52.193 79.052h29.456" style="paint-order:markers stroke fill"/>
   <path d="m52.193 79.972h29.456" style="paint-order:markers stroke fill"/>
  </g>
  <path d="m74.604 79.353 0.46702 1.8979 2.6854-0.06123s0.92003 0.97955 0.10274 3.2447c0 0 0.0072-3.0951-1.9989-2.1428 0 0 0.5254 1.9591 0.11676 3.7345 0 0-0.5254-2.5713-1.2259-3.2448 0 0-1.4735-0.06122-1.6486 0.551l-0.11676 1.1632-0.70053-1.8979 1.6626-1.102-0.7449-2.0203m2.1083-27.639-0.9907 12.468 1.6512 12.468-0.49535 2.2511-3.1372 0.86581-1.3209-2.5108-1.1558-5.8875-1.0474-0.95239m-11.131 8.8155-0.46702 1.8979-2.6854-0.06123s-0.92003 0.97955-0.10274 3.2447c0 0-0.0072-3.0951 1.9989-2.1428 0 0-0.5254 1.9591-0.11676 3.7345 0 0 0.5254-2.5713 1.2259-3.2448 0 0 1.4735-0.06122 1.6486 0.551l0.11676 1.1632 0.70053-1.8979-1.6626-1.102 0.7449-2.0203m-2.1083-27.639 0.9907 12.468-1.6512 12.468 0.49535 2.2511 3.1372 0.86581 1.3209-2.5108 1.1558-5.8875 0.98898-0.89116m11.48-26.646c-1.6317-1.1253-2.231-2.9477-2.231-2.9477 0-7.4187-2.7742-12.655-2.7742-12.655-8.3225-3.4912-13.957 1.0183-13.957 1.0183-1.1097 1.7456 0 4.2635 0 4.2635l0.51081-0.68874c0.75305-0.3909 2.6596-0.14855 3.4491-0.139 2.9457 0.03564 2.827 2.5733 2.827 2.5733-0.27742 5.2368-2.1236 6.9373-2.1236 6.9373s-0.67856 1.0351-2.2002 1.8973m17.522 32.971c13.46-4.1692 17.758-12.951 17.758-12.951 7.7059 26.693 21.25 29.386 21.25 29.386 6.7718-42.121-16.112-68.323-16.112-68.323-10.274-11.265-10.247-0.73466-10.247-0.73466 0.96178 12.68-7.0502 17.56-13.809 19.429m-16.299 0.33248c-6.9203-1.5906-16.013-6.2435-14.987-19.761 0 0 0.23351-10.53-10.041 0.73466 0 0-22.884 26.203-16.112 68.323 0 0 13.544-2.6938 21.25-29.386 0 0 4.3033 8.7971 17.782 12.959m5.0061-0.06717c1.5223-0.88205 3.1404-2.1891 4.8288-2.0529 1.6519-0.13326 3.1918 1.035 4.6493 1.8985" fill="none" stroke-width=".61218" style="paint-order:markers stroke fill"/>
  <g transform="matrix(-1.1297 0 0 1.1847 140.82 -9.4801)" fill="none">
   <path d="m41.731 62.218s-3.7282-5.3469-4.3128-7.0278c0 0-5.9196 4.6041-11.62 7.0158" stroke-width=".52917" style="paint-order:markers stroke fill"/>
   <g stroke-width=".26458">
    <path d="m26.602 57.31c2.4848-8.9159 8.6236-17.832 8.6236-17.832 5.9658-2.2233 5.9927 4.5311 5.9927 4.5311 0.58465 4.6772 14.032 15.347 14.032 15.347s0.87098 0.6917 2.2662 0.6917" style="paint-order:markers stroke fill"/>
    <path d="m53.055 57.545 2.1353-4.8348" style="paint-order:markers stroke fill"/>
    <path d="m50.945 55.716 2.4887-5.1769" style="paint-order:markers stroke fill"/>
    <path d="m49.153 54.092 2.4205-6.2399" style="paint-order:markers stroke fill"/>
    <path d="m47.148 52.174 2.2547-6.3887" style="paint-order:markers stroke fill"/>
    <path d="m45.267 50.231 2.379-6.9264" style="paint-order:markers stroke fill"/>
    <path d="m43.768 48.516 2.0174-7.382" style="paint-order:markers stroke fill"/>
    <path d="m42.331 46.573 1.9036-7.9194" style="paint-order:markers stroke fill"/>
    <path d="m41.051 42.61 1.7888-5.8676" style="paint-order:markers stroke fill"/>
    <path d="m39.572 39.778 1.511-5.0516" style="paint-order:markers stroke fill"/>
    <path d="m38.024 39.075 1.2497-5.3307" style="paint-order:markers stroke fill"/>
    <path d="m36.743 39.078 0.20526-2.4908" style="paint-order:markers stroke fill"/>
    <path d="m35.225 39.478 0.48313-1.2893" style="paint-order:markers stroke fill"/>
    <path d="m55.25 59.356s1.181-2.9773 1.2844-4.8377" style="paint-order:markers stroke fill"/>
    <path d="m46.221 51.238s-0.50098 8.7191-2.7421 13.415" style="paint-order:markers stroke fill"/>
    <path d="m42.154 62.916s1.905-4.4411 2.7941-13.034" style="paint-order:markers stroke fill"/>
    <path d="m41.041 61.212s2.0105-6.0249 2.3183-13.206" style="paint-order:markers stroke fill"/>
    <path d="m39.725 59.23s1.8199-3.7796 2.803-12.359" style="paint-order:markers stroke fill"/>
    <path d="m38.273 56.885s2.6058-3.4016 3.5348-11.204" style="paint-order:markers stroke fill"/>
    <path d="m37.259 39.032s-7.2353 16.624-9.4574 18.122" style="paint-order:markers stroke fill"/>
    <path d="m38.747 39.275s-6.3979 14.985-9.4468 17.827c0 0 0.15503 0.36174-1.7053 1.8604" style="paint-order:markers stroke fill"/>
    <path d="m40.166 40.434s-2.1634 8.3991-11.299 18.85" style="paint-order:markers stroke fill"/>
    <path d="m41.114 42.949s-5.7426 12.315-9.5428 15.129" style="paint-order:markers stroke fill"/>
    <path d="m26.855 61.736s-0.39679 18.207-2.7739 23.272" style="paint-order:markers stroke fill"/>
    <path d="m29.252 60.52s0.04814 17.047-3.2075 22.731" style="paint-order:markers stroke fill"/>
    <path d="m31.41 59.276s-0.09415 14.932-2.678 21.65" style="paint-order:markers stroke fill"/>
    <path d="m33.778 57.772s-0.34363 13.593-2.9275 21.344" style="paint-order:markers stroke fill"/>
    <path d="m35.834 56.358s0.28787 9.7357-2.8127 19.968" style="paint-order:markers stroke fill"/>
    <path d="m37.918 56.254s-0.17653 10.146-2.5199 16.764" style="paint-order:markers stroke fill"/>
    <path d="m40.382 60.23s-0.114 3.7666-3.1834 10.125" style="paint-order:markers stroke fill"/>
    <path d="m41.291 44.667s-2.0097 6.9062-4.9695 10.304" style="paint-order:markers stroke fill"/>
    <path d="m56.857 59.941s0.8039 6.8697-1.4616 12.351" style="paint-order:markers stroke fill"/>
    <path d="m54.811 58.845s1.0962 7.8928-1.0231 12.862" style="paint-order:markers stroke fill"/>
    <path d="m52.473 57.018s1.9732 7.8928-0.65774 13.739" style="paint-order:markers stroke fill"/>
    <path d="m51.084 55.848s0.43849 9.6468-1.6809 13.739" style="paint-order:markers stroke fill"/>
    <path d="m49.549 54.314s-0.29232 10.085-2.1194 13.812" style="paint-order:markers stroke fill"/>
    <path d="m47.941 53.071s-1.1693 9.7198-2.4848 13.301" style="paint-order:markers stroke fill"/>
   </g>
  </g>
  <g transform="matrix(1.1297 0 0 1.1847 -8.5747 -9.4801)" fill="none">
   <path d="m41.731 62.218s-3.7282-5.3469-4.3128-7.0278c0 0-5.9196 4.6041-11.62 7.0158" stroke-width=".52917" style="paint-order:markers stroke fill"/>
   <g stroke-width=".26458">
    <path d="m26.602 57.31c2.4848-8.9159 8.6236-17.832 8.6236-17.832 5.9658-2.2233 5.9927 4.5311 5.9927 4.5311 0.58465 4.6772 14.032 15.347 14.032 15.347s0.87098 0.6917 2.2662 0.6917" style="paint-order:markers stroke fill"/>
    <path d="m53.055 57.545 2.1353-4.8348" style="paint-order:markers stroke fill"/>
    <path d="m50.945 55.716 2.4887-5.1769" style="paint-order:markers stroke fill"/>
    <path d="m49.153 54.092 2.4205-6.2399" style="paint-order:markers stroke fill"/>
    <path d="m47.148 52.174 2.2547-6.3887" style="paint-order:markers stroke fill"/>
    <path d="m45.267 50.231 2.379-6.9264" style="paint-order:markers stroke fill"/>
    <path d="m43.768 48.516 2.0174-7.382" style="paint-order:markers stroke fill"/>
    <path d="m42.331 46.573 1.9036-7.9194" style="paint-order:markers stroke fill"/>
    <path d="m41.051 42.61 1.7888-5.8676" style="paint-order:markers stroke fill"/>
    <path d="m39.572 39.778 1.511-5.0516" style="paint-order:markers stroke fill"/>
    <path d="m38.024 39.075 1.2497-5.3307" style="paint-order:markers stroke fill"/>
    <path d="m36.743 39.078 0.20526-2.4908" style="paint-order:markers stroke fill"/>
    <path d="m35.225 39.478 0.48313-1.2893" style="paint-order:markers stroke fill"/>
    <path d="m55.25 59.356s1.181-2.9773 1.2844-4.8377" style="paint-order:markers stroke fill"/>
    <path d="m46.221 51.238s-0.50098 8.7191-2.7421 13.415" style="paint-order:markers stroke fill"/>
    <path d="m42.154 62.916s1.905-4.4411 2.7941-13.034" style="paint-order:markers stroke fill"/>
    <path d="m41.041 61.212s2.0105-6.0249 2.3183-13.206" style="paint-order:markers stroke fill"/>
    <path d="m39.725 59.23s1.8199-3.7796 2.803-12.359" style="paint-order:markers stroke fill"/>
    <path d="m38.273 56.885s2.6058-3.4016 3.5348-11.204" style="paint-order:markers stroke fill"/>
    <path d="m37.259 39.032s-7.2353 16.624-9.4574 18.122" style="paint-order:markers stroke fill"/>
    <path d="m38.747 39.275s-6.3979 14.985-9.4468 17.827c0 0 0.15503 0.36174-1.7053 1.8604" style="paint-order:markers stroke fill"/>
    <path d="m40.166 40.434s-2.1634 8.3991-11.299 18.85" style="paint-order:markers stroke fill"/>
    <path d="m41.114 42.949s-5.7426 12.315-9.5428 15.129" style="paint-order:markers stroke fill"/>
    <path d="m26.855 61.736s-0.39679 18.207-2.7739 23.272" style="paint-order:markers stroke fill"/>
    <path d="m29.252 60.52s0.04814 17.047-3.2075 22.731" style="paint-order:markers stroke fill"/>
    <path d="m31.41 59.276s-0.09415 14.932-2.678 21.65" style="paint-order:markers stroke fill"/>
    <path d="m33.778 57.772s-0.34363 13.593-2.9275 21.344" style="paint-order:markers stroke fill"/>
    <path d="m35.834 56.358s0.28787 9.7357-2.8127 19.968" style="paint-order:markers stroke fill"/>
    <path d="m37.918 56.254s-0.17653 10.146-2.5199 16.764" style="paint-order:markers stroke fill"/>
    <path d="m40.382 60.23s-0.114 3.7666-3.1834 10.125" style="paint-order:markers stroke fill"/>
    <path d="m41.291 44.667s-2.0097 6.9062-4.9695 10.304" style="paint-order:markers stroke fill"/>
    <path d="m56.857 59.941s0.8039 6.8697-1.4616 12.351" style="paint-order:markers stroke fill"/>
    <path d="m54.811 58.845s1.0962 7.8928-1.0231 12.862" style="paint-order:markers stroke fill"/>
    <path d="m52.473 57.018s1.9732 7.8928-0.65774 13.739" style="paint-order:markers stroke fill"/>
    <path d="m51.084 55.848s0.43849 9.6468-1.6809 13.739" style="paint-order:markers stroke fill"/>
    <path d="m49.549 54.314s-0.29232 10.085-2.1194 13.812" style="paint-order:markers stroke fill"/>
    <path d="m47.941 53.071s-1.1693 9.7198-2.4848 13.301" style="paint-order:markers stroke fill"/>
   </g>
  </g>
  <path d="m57.842 79.368c-0.23606 0.08614-0.2314 0.37873-0.29848 0.58802-0.10815 0.43177-0.21368 0.86425-0.32019 1.2965-0.85272-0.0064-1.7115-0.04036-2.566-0.04841-0.24885 0.01401-0.30938 0.30405-0.39439 0.50081-0.12508 0.35613-0.18368 0.74336-0.16342 1.1221 0.02084 0.26076 0.36308 0.38311 0.52909 0.18652 0.15676-0.21368 0.24373-0.4839 0.45444-0.65384 0.32795-0.3289 0.84086-0.29652 1.2319-0.12142 0.11156 0.01952 0.14083 0.07723 0.09091 0.18136-0.11963 0.5494-0.2094 1.1106-0.22554 1.6744 0.0012 0.26079 0.32563 0.41818 0.51115 0.23865 0.18034-0.21337 0.22772-0.51038 0.35355-0.75832 0.13038-0.29092 0.27917-0.58122 0.5009-0.8077 0.48335 0.02655 1.0075 0.01645 1.433 0.29297 0.17715 0.11529 0.24476 0.39498 0.48572 0.39587 0.21746-3.13e-4 0.31035-0.22682 0.36801-0.41029 0.08613-0.18708 0.1317-0.45508-0.05797-0.59228-0.47618-0.32194-0.9601-0.63136-1.4336-0.9578 0.17444-0.5214 0.38871-1.0314 0.55573-1.5617 0.0445-0.22683-0.16175-0.38452-0.3509-0.42225-0.2111-0.05374-0.42053-0.1442-0.63832-0.15315-0.02182 0.0034-0.04365 0.0067-0.06548 0.01007z" fill="none" stroke-width=".021136" style="paint-order:markers stroke fill"/>
  <g transform="matrix(1.1297 0 0 1.1847 -8.5747 -9.4801)" fill="#ccc" stroke-width=".024414">
   <path transform="scale(.26458)" d="m222.72 284.45c-0.12995 0.0246-0.33167-0.0525-0.40427 0.0922-0.49592 1.9464-0.99888 3.8907-1.5039 5.8346-2.9881-0.0602-5.976-0.14042-8.9644-0.18723-0.14326-2e-3 -0.3361-0.0137-0.39182 0.1548-0.34586 0.6282-0.59935 1.3062-0.72942 2.0122-0.14865 0.73065-0.18526 1.4828-0.13752 2.2256 0.02 0.15172 0.21927 0.10388 0.24472-0.0202 0.43738-0.99502 1.0634-1.9805 1.9939-2.5881 0.91812-0.62472 2.0884-0.79632 3.1651-0.60662 0.90165 0.13767 1.7335 0.53437 2.558 0.9013-0.21606 0.82468-0.44275 1.6576-0.58703 2.5029-0.23856 1.3511-0.42554 2.7168-0.45795 4.0898-0.0306 0.12679 0.14726 0.23604 0.21681 0.10324 0.29814-0.66955 0.51702-1.3805 0.81828-2.0438 0.51007-1.1245 1.0577-2.271 1.9391-3.1505 0.12408-0.10832 0.23563-0.25397 0.37295-0.33157 1.4822-0.016 2.9747 0.0217 4.4025 0.46431 0.79652 0.25869 1.6151 0.66509 2.0685 1.4014 0.0936 0.12637 0.12768 0.31308 0.27118 0.39358 0.1688 5e-3 0.16906-0.2203 0.2392-0.33083 0.15652-0.39581 0.32433-0.78841 0.45841-1.1923-0.0192-0.15859-0.22957-0.18912-0.33386-0.28598-1.7164-1.0923-3.4466-2.1631-5.1538-3.2695-0.0909-0.0796 0.0783-0.23787 0.084-0.34664 0.6732-1.7404 1.3477-3.4803 2.0152-5.2229 0.0276-0.17644-0.20784-0.17808-0.32165-0.22795-0.4732-0.12874-0.9468-0.2668-1.4245-0.37202-0.14595 1.5e-4 -0.29189-4.7e-4 -0.43783 2.5e-4z" style="paint-order:markers stroke fill"/>
   <path transform="scale(.26458)" d="m276.67 284.73c-0.34084 0.0108-0.68653-0.0206-1.0245 0.0157-0.18005 0.062-0.39143 0.0698-0.55402 0.16587-0.0879 0.1226 0.0554 0.26808 0.0786 0.39772 0.66959 1.7655 1.362 3.5219 2.0302 5.2878-1.0534 0.6882-2.1275 1.3454-3.188 2.023-0.7611 0.48819-1.5358 0.95842-2.2868 1.4605-0.0732 0.15361 0.0571 0.31802 0.0913 0.46794 0.14614 0.37472 0.27944 0.75612 0.4515 1.1197 0.11003 0.12004 0.22334-0.0381 0.25367-0.14157 0.37865-0.80743 1.1864-1.2767 2.0018-1.564 1.0197-0.34513 2.1006-0.47811 3.1686-0.51838 0.49206-0.01 0.98713-0.0364 1.477 7e-3 0.58242 0.53191 1.0798 1.159 1.4578 1.8447 0.66372 1.1679 1.1473 2.4217 1.6033 3.6793 0.0687 0.12459 0.25251 0.0478 0.23489-0.0856-1e-3 -0.73902-0.0913-1.4757-0.16795-2.2101-0.16854-1.4764-0.46417-2.9367-0.86953-4.366-0.0277-0.10285 0.16676-0.0985 0.22976-0.1562 0.73924-0.32581 1.4854-0.66311 2.2904-0.78835 1.0595-0.19637 2.2142-0.0393 3.1288 0.55961 0.96791 0.61331 1.6168 1.6067 2.0611 2.6401 0.0214 0.12021 0.20502 0.17712 0.24467 0.0384 0.0467-0.37982 6e-3 -0.76711-3e-3 -1.1491-0.0478-1.1103-0.35068-2.2118-0.90123-3.1784-0.0953-0.1461-0.30053-0.061-0.44374-0.0849-2.9528 0.0321-5.9046 0.13645-8.8575 0.16034-0.0756-0.0912-0.0802-0.27265-0.1279-0.39867-0.4482-1.7159-0.88724-3.4342-1.3302-5.1515-0.0908-0.14274-0.29649-0.0473-0.43869-0.0749-0.20357 1.1e-4 -0.40713 2.2e-4 -0.61069 3.4e-4z" style="paint-order:markers stroke fill"/>
  </g>
  <path d="m62.135 28.572s1.1385 1.0683 2.4812 0.91525c0 0 0.39166-0.10844 0.35637-0.77358m-4.1363-0.11414s4.4367-0.21427 5.867 0.551" fill="none" stroke-width=".30609" style="paint-order:markers stroke fill"/>
 </g>
 <g fill="#ccc" stroke="#5a5a5a">
  <path d="m72.725 104.18c23.282-1.7316 36.326-13.766 36.326-13.766l-0.24768-1.1255c-16.677 10.649-36.656 11.775-36.656 11.775h-11.951s-19.979-1.1255-36.656-11.775l-0.24768 1.1255s13.044 12.035 36.326 13.766h6.5533z" stroke-width=".52917" style="paint-order:normal"/>
  <g stroke-width=".45741">
   <g transform="matrix(-1.1297 0 0 1.1847 141.21 -6.8342)">
    <path d="m28.578 82.269s-3.529-1.307-2.4833-8.0382c0 0 4.2478 3.3329 3.5943 7.6461" style="paint-order:normal"/>
    <path d="m33.432 85.678s-2.1759 3.0704-8.407 0.31829c0 0 4.3188-3.2405 8.3158-1.4929" style="paint-order:normal"/>
    <path d="m41.168 89.464s-1.9378 3.2259-8.359 0.95207c0 0 4.0618-3.5573 8.1794-2.1164" style="paint-order:normal"/>
    <path d="m35.733 85.822s-3.4606-1.4786-2.086-8.1503c0 0 4.0792 3.5373 3.2149 7.8132" style="paint-order:normal"/>
    <path d="m45.67 88.531s-0.98738-2.4254 2.9587-5.0516c0 0 0.28537 3.7463-2.2355 5.4376" style="paint-order:normal"/>
    <path d="m45.349 88.91s-2.5426-0.62681-2.3477-5.3629c0 0 3.1986 1.9712 3.0851 5.0047" style="paint-order:normal"/>
    <path d="m56.865 91.088s-2.2937-1.2635-0.87971-5.7878c0 0 2.5794 2.7318 1.6847 5.6326" style="paint-order:normal"/>
    <path d="m56.855 91.585s-2.3704 1.113-5.1995-2.6903c0 0 3.7262-0.48104 5.5471 1.9478" style="paint-order:normal"/>
    <path d="m52.796 92.61s1.5481 3.43-3.9778 7.4133c0 0-0.61091-5.3646 2.9184-7.9287" style="paint-order:normal"/>
    <path d="m52.1 92.556s-0.76366 3.6849-7.5755 3.6594c0 0 2.659-4.6992 7.0214-4.6991" style="paint-order:normal"/>
   </g>
   <g transform="matrix(1.1297 0 0 1.1847 -8.5747 -6.8342)">
    <path d="m28.578 82.269s-3.529-1.307-2.4833-8.0382c0 0 4.2478 3.3329 3.5943 7.6461" style="paint-order:normal"/>
    <path d="m33.432 85.678s-2.1759 3.0704-8.407 0.31829c0 0 4.3188-3.2405 8.3158-1.4929" style="paint-order:normal"/>
    <path d="m41.168 89.464s-1.9378 3.2259-8.359 0.95207c0 0 4.0618-3.5573 8.1794-2.1164" style="paint-order:normal"/>
    <path d="m35.733 85.822s-3.4606-1.4786-2.086-8.1503c0 0 4.0792 3.5373 3.2149 7.8132" style="paint-order:normal"/>
    <path d="m45.67 88.531s-0.98738-2.4254 2.9587-5.0516c0 0 0.28537 3.7463-2.2355 5.4376" style="paint-order:normal"/>
    <path d="m45.349 88.91s-2.5426-0.62681-2.3477-5.3629c0 0 3.1986 1.9712 3.0851 5.0047" style="paint-order:normal"/>
    <path d="m56.865 91.088s-2.2937-1.2635-0.87971-5.7878c0 0 2.5794 2.7318 1.6847 5.6326" style="paint-order:normal"/>
    <path d="m56.855 91.585s-2.3704 1.113-5.1995-2.6903c0 0 3.7262-0.48104 5.5471 1.9478" style="paint-order:normal"/>
    <path d="m52.796 92.61s1.5481 3.43-3.9778 7.4133c0 0-0.61091-5.3646 2.9184-7.9287" style="paint-order:normal"/>
    <path d="m52.1 92.556s-0.76366 3.6849-7.5755 3.6594c0 0 2.659-4.6992 7.0214-4.6991" style="paint-order:normal"/>
   </g>
   <g transform="matrix(1.1297 0 0 1.1847 -8.5747 -6.8342)">
    <path d="m64.604 93.851c0.0095-0.09524-0.3609 0.68574-2.5579 2.0463-1.8691 1.1575-4.7503 1.1693-5.1157-0.29233l-0.36541-1.4616s-0.36541 1.6809 0 2.4848c0.36541 0.8039 1.3155 1.3885 2.0463 1.5347 0.73081 0.14616 3.2156-0.51157 4.3118-1.3885 1.0962-0.87698 3.2887-2.9233 3.2887-2.9233" style="paint-order:normal"/>
    <path d="m67.746 93.851c0.0096-0.02877 0.60171 0.97196 2.5579 2.0463 1.927 1.0583 4.0926 1.6443 5.0426 0.03654l0.43849-1.7905s0.36541 1.6809 0 2.4848c-0.36541 0.8039-1.3155 1.3885-2.0463 1.5347-0.73081 0.14616-3.2156-0.51157-4.3118-1.3885-1.0962-0.87698-3.2887-2.9233-3.2887-2.9233" style="paint-order:normal"/>
    <path d="m64.914 90.635h2.815c0.29316 0 0.52917 0.23601 0.52917 0.52917v2.3765c0 0.29316-0.23601 0.52917-0.52917 0.52917h-2.815c-0.29316 0-0.52917-0.23601-0.52917-0.52917v-2.3765c0-0.29316 0.23601-0.52917 0.52917-0.52917z" style="paint-order:normal"/>
   </g>
  </g>
 </g>
</svg>
