<?xml version="1.0" encoding="UTF-8" standalone="no"?>
<!-- Created with Inkscape (http://www.inkscape.org/) -->

<svg
   xmlns:dc="http://purl.org/dc/elements/1.1/"
   xmlns:cc="http://creativecommons.org/ns#"
   xmlns:rdf="http://www.w3.org/1999/02/22-rdf-syntax-ns#"
   xmlns:svg="http://www.w3.org/2000/svg"
   xmlns="http://www.w3.org/2000/svg"
   xmlns:xlink="http://www.w3.org/1999/xlink"
   xmlns:sodipodi="http://sodipodi.sourceforge.net/DTD/sodipodi-0.dtd"
   xmlns:inkscape="http://www.inkscape.org/namespaces/inkscape"
   width="400"
   height="84"
   viewBox="0 0 105.83333 22.225"
   version="1.1"
   id="svg8"
   inkscape:version="0.92.5 (2060ec1f9f, 2020-04-08)"
   sodipodi:docname="desc_wintry_mix.svg">
  <defs
     id="defs2">
    <linearGradient
       inkscape:collect="always"
       id="linearGradient2968">
      <stop
         style="stop-color:#008000;stop-opacity:1;"
         offset="0"
         id="stop2964" />
      <stop
         style="stop-color:#00ff00;stop-opacity:1"
         offset="1"
         id="stop2966" />
    </linearGradient>
    <linearGradient
       inkscape:collect="always"
       id="linearGradient1418">
      <stop
         style="stop-color:#00ffcc;stop-opacity:1"
         offset="0"
         id="stop1414" />
      <stop
         style="stop-color:#afc6e9;stop-opacity:1"
         offset="1"
         id="stop1416" />
    </linearGradient>
    <linearGradient
       gradientTransform="translate(-1.6742626e-6,-274.77501)"
       inkscape:collect="always"
       xlink:href="#linearGradient1418"
       id="linearGradient2282-1"
       x1="52.916664"
       y1="294.58093"
       x2="52.916664"
       y2="279.46188"
       gradientUnits="userSpaceOnUse" />
    <linearGradient
       inkscape:collect="always"
       xlink:href="#linearGradient2968"
       id="linearGradient2970"
       x1="53.840466"
       y1="17.82637"
       x2="53.503448"
       y2="-6.0814748"
       gradientUnits="userSpaceOnUse" />
    <filter
       inkscape:collect="always"
       style="color-interpolation-filters:sRGB"
       id="filter1042"
       x="-0.021193594"
       width="1.0423872"
       y="-0.15199017"
       height="1.3039803">
      <feGaussianBlur
         inkscape:collect="always"
         stdDeviation="0.90876446"
         id="feGaussianBlur1044" />
    </filter>
    <filter
       inkscape:collect="always"
       style="color-interpolation-filters:sRGB"
       id="filter1042-4"
       x="-0.021193594"
       width="1.0423872"
       y="-0.15199018"
       height="1.3039804">
      <feGaussianBlur
         inkscape:collect="always"
         stdDeviation="0.90876446"
         id="feGaussianBlur1044-5" />
    </filter>
  </defs>
  <sodipodi:namedview
     id="base"
     pagecolor="#ffffff"
     bordercolor="#666666"
     borderopacity="1.0"
     inkscape:pageopacity="0.0"
     inkscape:pageshadow="2"
     inkscape:zoom="1.979899"
     inkscape:cx="194.93194"
     inkscape:cy="71.335781"
     inkscape:document-units="px"
     inkscape:current-layer="text855-3"
     showgrid="false"
     inkscape:window-width="1366"
     inkscape:window-height="715"
     inkscape:window-x="-8"
     inkscape:window-y="-8"
     inkscape:window-maximized="1"
     showguides="true"
     inkscape:guide-bbox="true"
     units="px"
     inkscape:lockguides="false"
     inkscape:snap-center="true"
     inkscape:snap-global="false">
    <sodipodi:guide
       position="52.916666,11.1125"
       orientation="1,0"
       id="guide825"
       inkscape:locked="false"
       inkscape:label=""
       inkscape:color="rgb(0,0,255)" />
    <sodipodi:guide
       position="52.916666,11.1125"
       orientation="0,1"
       id="guide827"
       inkscape:locked="false"
       inkscape:label=""
       inkscape:color="rgb(0,0,255)" />
  </sodipodi:namedview>
  <metadata
     id="metadata5">
    <rdf:RDF>
      <cc:Work
         rdf:about="">
        <dc:format>image/svg+xml</dc:format>
        <dc:type
           rdf:resource="http://purl.org/dc/dcmitype/StillImage" />
        <dc:title></dc:title>
      </cc:Work>
    </rdf:RDF>
  </metadata>
  <g
     inkscape:groupmode="layer"
     id="layer3"
     inkscape:label="Text"
     style="display:none"
     sodipodi:insensitive="true">
    <use
       x="0"
       y="0"
       xlink:href="#text868"
       id="use912"
       width="100%"
       height="100%"
       inkscape:label="shadow"
       transform="translate(0.5469766,0.52916666)"
       style="stroke-width:0.98358488;filter:url(#filter1042)" />
    <text
       xml:space="preserve"
       style="font-style:italic;font-variant:normal;font-weight:bold;font-stretch:normal;font-size:11.20562458px;line-height:1.25;font-family:Scheherazade;-inkscape-font-specification:'Scheherazade Bold Italic';text-align:center;text-anchor:middle;opacity:1;vector-effect:none;fill:#000000;fill-opacity:1;stroke:#000000;stroke-width:0.79374999;stroke-linecap:butt;stroke-linejoin:miter;stroke-miterlimit:4;stroke-dasharray:none;stroke-dashoffset:0;stroke-opacity:1;paint-order:stroke fill markers"
       x="66.154312"
       y="13.583087"
       id="text868"
       transform="scale(0.80005402,1.2499156)"
       inkscape:label="text_orig"><tspan
         sodipodi:role="line"
         id="tspan866"
         x="66.154312"
         y="13.583087"
         style="font-style:italic;font-variant:normal;font-weight:bold;font-stretch:normal;font-family:sans-serif;-inkscape-font-specification:'sans-serif Bold Italic';text-align:center;text-anchor:middle;fill:#000000;stroke:#000000;stroke-width:0.79374999;stroke-miterlimit:4;stroke-dasharray:none">MÉLANGE HIVERNAL</tspan></text>
    <text
       inkscape:label="text_dupl"
       transform="scale(0.80005402,1.2499156)"
       id="text855"
       y="13.583087"
       x="66.154312"
       style="font-style:italic;font-variant:normal;font-weight:bold;font-stretch:normal;font-size:11.20562458px;line-height:1.25;font-family:Scheherazade;-inkscape-font-specification:'Scheherazade Bold Italic';text-align:center;text-anchor:middle;opacity:1;vector-effect:none;fill:#2ca089;fill-opacity:1;stroke:#000000;stroke-width:0.79374999;stroke-linecap:butt;stroke-linejoin:miter;stroke-miterlimit:4;stroke-dasharray:none;stroke-dashoffset:0;stroke-opacity:1;paint-order:stroke fill markers"
       xml:space="preserve"><tspan
         style="font-style:italic;font-variant:normal;font-weight:bold;font-stretch:normal;font-family:sans-serif;-inkscape-font-specification:'sans-serif Bold Italic';text-align:center;text-anchor:middle;fill:#2ca089;stroke:#000000;stroke-width:0.79374999;stroke-miterlimit:4;stroke-dasharray:none"
         y="13.583087"
         x="66.154312"
         id="tspan853"
         sodipodi:role="line">MÉLANGE HIVERNAL</tspan></text>
  </g>
  <g
     inkscape:groupmode="layer"
     id="layer1"
     inkscape:label="Flattened"
     style="display:inline">
    <g
       id="g895">
      <use
         style="display:inline;stroke-width:0.98358488;filter:url(#filter1042-4)"
         transform="translate(0.54697661,0.52916662)"
         inkscape:label="shadow"
         height="100%"
         width="100%"
         id="use912-5"
         xlink:href="#text868-8"
         y="0"
         x="0" />
      <g
         aria-label="MÉLANGE HIVERNAL"
         transform="scale(0.80005402,1.2499156)"
         style="font-style:italic;font-variant:normal;font-weight:bold;font-stretch:normal;font-size:11.20562458px;line-height:1.25;font-family:Scheherazade;-inkscape-font-specification:'Scheherazade Bold Italic';text-align:center;text-anchor:middle;display:inline;opacity:1;vector-effect:none;fill:#000000;fill-opacity:1;stroke:#000000;stroke-width:0.79374999;stroke-linecap:butt;stroke-linejoin:miter;stroke-miterlimit:4;stroke-dasharray:none;stroke-dashoffset:0;stroke-opacity:1;paint-order:stroke fill markers"
         id="text868-8">
        <path
           d="M 3.7464245,5.4141429 H 6.3344422 L 7.3849695,9.7530395 10.142604,5.4141429 H 12.83458 L 11.242374,13.583087 H 9.2452783 L 10.410707,7.553498 7.5764719,12.012768 H 6.4438722 L 5.3167439,7.553498 4.1513152,13.583087 H 2.154219 Z"
           style="font-style:italic;font-variant:normal;font-weight:bold;font-stretch:normal;font-family:sans-serif;-inkscape-font-specification:'sans-serif Bold Italic';text-align:center;text-anchor:middle;fill:#000000;stroke:#000000;stroke-width:0.79374999;stroke-miterlimit:4;stroke-dasharray:none"
           id="path897"
           inkscape:connector-curvature="0" />
        <path
           d="m 14.908277,5.4141429 h 5.679414 l -0.311876,1.5922054 h -3.572887 l -0.295461,1.521076 h 3.364971 L 19.455091,10.11963 h -3.359499 l -0.361119,1.871252 h 3.687789 l -0.300932,1.592205 h -5.805258 z m 3.611188,-2.2214276 h 1.532019 l -1.745407,1.4444751 h -1.1326 z"
           style="font-style:italic;font-variant:normal;font-weight:bold;font-stretch:normal;font-family:sans-serif;-inkscape-font-specification:'sans-serif Bold Italic';text-align:center;text-anchor:middle;fill:#000000;stroke:#000000;stroke-width:0.79374999;stroke-miterlimit:4;stroke-dasharray:none"
           id="path899"
           inkscape:connector-curvature="0" />
        <path
           d="m 22.568372,5.4141429 h 2.106526 l -1.28033,6.5767391 h 3.687788 l -0.300932,1.592205 h -5.805258 z"
           style="font-style:italic;font-variant:normal;font-weight:bold;font-stretch:normal;font-family:sans-serif;-inkscape-font-specification:'sans-serif Bold Italic';text-align:center;text-anchor:middle;fill:#000000;stroke:#000000;stroke-width:0.79374999;stroke-miterlimit:4;stroke-dasharray:none"
           id="path901"
           inkscape:connector-curvature="0" />
        <path
           d="m 33.38005,12.09484 h -3.261012 l -0.809782,1.488247 h -2.161241 l 4.617943,-8.1689441 h 2.407458 l 1.444476,8.1689441 h -2.002568 z m -2.467645,-1.482776 h 2.19407 L 32.61404,7.465954 Z"
           style="font-style:italic;font-variant:normal;font-weight:bold;font-stretch:normal;font-family:sans-serif;-inkscape-font-specification:'sans-serif Bold Italic';text-align:center;text-anchor:middle;fill:#000000;stroke:#000000;stroke-width:0.79374999;stroke-miterlimit:4;stroke-dasharray:none"
           id="path903"
           inkscape:connector-curvature="0" />
        <path
           d="m 38.370055,5.4141429 h 2.352743 L 42.59405,11.07167 43.693821,5.4141429 h 1.991625 L 44.09324,13.583087 H 41.740497 L 39.869245,7.9255597 38.774946,13.583087 H 36.77785 Z"
           style="font-style:italic;font-variant:normal;font-weight:bold;font-stretch:normal;font-family:sans-serif;-inkscape-font-specification:'sans-serif Bold Italic';text-align:center;text-anchor:middle;fill:#000000;stroke:#000000;stroke-width:0.79374999;stroke-miterlimit:4;stroke-dasharray:none"
           id="path905"
           inkscape:connector-curvature="0" />
        <path
           d="m 53.5644,12.975751 q -0.798838,0.388476 -1.657863,0.579978 -0.859025,0.186031 -1.838423,0.186031 -1.739936,0 -2.735748,-0.880911 -0.995812,-0.886382 -0.995812,-2.412929 0,-0.9903413 0.311875,-1.8548377 0.311875,-0.869968 0.930154,-1.586734 0.755067,-0.8754394 1.778237,-1.3076876 1.028641,-0.4322482 2.347272,-0.4322482 0.73318,0 1.477304,0.1532019 0.744123,0.1532019 1.466361,0.4541342 L 54.324938,7.564441 Q 53.657416,7.1759647 53.017251,6.9844623 52.382557,6.79296 51.736921,6.79296 q -1.411647,0 -2.298029,0.9410973 -0.886382,0.9410974 -0.886382,2.4184017 0,0.979398 0.51432,1.521076 0.519792,0.541678 1.46089,0.541678 0.306404,0 0.612807,-0.0383 0.306404,-0.04377 0.61828,-0.131316 l 0.311875,-1.586733 H 50.78488 l 0.268103,-1.4116465 h 3.271955 z"
           style="font-style:italic;font-variant:normal;font-weight:bold;font-stretch:normal;font-family:sans-serif;-inkscape-font-specification:'sans-serif Bold Italic';text-align:center;text-anchor:middle;fill:#000000;stroke:#000000;stroke-width:0.79374999;stroke-miterlimit:4;stroke-dasharray:none"
           id="path907"
           inkscape:connector-curvature="0" />
        <path
           d="m 56.951255,5.4141429 h 5.679413 l -0.311875,1.5922054 h -3.572888 l -0.29546,1.521076 h 3.36497 L 61.498068,10.11963 h -3.359499 l -0.361118,1.871252 h 3.687788 l -0.300932,1.592205 h -5.805258 z"
           style="font-style:italic;font-variant:normal;font-weight:bold;font-stretch:normal;font-family:sans-serif;-inkscape-font-specification:'sans-serif Bold Italic';text-align:center;text-anchor:middle;fill:#000000;stroke:#000000;stroke-width:0.79374999;stroke-miterlimit:4;stroke-dasharray:none"
           id="path909"
           inkscape:connector-curvature="0" />
        <path
           d="m 68.507052,5.4141429 h 2.106526 l -0.607336,3.1132814 h 3.10781 l 0.601865,-3.1132814 h 2.106526 l -1.592206,8.1689441 h -2.106526 l 0.672994,-3.463457 h -3.102338 l -0.672994,3.463457 h -2.106526 z"
           style="font-style:italic;font-variant:normal;font-weight:bold;font-stretch:normal;font-family:sans-serif;-inkscape-font-specification:'sans-serif Bold Italic';text-align:center;text-anchor:middle;fill:#000000;stroke:#000000;stroke-width:0.79374999;stroke-miterlimit:4;stroke-dasharray:none"
           id="path911"
           inkscape:connector-curvature="0" />
        <path
           d="M 77.896144,5.4141429 H 80.00267 L 78.410464,13.583087 H 76.303938 Z"
           style="font-style:italic;font-variant:normal;font-weight:bold;font-stretch:normal;font-family:sans-serif;-inkscape-font-specification:'sans-serif Bold Italic';text-align:center;text-anchor:middle;fill:#000000;stroke:#000000;stroke-width:0.79374999;stroke-miterlimit:4;stroke-dasharray:none"
           id="path913"
           inkscape:connector-curvature="0" />
        <path
           d="m 81.102439,5.4141429 h 2.002568 l 1.001283,6.1061901 3.381385,-6.1061901 h 2.172184 l -4.612471,8.1689441 h -2.511417 z"
           style="font-style:italic;font-variant:normal;font-weight:bold;font-stretch:normal;font-family:sans-serif;-inkscape-font-specification:'sans-serif Bold Italic';text-align:center;text-anchor:middle;fill:#000000;stroke:#000000;stroke-width:0.79374999;stroke-miterlimit:4;stroke-dasharray:none"
           id="path915"
           inkscape:connector-curvature="0" />
        <path
           d="m 90.74322,5.4141429 h 5.679413 l -0.311875,1.5922054 h -3.572887 l -0.295461,1.521076 h 3.36497 L 95.290034,10.11963 h -3.359499 l -0.361119,1.871252 h 3.687789 l -0.300933,1.592205 h -5.805257 z"
           style="font-style:italic;font-variant:normal;font-weight:bold;font-stretch:normal;font-family:sans-serif;-inkscape-font-specification:'sans-serif Bold Italic';text-align:center;text-anchor:middle;fill:#000000;stroke:#000000;stroke-width:0.79374999;stroke-miterlimit:4;stroke-dasharray:none"
           id="path917"
           inkscape:connector-curvature="0" />
        <path
           d="m 100.69039,9.0362735 q 0.71677,0 1.08336,-0.3337613 0.37206,-0.3337613 0.37206,-0.9793979 0,-0.4048907 -0.25716,-0.5909216 -0.25169,-0.1915023 -0.79884,-0.1915023 h -0.86997 l -0.415829,2.0955831 z m -1.165426,1.4554185 -0.607336,3.091395 h -2.106526 l 1.592206,-8.1689441 h 3.113282 q 1.34599,0 2.04087,0.5033776 0.69488,0.5033777 0.69488,1.4827756 0,0.9903408 -0.54715,1.6305059 -0.54715,0.6401651 -1.48278,0.7331805 0.42678,0.087544 0.7113,0.4377195 0.28451,0.344704 0.4979,1.061471 l 0.69488,2.319914 h -2.09558 l -0.61281,-2.029925 q -0.18603,-0.607336 -0.45413,-0.831668 -0.26263,-0.229802 -0.76601,-0.229802 z"
           style="font-style:italic;font-variant:normal;font-weight:bold;font-stretch:normal;font-family:sans-serif;-inkscape-font-specification:'sans-serif Bold Italic';text-align:center;text-anchor:middle;fill:#000000;stroke:#000000;stroke-width:0.79374999;stroke-miterlimit:4;stroke-dasharray:none"
           id="path919"
           inkscape:connector-curvature="0" />
        <path
           d="m 107.02639,5.4141429 h 2.35275 l 1.87125,5.6575271 1.09977,-5.6575271 h 1.99162 l -1.5922,8.1689441 h -2.35275 l -1.87125,-5.6575273 -1.0943,5.6575273 h -1.99709 z"
           style="font-style:italic;font-variant:normal;font-weight:bold;font-stretch:normal;font-family:sans-serif;-inkscape-font-specification:'sans-serif Bold Italic';text-align:center;text-anchor:middle;fill:#000000;stroke:#000000;stroke-width:0.79374999;stroke-miterlimit:4;stroke-dasharray:none"
           id="path921"
           inkscape:connector-curvature="0" />
        <path
           d="m 120.09232,12.09484 h -3.26101 l -0.80978,1.488247 h -2.16124 l 4.61794,-8.1689441 h 2.40746 l 1.44447,8.1689441 h -2.00256 z m -2.46764,-1.482776 h 2.19407 l -0.49244,-3.14611 z"
           style="font-style:italic;font-variant:normal;font-weight:bold;font-stretch:normal;font-family:sans-serif;-inkscape-font-specification:'sans-serif Bold Italic';text-align:center;text-anchor:middle;fill:#000000;stroke:#000000;stroke-width:0.79374999;stroke-miterlimit:4;stroke-dasharray:none"
           id="path923"
           inkscape:connector-curvature="0" />
        <path
           d="m 125.08232,5.4141429 h 2.10653 l -1.28033,6.5767391 h 3.68779 l -0.30093,1.592205 h -5.80526 z"
           style="font-style:italic;font-variant:normal;font-weight:bold;font-stretch:normal;font-family:sans-serif;-inkscape-font-specification:'sans-serif Bold Italic';text-align:center;text-anchor:middle;fill:#000000;stroke:#000000;stroke-width:0.79374999;stroke-miterlimit:4;stroke-dasharray:none"
           id="path925"
           inkscape:connector-curvature="0" />
      </g>
      <g
         aria-label="MÉLANGE HIVERNAL"
         transform="scale(0.80005402,1.2499156)"
         style="font-style:italic;font-variant:normal;font-weight:bold;font-stretch:normal;font-size:11.20562458px;line-height:1.25;font-family:Scheherazade;-inkscape-font-specification:'Scheherazade Bold Italic';text-align:center;text-anchor:middle;display:inline;opacity:1;vector-effect:none;fill:#2ca089;fill-opacity:1;stroke:#000000;stroke-width:0.79374999;stroke-linecap:butt;stroke-linejoin:miter;stroke-miterlimit:4;stroke-dasharray:none;stroke-dashoffset:0;stroke-opacity:1;paint-order:stroke fill markers"
         id="text855-3">
        <path
           d="M 3.7464245,5.4141429 H 6.3344422 L 7.3849695,9.7530395 10.142604,5.4141429 H 12.83458 L 11.242374,13.583087 H 9.2452783 L 10.410707,7.553498 7.5764719,12.012768 H 6.4438722 L 5.3167439,7.553498 4.1513152,13.583087 H 2.154219 Z"
           style="font-style:italic;font-variant:normal;font-weight:bold;font-stretch:normal;font-family:sans-serif;-inkscape-font-specification:'sans-serif Bold Italic';text-align:center;text-anchor:middle;fill:#2ca089;stroke:#000000;stroke-width:0.79374999;stroke-miterlimit:4;stroke-dasharray:none"
           id="path928"
           inkscape:connector-curvature="0" />
        <path
           d="m 14.908277,5.4141429 h 5.679414 l -0.311876,1.5922054 h -3.572887 l -0.295461,1.521076 h 3.364971 L 19.455091,10.11963 h -3.359499 l -0.361119,1.871252 h 3.687789 l -0.300932,1.592205 h -5.805258 z m 3.611188,-2.2214276 h 1.532019 l -1.745407,1.4444751 h -1.1326 z"
           style="font-style:italic;font-variant:normal;font-weight:bold;font-stretch:normal;font-family:sans-serif;-inkscape-font-specification:'sans-serif Bold Italic';text-align:center;text-anchor:middle;fill:#2ca089;stroke:#000000;stroke-width:0.79374999;stroke-miterlimit:4;stroke-dasharray:none"
           id="path930"
           inkscape:connector-curvature="0" />
        <path
           d="m 22.568372,5.4141429 h 2.106526 l -1.28033,6.5767391 h 3.687788 l -0.300932,1.592205 h -5.805258 z"
           style="font-style:italic;font-variant:normal;font-weight:bold;font-stretch:normal;font-family:sans-serif;-inkscape-font-specification:'sans-serif Bold Italic';text-align:center;text-anchor:middle;fill:#2ca089;stroke:#000000;stroke-width:0.79374999;stroke-miterlimit:4;stroke-dasharray:none"
           id="path932"
           inkscape:connector-curvature="0" />
        <path
           d="m 33.38005,12.09484 h -3.261012 l -0.809782,1.488247 h -2.161241 l 4.617943,-8.1689441 h 2.407458 l 1.444476,8.1689441 h -2.002568 z m -2.467645,-1.482776 h 2.19407 L 32.61404,7.465954 Z"
           style="font-style:italic;font-variant:normal;font-weight:bold;font-stretch:normal;font-family:sans-serif;-inkscape-font-specification:'sans-serif Bold Italic';text-align:center;text-anchor:middle;fill:#2ca089;stroke:#000000;stroke-width:0.79374999;stroke-miterlimit:4;stroke-dasharray:none"
           id="path934"
           inkscape:connector-curvature="0" />
        <path
           d="m 38.370055,5.4141429 h 2.352743 L 42.59405,11.07167 43.693821,5.4141429 h 1.991625 L 44.09324,13.583087 H 41.740497 L 39.869245,7.9255597 38.774946,13.583087 H 36.77785 Z"
           style="font-style:italic;font-variant:normal;font-weight:bold;font-stretch:normal;font-family:sans-serif;-inkscape-font-specification:'sans-serif Bold Italic';text-align:center;text-anchor:middle;fill:#2ca089;stroke:#000000;stroke-width:0.79374999;stroke-miterlimit:4;stroke-dasharray:none"
           id="path936"
           inkscape:connector-curvature="0" />
        <path
           d="m 53.5644,12.975751 q -0.798838,0.388476 -1.657863,0.579978 -0.859025,0.186031 -1.838423,0.186031 -1.739936,0 -2.735748,-0.880911 -0.995812,-0.886382 -0.995812,-2.412929 0,-0.9903413 0.311875,-1.8548377 0.311875,-0.869968 0.930154,-1.586734 0.755067,-0.8754394 1.778237,-1.3076876 1.028641,-0.4322482 2.347272,-0.4322482 0.73318,0 1.477304,0.1532019 0.744123,0.1532019 1.466361,0.4541342 L 54.324938,7.564441 Q 53.657416,7.1759647 53.017251,6.9844623 52.382557,6.79296 51.736921,6.79296 q -1.411647,0 -2.298029,0.9410973 -0.886382,0.9410974 -0.886382,2.4184017 0,0.979398 0.51432,1.521076 0.519792,0.541678 1.46089,0.541678 0.306404,0 0.612807,-0.0383 0.306404,-0.04377 0.61828,-0.131316 l 0.311875,-1.586733 H 50.78488 l 0.268103,-1.4116465 h 3.271955 z"
           style="font-style:italic;font-variant:normal;font-weight:bold;font-stretch:normal;font-family:sans-serif;-inkscape-font-specification:'sans-serif Bold Italic';text-align:center;text-anchor:middle;fill:#2ca089;stroke:#000000;stroke-width:0.79374999;stroke-miterlimit:4;stroke-dasharray:none"
           id="path938"
           inkscape:connector-curvature="0" />
        <path
           d="m 56.951255,5.4141429 h 5.679413 l -0.311875,1.5922054 h -3.572888 l -0.29546,1.521076 h 3.36497 L 61.498068,10.11963 h -3.359499 l -0.361118,1.871252 h 3.687788 l -0.300932,1.592205 h -5.805258 z"
           style="font-style:italic;font-variant:normal;font-weight:bold;font-stretch:normal;font-family:sans-serif;-inkscape-font-specification:'sans-serif Bold Italic';text-align:center;text-anchor:middle;fill:#2ca089;stroke:#000000;stroke-width:0.79374999;stroke-miterlimit:4;stroke-dasharray:none"
           id="path940"
           inkscape:connector-curvature="0" />
        <path
           d="m 68.507052,5.4141429 h 2.106526 l -0.607336,3.1132814 h 3.10781 l 0.601865,-3.1132814 h 2.106526 l -1.592206,8.1689441 h -2.106526 l 0.672994,-3.463457 h -3.102338 l -0.672994,3.463457 h -2.106526 z"
           style="font-style:italic;font-variant:normal;font-weight:bold;font-stretch:normal;font-family:sans-serif;-inkscape-font-specification:'sans-serif Bold Italic';text-align:center;text-anchor:middle;fill:#2ca089;stroke:#000000;stroke-width:0.79374999;stroke-miterlimit:4;stroke-dasharray:none"
           id="path942"
           inkscape:connector-curvature="0" />
        <path
           d="M 77.896144,5.4141429 H 80.00267 L 78.410464,13.583087 H 76.303938 Z"
           style="font-style:italic;font-variant:normal;font-weight:bold;font-stretch:normal;font-family:sans-serif;-inkscape-font-specification:'sans-serif Bold Italic';text-align:center;text-anchor:middle;fill:#2ca089;stroke:#000000;stroke-width:0.79374999;stroke-miterlimit:4;stroke-dasharray:none"
           id="path944"
           inkscape:connector-curvature="0" />
        <path
           d="m 81.102439,5.4141429 h 2.002568 l 1.001283,6.1061901 3.381385,-6.1061901 h 2.172184 l -4.612471,8.1689441 h -2.511417 z"
           style="font-style:italic;font-variant:normal;font-weight:bold;font-stretch:normal;font-family:sans-serif;-inkscape-font-specification:'sans-serif Bold Italic';text-align:center;text-anchor:middle;fill:#2ca089;stroke:#000000;stroke-width:0.79374999;stroke-miterlimit:4;stroke-dasharray:none"
           id="path946"
           inkscape:connector-curvature="0" />
        <path
           d="m 90.74322,5.4141429 h 5.679413 l -0.311875,1.5922054 h -3.572887 l -0.295461,1.521076 h 3.36497 L 95.290034,10.11963 h -3.359499 l -0.361119,1.871252 h 3.687789 l -0.300933,1.592205 h -5.805257 z"
           style="font-style:italic;font-variant:normal;font-weight:bold;font-stretch:normal;font-family:sans-serif;-inkscape-font-specification:'sans-serif Bold Italic';text-align:center;text-anchor:middle;fill:#2ca089;stroke:#000000;stroke-width:0.79374999;stroke-miterlimit:4;stroke-dasharray:none"
           id="path948"
           inkscape:connector-curvature="0" />
        <path
           d="m 100.69039,9.0362735 q 0.71677,0 1.08336,-0.3337613 0.37206,-0.3337613 0.37206,-0.9793979 0,-0.4048907 -0.25716,-0.5909216 -0.25169,-0.1915023 -0.79884,-0.1915023 h -0.86997 l -0.415829,2.0955831 z m -1.165426,1.4554185 -0.607336,3.091395 h -2.106526 l 1.592206,-8.1689441 h 3.113282 q 1.34599,0 2.04087,0.5033776 0.69488,0.5033777 0.69488,1.4827756 0,0.9903408 -0.54715,1.6305059 -0.54715,0.6401651 -1.48278,0.7331805 0.42678,0.087544 0.7113,0.4377195 0.28451,0.344704 0.4979,1.061471 l 0.69488,2.319914 h -2.09558 l -0.61281,-2.029925 q -0.18603,-0.607336 -0.45413,-0.831668 -0.26263,-0.229802 -0.76601,-0.229802 z"
           style="font-style:italic;font-variant:normal;font-weight:bold;font-stretch:normal;font-family:sans-serif;-inkscape-font-specification:'sans-serif Bold Italic';text-align:center;text-anchor:middle;fill:#2ca089;stroke:#000000;stroke-width:0.79374999;stroke-miterlimit:4;stroke-dasharray:none"
           id="path950"
           inkscape:connector-curvature="0" />
        <path
           d="m 107.02639,5.4141429 h 2.35275 l 1.87125,5.6575271 1.09977,-5.6575271 h 1.99162 l -1.5922,8.1689441 h -2.35275 l -1.87125,-5.6575273 -1.0943,5.6575273 h -1.99709 z"
           style="font-style:italic;font-variant:normal;font-weight:bold;font-stretch:normal;font-family:sans-serif;-inkscape-font-specification:'sans-serif Bold Italic';text-align:center;text-anchor:middle;fill:#2ca089;stroke:#000000;stroke-width:0.79374999;stroke-miterlimit:4;stroke-dasharray:none"
           id="path952"
           inkscape:connector-curvature="0" />
        <path
           d="m 120.09232,12.09484 h -3.26101 l -0.80978,1.488247 h -2.16124 l 4.61794,-8.1689441 h 2.40746 l 1.44447,8.1689441 h -2.00256 z m -2.46764,-1.482776 h 2.19407 l -0.49244,-3.14611 z"
           style="font-style:italic;font-variant:normal;font-weight:bold;font-stretch:normal;font-family:sans-serif;-inkscape-font-specification:'sans-serif Bold Italic';text-align:center;text-anchor:middle;fill:#2ca089;stroke:#000000;stroke-width:0.79374999;stroke-miterlimit:4;stroke-dasharray:none"
           id="path954"
           inkscape:connector-curvature="0" />
        <path
           d="m 125.08232,5.4141429 h 2.10653 l -1.28033,6.5767391 h 3.68779 l -0.30093,1.592205 h -5.80526 z"
           style="font-style:italic;font-variant:normal;font-weight:bold;font-stretch:normal;font-family:sans-serif;-inkscape-font-specification:'sans-serif Bold Italic';text-align:center;text-anchor:middle;fill:#2ca089;stroke:#000000;stroke-width:0.79374999;stroke-miterlimit:4;stroke-dasharray:none"
           id="path956"
           inkscape:connector-curvature="0" />
      </g>
    </g>
  </g>
</svg>
